mtllib grass_00_00.mtl
o map
v -8.0 -16.0 0.0
v -8.0 -8.0 0.0
v -16.0 -8.0 0.0
v -16.0 -16.0 0.0
v -8.0 -8.0 0.0
v -8.0 0.0 0.0
v -16.0 0.0 0.0
v -16.0 -8.0 0.0
v -8.0 0.0 0.0
v -8.0 8.0 0.0
v -16.0 8.0 0.0
v -16.0 0.0 0.0
v -8.0 8.0 0.0
v -8.0 16.0 0.0
v -16.0 16.0 0.0
v -16.0 8.0 0.0
v 0.0 -16.0 0.0
v 0.0 -8.0 0.0
v -8.0 -8.0 0.0
v -8.0 -16.0 0.0
v 0.0 -8.0 0.0
v 0.0 0.0 0.0
v -8.0 0.0 0.0
v -8.0 -8.0 0.0
v 0.0 0.0 0.0
v 0.0 8.0 0.0
v -8.0 8.0 0.0
v -8.0 0.0 0.0
v 0.0 8.0 0.0
v 0.0 16.0 0.0
v -8.0 16.0 0.0
v -8.0 8.0 0.0
v 8.0 -16.0 0.0
v 8.0 -8.0 0.0
v 0.0 -8.0 0.0
v 0.0 -16.0 0.0
v 8.0 -8.0 0.0
v 8.0 0.0 0.0
v 0.0 0.0 0.0
v 0.0 -8.0 0.0
v 8.0 0.0 0.0
v 8.0 8.0 0.0
v 0.0 8.0 0.0
v 0.0 0.0 0.0
v 8.0 8.0 0.0
v 8.0 16.0 0.0
v 0.0 16.0 0.0
v 0.0 8.0 0.0
v 16.0 -16.0 0.0
v 16.0 -8.0 0.0
v 8.0 -8.0 0.0
v 8.0 -16.0 0.0
v 16.0 -8.0 0.0
v 16.0 0.0 0.0
v 8.0 0.0 0.0
v 8.0 -8.0 0.0
v 16.0 0.0 0.0
v 16.0 8.0 0.0
v 8.0 8.0 0.0
v 8.0 0.0 0.0
v 16.0 8.0 0.0
v 16.0 16.0 0.0
v 8.0 16.0 0.0
v 8.0 8.0 0.0
vt 8.0 -8.0
vt 16.0 -8.0
vt 16.0 0.0
vt 8.0 0.0
vt 8.0 -8.0
vt 16.0 -8.0
vt 16.0 0.0
vt 8.0 0.0
vt 8.0 -8.0
vt 16.0 -8.0
vt 16.0 0.0
vt 8.0 0.0
vt 8.0 -8.0
vt 16.0 -8.0
vt 16.0 0.0
vt 8.0 0.0
vt 8.0 -8.0
vt 16.0 -8.0
vt 16.0 0.0
vt 8.0 0.0
vt 8.0 -8.0
vt 16.0 -8.0
vt 16.0 0.0
vt 8.0 0.0
vt 8.0 -8.0
vt 16.0 -8.0
vt 16.0 0.0
vt 8.0 0.0
vt 8.0 -8.0
vt 16.0 -8.0
vt 16.0 0.0
vt 8.0 0.0
vt 8.0 -8.0
vt 16.0 -8.0
vt 16.0 0.0
vt 8.0 0.0
vt 8.0 -8.0
vt 16.0 -8.0
vt 16.0 0.0
vt 8.0 0.0
vt 8.0 -8.0
vt 16.0 -8.0
vt 16.0 0.0
vt 8.0 0.0
vt 8.0 -8.0
vt 16.0 -8.0
vt 16.0 0.0
vt 8.0 0.0
vt 8.0 -8.0
vt 16.0 -8.0
vt 16.0 0.0
vt 8.0 0.0
vt 8.0 -8.0
vt 16.0 -8.0
vt 16.0 0.0
vt 8.0 0.0
vt 8.0 -8.0
vt 16.0 -8.0
vt 16.0 0.0
vt 8.0 0.0
vt 8.0 -8.0
vt 16.0 -8.0
vt 16.0 0.0
vt 8.0 0.0
vn 0.0 -0.0 1.0
vn 0.0 -0.0 1.0
vn 0.0 -0.0 1.0
vn 0.0 -0.0 1.0
vn 0.0 -0.0 1.0
vn 0.0 -0.0 1.0
vn 0.0 -0.0 1.0
vn 0.0 -0.0 1.0
vn 0.0 -0.0 1.0
vn 0.0 -0.0 1.0
vn 0.0 -0.0 1.0
vn 0.0 -0.0 1.0
vn 0.0 -0.0 1.0
vn 0.0 -0.0 1.0
vn 0.0 -0.0 1.0
vn 0.0 -0.0 1.0
c 1.0 1.0 1.0
c 1.0 1.0 1.0
c 1.0 1.0 1.0
c 1.0 1.0 1.0
c 1.0 1.0 1.0
c 1.0 1.0 1.0
c 1.0 1.0 1.0
c 1.0 1.0 1.0
c 1.0 1.0 1.0
c 1.0 1.0 1.0
c 1.0 1.0 1.0
c 1.0 1.0 1.0
c 1.0 1.0 1.0
c 1.0 1.0 1.0
c 1.0 1.0 1.0
c 1.0 1.0 1.0
usemtl grass02
s off
f 4/1/1/1 1/2/1/1 2/3/1/1 3/4/1/1
f 8/5/2/2 5/6/2/2 6/7/2/2 7/8/2/2
f 12/9/3/3 9/10/3/3 10/11/3/3 11/12/3/3
f 16/13/4/4 13/14/4/4 14/15/4/4 15/16/4/4
f 20/17/5/5 17/18/5/5 18/19/5/5 19/20/5/5
f 24/21/6/6 21/22/6/6 22/23/6/6 23/24/6/6
f 28/25/7/7 25/26/7/7 26/27/7/7 27/28/7/7
f 32/29/8/8 29/30/8/8 30/31/8/8 31/32/8/8
f 36/33/9/9 33/34/9/9 34/35/9/9 35/36/9/9
f 40/37/10/10 37/38/10/10 38/39/10/10 39/40/10/10
f 44/41/11/11 41/42/11/11 42/43/11/11 43/44/11/11
f 48/45/12/12 45/46/12/12 46/47/12/12 47/48/12/12
f 52/49/13/13 49/50/13/13 50/51/13/13 51/52/13/13
f 56/53/14/14 53/54/14/14 54/55/14/14 55/56/14/14
f 60/57/15/15 57/58/15/15 58/59/15/15 59/60/15/15
f 64/61/16/16 61/62/16/16 62/63/16/16 63/64/16/16
