mtllib emptyMapTrees_00_00.mtl
o map
v -12.0 -16.0 0.0
v -12.0 -8.0 0.0
v -16.0 -8.0 0.0
v -16.0 -16.0 0.0
v -12.0 -8.0 0.0
v -12.0 0.0 0.0
v -16.0 0.0 0.0
v -16.0 -8.0 0.0
v -12.0 0.0 0.0
v -12.0 8.0 0.0
v -16.0 8.0 0.0
v -16.0 0.0 0.0
v -12.0 8.0 0.0
v -12.0 16.0 0.0
v -16.0 16.0 0.0
v -16.0 8.0 0.0
v -12.0 -16.0 0.0
v -10.0 -16.0 0.0
v -10.0 -14.0 0.0
v -12.0 -14.0 0.0
v -13.0 -15.625 0.0
v -9.0 -15.625 0.0
v -9.0 -13.077148 3.083984
v -13.0 -13.077148 3.083984
v -12.0 -14.0 0.0
v -10.0 -14.0 0.0
v -10.0 -12.0 0.0
v -12.0 -12.0 0.0
v -13.0 -13.625 0.0
v -9.0 -13.625 0.0
v -9.0 -11.077148 3.083984
v -13.0 -11.077148 3.083984
v -12.0 -12.0 0.0
v -10.0 -12.0 0.0
v -10.0 -10.0 0.0
v -12.0 -10.0 0.0
v -13.0 -11.625 0.0
v -9.0 -11.625 0.0
v -9.0 -9.077148 3.083984
v -13.0 -9.077148 3.083984
v -12.0 -10.0 0.0
v -10.0 -10.0 0.0
v -10.0 -8.0 0.0
v -12.0 -8.0 0.0
v -13.0 -9.625 0.0
v -9.0 -9.625 0.0
v -9.0 -7.077149 3.083984
v -13.0 -7.077149 3.083984
v -12.0 -8.0 0.0
v -10.0 -8.0 0.0
v -10.0 -6.0 0.0
v -12.0 -6.0 0.0
v -13.0 -7.625 0.0
v -9.0 -7.625 0.0
v -9.0 -5.077149 3.083984
v -13.0 -5.077149 3.083984
v -12.0 -6.0 0.0
v -10.0 -6.0 0.0
v -10.0 -4.0 0.0
v -12.0 -4.0 0.0
v -13.0 -5.625 0.0
v -9.0 -5.625 0.0
v -9.0 -3.077149 3.083984
v -13.0 -3.077149 3.083984
v -12.0 -4.0 0.0
v -10.0 -4.0 0.0
v -10.0 -2.0 0.0
v -12.0 -2.0 0.0
v -13.0 -3.625 0.0
v -9.0 -3.625 0.0
v -9.0 -1.0771489 3.083984
v -13.0 -1.0771489 3.083984
v -12.0 -2.0 0.0
v -10.0 -2.0 0.0
v -10.0 0.0 0.0
v -12.0 0.0 0.0
v -13.0 -1.625 0.0
v -9.0 -1.625 0.0
v -9.0 0.9228511 3.083984
v -13.0 0.9228511 3.083984
v -12.0 0.0 0.0
v -10.0 0.0 0.0
v -10.0 2.0 0.0
v -12.0 2.0 0.0
v -13.0 0.375 0.0
v -9.0 0.375 0.0
v -9.0 2.922851 3.083984
v -13.0 2.922851 3.083984
v -12.0 2.0 0.0
v -10.0 2.0 0.0
v -10.0 4.0 0.0
v -12.0 4.0 0.0
v -13.0 2.375 0.0
v -9.0 2.375 0.0
v -9.0 4.922851 3.083984
v -13.0 4.922851 3.083984
v -12.0 4.0 0.0
v -10.0 4.0 0.0
v -10.0 6.0 0.0
v -12.0 6.0 0.0
v -13.0 4.375 0.0
v -9.0 4.375 0.0
v -9.0 6.922851 3.083984
v -13.0 6.922851 3.083984
v -12.0 6.0 0.0
v -10.0 6.0 0.0
v -10.0 8.0 0.0
v -12.0 8.0 0.0
v -13.0 6.375 0.0
v -9.0 6.375 0.0
v -9.0 8.922852 3.083984
v -13.0 8.922852 3.083984
v -12.0 8.0 0.0
v -10.0 8.0 0.0
v -10.0 10.0 0.0
v -12.0 10.0 0.0
v -13.0 8.375 0.0
v -9.0 8.375 0.0
v -9.0 10.922852 3.083984
v -13.0 10.922852 3.083984
v -12.0 10.0 0.0
v -10.0 10.0 0.0
v -10.0 12.0 0.0
v -12.0 12.0 0.0
v -13.0 10.375 0.0
v -9.0 10.375 0.0
v -9.0 12.922852 3.083984
v -13.0 12.922852 3.083984
v -12.0 12.0 0.0
v -10.0 12.0 0.0
v -10.0 14.0 0.0
v -12.0 14.0 0.0
v -13.0 12.375 0.0
v -9.0 12.375 0.0
v -9.0 14.922852 3.083984
v -13.0 14.922852 3.083984
v -12.0 14.0 0.0
v -10.0 14.0 0.0
v -10.0 16.0 0.0
v -12.0 16.0 0.0
v -13.0 14.375 0.0
v -9.0 14.375 0.0
v -9.0 16.922852 3.083984
v -13.0 16.922852 3.083984
v -10.0 -16.0 0.0
v -8.0 -16.0 0.0
v -8.0 -14.0 0.0
v -10.0 -14.0 0.0
v -11.0 -15.625 0.0
v -7.0 -15.625 0.0
v -7.0 -13.077148 3.083984
v -11.0 -13.077148 3.083984
v -10.0 -14.0 0.0
v -8.0 -14.0 0.0
v -8.0 -12.0 0.0
v -10.0 -12.0 0.0
v -11.0 -13.625 0.0
v -7.0 -13.625 0.0
v -7.0 -11.077148 3.083984
v -11.0 -11.077148 3.083984
v -10.0 -12.0 0.0
v -8.0 -12.0 0.0
v -8.0 -10.0 0.0
v -10.0 -10.0 0.0
v -11.0 -11.625 0.0
v -7.0 -11.625 0.0
v -7.0 -9.077148 3.083984
v -11.0 -9.077148 3.083984
v -10.0 -10.0 0.0
v -8.0 -10.0 0.0
v -8.0 -8.0 0.0
v -10.0 -8.0 0.0
v -11.0 -9.625 0.0
v -7.0 -9.625 0.0
v -7.0 -7.077149 3.083984
v -11.0 -7.077149 3.083984
v -10.0 -8.0 0.0
v -8.0 -8.0 0.0
v -8.0 -6.0 0.0
v -10.0 -6.0 0.0
v -11.0 -7.625 0.0
v -7.0 -7.625 0.0
v -7.0 -5.077149 3.083984
v -11.0 -5.077149 3.083984
v -10.0 -6.0 0.0
v -8.0 -6.0 0.0
v -8.0 -4.0 0.0
v -10.0 -4.0 0.0
v -11.0 -5.625 0.0
v -7.0 -5.625 0.0
v -7.0 -3.077149 3.083984
v -11.0 -3.077149 3.083984
v -10.0 -4.0 0.0
v -8.0 -4.0 0.0
v -8.0 -2.0 0.0
v -10.0 -2.0 0.0
v -11.0 -3.625 0.0
v -7.0 -3.625 0.0
v -7.0 -1.0771489 3.083984
v -11.0 -1.0771489 3.083984
v -10.0 -2.0 0.0
v -8.0 -2.0 0.0
v -8.0 0.0 0.0
v -10.0 0.0 0.0
v -11.0 -1.625 0.0
v -7.0 -1.625 0.0
v -7.0 0.9228511 3.083984
v -11.0 0.9228511 3.083984
v -10.0 0.0 0.0
v -8.0 0.0 0.0
v -8.0 2.0 0.0
v -10.0 2.0 0.0
v -11.0 0.375 0.0
v -7.0 0.375 0.0
v -7.0 2.922851 3.083984
v -11.0 2.922851 3.083984
v -10.0 2.0 0.0
v -8.0 2.0 0.0
v -8.0 4.0 0.0
v -10.0 4.0 0.0
v -11.0 2.375 0.0
v -7.0 2.375 0.0
v -7.0 4.922851 3.083984
v -11.0 4.922851 3.083984
v -10.0 4.0 0.0
v -8.0 4.0 0.0
v -8.0 6.0 0.0
v -10.0 6.0 0.0
v -11.0 4.375 0.0
v -7.0 4.375 0.0
v -7.0 6.922851 3.083984
v -11.0 6.922851 3.083984
v -10.0 6.0 0.0
v -8.0 6.0 0.0
v -8.0 8.0 0.0
v -10.0 8.0 0.0
v -11.0 6.375 0.0
v -7.0 6.375 0.0
v -7.0 8.922852 3.083984
v -11.0 8.922852 3.083984
v -10.0 8.0 0.0
v -8.0 8.0 0.0
v -8.0 10.0 0.0
v -10.0 10.0 0.0
v -11.0 8.375 0.0
v -7.0 8.375 0.0
v -7.0 10.922852 3.083984
v -11.0 10.922852 3.083984
v -10.0 10.0 0.0
v -8.0 10.0 0.0
v -8.0 12.0 0.0
v -10.0 12.0 0.0
v -11.0 10.375 0.0
v -7.0 10.375 0.0
v -7.0 12.922852 3.083984
v -11.0 12.922852 3.083984
v -10.0 12.0 0.0
v -8.0 12.0 0.0
v -8.0 14.0 0.0
v -10.0 14.0 0.0
v -11.0 12.375 0.0
v -7.0 12.375 0.0
v -7.0 14.922852 3.083984
v -11.0 14.922852 3.083984
v -10.0 14.0 0.0
v -8.0 14.0 0.0
v -8.0 16.0 0.0
v -10.0 16.0 0.0
v -11.0 14.375 0.0
v -7.0 14.375 0.0
v -7.0 16.922852 3.083984
v -11.0 16.922852 3.083984
v -8.0 -16.0 0.0
v -6.0 -16.0 0.0
v -6.0 -14.0 0.0
v -8.0 -14.0 0.0
v -9.0 -15.625 0.0
v -5.0 -15.625 0.0
v -5.0 -13.077148 3.083984
v -9.0 -13.077148 3.083984
v -8.0 -14.0 0.0
v -6.0 -14.0 0.0
v -6.0 -12.0 0.0
v -8.0 -12.0 0.0
v -9.0 -13.625 0.0
v -5.0 -13.625 0.0
v -5.0 -11.077148 3.083984
v -9.0 -11.077148 3.083984
v -8.0 -12.0 0.0
v -6.0 -12.0 0.0
v -6.0 -10.0 0.0
v -8.0 -10.0 0.0
v -9.0 -11.625 0.0
v -5.0 -11.625 0.0
v -5.0 -9.077148 3.083984
v -9.0 -9.077148 3.083984
v -8.0 -10.0 0.0
v -6.0 -10.0 0.0
v -6.0 -8.0 0.0
v -8.0 -8.0 0.0
v -9.0 -9.625 0.0
v -5.0 -9.625 0.0
v -5.0 -7.077149 3.083984
v -9.0 -7.077149 3.083984
v -8.0 -8.0 0.0
v -6.0 -8.0 0.0
v -6.0 -6.0 0.0
v -8.0 -6.0 0.0
v -9.0 -7.625 0.0
v -5.0 -7.625 0.0
v -5.0 -5.077149 3.083984
v -9.0 -5.077149 3.083984
v -8.0 -6.0 0.0
v -6.0 -6.0 0.0
v -6.0 -4.0 0.0
v -8.0 -4.0 0.0
v -9.0 -5.625 0.0
v -5.0 -5.625 0.0
v -5.0 -3.077149 3.083984
v -9.0 -3.077149 3.083984
v -8.0 -4.0 0.0
v -6.0 -4.0 0.0
v -6.0 -2.0 0.0
v -8.0 -2.0 0.0
v -9.0 -3.625 0.0
v -5.0 -3.625 0.0
v -5.0 -1.0771489 3.083984
v -9.0 -1.0771489 3.083984
v -8.0 -2.0 0.0
v -6.0 -2.0 0.0
v -6.0 0.0 0.0
v -8.0 0.0 0.0
v -9.0 -1.625 0.0
v -5.0 -1.625 0.0
v -5.0 0.9228511 3.083984
v -9.0 0.9228511 3.083984
v -8.0 0.0 0.0
v -6.0 0.0 0.0
v -6.0 2.0 0.0
v -8.0 2.0 0.0
v -9.0 0.375 0.0
v -5.0 0.375 0.0
v -5.0 2.922851 3.083984
v -9.0 2.922851 3.083984
v -8.0 2.0 0.0
v -6.0 2.0 0.0
v -6.0 4.0 0.0
v -8.0 4.0 0.0
v -9.0 2.375 0.0
v -5.0 2.375 0.0
v -5.0 4.922851 3.083984
v -9.0 4.922851 3.083984
v -8.0 4.0 0.0
v -6.0 4.0 0.0
v -6.0 6.0 0.0
v -8.0 6.0 0.0
v -9.0 4.375 0.0
v -5.0 4.375 0.0
v -5.0 6.922851 3.083984
v -9.0 6.922851 3.083984
v -8.0 6.0 0.0
v -6.0 6.0 0.0
v -6.0 8.0 0.0
v -8.0 8.0 0.0
v -9.0 6.375 0.0
v -5.0 6.375 0.0
v -5.0 8.922852 3.083984
v -9.0 8.922852 3.083984
v -8.0 8.0 0.0
v -6.0 8.0 0.0
v -6.0 10.0 0.0
v -8.0 10.0 0.0
v -9.0 8.375 0.0
v -5.0 8.375 0.0
v -5.0 10.922852 3.083984
v -9.0 10.922852 3.083984
v -8.0 10.0 0.0
v -6.0 10.0 0.0
v -6.0 12.0 0.0
v -8.0 12.0 0.0
v -9.0 10.375 0.0
v -5.0 10.375 0.0
v -5.0 12.922852 3.083984
v -9.0 12.922852 3.083984
v -8.0 12.0 0.0
v -6.0 12.0 0.0
v -6.0 14.0 0.0
v -8.0 14.0 0.0
v -9.0 12.375 0.0
v -5.0 12.375 0.0
v -5.0 14.922852 3.083984
v -9.0 14.922852 3.083984
v -8.0 14.0 0.0
v -6.0 14.0 0.0
v -6.0 16.0 0.0
v -8.0 16.0 0.0
v -9.0 14.375 0.0
v -5.0 14.375 0.0
v -5.0 16.922852 3.083984
v -9.0 16.922852 3.083984
v -6.0 -16.0 0.0
v -4.0 -16.0 0.0
v -4.0 -14.0 0.0
v -6.0 -14.0 0.0
v -7.0 -15.625 0.0
v -3.0 -15.625 0.0
v -3.0 -13.077148 3.083984
v -7.0 -13.077148 3.083984
v -6.0 -14.0 0.0
v -4.0 -14.0 0.0
v -4.0 -12.0 0.0
v -6.0 -12.0 0.0
v -7.0 -13.625 0.0
v -3.0 -13.625 0.0
v -3.0 -11.077148 3.083984
v -7.0 -11.077148 3.083984
v -6.0 -12.0 0.0
v -4.0 -12.0 0.0
v -4.0 -10.0 0.0
v -6.0 -10.0 0.0
v -7.0 -11.625 0.0
v -3.0 -11.625 0.0
v -3.0 -9.077148 3.083984
v -7.0 -9.077148 3.083984
v -6.0 -10.0 0.0
v -4.0 -10.0 0.0
v -4.0 -8.0 0.0
v -6.0 -8.0 0.0
v -7.0 -9.625 0.0
v -3.0 -9.625 0.0
v -3.0 -7.077149 3.083984
v -7.0 -7.077149 3.083984
v -6.0 -8.0 0.0
v -4.0 -8.0 0.0
v -4.0 -6.0 0.0
v -6.0 -6.0 0.0
v -7.0 -7.625 0.0
v -3.0 -7.625 0.0
v -3.0 -5.077149 3.083984
v -7.0 -5.077149 3.083984
v -6.0 -6.0 0.0
v -4.0 -6.0 0.0
v -4.0 -4.0 0.0
v -6.0 -4.0 0.0
v -7.0 -5.625 0.0
v -3.0 -5.625 0.0
v -3.0 -3.077149 3.083984
v -7.0 -3.077149 3.083984
v -6.0 -4.0 0.0
v -4.0 -4.0 0.0
v -4.0 -2.0 0.0
v -6.0 -2.0 0.0
v -7.0 -3.625 0.0
v -3.0 -3.625 0.0
v -3.0 -1.0771489 3.083984
v -7.0 -1.0771489 3.083984
v -6.0 -2.0 0.0
v -4.0 -2.0 0.0
v -4.0 0.0 0.0
v -6.0 0.0 0.0
v -7.0 -1.625 0.0
v -3.0 -1.625 0.0
v -3.0 0.9228511 3.083984
v -7.0 0.9228511 3.083984
v -6.0 0.0 0.0
v -4.0 0.0 0.0
v -4.0 2.0 0.0
v -6.0 2.0 0.0
v -7.0 0.375 0.0
v -3.0 0.375 0.0
v -3.0 2.922851 3.083984
v -7.0 2.922851 3.083984
v -6.0 2.0 0.0
v -4.0 2.0 0.0
v -4.0 4.0 0.0
v -6.0 4.0 0.0
v -7.0 2.375 0.0
v -3.0 2.375 0.0
v -3.0 4.922851 3.083984
v -7.0 4.922851 3.083984
v -6.0 4.0 0.0
v -4.0 4.0 0.0
v -4.0 6.0 0.0
v -6.0 6.0 0.0
v -7.0 4.375 0.0
v -3.0 4.375 0.0
v -3.0 6.922851 3.083984
v -7.0 6.922851 3.083984
v -6.0 6.0 0.0
v -4.0 6.0 0.0
v -4.0 8.0 0.0
v -6.0 8.0 0.0
v -7.0 6.375 0.0
v -3.0 6.375 0.0
v -3.0 8.922852 3.083984
v -7.0 8.922852 3.083984
v -6.0 8.0 0.0
v -4.0 8.0 0.0
v -4.0 10.0 0.0
v -6.0 10.0 0.0
v -7.0 8.375 0.0
v -3.0 8.375 0.0
v -3.0 10.922852 3.083984
v -7.0 10.922852 3.083984
v -6.0 10.0 0.0
v -4.0 10.0 0.0
v -4.0 12.0 0.0
v -6.0 12.0 0.0
v -7.0 10.375 0.0
v -3.0 10.375 0.0
v -3.0 12.922852 3.083984
v -7.0 12.922852 3.083984
v -6.0 12.0 0.0
v -4.0 12.0 0.0
v -4.0 14.0 0.0
v -6.0 14.0 0.0
v -7.0 12.375 0.0
v -3.0 12.375 0.0
v -3.0 14.922852 3.083984
v -7.0 14.922852 3.083984
v -6.0 14.0 0.0
v -4.0 14.0 0.0
v -4.0 16.0 0.0
v -6.0 16.0 0.0
v -7.0 14.375 0.0
v -3.0 14.375 0.0
v -3.0 16.922852 3.083984
v -7.0 16.922852 3.083984
v -4.0 -16.0 0.0
v -2.0 -16.0 0.0
v -2.0 -14.0 0.0
v -4.0 -14.0 0.0
v -5.0 -15.625 0.0
v -1.0 -15.625 0.0
v -1.0 -13.077148 3.083984
v -5.0 -13.077148 3.083984
v -4.0 -14.0 0.0
v -2.0 -14.0 0.0
v -2.0 -12.0 0.0
v -4.0 -12.0 0.0
v -5.0 -13.625 0.0
v -1.0 -13.625 0.0
v -1.0 -11.077148 3.083984
v -5.0 -11.077148 3.083984
v -4.0 -12.0 0.0
v -2.0 -12.0 0.0
v -2.0 -10.0 0.0
v -4.0 -10.0 0.0
v -5.0 -11.625 0.0
v -1.0 -11.625 0.0
v -1.0 -9.077148 3.083984
v -5.0 -9.077148 3.083984
v -4.0 -10.0 0.0
v -2.0 -10.0 0.0
v -2.0 -8.0 0.0
v -4.0 -8.0 0.0
v -5.0 -9.625 0.0
v -1.0 -9.625 0.0
v -1.0 -7.077149 3.083984
v -5.0 -7.077149 3.083984
v -4.0 -8.0 0.0
v -2.0 -8.0 0.0
v -2.0 -6.0 0.0
v -4.0 -6.0 0.0
v -5.0 -7.625 0.0
v -1.0 -7.625 0.0
v -1.0 -5.077149 3.083984
v -5.0 -5.077149 3.083984
v -4.0 -6.0 0.0
v -2.0 -6.0 0.0
v -2.0 -4.0 0.0
v -4.0 -4.0 0.0
v -5.0 -5.625 0.0
v -1.0 -5.625 0.0
v -1.0 -3.077149 3.083984
v -5.0 -3.077149 3.083984
v -4.0 -4.0 0.0
v -2.0 -4.0 0.0
v -2.0 -2.0 0.0
v -4.0 -2.0 0.0
v -5.0 -3.625 0.0
v -1.0 -3.625 0.0
v -1.0 -1.0771489 3.083984
v -5.0 -1.0771489 3.083984
v -4.0 -2.0 0.0
v -2.0 -2.0 0.0
v -2.0 0.0 0.0
v -4.0 0.0 0.0
v -5.0 -1.625 0.0
v -1.0 -1.625 0.0
v -1.0 0.9228511 3.083984
v -5.0 0.9228511 3.083984
v -4.0 0.0 0.0
v -2.0 0.0 0.0
v -2.0 2.0 0.0
v -4.0 2.0 0.0
v -5.0 0.375 0.0
v -1.0 0.375 0.0
v -1.0 2.922851 3.083984
v -5.0 2.922851 3.083984
v -4.0 2.0 0.0
v -2.0 2.0 0.0
v -2.0 4.0 0.0
v -4.0 4.0 0.0
v -5.0 2.375 0.0
v -1.0 2.375 0.0
v -1.0 4.922851 3.083984
v -5.0 4.922851 3.083984
v -4.0 4.0 0.0
v -2.0 4.0 0.0
v -2.0 6.0 0.0
v -4.0 6.0 0.0
v -5.0 4.375 0.0
v -1.0 4.375 0.0
v -1.0 6.922851 3.083984
v -5.0 6.922851 3.083984
v -4.0 6.0 0.0
v -2.0 6.0 0.0
v -2.0 8.0 0.0
v -4.0 8.0 0.0
v -5.0 6.375 0.0
v -1.0 6.375 0.0
v -1.0 8.922852 3.083984
v -5.0 8.922852 3.083984
v -4.0 8.0 0.0
v -2.0 8.0 0.0
v -2.0 10.0 0.0
v -4.0 10.0 0.0
v -5.0 8.375 0.0
v -1.0 8.375 0.0
v -1.0 10.922852 3.083984
v -5.0 10.922852 3.083984
v -4.0 10.0 0.0
v -2.0 10.0 0.0
v -2.0 12.0 0.0
v -4.0 12.0 0.0
v -5.0 10.375 0.0
v -1.0 10.375 0.0
v -1.0 12.922852 3.083984
v -5.0 12.922852 3.083984
v -4.0 12.0 0.0
v -2.0 12.0 0.0
v -2.0 14.0 0.0
v -4.0 14.0 0.0
v -5.0 12.375 0.0
v -1.0 12.375 0.0
v -1.0 14.922852 3.083984
v -5.0 14.922852 3.083984
v -4.0 14.0 0.0
v -2.0 14.0 0.0
v -2.0 16.0 0.0
v -4.0 16.0 0.0
v -5.0 14.375 0.0
v -1.0 14.375 0.0
v -1.0 16.922852 3.083984
v -5.0 16.922852 3.083984
v -2.0 -16.0 0.0
v 0.0 -16.0 0.0
v 0.0 -14.0 0.0
v -2.0 -14.0 0.0
v -3.0 -15.625 0.0
v 1.0 -15.625 0.0
v 1.0 -13.077148 3.083984
v -3.0 -13.077148 3.083984
v -2.0 -14.0 0.0
v 0.0 -14.0 0.0
v 0.0 -12.0 0.0
v -2.0 -12.0 0.0
v -3.0 -13.625 0.0
v 1.0 -13.625 0.0
v 1.0 -11.077148 3.083984
v -3.0 -11.077148 3.083984
v -2.0 -12.0 0.0
v 0.0 -12.0 0.0
v 0.0 -10.0 0.0
v -2.0 -10.0 0.0
v -3.0 -11.625 0.0
v 1.0 -11.625 0.0
v 1.0 -9.077148 3.083984
v -3.0 -9.077148 3.083984
v -2.0 -10.0 0.0
v 0.0 -10.0 0.0
v 0.0 -8.0 0.0
v -2.0 -8.0 0.0
v -3.0 -9.625 0.0
v 1.0 -9.625 0.0
v 1.0 -7.077149 3.083984
v -3.0 -7.077149 3.083984
v -2.0 -8.0 0.0
v 0.0 -8.0 0.0
v 0.0 -6.0 0.0
v -2.0 -6.0 0.0
v -3.0 -7.625 0.0
v 1.0 -7.625 0.0
v 1.0 -5.077149 3.083984
v -3.0 -5.077149 3.083984
v -2.0 -6.0 0.0
v 0.0 -6.0 0.0
v 0.0 -4.0 0.0
v -2.0 -4.0 0.0
v -3.0 -5.625 0.0
v 1.0 -5.625 0.0
v 1.0 -3.077149 3.083984
v -3.0 -3.077149 3.083984
v -2.0 -4.0 0.0
v 0.0 -4.0 0.0
v 0.0 -2.0 0.0
v -2.0 -2.0 0.0
v -3.0 -3.625 0.0
v 1.0 -3.625 0.0
v 1.0 -1.0771489 3.083984
v -3.0 -1.0771489 3.083984
v -2.0 -2.0 0.0
v 0.0 -2.0 0.0
v 0.0 0.0 0.0
v -2.0 0.0 0.0
v -3.0 -1.625 0.0
v 1.0 -1.625 0.0
v 1.0 0.9228511 3.083984
v -3.0 0.9228511 3.083984
v -2.0 0.0 0.0
v 0.0 0.0 0.0
v 0.0 2.0 0.0
v -2.0 2.0 0.0
v -3.0 0.375 0.0
v 1.0 0.375 0.0
v 1.0 2.922851 3.083984
v -3.0 2.922851 3.083984
v -2.0 2.0 0.0
v 0.0 2.0 0.0
v 0.0 4.0 0.0
v -2.0 4.0 0.0
v -3.0 2.375 0.0
v 1.0 2.375 0.0
v 1.0 4.922851 3.083984
v -3.0 4.922851 3.083984
v -2.0 4.0 0.0
v 0.0 4.0 0.0
v 0.0 6.0 0.0
v -2.0 6.0 0.0
v -3.0 4.375 0.0
v 1.0 4.375 0.0
v 1.0 6.922851 3.083984
v -3.0 6.922851 3.083984
v -2.0 6.0 0.0
v 0.0 6.0 0.0
v 0.0 8.0 0.0
v -2.0 8.0 0.0
v -3.0 6.375 0.0
v 1.0 6.375 0.0
v 1.0 8.922852 3.083984
v -3.0 8.922852 3.083984
v -2.0 8.0 0.0
v 0.0 8.0 0.0
v 0.0 10.0 0.0
v -2.0 10.0 0.0
v -3.0 8.375 0.0
v 1.0 8.375 0.0
v 1.0 10.922852 3.083984
v -3.0 10.922852 3.083984
v -2.0 10.0 0.0
v 0.0 10.0 0.0
v 0.0 12.0 0.0
v -2.0 12.0 0.0
v -3.0 10.375 0.0
v 1.0 10.375 0.0
v 1.0 12.922852 3.083984
v -3.0 12.922852 3.083984
v -2.0 12.0 0.0
v 0.0 12.0 0.0
v 0.0 14.0 0.0
v -2.0 14.0 0.0
v -3.0 12.375 0.0
v 1.0 12.375 0.0
v 1.0 14.922852 3.083984
v -3.0 14.922852 3.083984
v -2.0 14.0 0.0
v 0.0 14.0 0.0
v 0.0 16.0 0.0
v -2.0 16.0 0.0
v -3.0 14.375 0.0
v 1.0 14.375 0.0
v 1.0 16.922852 3.083984
v -3.0 16.922852 3.083984
v 0.0 -16.0 0.0
v 2.0 -16.0 0.0
v 2.0 -14.0 0.0
v 0.0 -14.0 0.0
v -1.0 -15.625 0.0
v 3.0 -15.625 0.0
v 3.0 -13.077148 3.083984
v -1.0 -13.077148 3.083984
v 0.0 -14.0 0.0
v 2.0 -14.0 0.0
v 2.0 -12.0 0.0
v 0.0 -12.0 0.0
v -1.0 -13.625 0.0
v 3.0 -13.625 0.0
v 3.0 -11.077148 3.083984
v -1.0 -11.077148 3.083984
v 0.0 -12.0 0.0
v 2.0 -12.0 0.0
v 2.0 -10.0 0.0
v 0.0 -10.0 0.0
v -1.0 -11.625 0.0
v 3.0 -11.625 0.0
v 3.0 -9.077148 3.083984
v -1.0 -9.077148 3.083984
v 0.0 -10.0 0.0
v 2.0 -10.0 0.0
v 2.0 -8.0 0.0
v 0.0 -8.0 0.0
v -1.0 -9.625 0.0
v 3.0 -9.625 0.0
v 3.0 -7.077149 3.083984
v -1.0 -7.077149 3.083984
v 0.0 -8.0 0.0
v 2.0 -8.0 0.0
v 2.0 -6.0 0.0
v 0.0 -6.0 0.0
v -1.0 -7.625 0.0
v 3.0 -7.625 0.0
v 3.0 -5.077149 3.083984
v -1.0 -5.077149 3.083984
v 0.0 -6.0 0.0
v 2.0 -6.0 0.0
v 2.0 -4.0 0.0
v 0.0 -4.0 0.0
v -1.0 -5.625 0.0
v 3.0 -5.625 0.0
v 3.0 -3.077149 3.083984
v -1.0 -3.077149 3.083984
v 0.0 -4.0 0.0
v 2.0 -4.0 0.0
v 2.0 -2.0 0.0
v 0.0 -2.0 0.0
v -1.0 -3.625 0.0
v 3.0 -3.625 0.0
v 3.0 -1.0771489 3.083984
v -1.0 -1.0771489 3.083984
v 0.0 -2.0 0.0
v 2.0 -2.0 0.0
v 2.0 0.0 0.0
v 0.0 0.0 0.0
v -1.0 -1.625 0.0
v 3.0 -1.625 0.0
v 3.0 0.9228511 3.083984
v -1.0 0.9228511 3.083984
v 0.0 0.0 0.0
v 2.0 0.0 0.0
v 2.0 2.0 0.0
v 0.0 2.0 0.0
v -1.0 0.375 0.0
v 3.0 0.375 0.0
v 3.0 2.922851 3.083984
v -1.0 2.922851 3.083984
v 0.0 2.0 0.0
v 2.0 2.0 0.0
v 2.0 4.0 0.0
v 0.0 4.0 0.0
v -1.0 2.375 0.0
v 3.0 2.375 0.0
v 3.0 4.922851 3.083984
v -1.0 4.922851 3.083984
v 0.0 4.0 0.0
v 2.0 4.0 0.0
v 2.0 6.0 0.0
v 0.0 6.0 0.0
v -1.0 4.375 0.0
v 3.0 4.375 0.0
v 3.0 6.922851 3.083984
v -1.0 6.922851 3.083984
v 0.0 6.0 0.0
v 2.0 6.0 0.0
v 2.0 8.0 0.0
v 0.0 8.0 0.0
v -1.0 6.375 0.0
v 3.0 6.375 0.0
v 3.0 8.922852 3.083984
v -1.0 8.922852 3.083984
v 0.0 8.0 0.0
v 2.0 8.0 0.0
v 2.0 10.0 0.0
v 0.0 10.0 0.0
v -1.0 8.375 0.0
v 3.0 8.375 0.0
v 3.0 10.922852 3.083984
v -1.0 10.922852 3.083984
v 0.0 10.0 0.0
v 2.0 10.0 0.0
v 2.0 12.0 0.0
v 0.0 12.0 0.0
v -1.0 10.375 0.0
v 3.0 10.375 0.0
v 3.0 12.922852 3.083984
v -1.0 12.922852 3.083984
v 0.0 12.0 0.0
v 2.0 12.0 0.0
v 2.0 14.0 0.0
v 0.0 14.0 0.0
v -1.0 12.375 0.0
v 3.0 12.375 0.0
v 3.0 14.922852 3.083984
v -1.0 14.922852 3.083984
v 0.0 14.0 0.0
v 2.0 14.0 0.0
v 2.0 16.0 0.0
v 0.0 16.0 0.0
v -1.0 14.375 0.0
v 3.0 14.375 0.0
v 3.0 16.922852 3.083984
v -1.0 16.922852 3.083984
v 2.0 -16.0 0.0
v 4.0 -16.0 0.0
v 4.0 -14.0 0.0
v 2.0 -14.0 0.0
v 1.0 -15.625 0.0
v 5.0 -15.625 0.0
v 5.0 -13.077148 3.083984
v 1.0 -13.077148 3.083984
v 2.0 -14.0 0.0
v 4.0 -14.0 0.0
v 4.0 -12.0 0.0
v 2.0 -12.0 0.0
v 1.0 -13.625 0.0
v 5.0 -13.625 0.0
v 5.0 -11.077148 3.083984
v 1.0 -11.077148 3.083984
v 2.0 -12.0 0.0
v 4.0 -12.0 0.0
v 4.0 -10.0 0.0
v 2.0 -10.0 0.0
v 1.0 -11.625 0.0
v 5.0 -11.625 0.0
v 5.0 -9.077148 3.083984
v 1.0 -9.077148 3.083984
v 2.0 -10.0 0.0
v 4.0 -10.0 0.0
v 4.0 -8.0 0.0
v 2.0 -8.0 0.0
v 1.0 -9.625 0.0
v 5.0 -9.625 0.0
v 5.0 -7.077149 3.083984
v 1.0 -7.077149 3.083984
v 2.0 -8.0 0.0
v 4.0 -8.0 0.0
v 4.0 -6.0 0.0
v 2.0 -6.0 0.0
v 1.0 -7.625 0.0
v 5.0 -7.625 0.0
v 5.0 -5.077149 3.083984
v 1.0 -5.077149 3.083984
v 2.0 -6.0 0.0
v 4.0 -6.0 0.0
v 4.0 -4.0 0.0
v 2.0 -4.0 0.0
v 1.0 -5.625 0.0
v 5.0 -5.625 0.0
v 5.0 -3.077149 3.083984
v 1.0 -3.077149 3.083984
v 2.0 -4.0 0.0
v 4.0 -4.0 0.0
v 4.0 -2.0 0.0
v 2.0 -2.0 0.0
v 1.0 -3.625 0.0
v 5.0 -3.625 0.0
v 5.0 -1.0771489 3.083984
v 1.0 -1.0771489 3.083984
v 2.0 -2.0 0.0
v 4.0 -2.0 0.0
v 4.0 0.0 0.0
v 2.0 0.0 0.0
v 1.0 -1.625 0.0
v 5.0 -1.625 0.0
v 5.0 0.9228511 3.083984
v 1.0 0.9228511 3.083984
v 2.0 0.0 0.0
v 4.0 0.0 0.0
v 4.0 2.0 0.0
v 2.0 2.0 0.0
v 1.0 0.375 0.0
v 5.0 0.375 0.0
v 5.0 2.922851 3.083984
v 1.0 2.922851 3.083984
v 2.0 2.0 0.0
v 4.0 2.0 0.0
v 4.0 4.0 0.0
v 2.0 4.0 0.0
v 1.0 2.375 0.0
v 5.0 2.375 0.0
v 5.0 4.922851 3.083984
v 1.0 4.922851 3.083984
v 2.0 4.0 0.0
v 4.0 4.0 0.0
v 4.0 6.0 0.0
v 2.0 6.0 0.0
v 1.0 4.375 0.0
v 5.0 4.375 0.0
v 5.0 6.922851 3.083984
v 1.0 6.922851 3.083984
v 2.0 6.0 0.0
v 4.0 6.0 0.0
v 4.0 8.0 0.0
v 2.0 8.0 0.0
v 1.0 6.375 0.0
v 5.0 6.375 0.0
v 5.0 8.922852 3.083984
v 1.0 8.922852 3.083984
v 2.0 8.0 0.0
v 4.0 8.0 0.0
v 4.0 10.0 0.0
v 2.0 10.0 0.0
v 1.0 8.375 0.0
v 5.0 8.375 0.0
v 5.0 10.922852 3.083984
v 1.0 10.922852 3.083984
v 2.0 10.0 0.0
v 4.0 10.0 0.0
v 4.0 12.0 0.0
v 2.0 12.0 0.0
v 1.0 10.375 0.0
v 5.0 10.375 0.0
v 5.0 12.922852 3.083984
v 1.0 12.922852 3.083984
v 2.0 12.0 0.0
v 4.0 12.0 0.0
v 4.0 14.0 0.0
v 2.0 14.0 0.0
v 1.0 12.375 0.0
v 5.0 12.375 0.0
v 5.0 14.922852 3.083984
v 1.0 14.922852 3.083984
v 2.0 14.0 0.0
v 4.0 14.0 0.0
v 4.0 16.0 0.0
v 2.0 16.0 0.0
v 1.0 14.375 0.0
v 5.0 14.375 0.0
v 5.0 16.922852 3.083984
v 1.0 16.922852 3.083984
v 7.0 -14.000002 1.0E-6
v 4.0 -14.000002 1.0E-6
v 4.0 -16.000002 1.0E-6
v 7.0 -16.000002 1.0E-6
v 4.0 -14.0 0.0
v 6.0 -14.0 0.0
v 6.0 -12.0 0.0
v 4.0 -12.0 0.0
v 3.0 -13.625 0.0
v 7.0 -13.625 0.0
v 7.0 -11.077148 3.083984
v 3.0 -11.077148 3.083984
v 4.0 -12.0 0.0
v 6.0 -12.0 0.0
v 6.0 -10.0 0.0
v 4.0 -10.0 0.0
v 3.0 -11.625 0.0
v 7.0 -11.625 0.0
v 7.0 -9.077148 3.083984
v 3.0 -9.077148 3.083984
v 4.0 -10.0 0.0
v 6.0 -10.0 0.0
v 6.0 -8.0 0.0
v 4.0 -8.0 0.0
v 3.0 -9.625 0.0
v 7.0 -9.625 0.0
v 7.0 -7.077149 3.083984
v 3.0 -7.077149 3.083984
v 4.0 -8.0 0.0
v 6.0 -8.0 0.0
v 6.0 -6.0 0.0
v 4.0 -6.0 0.0
v 3.0 -7.625 0.0
v 7.0 -7.625 0.0
v 7.0 -5.077149 3.083984
v 3.0 -5.077149 3.083984
v 4.0 -6.0 0.0
v 6.0 -6.0 0.0
v 6.0 -4.0 0.0
v 4.0 -4.0 0.0
v 3.0 -5.625 0.0
v 7.0 -5.625 0.0
v 7.0 -3.077149 3.083984
v 3.0 -3.077149 3.083984
v 4.0 -4.0 0.0
v 6.0 -4.0 0.0
v 6.0 -2.0 0.0
v 4.0 -2.0 0.0
v 3.0 -3.625 0.0
v 7.0 -3.625 0.0
v 7.0 -1.0771489 3.083984
v 3.0 -1.0771489 3.083984
v 4.0 -2.0 0.0
v 6.0 -2.0 0.0
v 6.0 0.0 0.0
v 4.0 0.0 0.0
v 3.0 -1.625 0.0
v 7.0 -1.625 0.0
v 7.0 0.9228511 3.083984
v 3.0 0.9228511 3.083984
v 4.0 0.0 0.0
v 6.0 0.0 0.0
v 6.0 2.0 0.0
v 4.0 2.0 0.0
v 3.0 0.375 0.0
v 7.0 0.375 0.0
v 7.0 2.922851 3.083984
v 3.0 2.922851 3.083984
v 4.0 2.0 0.0
v 6.0 2.0 0.0
v 6.0 4.0 0.0
v 4.0 4.0 0.0
v 3.0 2.375 0.0
v 7.0 2.375 0.0
v 7.0 4.922851 3.083984
v 3.0 4.922851 3.083984
v 4.0 4.0 0.0
v 6.0 4.0 0.0
v 6.0 6.0 0.0
v 4.0 6.0 0.0
v 3.0 4.375 0.0
v 7.0 4.375 0.0
v 7.0 6.922851 3.083984
v 3.0 6.922851 3.083984
v 4.0 6.0 0.0
v 6.0 6.0 0.0
v 6.0 8.0 0.0
v 4.0 8.0 0.0
v 3.0 6.375 0.0
v 7.0 6.375 0.0
v 7.0 8.922852 3.083984
v 3.0 8.922852 3.083984
v 4.0 8.0 0.0
v 6.0 8.0 0.0
v 6.0 10.0 0.0
v 4.0 10.0 0.0
v 3.0 8.375 0.0
v 7.0 8.375 0.0
v 7.0 10.922852 3.083984
v 3.0 10.922852 3.083984
v 4.0 10.0 0.0
v 6.0 10.0 0.0
v 6.0 12.0 0.0
v 4.0 12.0 0.0
v 3.0 10.375 0.0
v 7.0 10.375 0.0
v 7.0 12.922852 3.083984
v 3.0 12.922852 3.083984
v 4.0 12.0 0.0
v 6.0 12.0 0.0
v 6.0 14.0 0.0
v 4.0 14.0 0.0
v 3.0 12.375 0.0
v 7.0 12.375 0.0
v 7.0 14.922852 3.083984
v 3.0 14.922852 3.083984
v 4.0 14.0 0.0
v 6.0 14.0 0.0
v 6.0 16.0 0.0
v 4.0 16.0 0.0
v 3.0 14.375 0.0
v 7.0 14.375 0.0
v 7.0 16.922852 3.083984
v 3.0 16.922852 3.083984
v 6.0 -14.0 0.0
v 8.0 -14.0 0.0
v 8.0 -12.0 0.0
v 6.0 -12.0 0.0
v 5.0 -13.625 0.0
v 9.0 -13.625 0.0
v 9.0 -11.077148 3.083984
v 5.0 -11.077148 3.083984
v 6.0 -12.0 0.0
v 8.0 -12.0 0.0
v 8.0 -10.0 0.0
v 6.0 -10.0 0.0
v 5.0 -11.625 0.0
v 9.0 -11.625 0.0
v 9.0 -9.077148 3.083984
v 5.0 -9.077148 3.083984
v 6.0 -10.0 0.0
v 8.0 -10.0 0.0
v 8.0 -8.0 0.0
v 6.0 -8.0 0.0
v 5.0 -9.625 0.0
v 9.0 -9.625 0.0
v 9.0 -7.077149 3.083984
v 5.0 -7.077149 3.083984
v 6.0 -8.0 0.0
v 8.0 -8.0 0.0
v 8.0 -6.0 0.0
v 6.0 -6.0 0.0
v 5.0 -7.625 0.0
v 9.0 -7.625 0.0
v 9.0 -5.077149 3.083984
v 5.0 -5.077149 3.083984
v 6.0 -6.0 0.0
v 8.0 -6.0 0.0
v 8.0 -4.0 0.0
v 6.0 -4.0 0.0
v 5.0 -5.625 0.0
v 9.0 -5.625 0.0
v 9.0 -3.077149 3.083984
v 5.0 -3.077149 3.083984
v 6.0 -4.0 0.0
v 8.0 -4.0 0.0
v 8.0 -2.0 0.0
v 6.0 -2.0 0.0
v 5.0 -3.625 0.0
v 9.0 -3.625 0.0
v 9.0 -1.0771489 3.083984
v 5.0 -1.0771489 3.083984
v 6.0 -2.0 0.0
v 8.0 -2.0 0.0
v 8.0 0.0 0.0
v 6.0 0.0 0.0
v 5.0 -1.625 0.0
v 9.0 -1.625 0.0
v 9.0 0.9228511 3.083984
v 5.0 0.9228511 3.083984
v 6.0 0.0 0.0
v 8.0 0.0 0.0
v 8.0 2.0 0.0
v 6.0 2.0 0.0
v 5.0 0.375 0.0
v 9.0 0.375 0.0
v 9.0 2.922851 3.083984
v 5.0 2.922851 3.083984
v 6.0 2.0 0.0
v 8.0 2.0 0.0
v 8.0 4.0 0.0
v 6.0 4.0 0.0
v 5.0 2.375 0.0
v 9.0 2.375 0.0
v 9.0 4.922851 3.083984
v 5.0 4.922851 3.083984
v 6.0 4.0 0.0
v 8.0 4.0 0.0
v 8.0 6.0 0.0
v 6.0 6.0 0.0
v 5.0 4.375 0.0
v 9.0 4.375 0.0
v 9.0 6.922851 3.083984
v 5.0 6.922851 3.083984
v 6.0 6.0 0.0
v 8.0 6.0 0.0
v 8.0 8.0 0.0
v 6.0 8.0 0.0
v 5.0 6.375 0.0
v 9.0 6.375 0.0
v 9.0 8.922852 3.083984
v 5.0 8.922852 3.083984
v 6.0 8.0 0.0
v 8.0 8.0 0.0
v 8.0 10.0 0.0
v 6.0 10.0 0.0
v 5.0 8.375 0.0
v 9.0 8.375 0.0
v 9.0 10.922852 3.083984
v 5.0 10.922852 3.083984
v 6.0 10.0 0.0
v 8.0 10.0 0.0
v 8.0 12.0 0.0
v 6.0 12.0 0.0
v 5.0 10.375 0.0
v 9.0 10.375 0.0
v 9.0 12.922852 3.083984
v 5.0 12.922852 3.083984
v 6.0 12.0 0.0
v 8.0 12.0 0.0
v 8.0 14.0 0.0
v 6.0 14.0 0.0
v 5.0 12.375 0.0
v 9.0 12.375 0.0
v 9.0 14.922852 3.083984
v 5.0 14.922852 3.083984
v 6.0 14.0 0.0
v 8.0 14.0 0.0
v 8.0 16.0 0.0
v 6.0 16.0 0.0
v 5.0 14.375 0.0
v 9.0 14.375 0.0
v 9.0 16.922852 3.083984
v 5.0 16.922852 3.083984
v 15.0 -14.000002 2.000001
v 7.0 -14.000002 2.000001
v 7.0 -16.000002 2.000001
v 15.0 -16.000002 2.000001
v 16.0 -11.000003 2.000001
v 8.0 -11.000003 2.000001
v 8.0 -14.000003 2.000001
v 16.0 -14.000003 2.000001
v 16.0 -10.2109375 1.098633
v 8.0 -10.2109375 1.098633
v 16.0 -10.669921 1.997071
v 8.0 -10.669921 1.997071
v 16.0 -10.999999 2.0
v 8.0 -10.999999 2.0
v 16.0 -9.999999 1.0
v 8.0 -9.999999 1.0
v 8.0 -10.2109375 1.098633
v 16.0 -10.2109375 1.098633
v 8.0 -10.0 0.0
v 10.0 -10.0 0.0
v 10.0 -8.0 0.0
v 8.0 -8.0 0.0
v 7.0 -9.625 0.0
v 11.0 -9.625 0.0
v 11.0 -7.077149 3.083984
v 7.0 -7.077149 3.083984
v 8.0 -8.0 0.0
v 10.0 -8.0 0.0
v 10.0 -6.0 0.0
v 8.0 -6.0 0.0
v 7.0 -7.625 0.0
v 11.0 -7.625 0.0
v 11.0 -5.077149 3.083984
v 7.0 -5.077149 3.083984
v 8.0 -6.0 0.0
v 10.0 -6.0 0.0
v 10.0 -4.0 0.0
v 8.0 -4.0 0.0
v 7.0 -5.625 0.0
v 11.0 -5.625 0.0
v 11.0 -3.077149 3.083984
v 7.0 -3.077149 3.083984
v 8.0 -4.0 0.0
v 10.0 -4.0 0.0
v 10.0 -2.0 0.0
v 8.0 -2.0 0.0
v 7.0 -3.625 0.0
v 11.0 -3.625 0.0
v 11.0 -1.0771489 3.083984
v 7.0 -1.0771489 3.083984
v 8.0 -2.0 0.0
v 10.0 -2.0 0.0
v 10.0 0.0 0.0
v 8.0 0.0 0.0
v 7.0 -1.625 0.0
v 11.0 -1.625 0.0
v 11.0 0.9228511 3.083984
v 7.0 0.9228511 3.083984
v 8.0 0.0 0.0
v 10.0 0.0 0.0
v 10.0 2.0 0.0
v 8.0 2.0 0.0
v 7.0 0.375 0.0
v 11.0 0.375 0.0
v 11.0 2.922851 3.083984
v 7.0 2.922851 3.083984
v 8.0 2.0 0.0
v 10.0 2.0 0.0
v 10.0 4.0 0.0
v 8.0 4.0 0.0
v 7.0 2.375 0.0
v 11.0 2.375 0.0
v 11.0 4.922851 3.083984
v 7.0 4.922851 3.083984
v 8.0 4.0 0.0
v 10.0 4.0 0.0
v 10.0 6.0 0.0
v 8.0 6.0 0.0
v 7.0 4.375 0.0
v 11.0 4.375 0.0
v 11.0 6.922851 3.083984
v 7.0 6.922851 3.083984
v 8.0 6.0 0.0
v 10.0 6.0 0.0
v 10.0 8.0 0.0
v 8.0 8.0 0.0
v 7.0 6.375 0.0
v 11.0 6.375 0.0
v 11.0 8.922852 3.083984
v 7.0 8.922852 3.083984
v 8.0 8.0 0.0
v 10.0 8.0 0.0
v 10.0 10.0 0.0
v 8.0 10.0 0.0
v 7.0 8.375 0.0
v 11.0 8.375 0.0
v 11.0 10.922852 3.083984
v 7.0 10.922852 3.083984
v 8.0 10.0 0.0
v 10.0 10.0 0.0
v 10.0 12.0 0.0
v 8.0 12.0 0.0
v 7.0 10.375 0.0
v 11.0 10.375 0.0
v 11.0 12.922852 3.083984
v 7.0 12.922852 3.083984
v 8.0 12.0 0.0
v 10.0 12.0 0.0
v 10.0 14.0 0.0
v 8.0 14.0 0.0
v 7.0 12.375 0.0
v 11.0 12.375 0.0
v 11.0 14.922852 3.083984
v 7.0 14.922852 3.083984
v 8.0 14.0 0.0
v 10.0 14.0 0.0
v 10.0 16.0 0.0
v 8.0 16.0 0.0
v 7.0 14.375 0.0
v 11.0 14.375 0.0
v 11.0 16.922852 3.083984
v 7.0 16.922852 3.083984
v 10.0 -10.0 0.0
v 12.0 -10.0 0.0
v 12.0 -8.0 0.0
v 10.0 -8.0 0.0
v 9.0 -9.625 0.0
v 13.0 -9.625 0.0
v 13.0 -7.077149 3.083984
v 9.0 -7.077149 3.083984
v 10.0 -8.0 0.0
v 12.0 -8.0 0.0
v 12.0 -6.0 0.0
v 10.0 -6.0 0.0
v 9.0 -7.625 0.0
v 13.0 -7.625 0.0
v 13.0 -5.077149 3.083984
v 9.0 -5.077149 3.083984
v 10.0 -6.0 0.0
v 12.0 -6.0 0.0
v 12.0 -4.0 0.0
v 10.0 -4.0 0.0
v 9.0 -5.625 0.0
v 13.0 -5.625 0.0
v 13.0 -3.077149 3.083984
v 9.0 -3.077149 3.083984
v 10.0 -4.0 0.0
v 12.0 -4.0 0.0
v 12.0 -2.0 0.0
v 10.0 -2.0 0.0
v 9.0 -3.625 0.0
v 13.0 -3.625 0.0
v 13.0 -1.0771489 3.083984
v 9.0 -1.0771489 3.083984
v 10.0 -2.0 0.0
v 12.0 -2.0 0.0
v 12.0 0.0 0.0
v 10.0 0.0 0.0
v 9.0 -1.625 0.0
v 13.0 -1.625 0.0
v 13.0 0.9228511 3.083984
v 9.0 0.9228511 3.083984
v 10.0 0.0 0.0
v 12.0 0.0 0.0
v 12.0 2.0 0.0
v 10.0 2.0 0.0
v 9.0 0.375 0.0
v 13.0 0.375 0.0
v 13.0 2.922851 3.083984
v 9.0 2.922851 3.083984
v 10.0 2.0 0.0
v 12.0 2.0 0.0
v 12.0 4.0 0.0
v 10.0 4.0 0.0
v 9.0 2.375 0.0
v 13.0 2.375 0.0
v 13.0 4.922851 3.083984
v 9.0 4.922851 3.083984
v 10.0 4.0 0.0
v 12.0 4.0 0.0
v 12.0 6.0 0.0
v 10.0 6.0 0.0
v 9.0 4.375 0.0
v 13.0 4.375 0.0
v 13.0 6.922851 3.083984
v 9.0 6.922851 3.083984
v 10.0 6.0 0.0
v 12.0 6.0 0.0
v 12.0 8.0 0.0
v 10.0 8.0 0.0
v 9.0 6.375 0.0
v 13.0 6.375 0.0
v 13.0 8.922852 3.083984
v 9.0 8.922852 3.083984
v 10.0 8.0 0.0
v 12.0 8.0 0.0
v 12.0 10.0 0.0
v 10.0 10.0 0.0
v 9.0 8.375 0.0
v 13.0 8.375 0.0
v 13.0 10.922852 3.083984
v 9.0 10.922852 3.083984
v 10.0 10.0 0.0
v 12.0 10.0 0.0
v 12.0 12.0 0.0
v 10.0 12.0 0.0
v 9.0 10.375 0.0
v 13.0 10.375 0.0
v 13.0 12.922852 3.083984
v 9.0 12.922852 3.083984
v 10.0 12.0 0.0
v 12.0 12.0 0.0
v 12.0 14.0 0.0
v 10.0 14.0 0.0
v 9.0 12.375 0.0
v 13.0 12.375 0.0
v 13.0 14.922852 3.083984
v 9.0 14.922852 3.083984
v 10.0 14.0 0.0
v 12.0 14.0 0.0
v 12.0 16.0 0.0
v 10.0 16.0 0.0
v 9.0 14.375 0.0
v 13.0 14.375 0.0
v 13.0 16.922852 3.083984
v 9.0 16.922852 3.083984
v 12.0 -10.0 1.0
v 14.0 -10.0 1.0
v 14.0 -8.0 1.0
v 12.0 -8.0 1.0
v 11.0 -9.625 1.0
v 15.0 -9.625 1.0
v 15.0 -7.077149 4.083984
v 11.0 -7.077149 4.083984
v 12.0 -7.210937 0.09863299
v 12.0 -7.669921 0.997071
v 14.0 -7.669921 0.997071
v 14.0 -7.210937 0.09863299
v 12.0 -7.999999 1.0
v 14.0 -7.999999 1.0
v 12.0 -7.210937 0.09863299
v 14.0 -7.210937 0.09863299
v 14.0 -6.999999 0.0
v 12.0 -6.999999 0.0
v 12.0 -7.0 0.0
v 14.0 -7.0 0.0
v 14.0 -5.0 0.0
v 12.0 -5.0 0.0
v 11.0 -6.625 0.0
v 15.0 -6.625 0.0
v 15.0 -4.077149 3.083984
v 11.0 -4.077149 3.083984
v 12.0 -5.0 0.0
v 14.0 -5.0 0.0
v 14.0 -3.0 0.0
v 12.0 -3.0 0.0
v 11.0 -4.625 0.0
v 15.0 -4.625 0.0
v 15.0 -2.077149 3.083984
v 11.0 -2.077149 3.083984
v 16.0 -3.0 0.0
v 16.0 -1.0 0.0
v 12.0 -1.0 0.0
v 12.0 -3.0 0.0
v 12.0 -1.0 0.0
v 14.0 -1.0 0.0
v 14.0 1.0 0.0
v 12.0 1.0 0.0
v 11.0 -0.625 0.0
v 15.0 -0.625 0.0
v 15.0 1.9228511 3.083984
v 11.0 1.9228511 3.083984
v 16.0 1.0 0.0
v 16.0 3.0 0.0
v 12.0 3.0 0.0
v 12.0 1.0 0.0
v 12.0 3.0 0.0
v 14.0 3.0 0.0
v 14.0 5.0 0.0
v 12.0 5.0 0.0
v 11.0 3.375 0.0
v 15.0 3.375 0.0
v 15.0 5.922851 3.083984
v 11.0 5.922851 3.083984
v 16.0 7.0 0.0
v 16.0 15.0 0.0
v 12.0 15.0 0.0
v 12.0 7.0 0.0
v 16.0 15.0 0.0
v 16.0 16.0 0.0
v 12.0 16.0 0.0
v 12.0 15.0 0.0
v 16.0 5.0 0.0
v 16.0 7.0 0.0
v 13.0 7.0 0.0
v 13.0 5.0 0.0
v 16.0 -9.125 1.125
v 14.0 -9.125 1.125
v 14.0 -10.125 1.125
v 16.0 -10.125 1.125
v 14.0 -9.0 1.0
v 16.0 -9.0 1.0
v 16.0 -7.0 1.0
v 14.0 -7.0 1.0
v 13.0 -8.625 1.0
v 17.0 -8.625 1.0
v 17.0 -6.077149 4.083984
v 13.0 -6.077149 4.083984
v 14.0 -7.0 0.0
v 16.0 -7.0 0.0
v 16.0 -5.0 0.0
v 14.0 -5.0 0.0
v 13.0 -6.625 0.0
v 17.0 -6.625 0.0
v 17.0 -4.077149 3.083984
v 13.0 -4.077149 3.083984
v 16.0 -5.0 0.0
v 16.0 -4.0 0.0
v 14.0 -4.0 0.0
v 14.0 -5.0 0.0
v 14.0 -4.0 0.0
v 15.0 -4.0 0.0
v 15.0 -3.0 0.0
v 14.0 -3.0 0.0
v 16.0 -1.0 0.0
v 16.0 1.0 0.0
v 14.0 1.0 0.0
v 14.0 -1.0 0.0
v 16.0 3.0 0.0
v 16.0 5.0 0.0
v 14.0 5.0 0.0
v 14.0 3.0 0.0
v 16.0 -14.000002 2.000001
v 15.0 -14.000002 2.000001
v 15.0 -16.000002 2.000001
v 16.0 -16.000002 2.000001
v 16.0 -4.0 0.0
v 16.0 -3.0 0.0
v 15.0 -3.0 0.0
v 15.0 -4.0 0.0
vt 4.0 -8.0
vt 8.0 -8.0
vt 8.0 0.0
vt 4.0 0.0
vt 4.0 -8.0
vt 8.0 -8.0
vt 8.0 0.0
vt 4.0 0.0
vt 4.0 -8.0
vt 8.0 -8.0
vt 8.0 0.0
vt 4.0 0.0
vt 4.0 -8.0
vt 8.0 -8.0
vt 8.0 0.0
vt 4.0 0.0
vt 1.0 0.0
vt 0.0 0.0
vt 0.0 -1.0
vt 1.0 -1.0
vt 1.0 0.0
vt 0.0 0.0
vt 0.0 -1.0
vt 1.0 -1.0
vt 1.0 0.0
vt 0.0 0.0
vt 0.0 -1.0
vt 1.0 -1.0
vt 1.0 0.0
vt 0.0 0.0
vt 0.0 -1.0
vt 1.0 -1.0
vt 1.0 0.0
vt 0.0 0.0
vt 0.0 -1.0
vt 1.0 -1.0
vt 1.0 0.0
vt 0.0 0.0
vt 0.0 -1.0
vt 1.0 -1.0
vt 1.0 0.0
vt 0.0 0.0
vt 0.0 -1.0
vt 1.0 -1.0
vt 1.0 0.0
vt 0.0 0.0
vt 0.0 -1.0
vt 1.0 -1.0
vt 1.0 0.0
vt 0.0 0.0
vt 0.0 -1.0
vt 1.0 -1.0
vt 1.0 0.0
vt 0.0 0.0
vt 0.0 -1.0
vt 1.0 -1.0
vt 1.0 0.0
vt 0.0 0.0
vt 0.0 -1.0
vt 1.0 -1.0
vt 1.0 0.0
vt 0.0 0.0
vt 0.0 -1.0
vt 1.0 -1.0
vt 1.0 0.0
vt 0.0 0.0
vt 0.0 -1.0
vt 1.0 -1.0
vt 1.0 0.0
vt 0.0 0.0
vt 0.0 -1.0
vt 1.0 -1.0
vt 1.0 0.0
vt 0.0 0.0
vt 0.0 -1.0
vt 1.0 -1.0
vt 1.0 0.0
vt 0.0 0.0
vt 0.0 -1.0
vt 1.0 -1.0
vt 1.0 0.0
vt 0.0 0.0
vt 0.0 -1.0
vt 1.0 -1.0
vt 1.0 0.0
vt 0.0 0.0
vt 0.0 -1.0
vt 1.0 -1.0
vt 1.0 0.0
vt 0.0 0.0
vt 0.0 -1.0
vt 1.0 -1.0
vt 1.0 0.0
vt 0.0 0.0
vt 0.0 -1.0
vt 1.0 -1.0
vt 1.0 0.0
vt 0.0 0.0
vt 0.0 -1.0
vt 1.0 -1.0
vt 1.0 0.0
vt 0.0 0.0
vt 0.0 -1.0
vt 1.0 -1.0
vt 1.0 0.0
vt 0.0 0.0
vt 0.0 -1.0
vt 1.0 -1.0
vt 1.0 0.0
vt 0.0 0.0
vt 0.0 -1.0
vt 1.0 -1.0
vt 1.0 0.0
vt 0.0 0.0
vt 0.0 -1.0
vt 1.0 -1.0
vt 1.0 0.0
vt 0.0 0.0
vt 0.0 -1.0
vt 1.0 -1.0
vt 1.0 0.0
vt 0.0 0.0
vt 0.0 -1.0
vt 1.0 -1.0
vt 1.0 0.0
vt 0.0 0.0
vt 0.0 -1.0
vt 1.0 -1.0
vt 1.0 0.0
vt 0.0 0.0
vt 0.0 -1.0
vt 1.0 -1.0
vt 1.0 0.0
vt 0.0 0.0
vt 0.0 -1.0
vt 1.0 -1.0
vt 1.0 0.0
vt 0.0 0.0
vt 0.0 -1.0
vt 1.0 -1.0
vt 1.0 0.0
vt 0.0 0.0
vt 0.0 -1.0
vt 1.0 -1.0
vt 1.0 0.0
vt 0.0 0.0
vt 0.0 -1.0
vt 1.0 -1.0
vt 1.0 0.0
vt 0.0 0.0
vt 0.0 -1.0
vt 1.0 -1.0
vt 1.0 0.0
vt 0.0 0.0
vt 0.0 -1.0
vt 1.0 -1.0
vt 1.0 0.0
vt 0.0 0.0
vt 0.0 -1.0
vt 1.0 -1.0
vt 1.0 0.0
vt 0.0 0.0
vt 0.0 -1.0
vt 1.0 -1.0
vt 1.0 0.0
vt 0.0 0.0
vt 0.0 -1.0
vt 1.0 -1.0
vt 1.0 0.0
vt 0.0 0.0
vt 0.0 -1.0
vt 1.0 -1.0
vt 1.0 0.0
vt 0.0 0.0
vt 0.0 -1.0
vt 1.0 -1.0
vt 1.0 0.0
vt 0.0 0.0
vt 0.0 -1.0
vt 1.0 -1.0
vt 1.0 0.0
vt 0.0 0.0
vt 0.0 -1.0
vt 1.0 -1.0
vt 1.0 0.0
vt 0.0 0.0
vt 0.0 -1.0
vt 1.0 -1.0
vt 1.0 0.0
vt 0.0 0.0
vt 0.0 -1.0
vt 1.0 -1.0
vt 1.0 0.0
vt 0.0 0.0
vt 0.0 -1.0
vt 1.0 -1.0
vt 1.0 0.0
vt 0.0 0.0
vt 0.0 -1.0
vt 1.0 -1.0
vt 1.0 0.0
vt 0.0 0.0
vt 0.0 -1.0
vt 1.0 -1.0
vt 1.0 0.0
vt 0.0 0.0
vt 0.0 -1.0
vt 1.0 -1.0
vt 1.0 0.0
vt 0.0 0.0
vt 0.0 -1.0
vt 1.0 -1.0
vt 1.0 0.0
vt 0.0 0.0
vt 0.0 -1.0
vt 1.0 -1.0
vt 1.0 0.0
vt 0.0 0.0
vt 0.0 -1.0
vt 1.0 -1.0
vt 1.0 0.0
vt 0.0 0.0
vt 0.0 -1.0
vt 1.0 -1.0
vt 1.0 0.0
vt 0.0 0.0
vt 0.0 -1.0
vt 1.0 -1.0
vt 1.0 0.0
vt 0.0 0.0
vt 0.0 -1.0
vt 1.0 -1.0
vt 1.0 0.0
vt 0.0 0.0
vt 0.0 -1.0
vt 1.0 -1.0
vt 1.0 0.0
vt 0.0 0.0
vt 0.0 -1.0
vt 1.0 -1.0
vt 1.0 0.0
vt 0.0 0.0
vt 0.0 -1.0
vt 1.0 -1.0
vt 1.0 0.0
vt 0.0 0.0
vt 0.0 -1.0
vt 1.0 -1.0
vt 1.0 0.0
vt 0.0 0.0
vt 0.0 -1.0
vt 1.0 -1.0
vt 1.0 0.0
vt 0.0 0.0
vt 0.0 -1.0
vt 1.0 -1.0
vt 1.0 0.0
vt 0.0 0.0
vt 0.0 -1.0
vt 1.0 -1.0
vt 1.0 0.0
vt 0.0 0.0
vt 0.0 -1.0
vt 1.0 -1.0
vt 1.0 0.0
vt 0.0 0.0
vt 0.0 -1.0
vt 1.0 -1.0
vt 1.0 0.0
vt 0.0 0.0
vt 0.0 -1.0
vt 1.0 -1.0
vt 1.0 0.0
vt 0.0 0.0
vt 0.0 -1.0
vt 1.0 -1.0
vt 1.0 0.0
vt 0.0 0.0
vt 0.0 -1.0
vt 1.0 -1.0
vt 1.0 0.0
vt 0.0 0.0
vt 0.0 -1.0
vt 1.0 -1.0
vt 1.0 0.0
vt 0.0 0.0
vt 0.0 -1.0
vt 1.0 -1.0
vt 1.0 0.0
vt 0.0 0.0
vt 0.0 -1.0
vt 1.0 -1.0
vt 1.0 0.0
vt 0.0 0.0
vt 0.0 -1.0
vt 1.0 -1.0
vt 1.0 0.0
vt 0.0 0.0
vt 0.0 -1.0
vt 1.0 -1.0
vt 1.0 0.0
vt 0.0 0.0
vt 0.0 -1.0
vt 1.0 -1.0
vt 1.0 0.0
vt 0.0 0.0
vt 0.0 -1.0
vt 1.0 -1.0
vt 1.0 0.0
vt 0.0 0.0
vt 0.0 -1.0
vt 1.0 -1.0
vt 1.0 0.0
vt 0.0 0.0
vt 0.0 -1.0
vt 1.0 -1.0
vt 1.0 0.0
vt 0.0 0.0
vt 0.0 -1.0
vt 1.0 -1.0
vt 1.0 0.0
vt 0.0 0.0
vt 0.0 -1.0
vt 1.0 -1.0
vt 1.0 0.0
vt 0.0 0.0
vt 0.0 -1.0
vt 1.0 -1.0
vt 1.0 0.0
vt 0.0 0.0
vt 0.0 -1.0
vt 1.0 -1.0
vt 1.0 0.0
vt 0.0 0.0
vt 0.0 -1.0
vt 1.0 -1.0
vt 1.0 0.0
vt 0.0 0.0
vt 0.0 -1.0
vt 1.0 -1.0
vt 1.0 0.0
vt 0.0 0.0
vt 0.0 -1.0
vt 1.0 -1.0
vt 1.0 0.0
vt 0.0 0.0
vt 0.0 -1.0
vt 1.0 -1.0
vt 1.0 0.0
vt 0.0 0.0
vt 0.0 -1.0
vt 1.0 -1.0
vt 1.0 0.0
vt 0.0 0.0
vt 0.0 -1.0
vt 1.0 -1.0
vt 1.0 0.0
vt 0.0 0.0
vt 0.0 -1.0
vt 1.0 -1.0
vt 1.0 0.0
vt 0.0 0.0
vt 0.0 -1.0
vt 1.0 -1.0
vt 1.0 0.0
vt 0.0 0.0
vt 0.0 -1.0
vt 1.0 -1.0
vt 1.0 0.0
vt 0.0 0.0
vt 0.0 -1.0
vt 1.0 -1.0
vt 1.0 0.0
vt 0.0 0.0
vt 0.0 -1.0
vt 1.0 -1.0
vt 1.0 0.0
vt 0.0 0.0
vt 0.0 -1.0
vt 1.0 -1.0
vt 1.0 0.0
vt 0.0 0.0
vt 0.0 -1.0
vt 1.0 -1.0
vt 1.0 0.0
vt 0.0 0.0
vt 0.0 -1.0
vt 1.0 -1.0
vt 1.0 0.0
vt 0.0 0.0
vt 0.0 -1.0
vt 1.0 -1.0
vt 1.0 0.0
vt 0.0 0.0
vt 0.0 -1.0
vt 1.0 -1.0
vt 1.0 0.0
vt 0.0 0.0
vt 0.0 -1.0
vt 1.0 -1.0
vt 1.0 0.0
vt 0.0 0.0
vt 0.0 -1.0
vt 1.0 -1.0
vt 1.0 0.0
vt 0.0 0.0
vt 0.0 -1.0
vt 1.0 -1.0
vt 1.0 0.0
vt 0.0 0.0
vt 0.0 -1.0
vt 1.0 -1.0
vt 1.0 0.0
vt 0.0 0.0
vt 0.0 -1.0
vt 1.0 -1.0
vt 1.0 0.0
vt 0.0 0.0
vt 0.0 -1.0
vt 1.0 -1.0
vt 1.0 0.0
vt 0.0 0.0
vt 0.0 -1.0
vt 1.0 -1.0
vt 1.0 0.0
vt 0.0 0.0
vt 0.0 -1.0
vt 1.0 -1.0
vt 1.0 0.0
vt 0.0 0.0
vt 0.0 -1.0
vt 1.0 -1.0
vt 1.0 0.0
vt 0.0 0.0
vt 0.0 -1.0
vt 1.0 -1.0
vt 1.0 0.0
vt 0.0 0.0
vt 0.0 -1.0
vt 1.0 -1.0
vt 1.0 0.0
vt 0.0 0.0
vt 0.0 -1.0
vt 1.0 -1.0
vt 1.0 0.0
vt 0.0 0.0
vt 0.0 -1.0
vt 1.0 -1.0
vt 1.0 0.0
vt 0.0 0.0
vt 0.0 -1.0
vt 1.0 -1.0
vt 1.0 0.0
vt 0.0 0.0
vt 0.0 -1.0
vt 1.0 -1.0
vt 1.0 0.0
vt 0.0 0.0
vt 0.0 -1.0
vt 1.0 -1.0
vt 1.0 0.0
vt 0.0 0.0
vt 0.0 -1.0
vt 1.0 -1.0
vt 1.0 0.0
vt 0.0 0.0
vt 0.0 -1.0
vt 1.0 -1.0
vt 1.0 0.0
vt 0.0 0.0
vt 0.0 -1.0
vt 1.0 -1.0
vt 1.0 0.0
vt 0.0 0.0
vt 0.0 -1.0
vt 1.0 -1.0
vt 1.0 0.0
vt 0.0 0.0
vt 0.0 -1.0
vt 1.0 -1.0
vt 1.0 0.0
vt 0.0 0.0
vt 0.0 -1.0
vt 1.0 -1.0
vt 1.0 0.0
vt 0.0 0.0
vt 0.0 -1.0
vt 1.0 -1.0
vt 1.0 0.0
vt 0.0 0.0
vt 0.0 -1.0
vt 1.0 -1.0
vt 1.0 0.0
vt 0.0 0.0
vt 0.0 -1.0
vt 1.0 -1.0
vt 1.0 0.0
vt 0.0 0.0
vt 0.0 -1.0
vt 1.0 -1.0
vt 1.0 0.0
vt 0.0 0.0
vt 0.0 -1.0
vt 1.0 -1.0
vt 1.0 0.0
vt 0.0 0.0
vt 0.0 -1.0
vt 1.0 -1.0
vt 1.0 0.0
vt 0.0 0.0
vt 0.0 -1.0
vt 1.0 -1.0
vt 1.0 0.0
vt 0.0 0.0
vt 0.0 -1.0
vt 1.0 -1.0
vt 1.0 0.0
vt 0.0 0.0
vt 0.0 -1.0
vt 1.0 -1.0
vt 1.0 0.0
vt 0.0 0.0
vt 0.0 -1.0
vt 1.0 -1.0
vt 1.0 0.0
vt 0.0 0.0
vt 0.0 -1.0
vt 1.0 -1.0
vt 1.0 0.0
vt 0.0 0.0
vt 0.0 -1.0
vt 1.0 -1.0
vt 1.0 0.0
vt 0.0 0.0
vt 0.0 -1.0
vt 1.0 -1.0
vt 1.0 0.0
vt 0.0 0.0
vt 0.0 -1.0
vt 1.0 -1.0
vt 1.0 0.0
vt 0.0 0.0
vt 0.0 -1.0
vt 1.0 -1.0
vt 1.0 0.0
vt 0.0 0.0
vt 0.0 -1.0
vt 1.0 -1.0
vt 1.0 0.0
vt 0.0 0.0
vt 0.0 -1.0
vt 1.0 -1.0
vt 1.0 0.0
vt 0.0 0.0
vt 0.0 -1.0
vt 1.0 -1.0
vt 1.0 0.0
vt 0.0 0.0
vt 0.0 -1.0
vt 1.0 -1.0
vt 1.0 0.0
vt 0.0 0.0
vt 0.0 -1.0
vt 1.0 -1.0
vt 1.0 0.0
vt 0.0 0.0
vt 0.0 -1.0
vt 1.0 -1.0
vt 1.0 0.0
vt 0.0 0.0
vt 0.0 -1.0
vt 1.0 -1.0
vt 1.0 0.0
vt 0.0 0.0
vt 0.0 -1.0
vt 1.0 -1.0
vt 1.0 0.0
vt 0.0 0.0
vt 0.0 -1.0
vt 1.0 -1.0
vt 1.0 0.0
vt 0.0 0.0
vt 0.0 -1.0
vt 1.0 -1.0
vt 1.0 0.0
vt 0.0 0.0
vt 0.0 -1.0
vt 1.0 -1.0
vt 1.0 0.0
vt 0.0 0.0
vt 0.0 -1.0
vt 1.0 -1.0
vt 1.0 0.0
vt 0.0 0.0
vt 0.0 -1.0
vt 1.0 -1.0
vt 1.0 0.0
vt 0.0 0.0
vt 0.0 -1.0
vt 1.0 -1.0
vt 1.0 0.0
vt 0.0 0.0
vt 0.0 -1.0
vt 1.0 -1.0
vt 1.0 0.0
vt 0.0 0.0
vt 0.0 -1.0
vt 1.0 -1.0
vt 1.0 0.0
vt 0.0 0.0
vt 0.0 -1.0
vt 1.0 -1.0
vt 1.0 0.0
vt 0.0 0.0
vt 0.0 -1.0
vt 1.0 -1.0
vt 1.0 0.0
vt 0.0 0.0
vt 0.0 -1.0
vt 1.0 -1.0
vt 1.0 0.0
vt 0.0 0.0
vt 0.0 -1.0
vt 1.0 -1.0
vt 1.0 0.0
vt 0.0 0.0
vt 0.0 -1.0
vt 1.0 -1.0
vt 1.0 0.0
vt 0.0 0.0
vt 0.0 -1.0
vt 1.0 -1.0
vt 1.0 0.0
vt 0.0 0.0
vt 0.0 -1.0
vt 1.0 -1.0
vt 1.0 0.0
vt 0.0 0.0
vt 0.0 -1.0
vt 1.0 -1.0
vt 1.0 0.0
vt 0.0 0.0
vt 0.0 -1.0
vt 1.0 -1.0
vt 1.0 0.0
vt 0.0 0.0
vt 0.0 -1.0
vt 1.0 -1.0
vt 1.0 0.0
vt 0.0 0.0
vt 0.0 -1.0
vt 1.0 -1.0
vt 1.0 0.0
vt 0.0 0.0
vt 0.0 -1.0
vt 1.0 -1.0
vt 1.0 0.0
vt 0.0 0.0
vt 0.0 -1.0
vt 1.0 -1.0
vt 1.0 0.0
vt 0.0 0.0
vt 0.0 -1.0
vt 1.0 -1.0
vt 1.0 0.0
vt 0.0 0.0
vt 0.0 -1.0
vt 1.0 -1.0
vt 1.0 0.0
vt 0.0 0.0
vt 0.0 -1.0
vt 1.0 -1.0
vt 1.0 0.0
vt 0.0 0.0
vt 0.0 -1.0
vt 1.0 -1.0
vt 1.0 0.0
vt 0.0 0.0
vt 0.0 -1.0
vt 1.0 -1.0
vt 1.0 0.0
vt 0.0 0.0
vt 0.0 -1.0
vt 1.0 -1.0
vt 1.0 0.0
vt 0.0 0.0
vt 0.0 -1.0
vt 1.0 -1.0
vt 1.0 0.0
vt 0.0 0.0
vt 0.0 -1.0
vt 1.0 -1.0
vt 1.0 0.0
vt 0.0 0.0
vt 0.0 -1.0
vt 1.0 -1.0
vt 1.0 0.0
vt 0.0 0.0
vt 0.0 -1.0
vt 1.0 -1.0
vt 1.0 0.0
vt 0.0 0.0
vt 0.0 -1.0
vt 1.0 -1.0
vt 1.0 0.0
vt 0.0 0.0
vt 0.0 -1.0
vt 1.0 -1.0
vt 1.0 0.0
vt 0.0 0.0
vt 0.0 -1.0
vt 1.0 -1.0
vt 1.0 0.0
vt 0.0 0.0
vt 0.0 -1.0
vt 1.0 -1.0
vt 1.0 0.0
vt 0.0 0.0
vt 0.0 -1.0
vt 1.0 -1.0
vt 1.0 0.0
vt 0.0 0.0
vt 0.0 -1.0
vt 1.0 -1.0
vt 1.0 0.0
vt 0.0 0.0
vt 0.0 -1.0
vt 1.0 -1.0
vt 1.0 0.0
vt 0.0 0.0
vt 0.0 -1.0
vt 1.0 -1.0
vt 1.0 0.0
vt 0.0 0.0
vt 0.0 -1.0
vt 1.0 -1.0
vt 1.0 0.0
vt 0.0 0.0
vt 0.0 -1.0
vt 1.0 -1.0
vt 1.0 0.0
vt 0.0 0.0
vt 0.0 -1.0
vt 1.0 -1.0
vt 1.0 0.0
vt 0.0 0.0
vt 0.0 -1.0
vt 1.0 -1.0
vt 1.0 0.0
vt 0.0 0.0
vt 0.0 -1.0
vt 1.0 -1.0
vt 1.0 0.0
vt 0.0 0.0
vt 0.0 -1.0
vt 1.0 -1.0
vt 1.0 0.0
vt 0.0 0.0
vt 0.0 -1.0
vt 1.0 -1.0
vt 1.0 0.0
vt 0.0 0.0
vt 0.0 -1.0
vt 1.0 -1.0
vt 1.0 0.0
vt 0.0 0.0
vt 0.0 -1.0
vt 1.0 -1.0
vt 1.0 0.0
vt 0.0 0.0
vt 0.0 -1.0
vt 1.0 -1.0
vt 1.0 0.0
vt 0.0 0.0
vt 0.0 -1.0
vt 1.0 -1.0
vt 1.0 0.0
vt 0.0 0.0
vt 0.0 -1.0
vt 1.0 -1.0
vt 1.0 0.0
vt 0.0 0.0
vt 0.0 -1.0
vt 1.0 -1.0
vt 1.0 0.0
vt 0.0 0.0
vt 0.0 -1.0
vt 1.0 -1.0
vt 1.0 0.0
vt 0.0 0.0
vt 0.0 -1.0
vt 1.0 -1.0
vt 1.0 0.0
vt 0.0 0.0
vt 0.0 -1.0
vt 1.0 -1.0
vt 1.0 0.0
vt 0.0 0.0
vt 0.0 -1.0
vt 1.0 -1.0
vt 1.0 0.0
vt 0.0 0.0
vt 0.0 -1.0
vt 1.0 -1.0
vt 1.0 0.0
vt 0.0 0.0
vt 0.0 -1.0
vt 1.0 -1.0
vt 1.0 0.0
vt 0.0 0.0
vt 0.0 -1.0
vt 1.0 -1.0
vt 1.0 0.0
vt 0.0 0.0
vt 0.0 -1.0
vt 1.0 -1.0
vt 1.0 0.0
vt 0.0 0.0
vt 0.0 -1.0
vt 1.0 -1.0
vt 1.0 0.0
vt 0.0 0.0
vt 0.0 -1.0
vt 1.0 -1.0
vt 1.0 0.0
vt 0.0 0.0
vt 0.0 -1.0
vt 1.0 -1.0
vt 1.0 0.0
vt 0.0 0.0
vt 0.0 -1.0
vt 1.0 -1.0
vt 1.0 0.0
vt 0.0 0.0
vt 0.0 -1.0
vt 1.0 -1.0
vt 1.0 0.0
vt 0.0 0.0
vt 0.0 -1.0
vt 1.0 -1.0
vt 1.0 0.0
vt 0.0 0.0
vt 0.0 -1.0
vt 1.0 -1.0
vt 1.0 0.0
vt 0.0 0.0
vt 0.0 -1.0
vt 1.0 -1.0
vt 1.0 0.0
vt 0.0 0.0
vt 0.0 -1.0
vt 1.0 -1.0
vt 1.0 0.0
vt 0.0 0.0
vt 0.0 -1.0
vt 1.0 -1.0
vt 1.0 0.0
vt 0.0 0.0
vt 0.0 -1.0
vt 1.0 -1.0
vt 1.0 0.0
vt 0.0 0.0
vt 0.0 -1.0
vt 1.0 -1.0
vt 1.0 0.0
vt 0.0 0.0
vt 0.0 -1.0
vt 1.0 -1.0
vt 1.0 0.0
vt 0.0 0.0
vt 0.0 -1.0
vt 1.0 -1.0
vt 1.0 0.0
vt 0.0 0.0
vt 0.0 -1.0
vt 1.0 -1.0
vt 1.0 0.0
vt 0.0 0.0
vt 0.0 -1.0
vt 1.0 -1.0
vt 1.0 0.0
vt 0.0 0.0
vt 0.0 -1.0
vt 1.0 -1.0
vt 1.0 0.0
vt 0.0 0.0
vt 0.0 -1.0
vt 1.0 -1.0
vt 1.0 0.0
vt 0.0 0.0
vt 0.0 -1.0
vt 1.0 -1.0
vt 1.0 0.0
vt 0.0 0.0
vt 0.0 -1.0
vt 1.0 -1.0
vt 1.0 0.0
vt 0.0 0.0
vt 0.0 -1.0
vt 1.0 -1.0
vt 1.0 0.0
vt 0.0 0.0
vt 0.0 -1.0
vt 1.0 -1.0
vt 1.0 0.0
vt 0.0 0.0
vt 0.0 -1.0
vt 1.0 -1.0
vt 1.0 0.0
vt 0.0 0.0
vt 0.0 -1.0
vt 1.0 -1.0
vt 1.0 0.0
vt 0.0 0.0
vt 0.0 -1.0
vt 1.0 -1.0
vt 1.0 0.0
vt 0.0 0.0
vt 0.0 -1.0
vt 1.0 -1.0
vt 1.0 0.0
vt 0.0 0.0
vt 0.0 -1.0
vt 1.0 -1.0
vt 1.0 0.0
vt 0.0 0.0
vt 0.0 -1.0
vt 1.0 -1.0
vt 1.0 0.0
vt 0.0 0.0
vt 0.0 -1.0
vt 1.0 -1.0
vt 1.0 0.0
vt 0.0 0.0
vt 0.0 -1.0
vt 1.0 -1.0
vt 1.0 0.0
vt 0.0 0.0
vt 0.0 -1.0
vt 1.0 -1.0
vt 1.0 0.0
vt 0.0 0.0
vt 0.0 -1.0
vt 1.0 -1.0
vt 1.0 0.0
vt 0.0 0.0
vt 0.0 -1.0
vt 1.0 -1.0
vt 1.0 0.0
vt 0.0 0.0
vt 0.0 -1.0
vt 1.0 -1.0
vt 1.0 0.0
vt 0.0 0.0
vt 0.0 -1.0
vt 1.0 -1.0
vt 1.0 0.0
vt 0.0 0.0
vt 0.0 -1.0
vt 1.0 -1.0
vt 1.0 0.0
vt 0.0 0.0
vt 0.0 -1.0
vt 1.0 -1.0
vt 1.0 0.0
vt 0.0 0.0
vt 0.0 -1.0
vt 1.0 -1.0
vt 1.0 0.0
vt 0.0 0.0
vt 0.0 -1.0
vt 1.0 -1.0
vt 1.0 0.0
vt 0.0 0.0
vt 0.0 -1.0
vt 1.0 -1.0
vt 1.0 0.0
vt 0.0 0.0
vt 0.0 -1.0
vt 1.0 -1.0
vt 1.0 0.0
vt 0.0 0.0
vt 0.0 -1.0
vt 1.0 -1.0
vt 1.0 0.0
vt 0.0 0.0
vt 0.0 -1.0
vt 1.0 -1.0
vt 1.0 0.0
vt 0.0 0.0
vt 0.0 -1.0
vt 1.0 -1.0
vt 1.0 0.0
vt 0.0 0.0
vt 0.0 -1.0
vt 1.0 -1.0
vt 1.0 0.0
vt 0.0 0.0
vt 0.0 -1.0
vt 1.0 -1.0
vt 1.0 0.0
vt 0.0 0.0
vt 0.0 -1.0
vt 1.0 -1.0
vt 1.0 0.0
vt 0.0 0.0
vt 0.0 -1.0
vt 1.0 -1.0
vt 1.0 0.0
vt 0.0 0.0
vt 0.0 -1.0
vt 1.0 -1.0
vt 1.0 0.0
vt 0.0 0.0
vt 0.0 -1.0
vt 1.0 -1.0
vt 1.0 0.0
vt 0.0 0.0
vt 0.0 -1.0
vt 1.0 -1.0
vt 1.0 0.0
vt 0.0 0.0
vt 0.0 -1.0
vt 1.0 -1.0
vt 1.0 0.0
vt 0.0 0.0
vt 0.0 -1.0
vt 1.0 -1.0
vt 1.0 0.0
vt 0.0 0.0
vt 0.0 -1.0
vt 1.0 -1.0
vt 1.0 0.0
vt 0.0 0.0
vt 0.0 -1.0
vt 1.0 -1.0
vt 1.0 0.0
vt 0.0 0.0
vt 0.0 -1.0
vt 1.0 -1.0
vt 10.0 0.999999
vt 11.5 -1.0E-6
vt 11.5 0.999999
vt 10.0 -1.0E-6
vt 1.0 0.0
vt 0.0 0.0
vt 0.0 -1.0
vt 1.0 -1.0
vt 1.0 0.0
vt 0.0 0.0
vt 0.0 -1.0
vt 1.0 -1.0
vt 1.0 0.0
vt 0.0 0.0
vt 0.0 -1.0
vt 1.0 -1.0
vt 1.0 0.0
vt 0.0 0.0
vt 0.0 -1.0
vt 1.0 -1.0
vt 1.0 0.0
vt 0.0 0.0
vt 0.0 -1.0
vt 1.0 -1.0
vt 1.0 0.0
vt 0.0 0.0
vt 0.0 -1.0
vt 1.0 -1.0
vt 1.0 0.0
vt 0.0 0.0
vt 0.0 -1.0
vt 1.0 -1.0
vt 1.0 0.0
vt 0.0 0.0
vt 0.0 -1.0
vt 1.0 -1.0
vt 1.0 0.0
vt 0.0 0.0
vt 0.0 -1.0
vt 1.0 -1.0
vt 1.0 0.0
vt 0.0 0.0
vt 0.0 -1.0
vt 1.0 -1.0
vt 1.0 0.0
vt 0.0 0.0
vt 0.0 -1.0
vt 1.0 -1.0
vt 1.0 0.0
vt 0.0 0.0
vt 0.0 -1.0
vt 1.0 -1.0
vt 1.0 0.0
vt 0.0 0.0
vt 0.0 -1.0
vt 1.0 -1.0
vt 1.0 0.0
vt 0.0 0.0
vt 0.0 -1.0
vt 1.0 -1.0
vt 1.0 0.0
vt 0.0 0.0
vt 0.0 -1.0
vt 1.0 -1.0
vt 1.0 0.0
vt 0.0 0.0
vt 0.0 -1.0
vt 1.0 -1.0
vt 1.0 0.0
vt 0.0 0.0
vt 0.0 -1.0
vt 1.0 -1.0
vt 1.0 0.0
vt 0.0 0.0
vt 0.0 -1.0
vt 1.0 -1.0
vt 1.0 0.0
vt 0.0 0.0
vt 0.0 -1.0
vt 1.0 -1.0
vt 1.0 0.0
vt 0.0 0.0
vt 0.0 -1.0
vt 1.0 -1.0
vt 1.0 0.0
vt 0.0 0.0
vt 0.0 -1.0
vt 1.0 -1.0
vt 1.0 0.0
vt 0.0 0.0
vt 0.0 -1.0
vt 1.0 -1.0
vt 1.0 0.0
vt 0.0 0.0
vt 0.0 -1.0
vt 1.0 -1.0
vt 1.0 0.0
vt 0.0 0.0
vt 0.0 -1.0
vt 1.0 -1.0
vt 1.0 0.0
vt 0.0 0.0
vt 0.0 -1.0
vt 1.0 -1.0
vt 1.0 0.0
vt 0.0 0.0
vt 0.0 -1.0
vt 1.0 -1.0
vt 1.0 0.0
vt 0.0 0.0
vt 0.0 -1.0
vt 1.0 -1.0
vt 1.0 0.0
vt 0.0 0.0
vt 0.0 -1.0
vt 1.0 -1.0
vt 1.0 0.0
vt 0.0 0.0
vt 0.0 -1.0
vt 1.0 -1.0
vt 1.0 0.0
vt 0.0 0.0
vt 0.0 -1.0
vt 1.0 -1.0
vt 1.0 0.0
vt 0.0 0.0
vt 0.0 -1.0
vt 1.0 -1.0
vt 1.0 0.0
vt 0.0 0.0
vt 0.0 -1.0
vt 1.0 -1.0
vt 1.0 0.0
vt 0.0 0.0
vt 0.0 -1.0
vt 1.0 -1.0
vt 1.0 0.0
vt 0.0 0.0
vt 0.0 -1.0
vt 1.0 -1.0
vt 1.0 0.0
vt 0.0 0.0
vt 0.0 -1.0
vt 1.0 -1.0
vt 1.0 0.0
vt 0.0 0.0
vt 0.0 -1.0
vt 1.0 -1.0
vt 1.0 0.0
vt 0.0 0.0
vt 0.0 -1.0
vt 1.0 -1.0
vt 1.0 0.0
vt 0.0 0.0
vt 0.0 -1.0
vt 1.0 -1.0
vt 1.0 0.0
vt 0.0 0.0
vt 0.0 -1.0
vt 1.0 -1.0
vt 1.0 0.0
vt 0.0 0.0
vt 0.0 -1.0
vt 1.0 -1.0
vt 1.0 0.0
vt 0.0 0.0
vt 0.0 -1.0
vt 1.0 -1.0
vt 1.0 0.0
vt 0.0 0.0
vt 0.0 -1.0
vt 1.0 -1.0
vt 1.0 0.0
vt 0.0 0.0
vt 0.0 -1.0
vt 1.0 -1.0
vt 1.0 0.0
vt 0.0 0.0
vt 0.0 -1.0
vt 1.0 -1.0
vt 1.0 0.0
vt 0.0 0.0
vt 0.0 -1.0
vt 1.0 -1.0
vt 1.0 0.0
vt 0.0 0.0
vt 0.0 -1.0
vt 1.0 -1.0
vt 1.0 0.0
vt 0.0 0.0
vt 0.0 -1.0
vt 1.0 -1.0
vt 1.0 0.0
vt 0.0 0.0
vt 0.0 -1.0
vt 1.0 -1.0
vt 1.0 0.0
vt 0.0 0.0
vt 0.0 -1.0
vt 1.0 -1.0
vt 1.0 0.0
vt 0.0 0.0
vt 0.0 -1.0
vt 1.0 -1.0
vt 1.0 0.0
vt 0.0 0.0
vt 0.0 -1.0
vt 1.0 -1.0
vt 1.0 0.0
vt 0.0 0.0
vt 0.0 -1.0
vt 1.0 -1.0
vt 1.0 0.0
vt 0.0 0.0
vt 0.0 -1.0
vt 1.0 -1.0
vt 1.0 0.0
vt 0.0 0.0
vt 0.0 -1.0
vt 1.0 -1.0
vt 1.0 0.0
vt 0.0 0.0
vt 0.0 -1.0
vt 1.0 -1.0
vt 1.0 0.0
vt 0.0 0.0
vt 0.0 -1.0
vt 1.0 -1.0
vt 1.0 0.0
vt 0.0 0.0
vt 0.0 -1.0
vt 1.0 -1.0
vt 1.0 0.0
vt 0.0 0.0
vt 0.0 -1.0
vt 1.0 -1.0
vt 1.0 0.0
vt 0.0 0.0
vt 0.0 -1.0
vt 1.0 -1.0
vt 1.0 0.0
vt 0.0 0.0
vt 0.0 -1.0
vt 1.0 -1.0
vt 11.5 -1.0E-6
vt 15.5 -1.0E-6
vt 15.5 0.999999
vt 11.5 0.999999
vt 12.0 0.9999985
vt 16.0 0.9999985
vt 16.0 2.4999986
vt 12.0 2.4999986
vt 4.0 -0.394531
vt 4.0 -0.097656
vt 0.0 -0.097656
vt 0.0 -0.394531
vt 4.0 -0.015625
vt 0.0 -0.015625
vt 4.0 -0.394531
vt 0.0 -0.394531
vt 0.0 -0.488281
vt 4.0 -0.488281
vt 1.0 0.0
vt 0.0 0.0
vt 0.0 -1.0
vt 1.0 -1.0
vt 1.0 0.0
vt 0.0 0.0
vt 0.0 -1.0
vt 1.0 -1.0
vt 1.0 0.0
vt 0.0 0.0
vt 0.0 -1.0
vt 1.0 -1.0
vt 1.0 0.0
vt 0.0 0.0
vt 0.0 -1.0
vt 1.0 -1.0
vt 1.0 0.0
vt 0.0 0.0
vt 0.0 -1.0
vt 1.0 -1.0
vt 1.0 0.0
vt 0.0 0.0
vt 0.0 -1.0
vt 1.0 -1.0
vt 1.0 0.0
vt 0.0 0.0
vt 0.0 -1.0
vt 1.0 -1.0
vt 1.0 0.0
vt 0.0 0.0
vt 0.0 -1.0
vt 1.0 -1.0
vt 1.0 0.0
vt 0.0 0.0
vt 0.0 -1.0
vt 1.0 -1.0
vt 1.0 0.0
vt 0.0 0.0
vt 0.0 -1.0
vt 1.0 -1.0
vt 1.0 0.0
vt 0.0 0.0
vt 0.0 -1.0
vt 1.0 -1.0
vt 1.0 0.0
vt 0.0 0.0
vt 0.0 -1.0
vt 1.0 -1.0
vt 1.0 0.0
vt 0.0 0.0
vt 0.0 -1.0
vt 1.0 -1.0
vt 1.0 0.0
vt 0.0 0.0
vt 0.0 -1.0
vt 1.0 -1.0
vt 1.0 0.0
vt 0.0 0.0
vt 0.0 -1.0
vt 1.0 -1.0
vt 1.0 0.0
vt 0.0 0.0
vt 0.0 -1.0
vt 1.0 -1.0
vt 1.0 0.0
vt 0.0 0.0
vt 0.0 -1.0
vt 1.0 -1.0
vt 1.0 0.0
vt 0.0 0.0
vt 0.0 -1.0
vt 1.0 -1.0
vt 1.0 0.0
vt 0.0 0.0
vt 0.0 -1.0
vt 1.0 -1.0
vt 1.0 0.0
vt 0.0 0.0
vt 0.0 -1.0
vt 1.0 -1.0
vt 1.0 0.0
vt 0.0 0.0
vt 0.0 -1.0
vt 1.0 -1.0
vt 1.0 0.0
vt 0.0 0.0
vt 0.0 -1.0
vt 1.0 -1.0
vt 1.0 0.0
vt 0.0 0.0
vt 0.0 -1.0
vt 1.0 -1.0
vt 1.0 0.0
vt 0.0 0.0
vt 0.0 -1.0
vt 1.0 -1.0
vt 1.0 0.0
vt 0.0 0.0
vt 0.0 -1.0
vt 1.0 -1.0
vt 1.0 0.0
vt 0.0 0.0
vt 0.0 -1.0
vt 1.0 -1.0
vt 1.0 0.0
vt 0.0 0.0
vt 0.0 -1.0
vt 1.0 -1.0
vt 1.0 0.0
vt 0.0 0.0
vt 0.0 -1.0
vt 1.0 -1.0
vt 1.0 0.0
vt 0.0 0.0
vt 0.0 -1.0
vt 1.0 -1.0
vt 1.0 0.0
vt 0.0 0.0
vt 0.0 -1.0
vt 1.0 -1.0
vt 1.0 0.0
vt 0.0 0.0
vt 0.0 -1.0
vt 1.0 -1.0
vt 1.0 0.0
vt 0.0 0.0
vt 0.0 -1.0
vt 1.0 -1.0
vt 1.0 0.0
vt 0.0 0.0
vt 0.0 -1.0
vt 1.0 -1.0
vt 1.0 0.0
vt 0.0 0.0
vt 0.0 -1.0
vt 1.0 -1.0
vt 1.0 0.0
vt 0.0 0.0
vt 0.0 -1.0
vt 1.0 -1.0
vt 1.0 0.0
vt 0.0 0.0
vt 0.0 -1.0
vt 1.0 -1.0
vt 1.0 0.0
vt 0.0 0.0
vt 0.0 -1.0
vt 1.0 -1.0
vt 1.0 0.0
vt 0.0 0.0
vt 0.0 -1.0
vt 1.0 -1.0
vt 1.0 0.0
vt 0.0 0.0
vt 0.0 -1.0
vt 1.0 -1.0
vt 1.0 0.0
vt 0.0 0.0
vt 0.0 -1.0
vt 1.0 -1.0
vt 1.0 0.0
vt 0.0 0.0
vt 0.0 -1.0
vt 1.0 -1.0
vt 1.0 0.0
vt 0.0 0.0
vt 0.0 -1.0
vt 1.0 -1.0
vt 1.0 0.0
vt 0.0 0.0
vt 0.0 -1.0
vt 1.0 -1.0
vt 1.0 0.0
vt 0.0 0.0
vt 0.0 -1.0
vt 1.0 -1.0
vt 1.0 0.0
vt 0.0 0.0
vt 0.0 -1.0
vt 1.0 -1.0
vt 1.0 0.0
vt 0.0 0.0
vt 0.0 -1.0
vt 1.0 -1.0
vt 1.0 0.0
vt 0.0 0.0
vt 0.0 -1.0
vt 1.0 -1.0
vt 1.0 0.0
vt 0.0 0.0
vt 0.0 -1.0
vt 1.0 -1.0
vt 1.0 0.0
vt 0.0 0.0
vt 0.0 -1.0
vt 1.0 -1.0
vt 1.0 0.0
vt 0.0 0.0
vt 0.0 -1.0
vt 1.0 -1.0
vt 1.0 0.0
vt 0.0 0.0
vt 0.0 -1.0
vt 1.0 -1.0
vt 1.0 0.0
vt 0.0 0.0
vt 0.0 -1.0
vt 1.0 -1.0
vt 1.0 0.0
vt 0.0 0.0
vt 0.0 -1.0
vt 1.0 -1.0
vt 1.0 0.0
vt 0.0 0.0
vt 0.0 -1.0
vt 1.0 -1.0
vt 1.0 -0.394531
vt 1.0 -0.097656
vt 0.0 -0.097656
vt 0.0 -0.394531
vt 1.0 -0.015625
vt 0.0 -0.015625
vt 1.0 -0.394531
vt 0.0 -0.394531
vt 0.0 -0.488281
vt 1.0 -0.488281
vt 1.0 0.0
vt 0.0 0.0
vt 0.0 -1.0
vt 1.0 -1.0
vt 1.0 0.0
vt 0.0 0.0
vt 0.0 -1.0
vt 1.0 -1.0
vt 1.0 0.0
vt 0.0 0.0
vt 0.0 -1.0
vt 1.0 -1.0
vt 1.0 0.0
vt 0.0 0.0
vt 0.0 -1.0
vt 1.0 -1.0
vt 4.0 -2.0
vt 8.0 -2.0
vt 8.0 0.0
vt 4.0 0.0
vt 1.0 0.0
vt 0.0 0.0
vt 0.0 -1.0
vt 1.0 -1.0
vt 1.0 0.0
vt 0.0 0.0
vt 0.0 -1.0
vt 1.0 -1.0
vt 4.0 -2.0
vt 8.0 -2.0
vt 8.0 0.0
vt 4.0 0.0
vt 1.0 0.0
vt 0.0 0.0
vt 0.0 -1.0
vt 1.0 -1.0
vt 1.0 0.0
vt 0.0 0.0
vt 0.0 -1.0
vt 1.0 -1.0
vt 4.0 -8.0
vt 8.0 -8.0
vt 8.0 0.0
vt 4.0 0.0
vt 4.0 -1.0
vt 8.0 -1.0
vt 8.0 0.0
vt 4.0 0.0
vt 3.0 -2.0
vt 6.0 -2.0
vt 6.0 0.0
vt 3.0 0.0
vt 2.0 1.0
vt 0.0 1.0
vt 0.0 0.0
vt 2.0 0.0
vt 1.0 0.0
vt 0.0 0.0
vt 0.0 -1.0
vt 1.0 -1.0
vt 1.0 0.0
vt 0.0 0.0
vt 0.0 -1.0
vt 1.0 -1.0
vt 1.0 0.0
vt 0.0 0.0
vt 0.0 -1.0
vt 1.0 -1.0
vt 1.0 0.0
vt 0.0 0.0
vt 0.0 -1.0
vt 1.0 -1.0
vt 2.0 -1.0
vt 4.0 -1.0
vt 4.0 0.0
vt 2.0 0.0
vt 0.011719 0.5
vt 0.011719 0.0
vt 0.488281 0.5
vt 0.488281 0.0
vt 2.0 -2.0
vt 4.0 -2.0
vt 4.0 0.0
vt 2.0 0.0
vt 2.0 -2.0
vt 4.0 -2.0
vt 4.0 0.0
vt 2.0 0.0
vt 16.0 0.999999
vt 15.5 -1.0E-6
vt 15.5 0.999999
vt 16.0 -1.0E-6
vt 1.0 -1.0
vt 2.0 -1.0
vt 2.0 0.0
vt 1.0 0.0
vn 0.0 -0.0 1.0
vn 0.0 -0.0 1.0
vn 0.0 -0.0 1.0
vn 0.0 -0.0 1.0
vn 0.0 -0.0 1.0
vn 0.0 -0.7714 0.6364
vn 0.0 -0.7712 0.6365
vn 0.0 -0.0 1.0
vn 0.0 -0.7714 0.6364
vn 0.0 -0.7712 0.6365
vn 0.0 -0.0 1.0
vn 0.0 -0.7714 0.6364
vn 0.0 -0.7712 0.6365
vn 0.0 -0.0 1.0
vn 0.0 -0.7714 0.6364
vn 0.0 -0.7712 0.6365
vn 0.0 -0.0 1.0
vn 0.0 -0.7714 0.6364
vn 0.0 -0.7712 0.6365
vn 0.0 -0.0 1.0
vn 0.0 -0.7714 0.6364
vn 0.0 -0.7712 0.6365
vn 0.0 -0.0 1.0
vn 0.0 -0.7714 0.6364
vn 0.0 -0.7712 0.6365
vn 0.0 -0.0 1.0
vn 0.0 -0.7714 0.6364
vn 0.0 -0.7712 0.6365
vn 0.0 -0.0 1.0
vn 0.0 -0.7714 0.6364
vn 0.0 -0.7712 0.6365
vn 0.0 -0.0 1.0
vn 0.0 -0.7714 0.6364
vn 0.0 -0.7712 0.6365
vn 0.0 -0.0 1.0
vn 0.0 -0.7714 0.6364
vn 0.0 -0.7712 0.6365
vn 0.0 -0.0 1.0
vn 0.0 -0.7714 0.6364
vn 0.0 -0.7712 0.6365
vn 0.0 -0.0 1.0
vn 0.0 -0.7714 0.6364
vn 0.0 -0.7712 0.6365
vn 0.0 -0.0 1.0
vn 0.0 -0.7714 0.6364
vn 0.0 -0.7712 0.6365
vn 0.0 -0.0 1.0
vn 0.0 -0.7714 0.6364
vn 0.0 -0.7712 0.6365
vn 0.0 -0.0 1.0
vn 0.0 -0.7714 0.6364
vn 0.0 -0.7712 0.6365
vn 0.0 -0.0 1.0
vn 0.0 -0.7714 0.6364
vn 0.0 -0.7712 0.6365
vn 0.0 -0.0 1.0
vn 0.0 -0.7714 0.6364
vn 0.0 -0.7712 0.6365
vn 0.0 -0.0 1.0
vn 0.0 -0.7714 0.6364
vn 0.0 -0.7712 0.6365
vn 0.0 -0.0 1.0
vn 0.0 -0.7714 0.6364
vn 0.0 -0.7712 0.6365
vn 0.0 -0.0 1.0
vn 0.0 -0.7714 0.6364
vn 0.0 -0.7712 0.6365
vn 0.0 -0.0 1.0
vn 0.0 -0.7714 0.6364
vn 0.0 -0.7712 0.6365
vn 0.0 -0.0 1.0
vn 0.0 -0.7714 0.6364
vn 0.0 -0.7712 0.6365
vn 0.0 -0.0 1.0
vn 0.0 -0.7714 0.6364
vn 0.0 -0.7712 0.6365
vn 0.0 -0.0 1.0
vn 0.0 -0.7714 0.6364
vn 0.0 -0.7712 0.6365
vn 0.0 -0.0 1.0
vn 0.0 -0.7714 0.6364
vn 0.0 -0.7712 0.6365
vn 0.0 -0.0 1.0
vn 0.0 -0.7714 0.6364
vn 0.0 -0.7712 0.6365
vn 0.0 -0.0 1.0
vn 0.0 -0.7714 0.6364
vn 0.0 -0.7712 0.6365
vn 0.0 -0.0 1.0
vn 0.0 -0.7714 0.6364
vn 0.0 -0.7712 0.6365
vn 0.0 -0.0 1.0
vn 0.0 -0.7714 0.6364
vn 0.0 -0.7712 0.6365
vn 0.0 -0.0 1.0
vn 0.0 -0.7714 0.6364
vn 0.0 -0.7712 0.6365
vn 0.0 -0.0 1.0
vn 0.0 -0.7714 0.6364
vn 0.0 -0.7712 0.6365
vn 0.0 -0.0 1.0
vn 0.0 -0.7714 0.6364
vn 0.0 -0.7712 0.6365
vn 0.0 -0.0 1.0
vn 0.0 -0.7714 0.6364
vn 0.0 -0.7712 0.6365
vn 0.0 -0.0 1.0
vn 0.0 -0.7714 0.6364
vn 0.0 -0.7712 0.6365
vn 0.0 -0.0 1.0
vn 0.0 -0.7714 0.6364
vn 0.0 -0.7712 0.6365
vn 0.0 -0.0 1.0
vn 0.0 -0.7714 0.6364
vn 0.0 -0.7712 0.6365
vn 0.0 -0.0 1.0
vn 0.0 -0.7714 0.6364
vn 0.0 -0.7712 0.6365
vn 0.0 -0.0 1.0
vn 0.0 -0.7714 0.6364
vn 0.0 -0.7712 0.6365
vn 0.0 -0.0 1.0
vn 0.0 -0.7714 0.6364
vn 0.0 -0.7712 0.6365
vn 0.0 -0.0 1.0
vn 0.0 -0.7714 0.6364
vn 0.0 -0.7712 0.6365
vn 0.0 -0.0 1.0
vn 0.0 -0.7714 0.6364
vn 0.0 -0.7712 0.6365
vn 0.0 -0.0 1.0
vn 0.0 -0.7714 0.6364
vn 0.0 -0.7712 0.6365
vn 0.0 -0.0 1.0
vn 0.0 -0.7714 0.6364
vn 0.0 -0.7712 0.6365
vn 0.0 -0.0 1.0
vn 0.0 -0.7714 0.6364
vn 0.0 -0.7712 0.6365
vn 0.0 -0.0 1.0
vn 0.0 -0.7714 0.6364
vn 0.0 -0.7712 0.6365
vn 0.0 -0.0 1.0
vn 0.0 -0.7714 0.6364
vn 0.0 -0.7712 0.6365
vn 0.0 -0.0 1.0
vn 0.0 -0.7714 0.6364
vn 0.0 -0.7712 0.6365
vn 0.0 -0.0 1.0
vn 0.0 -0.7714 0.6364
vn 0.0 -0.7712 0.6365
vn 0.0 -0.0 1.0
vn 0.0 -0.7714 0.6364
vn 0.0 -0.7712 0.6365
vn 0.0 -0.0 1.0
vn 0.0 -0.7714 0.6364
vn 0.0 -0.7712 0.6365
vn 0.0 -0.0 1.0
vn 0.0 -0.7714 0.6364
vn 0.0 -0.7712 0.6365
vn 0.0 -0.0 1.0
vn 0.0 -0.7714 0.6364
vn 0.0 -0.7712 0.6365
vn 0.0 -0.0 1.0
vn 0.0 -0.7714 0.6364
vn 0.0 -0.7712 0.6365
vn 0.0 -0.0 1.0
vn 0.0 -0.7714 0.6364
vn 0.0 -0.7712 0.6365
vn 0.0 -0.0 1.0
vn 0.0 -0.7714 0.6364
vn 0.0 -0.7712 0.6365
vn 0.0 -0.0 1.0
vn 0.0 -0.7714 0.6364
vn 0.0 -0.7712 0.6365
vn 0.0 -0.0 1.0
vn 0.0 -0.7714 0.6364
vn 0.0 -0.7712 0.6365
vn 0.0 -0.0 1.0
vn 0.0 -0.7714 0.6364
vn 0.0 -0.7712 0.6365
vn 0.0 -0.0 1.0
vn 0.0 -0.7714 0.6364
vn 0.0 -0.7712 0.6365
vn 0.0 -0.0 1.0
vn 0.0 -0.7714 0.6364
vn 0.0 -0.7712 0.6365
vn 0.0 -0.0 1.0
vn 0.0 -0.7714 0.6364
vn 0.0 -0.7712 0.6365
vn 0.0 -0.0 1.0
vn 0.0 -0.7714 0.6364
vn 0.0 -0.7712 0.6365
vn 0.0 -0.0 1.0
vn 0.0 -0.7714 0.6364
vn 0.0 -0.7712 0.6365
vn 0.0 -0.0 1.0
vn 0.0 -0.7714 0.6364
vn 0.0 -0.7712 0.6365
vn 0.0 -0.0 1.0
vn 0.0 -0.7714 0.6364
vn 0.0 -0.7712 0.6365
vn 0.0 -0.0 1.0
vn 0.0 -0.7714 0.6364
vn 0.0 -0.7712 0.6365
vn 0.0 -0.0 1.0
vn 0.0 -0.7714 0.6364
vn 0.0 -0.7712 0.6365
vn 0.0 -0.0 1.0
vn 0.0 -0.7714 0.6364
vn 0.0 -0.7712 0.6365
vn 0.0 -0.0 1.0
vn 0.0 -0.7714 0.6364
vn 0.0 -0.7712 0.6365
vn 0.0 -0.0 1.0
vn 0.0 -0.7714 0.6364
vn 0.0 -0.7712 0.6365
vn 0.0 -0.0 1.0
vn 0.0 -0.7714 0.6364
vn 0.0 -0.7712 0.6365
vn 0.0 -0.0 1.0
vn 0.0 -0.7714 0.6364
vn 0.0 -0.7712 0.6365
vn 0.0 -0.0 1.0
vn 0.0 -0.7714 0.6364
vn 0.0 -0.7712 0.6365
vn 0.0 -0.0 1.0
vn 0.0 -0.7714 0.6364
vn 0.0 -0.7712 0.6365
vn 0.0 -0.0 1.0
vn 0.0 -0.7714 0.6364
vn 0.0 -0.7712 0.6365
vn 0.0 -0.0 1.0
vn 0.0 -0.7714 0.6364
vn 0.0 -0.7712 0.6365
vn 0.0 -0.0 1.0
vn 0.0 -0.7714 0.6364
vn 0.0 -0.7712 0.6365
vn 0.0 -0.0 1.0
vn 0.0 -0.7714 0.6364
vn 0.0 -0.7712 0.6365
vn 0.0 -0.0 1.0
vn 0.0 -0.7714 0.6364
vn 0.0 -0.7712 0.6365
vn 0.0 -0.0 1.0
vn 0.0 -0.7714 0.6364
vn 0.0 -0.7712 0.6365
vn 0.0 -0.0 1.0
vn 0.0 -0.7714 0.6364
vn 0.0 -0.7712 0.6365
vn 0.0 -0.0 1.0
vn 0.0 -0.7714 0.6364
vn 0.0 -0.7712 0.6365
vn 0.0 -0.0 1.0
vn 0.0 -0.7714 0.6364
vn 0.0 -0.7712 0.6365
vn 0.0 -0.0 1.0
vn 0.0 -0.7714 0.6364
vn 0.0 -0.7712 0.6365
vn 0.0 -0.0 1.0
vn 0.0 -0.7714 0.6364
vn 0.0 -0.7712 0.6365
vn 0.0 -0.0 1.0
vn 0.0 -0.7714 0.6364
vn 0.0 -0.7712 0.6365
vn 0.0 -0.0 1.0
vn 0.0 -0.7714 0.6364
vn 0.0 -0.7712 0.6365
vn 0.0 -0.0 1.0
vn 0.0 -0.7714 0.6364
vn 0.0 -0.7712 0.6365
vn 0.0 -0.0 1.0
vn 0.0 -0.7714 0.6364
vn 0.0 -0.7712 0.6365
vn 0.0 -0.0 1.0
vn 0.0 -0.7714 0.6364
vn 0.0 -0.7712 0.6365
vn 0.0 -0.0 1.0
vn 0.0 -0.7714 0.6364
vn 0.0 -0.7712 0.6365
vn 0.0 -0.0 1.0
vn 0.0 -0.7714 0.6364
vn 0.0 -0.7712 0.6365
vn 0.0 -0.0 1.0
vn 0.0 -0.7714 0.6364
vn 0.0 -0.7712 0.6365
vn 0.0 -0.0 1.0
vn 0.0 -0.7714 0.6364
vn 0.0 -0.7712 0.6365
vn 0.0 -0.0 1.0
vn 0.0 -0.7714 0.6364
vn 0.0 -0.7712 0.6365
vn 0.0 -0.0 1.0
vn 0.0 -0.7714 0.6364
vn 0.0 -0.7712 0.6365
vn 0.0 -0.0 1.0
vn 0.0 -0.7714 0.6364
vn 0.0 -0.7712 0.6365
vn 0.0 -0.0 1.0
vn 0.0 -0.7714 0.6364
vn 0.0 -0.7712 0.6365
vn 0.0 -0.0 1.0
vn 0.0 -0.7714 0.6364
vn 0.0 -0.7712 0.6365
vn 0.0 -0.0 1.0
vn 0.0 -0.7714 0.6364
vn 0.0 -0.7712 0.6365
vn 0.0 -0.0 1.0
vn 0.0 -0.7714 0.6364
vn 0.0 -0.7712 0.6365
vn 0.0 -0.0 1.0
vn 0.0 -0.7714 0.6364
vn 0.0 -0.7712 0.6365
vn 0.0 -0.0 1.0
vn 0.0 -0.7714 0.6364
vn 0.0 -0.7712 0.6365
vn 0.0 -0.0 1.0
vn 0.0 -0.7714 0.6364
vn 0.0 -0.7712 0.6365
vn 0.0 -0.0 1.0
vn 0.0 -0.7714 0.6364
vn 0.0 -0.7712 0.6365
vn 0.0 -0.0 1.0
vn 0.0 -0.7714 0.6364
vn 0.0 -0.7712 0.6365
vn 0.0 -0.0 1.0
vn 0.0 -0.7714 0.6364
vn 0.0 -0.7712 0.6365
vn 0.0 -0.0 1.0
vn 0.0 -0.7714 0.6364
vn 0.0 -0.7712 0.6365
vn 0.0 -0.0 1.0
vn 0.0 -0.7714 0.6364
vn 0.0 -0.7712 0.6365
vn 0.0 -0.0 1.0
vn 0.0 -0.7714 0.6364
vn 0.0 -0.7712 0.6365
vn 0.0 -0.0 1.0
vn 0.0 -0.7714 0.6364
vn 0.0 -0.7712 0.6365
vn 0.0 -0.0 1.0
vn 0.0 -0.7714 0.6364
vn 0.0 -0.7712 0.6365
vn 0.0 -0.0 1.0
vn 0.0 -0.7714 0.6364
vn 0.0 -0.7712 0.6365
vn 0.0 -0.0 1.0
vn 0.0 -0.7714 0.6364
vn 0.0 -0.7712 0.6365
vn 0.0 -0.0 1.0
vn 0.0 -0.7714 0.6364
vn 0.0 -0.7712 0.6365
vn 0.0 -0.0 1.0
vn 0.0 -0.7714 0.6364
vn 0.0 -0.7712 0.6365
vn 0.0 -0.0 1.0
vn 0.0 -0.7714 0.6364
vn 0.0 -0.7712 0.6365
vn 0.0 -0.0 1.0
vn 0.0 -0.7714 0.6364
vn 0.0 -0.7712 0.6365
vn 0.0 -0.0 1.0
vn 0.0 -0.7714 0.6364
vn 0.0 -0.7712 0.6365
vn 0.0 -0.0 1.0
vn 0.0 -0.7714 0.6364
vn 0.0 -0.7712 0.6365
vn 0.0 -0.0 1.0
vn 0.0 -0.7714 0.6364
vn 0.0 -0.7712 0.6365
vn 0.0 -0.0 1.0
vn 0.0 -0.7714 0.6364
vn 0.0 -0.7712 0.6365
vn 0.0 -0.0 1.0
vn 0.0 -0.7714 0.6364
vn 0.0 -0.7712 0.6365
vn 0.0 -0.0 1.0
vn 0.0 -0.7714 0.6364
vn 0.0 -0.7712 0.6365
vn 0.0 -0.0 1.0
vn 0.0 -0.7714 0.6364
vn 0.0 -0.7712 0.6365
vn 0.0 -0.0 1.0
vn 0.0 -0.7714 0.6364
vn 0.0 -0.7712 0.6365
vn 0.0 -0.0 1.0
vn 0.0 -0.7714 0.6364
vn 0.0 -0.7712 0.6365
vn 0.0 0.0 1.0
vn 0.0 -0.0 1.0
vn 0.0 -0.7714 0.6364
vn 0.0 -0.7712 0.6365
vn 0.0 -0.0 1.0
vn 0.0 -0.7714 0.6364
vn 0.0 -0.7712 0.6365
vn 0.0 -0.0 1.0
vn 0.0 -0.7714 0.6364
vn 0.0 -0.7712 0.6365
vn 0.0 -0.0 1.0
vn 0.0 -0.7714 0.6364
vn 0.0 -0.7712 0.6365
vn 0.0 -0.0 1.0
vn 0.0 -0.7714 0.6364
vn 0.0 -0.7712 0.6365
vn 0.0 -0.0 1.0
vn 0.0 -0.7714 0.6364
vn 0.0 -0.7712 0.6365
vn 0.0 -0.0 1.0
vn 0.0 -0.7714 0.6364
vn 0.0 -0.7712 0.6365
vn 0.0 -0.0 1.0
vn 0.0 -0.7714 0.6364
vn 0.0 -0.7712 0.6365
vn 0.0 -0.0 1.0
vn 0.0 -0.7714 0.6364
vn 0.0 -0.7712 0.6365
vn 0.0 -0.0 1.0
vn 0.0 -0.7714 0.6364
vn 0.0 -0.7712 0.6365
vn 0.0 -0.0 1.0
vn 0.0 -0.7714 0.6364
vn 0.0 -0.7712 0.6365
vn 0.0 -0.0 1.0
vn 0.0 -0.7714 0.6364
vn 0.0 -0.7712 0.6365
vn 0.0 -0.0 1.0
vn 0.0 -0.7714 0.6364
vn 0.0 -0.7712 0.6365
vn 0.0 -0.0 1.0
vn 0.0 -0.7714 0.6364
vn 0.0 -0.7712 0.6365
vn 0.0 -0.0 1.0
vn 0.0 -0.7714 0.6364
vn 0.0 -0.7712 0.6365
vn 0.0 -0.0 1.0
vn 0.0 -0.7714 0.6364
vn 0.0 -0.7712 0.6365
vn 0.0 -0.0 1.0
vn 0.0 -0.7714 0.6364
vn 0.0 -0.7712 0.6365
vn 0.0 -0.0 1.0
vn 0.0 -0.7714 0.6364
vn 0.0 -0.7712 0.6365
vn 0.0 -0.0 1.0
vn 0.0 -0.7714 0.6364
vn 0.0 -0.7712 0.6365
vn 0.0 -0.0 1.0
vn 0.0 -0.7714 0.6364
vn 0.0 -0.7712 0.6365
vn 0.0 -0.0 1.0
vn 0.0 -0.7714 0.6364
vn 0.0 -0.7712 0.6365
vn 0.0 -0.0 1.0
vn 0.0 -0.7714 0.6364
vn 0.0 -0.7712 0.6365
vn 0.0 -0.0 1.0
vn 0.0 -0.7714 0.6364
vn 0.0 -0.7712 0.6365
vn 0.0 -0.0 1.0
vn 0.0 -0.7714 0.6364
vn 0.0 -0.7712 0.6365
vn 0.0 -0.0 1.0
vn 0.0 -0.7714 0.6364
vn 0.0 -0.7712 0.6365
vn 0.0 -0.0 1.0
vn 0.0 -0.7714 0.6364
vn 0.0 -0.7712 0.6365
vn 0.0 -0.0 1.0
vn 0.0 -0.7714 0.6364
vn 0.0 -0.7712 0.6365
vn 0.0 -0.0 1.0
vn 0.0 -0.7714 0.6364
vn 0.0 -0.7712 0.6365
vn 0.0 -0.0 1.0
vn 0.0 -0.7714 0.6364
vn 0.0 -0.7712 0.6365
vn 0.0 -0.0 1.0
vn 0.0 -0.7714 0.6364
vn 0.0 -0.7712 0.6365
vn 0.0 0.0 1.0
vn 0.0 0.0 1.0
vn -0.0 0.7071 0.7071
vn -0.0 0.5258 0.8506
vn 0.0 0.0 1.0
vn -0.0 0.426 0.9047
vn 0.0 -0.0 1.0
vn 0.0 -0.7714 0.6364
vn 0.0 -0.7712 0.6365
vn 0.0 -0.0 1.0
vn 0.0 -0.7714 0.6364
vn 0.0 -0.7712 0.6365
vn 0.0 -0.0 1.0
vn 0.0 -0.7714 0.6364
vn 0.0 -0.7712 0.6365
vn 0.0 -0.0 1.0
vn 0.0 -0.7714 0.6364
vn 0.0 -0.7712 0.6365
vn 0.0 -0.0 1.0
vn 0.0 -0.7714 0.6364
vn 0.0 -0.7712 0.6365
vn 0.0 -0.0 1.0
vn 0.0 -0.7714 0.6364
vn 0.0 -0.7712 0.6365
vn 0.0 -0.0 1.0
vn 0.0 -0.7714 0.6364
vn 0.0 -0.7712 0.6365
vn 0.0 -0.0 1.0
vn 0.0 -0.7714 0.6364
vn 0.0 -0.7712 0.6365
vn 0.0 -0.0 1.0
vn 0.0 -0.7714 0.6364
vn 0.0 -0.7712 0.6365
vn 0.0 -0.0 1.0
vn 0.0 -0.7714 0.6364
vn 0.0 -0.7712 0.6365
vn 0.0 -0.0 1.0
vn 0.0 -0.7714 0.6364
vn 0.0 -0.7712 0.6365
vn 0.0 -0.0 1.0
vn 0.0 -0.7714 0.6364
vn 0.0 -0.7712 0.6365
vn 0.0 -0.0 1.0
vn 0.0 -0.7714 0.6364
vn 0.0 -0.7712 0.6365
vn 0.0 -0.0 1.0
vn 0.0 -0.7714 0.6364
vn 0.0 -0.7712 0.6365
vn 0.0 -0.0 1.0
vn 0.0 -0.7714 0.6364
vn 0.0 -0.7712 0.6365
vn 0.0 -0.0 1.0
vn 0.0 -0.7714 0.6364
vn 0.0 -0.7712 0.6365
vn 0.0 -0.0 1.0
vn 0.0 -0.7714 0.6364
vn 0.0 -0.7712 0.6365
vn 0.0 -0.0 1.0
vn 0.0 -0.7714 0.6364
vn 0.0 -0.7712 0.6365
vn 0.0 -0.0 1.0
vn 0.0 -0.7714 0.6364
vn 0.0 -0.7712 0.6365
vn 0.0 -0.0 1.0
vn 0.0 -0.7714 0.6364
vn 0.0 -0.7712 0.6365
vn 0.0 -0.0 1.0
vn 0.0 -0.7714 0.6364
vn 0.0 -0.7712 0.6365
vn 0.0 -0.0 1.0
vn 0.0 -0.7714 0.6364
vn 0.0 -0.7712 0.6365
vn 0.0 -0.0 1.0
vn 0.0 -0.7714 0.6364
vn 0.0 -0.7712 0.6365
vn 0.0 -0.0 1.0
vn 0.0 -0.7714 0.6364
vn 0.0 -0.7712 0.6365
vn 0.0 -0.0 1.0
vn 0.0 -0.7714 0.6364
vn 0.0 -0.7712 0.6365
vn 0.0 -0.0 1.0
vn 0.0 -0.7714 0.6364
vn 0.0 -0.7712 0.6365
vn 0.0 -0.0 1.0
vn 0.0 -0.7714 0.6364
vn 0.0 -0.7712 0.6365
vn -0.0 0.7071 0.7071
vn -0.0 0.5258 0.8506
vn 0.0 0.0 1.0
vn -0.0 0.426 0.9047
vn 0.0 -0.0 1.0
vn 0.0 -0.7714 0.6364
vn 0.0 -0.7712 0.6365
vn 0.0 -0.0 1.0
vn 0.0 -0.7714 0.6364
vn 0.0 -0.7712 0.6365
vn 0.0 -0.0 1.0
vn 0.0 -0.0 1.0
vn 0.0 -0.7714 0.6364
vn 0.0 -0.7712 0.6365
vn 0.0 -0.0 1.0
vn 0.0 -0.0 1.0
vn 0.0 -0.7714 0.6364
vn 0.0 -0.7712 0.6365
vn 0.0 -0.0 1.0
vn 0.0 -0.0 1.0
vn 0.0 -0.0 1.0
vn 0.0 0.0 1.0
vn 0.0 -0.0 1.0
vn 0.0 -0.7714 0.6364
vn 0.0 -0.7712 0.6365
vn 0.0 -0.0 1.0
vn 0.0 -0.7714 0.6364
vn 0.0 -0.7712 0.6365
vn 0.0 -0.0 1.0
vn 0.0 0.0 1.0
vn 0.0 -0.0 1.0
vn 0.0 -0.0 1.0
vn 0.0 0.0 1.0
vn 0.0 -0.0 1.0
c 1.0 1.0 1.0
c 1.0 1.0 1.0
c 1.0 1.0 1.0
c 1.0 1.0 1.0
c 1.0 1.0 1.0
c 1.0 1.0 1.0
c 1.0 1.0 1.0
c 1.0 1.0 1.0
c 1.0 1.0 1.0
c 1.0 1.0 1.0
c 1.0 1.0 1.0
c 1.0 1.0 1.0
c 1.0 1.0 1.0
c 1.0 1.0 1.0
c 1.0 1.0 1.0
c 1.0 1.0 1.0
c 1.0 1.0 1.0
c 1.0 1.0 1.0
c 1.0 1.0 1.0
c 1.0 1.0 1.0
c 1.0 1.0 1.0
c 1.0 1.0 1.0
c 1.0 1.0 1.0
c 1.0 1.0 1.0
c 1.0 1.0 1.0
c 1.0 1.0 1.0
c 1.0 1.0 1.0
c 1.0 1.0 1.0
c 1.0 1.0 1.0
c 1.0 1.0 1.0
c 1.0 1.0 1.0
c 1.0 1.0 1.0
c 1.0 1.0 1.0
c 1.0 1.0 1.0
c 1.0 1.0 1.0
c 1.0 1.0 1.0
c 1.0 1.0 1.0
c 1.0 1.0 1.0
c 1.0 1.0 1.0
c 1.0 1.0 1.0
c 1.0 1.0 1.0
c 1.0 1.0 1.0
c 1.0 1.0 1.0
c 1.0 1.0 1.0
c 1.0 1.0 1.0
c 1.0 1.0 1.0
c 1.0 1.0 1.0
c 1.0 1.0 1.0
c 1.0 1.0 1.0
c 1.0 1.0 1.0
c 1.0 1.0 1.0
c 1.0 1.0 1.0
c 1.0 1.0 1.0
c 1.0 1.0 1.0
c 1.0 1.0 1.0
c 1.0 1.0 1.0
c 1.0 1.0 1.0
c 1.0 1.0 1.0
c 1.0 1.0 1.0
c 1.0 1.0 1.0
c 1.0 1.0 1.0
c 1.0 1.0 1.0
c 1.0 1.0 1.0
c 1.0 1.0 1.0
c 1.0 1.0 1.0
c 1.0 1.0 1.0
c 1.0 1.0 1.0
c 1.0 1.0 1.0
c 1.0 1.0 1.0
c 1.0 1.0 1.0
c 1.0 1.0 1.0
c 1.0 1.0 1.0
c 1.0 1.0 1.0
c 1.0 1.0 1.0
c 1.0 1.0 1.0
c 1.0 1.0 1.0
c 1.0 1.0 1.0
c 1.0 1.0 1.0
c 1.0 1.0 1.0
c 1.0 1.0 1.0
c 1.0 1.0 1.0
c 1.0 1.0 1.0
c 1.0 1.0 1.0
c 1.0 1.0 1.0
c 1.0 1.0 1.0
c 1.0 1.0 1.0
c 1.0 1.0 1.0
c 1.0 1.0 1.0
c 1.0 1.0 1.0
c 1.0 1.0 1.0
c 1.0 1.0 1.0
c 1.0 1.0 1.0
c 1.0 1.0 1.0
c 1.0 1.0 1.0
c 1.0 1.0 1.0
c 1.0 1.0 1.0
c 1.0 1.0 1.0
c 1.0 1.0 1.0
c 1.0 1.0 1.0
c 1.0 1.0 1.0
c 1.0 1.0 1.0
c 1.0 1.0 1.0
c 1.0 1.0 1.0
c 1.0 1.0 1.0
c 1.0 1.0 1.0
c 1.0 1.0 1.0
c 1.0 1.0 1.0
c 1.0 1.0 1.0
c 1.0 1.0 1.0
c 1.0 1.0 1.0
c 1.0 1.0 1.0
c 1.0 1.0 1.0
c 1.0 1.0 1.0
c 1.0 1.0 1.0
c 1.0 1.0 1.0
c 1.0 1.0 1.0
c 1.0 1.0 1.0
c 1.0 1.0 1.0
c 1.0 1.0 1.0
c 1.0 1.0 1.0
c 1.0 1.0 1.0
c 1.0 1.0 1.0
c 1.0 1.0 1.0
c 1.0 1.0 1.0
c 1.0 1.0 1.0
c 1.0 1.0 1.0
c 1.0 1.0 1.0
c 1.0 1.0 1.0
c 1.0 1.0 1.0
c 1.0 1.0 1.0
c 1.0 1.0 1.0
c 1.0 1.0 1.0
c 1.0 1.0 1.0
c 1.0 1.0 1.0
c 1.0 1.0 1.0
c 1.0 1.0 1.0
c 1.0 1.0 1.0
c 1.0 1.0 1.0
c 1.0 1.0 1.0
c 1.0 1.0 1.0
c 1.0 1.0 1.0
c 1.0 1.0 1.0
c 1.0 1.0 1.0
c 1.0 1.0 1.0
c 1.0 1.0 1.0
c 1.0 1.0 1.0
c 1.0 1.0 1.0
c 1.0 1.0 1.0
c 1.0 1.0 1.0
c 1.0 1.0 1.0
c 1.0 1.0 1.0
c 1.0 1.0 1.0
c 1.0 1.0 1.0
c 1.0 1.0 1.0
c 1.0 1.0 1.0
c 1.0 1.0 1.0
c 1.0 1.0 1.0
c 1.0 1.0 1.0
c 1.0 1.0 1.0
c 1.0 1.0 1.0
c 1.0 1.0 1.0
c 1.0 1.0 1.0
c 1.0 1.0 1.0
c 1.0 1.0 1.0
c 1.0 1.0 1.0
c 1.0 1.0 1.0
c 1.0 1.0 1.0
c 1.0 1.0 1.0
c 1.0 1.0 1.0
c 1.0 1.0 1.0
c 1.0 1.0 1.0
c 1.0 1.0 1.0
c 1.0 1.0 1.0
c 1.0 1.0 1.0
c 1.0 1.0 1.0
c 1.0 1.0 1.0
c 1.0 1.0 1.0
c 1.0 1.0 1.0
c 1.0 1.0 1.0
c 1.0 1.0 1.0
c 1.0 1.0 1.0
c 1.0 1.0 1.0
c 1.0 1.0 1.0
c 1.0 1.0 1.0
c 1.0 1.0 1.0
c 1.0 1.0 1.0
c 1.0 1.0 1.0
c 1.0 1.0 1.0
c 1.0 1.0 1.0
c 1.0 1.0 1.0
c 1.0 1.0 1.0
c 1.0 1.0 1.0
c 1.0 1.0 1.0
c 1.0 1.0 1.0
c 1.0 1.0 1.0
c 1.0 1.0 1.0
c 1.0 1.0 1.0
c 1.0 1.0 1.0
c 1.0 1.0 1.0
c 1.0 1.0 1.0
c 1.0 1.0 1.0
c 1.0 1.0 1.0
c 1.0 1.0 1.0
c 1.0 1.0 1.0
c 1.0 1.0 1.0
c 1.0 1.0 1.0
c 1.0 1.0 1.0
c 1.0 1.0 1.0
c 1.0 1.0 1.0
c 1.0 1.0 1.0
c 1.0 1.0 1.0
c 1.0 1.0 1.0
usemtl grass02_r
s off
f 1605/1607/596/208 1606/1605/596/208 1607/1606/596/208 1608/1608/596/208
usemtl grass02
s off
f 4/1/1/1 1/2/1/1 2/3/1/1 3/4/1/1
f 8/5/2/2 5/6/2/2 6/7/2/2 7/8/2/2
f 12/9/3/3 9/10/3/3 10/11/3/3 11/12/3/3
f 16/13/4/4 13/14/4/4 14/15/4/4 15/16/4/4
f 1548/1545/577/197 1545/1546/577/197 1546/1547/577/197 1547/1548/577/197
f 1560/1557/581/199 1557/1558/581/199 1558/1559/581/199 1559/1560/581/199
f 1572/1569/585/201 1569/1570/585/201 1570/1571/585/201 1571/1572/585/201
f 1576/1573/586/202 1573/1574/586/202 1574/1575/586/202 1575/1576/586/202
f 1580/1577/587/203 1577/1578/587/203 1578/1579/587/203 1579/1580/587/203
f 1604/1601/595/207 1601/1602/595/207 1602/1603/595/207 1603/1604/595/207
f 1612/1609/597/209 1609/1610/597/209 1610/1611/597/209 1611/1612/597/209
f 1616/1613/598/210 1613/1614/598/210 1614/1615/598/210 1615/1616/598/210
f 1624/1621/600/212 1621/1622/600/212 1622/1623/600/212 1623/1624/600/212
usemtl tree01_un
s off
f 19/17/5/5 20/18/5/5 17/19/5/5 18/20/5/5
f 27/25/8/6 28/26/8/6 25/27/8/6 26/28/8/6
f 35/33/11/7 36/34/11/7 33/35/11/7 34/36/11/7
f 43/41/14/8 44/42/14/8 41/43/14/8 42/44/14/8
f 51/49/17/9 52/50/17/9 49/51/17/9 50/52/17/9
f 59/57/20/10 60/58/20/10 57/59/20/10 58/60/20/10
f 67/65/23/11 68/66/23/11 65/67/23/11 66/68/23/11
f 75/73/26/12 76/74/26/12 73/75/26/12 74/76/26/12
f 83/81/29/13 84/82/29/13 81/83/29/13 82/84/29/13
f 91/89/32/14 92/90/32/14 89/91/32/14 90/92/32/14
f 99/97/35/15 100/98/35/15 97/99/35/15 98/100/35/15
f 107/105/38/16 108/106/38/16 105/107/38/16 106/108/38/16
f 115/113/41/17 116/114/41/17 113/115/41/17 114/116/41/17
f 123/121/44/18 124/122/44/18 121/123/44/18 122/124/44/18
f 131/129/47/19 132/130/47/19 129/131/47/19 130/132/47/19
f 139/137/50/20 140/138/50/20 137/139/50/20 138/140/50/20
f 147/145/53/21 148/146/53/21 145/147/53/21 146/148/53/21
f 155/153/56/22 156/154/56/22 153/155/56/22 154/156/56/22
f 163/161/59/23 164/162/59/23 161/163/59/23 162/164/59/23
f 171/169/62/24 172/170/62/24 169/171/62/24 170/172/62/24
f 179/177/65/25 180/178/65/25 177/179/65/25 178/180/65/25
f 187/185/68/26 188/186/68/26 185/187/68/26 186/188/68/26
f 195/193/71/27 196/194/71/27 193/195/71/27 194/196/71/27
f 203/201/74/28 204/202/74/28 201/203/74/28 202/204/74/28
f 211/209/77/29 212/210/77/29 209/211/77/29 210/212/77/29
f 219/217/80/30 220/218/80/30 217/219/80/30 218/220/80/30
f 227/225/83/31 228/226/83/31 225/227/83/31 226/228/83/31
f 235/233/86/32 236/234/86/32 233/235/86/32 234/236/86/32
f 243/241/89/33 244/242/89/33 241/243/89/33 242/244/89/33
f 251/249/92/34 252/250/92/34 249/251/92/34 250/252/92/34
f 259/257/95/35 260/258/95/35 257/259/95/35 258/260/95/35
f 267/265/98/36 268/266/98/36 265/267/98/36 266/268/98/36
f 275/273/101/37 276/274/101/37 273/275/101/37 274/276/101/37
f 283/281/104/38 284/282/104/38 281/283/104/38 282/284/104/38
f 291/289/107/39 292/290/107/39 289/291/107/39 290/292/107/39
f 299/297/110/40 300/298/110/40 297/299/110/40 298/300/110/40
f 307/305/113/41 308/306/113/41 305/307/113/41 306/308/113/41
f 315/313/116/42 316/314/116/42 313/315/116/42 314/316/116/42
f 323/321/119/43 324/322/119/43 321/323/119/43 322/324/119/43
f 331/329/122/44 332/330/122/44 329/331/122/44 330/332/122/44
f 339/337/125/45 340/338/125/45 337/339/125/45 338/340/125/45
f 347/345/128/46 348/346/128/46 345/347/128/46 346/348/128/46
f 355/353/131/47 356/354/131/47 353/355/131/47 354/356/131/47
f 363/361/134/48 364/362/134/48 361/363/134/48 362/364/134/48
f 371/369/137/49 372/370/137/49 369/371/137/49 370/372/137/49
f 379/377/140/50 380/378/140/50 377/379/140/50 378/380/140/50
f 387/385/143/51 388/386/143/51 385/387/143/51 386/388/143/51
f 395/393/146/52 396/394/146/52 393/395/146/52 394/396/146/52
f 403/401/149/53 404/402/149/53 401/403/149/53 402/404/149/53
f 411/409/152/54 412/410/152/54 409/411/152/54 410/412/152/54
f 419/417/155/55 420/418/155/55 417/419/155/55 418/420/155/55
f 427/425/158/56 428/426/158/56 425/427/158/56 426/428/158/56
f 435/433/161/57 436/434/161/57 433/435/161/57 434/436/161/57
f 443/441/164/58 444/442/164/58 441/443/164/58 442/444/164/58
f 451/449/167/59 452/450/167/59 449/451/167/59 450/452/167/59
f 459/457/170/60 460/458/170/60 457/459/170/60 458/460/170/60
f 467/465/173/61 468/466/173/61 465/467/173/61 466/468/173/61
f 475/473/176/62 476/474/176/62 473/475/176/62 474/476/176/62
f 483/481/179/63 484/482/179/63 481/483/179/63 482/484/179/63
f 491/489/182/64 492/490/182/64 489/491/182/64 490/492/182/64
f 499/497/185/65 500/498/185/65 497/499/185/65 498/500/185/65
f 507/505/188/66 508/506/188/66 505/507/188/66 506/508/188/66
f 515/513/191/67 516/514/191/67 513/515/191/67 514/516/191/67
f 523/521/194/68 524/522/194/68 521/523/194/68 522/524/194/68
f 531/529/197/69 532/530/197/69 529/531/197/69 530/532/197/69
f 539/537/200/70 540/538/200/70 537/539/200/70 538/540/200/70
f 547/545/203/71 548/546/203/71 545/547/203/71 546/548/203/71
f 555/553/206/72 556/554/206/72 553/555/206/72 554/556/206/72
f 563/561/209/73 564/562/209/73 561/563/209/73 562/564/209/73
f 571/569/212/74 572/570/212/74 569/571/212/74 570/572/212/74
f 579/577/215/75 580/578/215/75 577/579/215/75 578/580/215/75
f 587/585/218/76 588/586/218/76 585/587/218/76 586/588/218/76
f 595/593/221/77 596/594/221/77 593/595/221/77 594/596/221/77
f 603/601/224/78 604/602/224/78 601/603/224/78 602/604/224/78
f 611/609/227/79 612/610/227/79 609/611/227/79 610/612/227/79
f 619/617/230/80 620/618/230/80 617/619/230/80 618/620/230/80
f 627/625/233/81 628/626/233/81 625/627/233/81 626/628/233/81
f 635/633/236/82 636/634/236/82 633/635/236/82 634/636/236/82
f 643/641/239/83 644/642/239/83 641/643/239/83 642/644/239/83
f 651/649/242/84 652/650/242/84 649/651/242/84 650/652/242/84
f 659/657/245/85 660/658/245/85 657/659/245/85 658/660/245/85
f 667/665/248/86 668/666/248/86 665/667/248/86 666/668/248/86
f 675/673/251/87 676/674/251/87 673/675/251/87 674/676/251/87
f 683/681/254/88 684/682/254/88 681/683/254/88 682/684/254/88
f 691/689/257/89 692/690/257/89 689/691/257/89 690/692/257/89
f 699/697/260/90 700/698/260/90 697/699/260/90 698/700/260/90
f 707/705/263/91 708/706/263/91 705/707/263/91 706/708/263/91
f 715/713/266/92 716/714/266/92 713/715/266/92 714/716/266/92
f 723/721/269/93 724/722/269/93 721/723/269/93 722/724/269/93
f 731/729/272/94 732/730/272/94 729/731/272/94 730/732/272/94
f 739/737/275/95 740/738/275/95 737/739/275/95 738/740/275/95
f 747/745/278/96 748/746/278/96 745/747/278/96 746/748/278/96
f 755/753/281/97 756/754/281/97 753/755/281/97 754/756/281/97
f 763/761/284/98 764/762/284/98 761/763/284/98 762/764/284/98
f 771/769/287/99 772/770/287/99 769/771/287/99 770/772/287/99
f 779/777/290/100 780/778/290/100 777/779/290/100 778/780/290/100
f 787/785/293/101 788/786/293/101 785/787/293/101 786/788/293/101
f 795/793/296/102 796/794/296/102 793/795/296/102 794/796/296/102
f 803/801/299/103 804/802/299/103 801/803/299/103 802/804/299/103
f 811/809/302/104 812/810/302/104 809/811/302/104 810/812/302/104
f 819/817/305/105 820/818/305/105 817/819/305/105 818/820/305/105
f 827/825/308/106 828/826/308/106 825/827/308/106 826/828/308/106
f 835/833/311/107 836/834/311/107 833/835/311/107 834/836/311/107
f 843/841/314/108 844/842/314/108 841/843/314/108 842/844/314/108
f 851/849/317/109 852/850/317/109 849/851/317/109 850/852/317/109
f 859/857/320/110 860/858/320/110 857/859/320/110 858/860/320/110
f 867/865/323/111 868/866/323/111 865/867/323/111 866/868/323/111
f 875/873/326/112 876/874/326/112 873/875/326/112 874/876/326/112
f 883/881/329/113 884/882/329/113 881/883/329/113 882/884/329/113
f 891/889/332/114 892/890/332/114 889/891/332/114 890/892/332/114
f 899/897/335/115 900/898/335/115 897/899/335/115 898/900/335/115
f 907/905/338/116 908/906/338/116 905/907/338/116 906/908/338/116
f 915/913/341/117 916/914/341/117 913/915/341/117 914/916/341/117
f 923/921/344/118 924/922/344/118 921/923/344/118 922/924/344/118
f 931/929/347/119 932/930/347/119 929/931/347/119 930/932/347/119
f 939/937/350/120 940/938/350/120 937/939/350/120 938/940/350/120
f 947/945/353/121 948/946/353/121 945/947/353/121 946/948/353/121
f 955/953/356/122 956/954/356/122 953/955/356/122 954/956/356/122
f 963/961/359/123 964/962/359/123 961/963/359/123 962/964/359/123
f 971/969/362/124 972/970/362/124 969/971/362/124 970/972/362/124
f 979/977/365/125 980/978/365/125 977/979/365/125 978/980/365/125
f 987/985/368/126 988/986/368/126 985/987/368/126 986/988/368/126
f 995/993/371/127 996/994/371/127 993/995/371/127 994/996/371/127
f 1003/1001/374/128 1004/1002/374/128 1001/1003/374/128 1002/1004/374/128
f 1011/1009/377/129 1012/1010/377/129 1009/1011/377/129 1010/1012/377/129
f 1019/1017/380/130 1020/1018/380/130 1017/1019/380/130 1018/1020/380/130
f 1027/1025/383/131 1028/1026/383/131 1025/1027/383/131 1026/1028/383/131
f 1035/1033/386/132 1036/1034/386/132 1033/1035/386/132 1034/1036/386/132
f 1047/1045/390/134 1048/1046/390/134 1045/1047/390/134 1046/1048/390/134
f 1055/1053/393/135 1056/1054/393/135 1053/1055/393/135 1054/1056/393/135
f 1063/1061/396/136 1064/1062/396/136 1061/1063/396/136 1062/1064/396/136
f 1071/1069/399/137 1072/1070/399/137 1069/1071/399/137 1070/1072/399/137
f 1079/1077/402/138 1080/1078/402/138 1077/1079/402/138 1078/1080/402/138
f 1087/1085/405/139 1088/1086/405/139 1085/1087/405/139 1086/1088/405/139
f 1095/1093/408/140 1096/1094/408/140 1093/1095/408/140 1094/1096/408/140
f 1103/1101/411/141 1104/1102/411/141 1101/1103/411/141 1102/1104/411/141
f 1111/1109/414/142 1112/1110/414/142 1109/1111/414/142 1110/1112/414/142
f 1119/1117/417/143 1120/1118/417/143 1117/1119/417/143 1118/1120/417/143
f 1127/1125/420/144 1128/1126/420/144 1125/1127/420/144 1126/1128/420/144
f 1135/1133/423/145 1136/1134/423/145 1133/1135/423/145 1134/1136/423/145
f 1143/1141/426/146 1144/1142/426/146 1141/1143/426/146 1142/1144/426/146
f 1151/1149/429/147 1152/1150/429/147 1149/1151/429/147 1150/1152/429/147
f 1159/1157/432/148 1160/1158/432/148 1157/1159/432/148 1158/1160/432/148
f 1167/1165/435/149 1168/1166/435/149 1165/1167/435/149 1166/1168/435/149
f 1175/1173/438/150 1176/1174/438/150 1173/1175/438/150 1174/1176/438/150
f 1183/1181/441/151 1184/1182/441/151 1181/1183/441/151 1182/1184/441/151
f 1191/1189/444/152 1192/1190/444/152 1189/1191/444/152 1190/1192/444/152
f 1199/1197/447/153 1200/1198/447/153 1197/1199/447/153 1198/1200/447/153
f 1207/1205/450/154 1208/1206/450/154 1205/1207/450/154 1206/1208/450/154
f 1215/1213/453/155 1216/1214/453/155 1213/1215/453/155 1214/1216/453/155
f 1223/1221/456/156 1224/1222/456/156 1221/1223/456/156 1222/1224/456/156
f 1231/1229/459/157 1232/1230/459/157 1229/1231/459/157 1230/1232/459/157
f 1239/1237/462/158 1240/1238/462/158 1237/1239/462/158 1238/1240/462/158
f 1247/1245/465/159 1248/1246/465/159 1245/1247/465/159 1246/1248/465/159
f 1255/1253/468/160 1256/1254/468/160 1253/1255/468/160 1254/1256/468/160
f 1263/1261/471/161 1264/1262/471/161 1261/1263/471/161 1262/1264/471/161
f 1271/1269/474/162 1272/1270/474/162 1269/1271/474/162 1270/1272/474/162
f 1279/1277/477/163 1280/1278/477/163 1277/1279/477/163 1278/1280/477/163
f 1305/1303/486/167 1306/1304/486/167 1303/1305/486/167 1304/1306/486/167
f 1313/1311/489/168 1314/1312/489/168 1311/1313/489/168 1312/1314/489/168
f 1321/1319/492/169 1322/1320/492/169 1319/1321/492/169 1320/1322/492/169
f 1329/1327/495/170 1330/1328/495/170 1327/1329/495/170 1328/1330/495/170
f 1337/1335/498/171 1338/1336/498/171 1335/1337/498/171 1336/1338/498/171
f 1345/1343/501/172 1346/1344/501/172 1343/1345/501/172 1344/1346/501/172
f 1353/1351/504/173 1354/1352/504/173 1351/1353/504/173 1352/1354/504/173
f 1361/1359/507/174 1362/1360/507/174 1359/1361/507/174 1360/1362/507/174
f 1369/1367/510/175 1370/1368/510/175 1367/1369/510/175 1368/1370/510/175
f 1377/1375/513/176 1378/1376/513/176 1375/1377/513/176 1376/1378/513/176
f 1385/1383/516/177 1386/1384/516/177 1383/1385/516/177 1384/1386/516/177
f 1393/1391/519/178 1394/1392/519/178 1391/1393/519/178 1392/1394/519/178
f 1401/1399/522/179 1402/1400/522/179 1399/1401/522/179 1400/1402/522/179
f 1409/1407/525/180 1410/1408/525/180 1407/1409/525/180 1408/1410/525/180
f 1417/1415/528/181 1418/1416/528/181 1415/1417/528/181 1416/1418/528/181
f 1425/1423/531/182 1426/1424/531/182 1423/1425/531/182 1424/1426/531/182
f 1433/1431/534/183 1434/1432/534/183 1431/1433/534/183 1432/1434/534/183
f 1441/1439/537/184 1442/1440/537/184 1439/1441/537/184 1440/1442/537/184
f 1449/1447/540/185 1450/1448/540/185 1447/1449/540/185 1448/1450/540/185
f 1457/1455/543/186 1458/1456/543/186 1455/1457/543/186 1456/1458/543/186
f 1465/1463/546/187 1466/1464/546/187 1463/1465/546/187 1464/1466/546/187
f 1473/1471/549/188 1474/1472/549/188 1471/1473/549/188 1472/1474/549/188
f 1481/1479/552/189 1482/1480/552/189 1479/1481/552/189 1480/1482/552/189
f 1489/1487/555/190 1490/1488/555/190 1487/1489/555/190 1488/1490/555/190
f 1497/1495/558/191 1498/1496/558/191 1495/1497/558/191 1496/1498/558/191
f 1505/1503/561/192 1506/1504/561/192 1503/1505/561/192 1504/1506/561/192
f 1513/1511/564/193 1514/1512/564/193 1511/1513/564/193 1512/1514/564/193
f 1531/1529/571/195 1532/1530/571/195 1529/1531/571/195 1530/1532/571/195
f 1539/1537/574/196 1540/1538/574/196 1537/1539/574/196 1538/1540/574/196
f 1551/1549/578/198 1552/1550/578/198 1549/1551/578/198 1550/1552/578/198
f 1563/1561/582/200 1564/1562/582/200 1561/1563/582/200 1562/1564/582/200
f 1587/1585/589/205 1588/1586/589/205 1585/1587/589/205 1586/1588/589/205
f 1595/1593/592/206 1596/1594/592/206 1593/1595/592/206 1594/1596/592/206
usemtl tree01
s off
f 23/21/6/5 24/22/7/5 21/23/6/5 22/24/7/5
f 31/29/9/6 32/30/10/6 29/31/9/6 30/32/10/6
f 39/37/12/7 40/38/13/7 37/39/12/7 38/40/13/7
f 47/45/15/8 48/46/16/8 45/47/15/8 46/48/16/8
f 55/53/18/9 56/54/19/9 53/55/18/9 54/56/19/9
f 63/61/21/10 64/62/22/10 61/63/21/10 62/64/22/10
f 71/69/24/11 72/70/25/11 69/71/24/11 70/72/25/11
f 79/77/27/12 80/78/28/12 77/79/27/12 78/80/28/12
f 87/85/30/13 88/86/31/13 85/87/30/13 86/88/31/13
f 95/93/33/14 96/94/34/14 93/95/33/14 94/96/34/14
f 103/101/36/15 104/102/37/15 101/103/36/15 102/104/37/15
f 111/109/39/16 112/110/40/16 109/111/39/16 110/112/40/16
f 119/117/42/17 120/118/43/17 117/119/42/17 118/120/43/17
f 127/125/45/18 128/126/46/18 125/127/45/18 126/128/46/18
f 135/133/48/19 136/134/49/19 133/135/48/19 134/136/49/19
f 143/141/51/20 144/142/52/20 141/143/51/20 142/144/52/20
f 151/149/54/21 152/150/55/21 149/151/54/21 150/152/55/21
f 159/157/57/22 160/158/58/22 157/159/57/22 158/160/58/22
f 167/165/60/23 168/166/61/23 165/167/60/23 166/168/61/23
f 175/173/63/24 176/174/64/24 173/175/63/24 174/176/64/24
f 183/181/66/25 184/182/67/25 181/183/66/25 182/184/67/25
f 191/189/69/26 192/190/70/26 189/191/69/26 190/192/70/26
f 199/197/72/27 200/198/73/27 197/199/72/27 198/200/73/27
f 207/205/75/28 208/206/76/28 205/207/75/28 206/208/76/28
f 215/213/78/29 216/214/79/29 213/215/78/29 214/216/79/29
f 223/221/81/30 224/222/82/30 221/223/81/30 222/224/82/30
f 231/229/84/31 232/230/85/31 229/231/84/31 230/232/85/31
f 239/237/87/32 240/238/88/32 237/239/87/32 238/240/88/32
f 247/245/90/33 248/246/91/33 245/247/90/33 246/248/91/33
f 255/253/93/34 256/254/94/34 253/255/93/34 254/256/94/34
f 263/261/96/35 264/262/97/35 261/263/96/35 262/264/97/35
f 271/269/99/36 272/270/100/36 269/271/99/36 270/272/100/36
f 279/277/102/37 280/278/103/37 277/279/102/37 278/280/103/37
f 287/285/105/38 288/286/106/38 285/287/105/38 286/288/106/38
f 295/293/108/39 296/294/109/39 293/295/108/39 294/296/109/39
f 303/301/111/40 304/302/112/40 301/303/111/40 302/304/112/40
f 311/309/114/41 312/310/115/41 309/311/114/41 310/312/115/41
f 319/317/117/42 320/318/118/42 317/319/117/42 318/320/118/42
f 327/325/120/43 328/326/121/43 325/327/120/43 326/328/121/43
f 335/333/123/44 336/334/124/44 333/335/123/44 334/336/124/44
f 343/341/126/45 344/342/127/45 341/343/126/45 342/344/127/45
f 351/349/129/46 352/350/130/46 349/351/129/46 350/352/130/46
f 359/357/132/47 360/358/133/47 357/359/132/47 358/360/133/47
f 367/365/135/48 368/366/136/48 365/367/135/48 366/368/136/48
f 375/373/138/49 376/374/139/49 373/375/138/49 374/376/139/49
f 383/381/141/50 384/382/142/50 381/383/141/50 382/384/142/50
f 391/389/144/51 392/390/145/51 389/391/144/51 390/392/145/51
f 399/397/147/52 400/398/148/52 397/399/147/52 398/400/148/52
f 407/405/150/53 408/406/151/53 405/407/150/53 406/408/151/53
f 415/413/153/54 416/414/154/54 413/415/153/54 414/416/154/54
f 423/421/156/55 424/422/157/55 421/423/156/55 422/424/157/55
f 431/429/159/56 432/430/160/56 429/431/159/56 430/432/160/56
f 439/437/162/57 440/438/163/57 437/439/162/57 438/440/163/57
f 447/445/165/58 448/446/166/58 445/447/165/58 446/448/166/58
f 455/453/168/59 456/454/169/59 453/455/168/59 454/456/169/59
f 463/461/171/60 464/462/172/60 461/463/171/60 462/464/172/60
f 471/469/174/61 472/470/175/61 469/471/174/61 470/472/175/61
f 479/477/177/62 480/478/178/62 477/479/177/62 478/480/178/62
f 487/485/180/63 488/486/181/63 485/487/180/63 486/488/181/63
f 495/493/183/64 496/494/184/64 493/495/183/64 494/496/184/64
f 503/501/186/65 504/502/187/65 501/503/186/65 502/504/187/65
f 511/509/189/66 512/510/190/66 509/511/189/66 510/512/190/66
f 519/517/192/67 520/518/193/67 517/519/192/67 518/520/193/67
f 527/525/195/68 528/526/196/68 525/527/195/68 526/528/196/68
f 535/533/198/69 536/534/199/69 533/535/198/69 534/536/199/69
f 543/541/201/70 544/542/202/70 541/543/201/70 542/544/202/70
f 551/549/204/71 552/550/205/71 549/551/204/71 550/552/205/71
f 559/557/207/72 560/558/208/72 557/559/207/72 558/560/208/72
f 567/565/210/73 568/566/211/73 565/567/210/73 566/568/211/73
f 575/573/213/74 576/574/214/74 573/575/213/74 574/576/214/74
f 583/581/216/75 584/582/217/75 581/583/216/75 582/584/217/75
f 591/589/219/76 592/590/220/76 589/591/219/76 590/592/220/76
f 599/597/222/77 600/598/223/77 597/599/222/77 598/600/223/77
f 607/605/225/78 608/606/226/78 605/607/225/78 606/608/226/78
f 615/613/228/79 616/614/229/79 613/615/228/79 614/616/229/79
f 623/621/231/80 624/622/232/80 621/623/231/80 622/624/232/80
f 631/629/234/81 632/630/235/81 629/631/234/81 630/632/235/81
f 639/637/237/82 640/638/238/82 637/639/237/82 638/640/238/82
f 647/645/240/83 648/646/241/83 645/647/240/83 646/648/241/83
f 655/653/243/84 656/654/244/84 653/655/243/84 654/656/244/84
f 663/661/246/85 664/662/247/85 661/663/246/85 662/664/247/85
f 671/669/249/86 672/670/250/86 669/671/249/86 670/672/250/86
f 679/677/252/87 680/678/253/87 677/679/252/87 678/680/253/87
f 687/685/255/88 688/686/256/88 685/687/255/88 686/688/256/88
f 695/693/258/89 696/694/259/89 693/695/258/89 694/696/259/89
f 703/701/261/90 704/702/262/90 701/703/261/90 702/704/262/90
f 711/709/264/91 712/710/265/91 709/711/264/91 710/712/265/91
f 719/717/267/92 720/718/268/92 717/719/267/92 718/720/268/92
f 727/725/270/93 728/726/271/93 725/727/270/93 726/728/271/93
f 735/733/273/94 736/734/274/94 733/735/273/94 734/736/274/94
f 743/741/276/95 744/742/277/95 741/743/276/95 742/744/277/95
f 751/749/279/96 752/750/280/96 749/751/279/96 750/752/280/96
f 759/757/282/97 760/758/283/97 757/759/282/97 758/760/283/97
f 767/765/285/98 768/766/286/98 765/767/285/98 766/768/286/98
f 775/773/288/99 776/774/289/99 773/775/288/99 774/776/289/99
f 783/781/291/100 784/782/292/100 781/783/291/100 782/784/292/100
f 791/789/294/101 792/790/295/101 789/791/294/101 790/792/295/101
f 799/797/297/102 800/798/298/102 797/799/297/102 798/800/298/102
f 807/805/300/103 808/806/301/103 805/807/300/103 806/808/301/103
f 815/813/303/104 816/814/304/104 813/815/303/104 814/816/304/104
f 823/821/306/105 824/822/307/105 821/823/306/105 822/824/307/105
f 831/829/309/106 832/830/310/106 829/831/309/106 830/832/310/106
f 839/837/312/107 840/838/313/107 837/839/312/107 838/840/313/107
f 847/845/315/108 848/846/316/108 845/847/315/108 846/848/316/108
f 855/853/318/109 856/854/319/109 853/855/318/109 854/856/319/109
f 863/861/321/110 864/862/322/110 861/863/321/110 862/864/322/110
f 871/869/324/111 872/870/325/111 869/871/324/111 870/872/325/111
f 879/877/327/112 880/878/328/112 877/879/327/112 878/880/328/112
f 887/885/330/113 888/886/331/113 885/887/330/113 886/888/331/113
f 895/893/333/114 896/894/334/114 893/895/333/114 894/896/334/114
f 903/901/336/115 904/902/337/115 901/903/336/115 902/904/337/115
f 911/909/339/116 912/910/340/116 909/911/339/116 910/912/340/116
f 919/917/342/117 920/918/343/117 917/919/342/117 918/920/343/117
f 927/925/345/118 928/926/346/118 925/927/345/118 926/928/346/118
f 935/933/348/119 936/934/349/119 933/935/348/119 934/936/349/119
f 943/941/351/120 944/942/352/120 941/943/351/120 942/944/352/120
f 951/949/354/121 952/950/355/121 949/951/354/121 950/952/355/121
f 959/957/357/122 960/958/358/122 957/959/357/122 958/960/358/122
f 967/965/360/123 968/966/361/123 965/967/360/123 966/968/361/123
f 975/973/363/124 976/974/364/124 973/975/363/124 974/976/364/124
f 983/981/366/125 984/982/367/125 981/983/366/125 982/984/367/125
f 991/989/369/126 992/990/370/126 989/991/369/126 990/992/370/126
f 999/997/372/127 1000/998/373/127 997/999/372/127 998/1000/373/127
f 1007/1005/375/128 1008/1006/376/128 1005/1007/375/128 1006/1008/376/128
f 1015/1013/378/129 1016/1014/379/129 1013/1015/378/129 1014/1016/379/129
f 1023/1021/381/130 1024/1022/382/130 1021/1023/381/130 1022/1024/382/130
f 1031/1029/384/131 1032/1030/385/131 1029/1031/384/131 1030/1032/385/131
f 1039/1037/387/132 1040/1038/388/132 1037/1039/387/132 1038/1040/388/132
f 1051/1049/391/134 1052/1050/392/134 1049/1051/391/134 1050/1052/392/134
f 1059/1057/394/135 1060/1058/395/135 1057/1059/394/135 1058/1060/395/135
f 1067/1065/397/136 1068/1066/398/136 1065/1067/397/136 1066/1068/398/136
f 1075/1073/400/137 1076/1074/401/137 1073/1075/400/137 1074/1076/401/137
f 1083/1081/403/138 1084/1082/404/138 1081/1083/403/138 1082/1084/404/138
f 1091/1089/406/139 1092/1090/407/139 1089/1091/406/139 1090/1092/407/139
f 1099/1097/409/140 1100/1098/410/140 1097/1099/409/140 1098/1100/410/140
f 1107/1105/412/141 1108/1106/413/141 1105/1107/412/141 1106/1108/413/141
f 1115/1113/415/142 1116/1114/416/142 1113/1115/415/142 1114/1116/416/142
f 1123/1121/418/143 1124/1122/419/143 1121/1123/418/143 1122/1124/419/143
f 1131/1129/421/144 1132/1130/422/144 1129/1131/421/144 1130/1132/422/144
f 1139/1137/424/145 1140/1138/425/145 1137/1139/424/145 1138/1140/425/145
f 1147/1145/427/146 1148/1146/428/146 1145/1147/427/146 1146/1148/428/146
f 1155/1153/430/147 1156/1154/431/147 1153/1155/430/147 1154/1156/431/147
f 1163/1161/433/148 1164/1162/434/148 1161/1163/433/148 1162/1164/434/148
f 1171/1169/436/149 1172/1170/437/149 1169/1171/436/149 1170/1172/437/149
f 1179/1177/439/150 1180/1178/440/150 1177/1179/439/150 1178/1180/440/150
f 1187/1185/442/151 1188/1186/443/151 1185/1187/442/151 1186/1188/443/151
f 1195/1193/445/152 1196/1194/446/152 1193/1195/445/152 1194/1196/446/152
f 1203/1201/448/153 1204/1202/449/153 1201/1203/448/153 1202/1204/449/153
f 1211/1209/451/154 1212/1210/452/154 1209/1211/451/154 1210/1212/452/154
f 1219/1217/454/155 1220/1218/455/155 1217/1219/454/155 1218/1220/455/155
f 1227/1225/457/156 1228/1226/458/156 1225/1227/457/156 1226/1228/458/156
f 1235/1233/460/157 1236/1234/461/157 1233/1235/460/157 1234/1236/461/157
f 1243/1241/463/158 1244/1242/464/158 1241/1243/463/158 1242/1244/464/158
f 1251/1249/466/159 1252/1250/467/159 1249/1251/466/159 1250/1252/467/159
f 1259/1257/469/160 1260/1258/470/160 1257/1259/469/160 1258/1260/470/160
f 1267/1265/472/161 1268/1266/473/161 1265/1267/472/161 1266/1268/473/161
f 1275/1273/475/162 1276/1274/476/162 1273/1275/475/162 1274/1276/476/162
f 1283/1281/478/163 1284/1282/479/163 1281/1283/478/163 1282/1284/479/163
f 1309/1307/487/167 1310/1308/488/167 1307/1309/487/167 1308/1310/488/167
f 1317/1315/490/168 1318/1316/491/168 1315/1317/490/168 1316/1318/491/168
f 1325/1323/493/169 1326/1324/494/169 1323/1325/493/169 1324/1326/494/169
f 1333/1331/496/170 1334/1332/497/170 1331/1333/496/170 1332/1334/497/170
f 1341/1339/499/171 1342/1340/500/171 1339/1341/499/171 1340/1342/500/171
f 1349/1347/502/172 1350/1348/503/172 1347/1349/502/172 1348/1350/503/172
f 1357/1355/505/173 1358/1356/506/173 1355/1357/505/173 1356/1358/506/173
f 1365/1363/508/174 1366/1364/509/174 1363/1365/508/174 1364/1366/509/174
f 1373/1371/511/175 1374/1372/512/175 1371/1373/511/175 1372/1374/512/175
f 1381/1379/514/176 1382/1380/515/176 1379/1381/514/176 1380/1382/515/176
f 1389/1387/517/177 1390/1388/518/177 1387/1389/517/177 1388/1390/518/177
f 1397/1395/520/178 1398/1396/521/178 1395/1397/520/178 1396/1398/521/178
f 1405/1403/523/179 1406/1404/524/179 1403/1405/523/179 1404/1406/524/179
f 1413/1411/526/180 1414/1412/527/180 1411/1413/526/180 1412/1414/527/180
f 1421/1419/529/181 1422/1420/530/181 1419/1421/529/181 1420/1422/530/181
f 1429/1427/532/182 1430/1428/533/182 1427/1429/532/182 1428/1430/533/182
f 1437/1435/535/183 1438/1436/536/183 1435/1437/535/183 1436/1438/536/183
f 1445/1443/538/184 1446/1444/539/184 1443/1445/538/184 1444/1446/539/184
f 1453/1451/541/185 1454/1452/542/185 1451/1453/541/185 1452/1454/542/185
f 1461/1459/544/186 1462/1460/545/186 1459/1461/544/186 1460/1462/545/186
f 1469/1467/547/187 1470/1468/548/187 1467/1469/547/187 1468/1470/548/187
f 1477/1475/550/188 1478/1476/551/188 1475/1477/550/188 1476/1478/551/188
f 1485/1483/553/189 1486/1484/554/189 1483/1485/553/189 1484/1486/554/189
f 1493/1491/556/190 1494/1492/557/190 1491/1493/556/190 1492/1494/557/190
f 1501/1499/559/191 1502/1500/560/191 1499/1501/559/191 1500/1502/560/191
f 1509/1507/562/192 1510/1508/563/192 1507/1509/562/192 1508/1510/563/192
f 1517/1515/565/193 1518/1516/566/193 1515/1517/565/193 1516/1518/566/193
f 1535/1533/572/195 1536/1534/573/195 1533/1535/572/195 1534/1536/573/195
f 1543/1541/575/196 1544/1542/576/196 1541/1543/575/196 1542/1544/576/196
f 1555/1553/579/198 1556/1554/580/198 1553/1555/579/198 1554/1556/580/198
f 1567/1565/583/200 1568/1566/584/200 1565/1567/583/200 1566/1568/584/200
f 1591/1589/590/205 1592/1590/591/205 1589/1591/590/205 1590/1592/591/205
f 1599/1597/593/206 1600/1598/594/206 1597/1599/593/206 1598/1600/594/206
usemtl wall01_d
s off
f 1294/1293/482/166 1296/1294/483/166 1295/1295/483/166 1293/1296/482/166
f 1296/1294/483/166 1298/1297/484/166 1297/1298/484/166 1295/1295/483/166
usemtl wall01_g
s off
f 1301/1299/482/166 1302/1300/482/166 1299/1301/485/166 1300/1302/485/166
usemtl wallkn_g
s off
f 1519/1519/567/194 1520/1520/568/194 1521/1521/568/194 1522/1522/567/194
f 1520/1520/568/194 1523/1523/569/194 1524/1524/569/194 1521/1521/568/194
f 1525/1525/567/194 1526/1526/567/194 1527/1527/570/194 1528/1528/570/194
usemtl cliff01
s off
f 1041/1043/389/133 1042/1041/389/133 1043/1044/389/133 1044/1042/389/133
f 1285/1287/480/164 1286/1288/480/164 1287/1285/480/164 1288/1286/480/164
f 1289/1291/481/165 1290/1292/481/165 1291/1289/481/165 1292/1290/481/165
f 1617/1617/599/211 1618/1619/599/211 1619/1618/599/211 1620/1620/599/211
usemtl egrass
s off
f 1581/1581/588/204 1582/1582/588/204 1583/1583/588/204 1584/1584/588/204
