mtllib lighthouseIntQ4A_00_00.mtl
o map
v -5.0 0.0 4.0
v -7.0 0.0 4.0
v -7.0 -3.0 4.0
v -5.0 -3.0 4.0
v -4.812499 1.0 0.692382
v -4.812499 1.0 1.125
v -4.812499 0.75 0.692382
v -4.812499 0.75 1.125
v -4.812499 0.0 -0.06738299
v -4.812499 0.0 0.356445
v -7.187499 1.0 1.125
v -7.187499 1.0 0.692383
v -7.187499 0.75 1.125
v -7.187499 0.75 0.692383
v -7.187499 0.0 0.356445
v -7.187499 0.0 -0.06738299
v -5.312499 1.0 1.0
v -5.312499 0.0 0.0
v -5.062499 0.0 0.0
v -5.062499 1.0 1.0
v -6.687499 1.0 1.0
v -6.687499 0.0 0.0
v -5.312499 0.0 0.0
v -5.312499 1.0 1.0
v -6.937499 1.0 1.125
v -6.937499 1.0 1.0
v -7.187499 1.0 0.692383
v -7.187499 1.0 1.125
v -5.062499 1.0 1.0
v -5.062499 1.0 1.125
v -4.812499 1.0 1.125
v -4.812499 1.0 0.692382
v -5.062499 0.0 0.356445
v -5.062499 0.0 0.0
v -4.812499 0.0 -0.06738299
v -4.812499 0.0 0.356445
v -6.937499 0.0 0.0
v -6.937499 0.0 0.356445
v -7.187499 0.0 0.356445
v -7.187499 0.0 -0.06738299
v -4.812499 0.75 1.125
v -5.062499 0.75 1.125
v -5.062499 0.0 0.356445
v -4.812499 0.0 0.356445
v -5.062499 1.0 1.0
v -5.062499 0.0 0.0
v -5.062499 0.0 0.356445
v -5.062499 0.75 1.125
v -7.187499 0.75 1.125
v -6.937499 0.75 1.125
v -6.937499 1.0 1.125
v -7.187499 1.0 1.125
v -5.062499 1.0 1.125
v -5.062499 0.75 1.125
v -4.812499 0.75 1.125
v -4.812499 1.0 1.125
v -6.937499 0.0 0.356445
v -6.937499 0.75 1.125
v -7.187499 0.75 1.125
v -7.187499 0.0 0.356445
v -6.937499 0.0 0.0
v -6.937499 1.0 1.0
v -6.937499 0.75 1.125
v -6.937499 0.0 0.356445
v -6.937499 0.0 0.0
v -6.687499 0.0 0.0
v -6.687499 1.0 1.0
v -6.937499 1.0 1.0
v -6.937499 0.75 1.125
v -6.937499 1.0 1.0
v -6.937499 1.0 1.125
v -5.062499 1.0 1.0
v -5.062499 0.75 1.125
v -5.062499 1.0 1.125
v -5.0 3.0 1.0
v -7.0 3.0 1.0
v -7.0 1.0 1.0
v -5.0 1.0 1.0
v -3.0 -3.0 4.0
v -6.0 -3.0 4.0
v -6.0 -4.0 4.0
v -3.0 -4.0 4.0
v -3.0 4.0 1.0
v -6.0 4.0 1.0
v -6.0 3.0 1.0
v -3.0 3.0 1.0
v -2.0 -4.0 4.0
v -5.0 -4.0 4.0
v -5.0 -5.0 4.0
v -2.0 -5.0 4.0
v -4.0 -2.0 4.0
v -5.0 -2.0 4.0
v -5.0 -3.0 4.0
v -4.0 -3.0 4.0
v -4.0 3.0 1.0
v -5.0 3.0 1.0
v -5.0 2.0 1.0
v -4.0 2.0 1.0
v -2.0 5.0 1.0
v -5.0 5.0 1.0
v -5.0 4.0 1.0
v -2.0 4.0 1.0
v -1.0 -5.0 4.0
v -4.0 -5.0 4.0
v -4.0 -6.0 4.0
v -1.0 -6.0 4.0
v 0.0 6.0 1.0
v -4.0 6.0 1.0
v -4.0 5.0 1.0
v 0.0 5.0 1.0
v -1.0 -6.0 4.0
v -3.0 -6.0 4.0
v -3.0 -7.0 4.0
v -1.0 -7.0 4.0
v 0.0 7.0 1.0
v -3.0 7.0 1.0
v -3.0 6.0 1.0
v 0.0 6.0 1.0
v -1.0 -4.812499 3.6923819
v -1.0 -4.812499 4.125
v -0.75 -4.812499 3.6923819
v -0.75 -4.812499 4.125
v 0.0 -4.812499 2.932617
v 0.0 -4.812499 3.356445
v -1.0 -7.187499 4.125
v -1.0 -7.187499 3.692383
v -0.75 -7.187499 4.125
v -0.75 -7.187499 3.692383
v 0.0 -7.187499 3.356445
v 0.0 -7.187499 2.932617
v -1.0 -5.312499 4.0
v 0.0 -5.312499 3.0
v 0.0 -5.062499 3.0
v -1.0 -5.062499 4.0
v -1.0 -6.687499 4.0
v 0.0 -6.687499 3.0
v 0.0 -5.312499 3.0
v -1.0 -5.312499 4.0
v -1.0 -6.937499 4.125
v -1.0 -6.937499 4.0
v -1.0 -7.187499 3.692383
v -1.0 -7.187499 4.125
v -1.0 -5.062499 4.0
v -1.0 -5.062499 4.125
v -1.0 -4.812499 4.125
v -1.0 -4.812499 3.6923819
v 0.0 -5.062499 3.356445
v 0.0 -5.062499 3.0
v 0.0 -4.812499 2.932617
v 0.0 -4.812499 3.356445
v 0.0 -6.937499 3.0
v 0.0 -6.937499 3.356445
v 0.0 -7.187499 3.356445
v 0.0 -7.187499 2.932617
v -0.75 -4.812499 4.125
v -0.75 -5.062499 4.125
v 0.0 -5.062499 3.356445
v 0.0 -4.812499 3.356445
v -1.0 -5.062499 4.0
v 0.0 -5.062499 3.0
v 0.0 -5.062499 3.356445
v -0.75 -5.062499 4.125
v -0.75 -7.187499 4.125
v -0.75 -6.937499 4.125
v -1.0 -6.937499 4.125
v -1.0 -7.187499 4.125
v -1.0 -5.062499 4.125
v -0.75 -5.062499 4.125
v -0.75 -4.812499 4.125
v -1.0 -4.812499 4.125
v 0.0 -6.937499 3.356445
v -0.75 -6.937499 4.125
v -0.75 -7.187499 4.125
v 0.0 -7.187499 3.356445
v 0.0 -6.937499 3.0
v -1.0 -6.937499 4.0
v -0.75 -6.937499 4.125
v 0.0 -6.937499 3.356445
v 0.0 -6.937499 3.0
v 0.0 -6.687499 3.0
v -1.0 -6.687499 4.0
v -1.0 -6.937499 4.0
v -0.75 -6.937499 4.125
v -1.0 -6.937499 4.0
v -1.0 -6.937499 4.125
v -1.0 -5.062499 4.0
v -0.75 -5.062499 4.125
v -1.0 -5.062499 4.125
v 3.0 -5.0 3.0
v 0.0 -5.0 3.0
v 0.0 -7.0 3.0
v 3.0 -7.0 3.0
v 1.0 4.812499 1.692382
v 1.0 4.812499 2.125
v 0.75 4.812499 1.692382
v 0.75 4.812499 2.125
v 0.0 4.812499 0.932617
v 0.0 4.812499 1.3564451
v 1.0 7.187499 2.125
v 1.0 7.187499 1.692383
v 0.75 7.187499 2.125
v 0.75 7.187499 1.692383
v 0.0 7.187499 1.3564451
v 0.0 7.187499 0.932617
v 1.0 5.312499 2.0
v 0.0 5.312499 1.0
v 0.0 5.062499 1.0
v 1.0 5.062499 2.0
v 1.0 6.687499 2.0
v 0.0 6.687499 1.0
v 0.0 5.312499 1.0
v 1.0 5.312499 2.0
v 1.0 6.937499 2.125
v 1.0 6.937499 2.0
v 1.0 7.187499 1.692383
v 1.0 7.187499 2.125
v 1.0 5.062499 2.0
v 1.0 5.062499 2.125
v 1.0 4.812499 2.125
v 1.0 4.812499 1.692382
v 0.0 5.062499 1.3564451
v 0.0 5.062499 1.0
v 0.0 4.812499 0.932617
v 0.0 4.812499 1.3564451
v 0.0 6.937499 1.0
v 0.0 6.937499 1.3564451
v 0.0 7.187499 1.3564451
v 0.0 7.187499 0.932617
v 0.75 4.812499 2.125
v 0.75 5.062499 2.125
v 0.0 5.062499 1.3564451
v 0.0 4.812499 1.3564451
v 1.0 5.062499 2.0
v 0.0 5.062499 1.0
v 0.0 5.062499 1.3564451
v 0.75 5.062499 2.125
v 0.75 7.187499 2.125
v 0.75 6.937499 2.125
v 1.0 6.937499 2.125
v 1.0 7.187499 2.125
v 1.0 5.062499 2.125
v 0.75 5.062499 2.125
v 0.75 4.812499 2.125
v 1.0 4.812499 2.125
v 0.0 6.937499 1.3564451
v 0.75 6.937499 2.125
v 0.75 7.187499 2.125
v 0.0 7.187499 1.3564451
v 0.0 6.937499 1.0
v 1.0 6.937499 2.0
v 0.75 6.937499 2.125
v 0.0 6.937499 1.3564451
v 0.0 6.937499 1.0
v 0.0 6.687499 1.0
v 1.0 6.687499 2.0
v 1.0 6.937499 2.0
v 0.75 6.937499 2.125
v 1.0 6.937499 2.0
v 1.0 6.937499 2.125
v 1.0 5.062499 2.0
v 0.75 5.062499 2.125
v 1.0 5.062499 2.125
v 4.0 6.0 2.0
v 1.0 6.0 2.0
v 1.0 5.0 2.0
v 4.0 5.0 2.0
v 3.0 7.0 2.0
v 1.0 7.0 2.0
v 1.0 6.0 2.0
v 3.0 6.0 2.0
v 5.0 -4.0 3.0
v 2.0 -4.0 3.0
v 2.0 -5.0 3.0
v 5.0 -5.0 3.0
v 5.0 5.0 2.0
v 2.0 5.0 2.0
v 2.0 4.0 2.0
v 5.0 4.0 2.0
v 4.0 -5.0 3.0
v 3.0 -5.0 3.0
v 3.0 -6.0 3.0
v 4.0 -6.0 3.0
v 6.0 -3.0 3.0
v 3.0 -3.0 3.0
v 3.0 -4.0 3.0
v 6.0 -4.0 3.0
v 6.0 4.0 2.0
v 3.0 4.0 2.0
v 3.0 3.0 2.0
v 6.0 3.0 2.0
v 7.0 -2.0 3.0
v 4.0 -2.0 3.0
v 4.0 -3.0 3.0
v 7.0 -3.0 3.0
v 7.0 3.0 2.0
v 4.0 3.0 2.0
v 4.0 2.0 2.0
v 7.0 2.0 2.0
v 7.0 -1.0 3.0
v 5.0 -1.0 3.0
v 5.0 -2.0 3.0
v 7.0 -2.0 3.0
v 4.812499 -1.0 2.6923819
v 4.812499 -1.0 3.125
v 4.812499 -0.75 2.6923819
v 4.812499 -0.75 3.125
v 4.812499 0.0 1.932617
v 4.812499 0.0 2.356445
v 7.187499 -1.0 3.125
v 7.187499 -1.0 2.692383
v 7.187499 -0.75 3.125
v 7.187499 -0.75 2.692383
v 7.187499 0.0 2.356445
v 7.187499 0.0 1.932617
v 5.312499 -1.0 3.0
v 5.312499 0.0 2.0
v 5.062499 0.0 2.0
v 5.062499 -1.0 3.0
v 6.687499 -1.0 3.0
v 6.687499 0.0 2.0
v 5.312499 0.0 2.0
v 5.312499 -1.0 3.0
v 6.937499 -1.0 3.125
v 6.937499 -1.0 3.0
v 7.187499 -1.0 2.692383
v 7.187499 -1.0 3.125
v 5.062499 -1.0 3.0
v 5.062499 -1.0 3.125
v 4.812499 -1.0 3.125
v 4.812499 -1.0 2.6923819
v 5.062499 0.0 2.356445
v 5.062499 0.0 2.0
v 4.812499 0.0 1.932617
v 4.812499 0.0 2.356445
v 6.937499 0.0 2.0
v 6.937499 0.0 2.356445
v 7.187499 0.0 2.356445
v 7.187499 0.0 1.932617
v 4.812499 -0.75 3.125
v 5.062499 -0.75 3.125
v 5.062499 0.0 2.356445
v 4.812499 0.0 2.356445
v 5.062499 -1.0 3.0
v 5.062499 0.0 2.0
v 5.062499 0.0 2.356445
v 5.062499 -0.75 3.125
v 7.187499 -0.75 3.125
v 6.937499 -0.75 3.125
v 6.937499 -1.0 3.125
v 7.187499 -1.0 3.125
v 5.062499 -1.0 3.125
v 5.062499 -0.75 3.125
v 4.812499 -0.75 3.125
v 4.812499 -1.0 3.125
v 6.937499 0.0 2.356445
v 6.937499 -0.75 3.125
v 7.187499 -0.75 3.125
v 7.187499 0.0 2.356445
v 6.937499 0.0 2.0
v 6.937499 -1.0 3.0
v 6.937499 -0.75 3.125
v 6.937499 0.0 2.356445
v 6.937499 0.0 2.0
v 6.687499 0.0 2.0
v 6.687499 -1.0 3.0
v 6.937499 -1.0 3.0
v 6.937499 -0.75 3.125
v 6.937499 -1.0 3.0
v 6.937499 -1.0 3.125
v 5.062499 -1.0 3.0
v 5.062499 -0.75 3.125
v 5.062499 -1.0 3.125
v 7.0 2.0 2.0
v 5.0 2.0 2.0
v 5.0 0.0 2.0
v 7.0 0.0 2.0
v -7.0 4.0 0.0
v -8.0 4.0 0.0
v -8.0 -4.0 0.0
v -7.0 -4.0 0.0
v -6.0 -3.0 0.0
v -7.0 -3.0 0.0
v -7.0 -5.0 0.0
v -6.0 -5.0 0.0
v -7.0 -3.0 0.0
v -6.0 -3.0 0.0
v -6.0 2.0 0.0
v -7.0 2.0 0.0
v -7.0 2.0 0.0
v -6.0 2.0 0.0
v -6.0 3.0 1.0E-6
v -7.0 3.0 1.0E-6
v -6.0 5.0 0.0
v -7.0 5.0 0.0
v -7.0 3.0 0.0
v -6.0 3.0 0.0
v -5.0 -4.0 0.0
v -6.0 -4.0 0.0
v -6.0 -6.0 0.0
v -5.0 -6.0 0.0
v -6.0 -4.000001 -2.0E-6
v -5.0 -4.000001 -2.0E-6
v -5.0 -3.000001 -2.0E-6
v -6.0 -3.000001 -2.0E-6
v -6.0 -3.0 -2.0E-6
v -5.0 -3.0 -2.0E-6
v -6.0 -2.0 -1.0E-6
v -5.0 -2.0 -1.0E-6
v -6.0 -2.0 -2.0E-6
v -5.0 -2.0 -2.0E-6
v -6.0 -1.0 -1.0E-6
v -5.0 -1.0 -1.0E-6
v -6.0 -1.0 -2.0E-6
v -5.0 -1.0 -2.0E-6
v -6.0 0.0 -1.0E-6
v -5.0 0.0 -1.0E-6
v -6.0 0.0 -2.0E-6
v -5.0 0.0 -2.0E-6
v -6.0 1.0 -1.0E-6
v -5.0 1.0 -1.0E-6
v -6.0 1.0 -2.0E-6
v -5.0 1.0 -2.0E-6
v -6.0 2.0 -1.0E-6
v -5.0 2.0 -1.0E-6
v -6.0 2.0 0.0
v -5.0 2.0 0.0
v -5.0 3.0 0.0
v -6.0 3.0 0.0
v -6.0 3.0 0.0
v -5.0 3.0 0.0
v -5.0 4.0 1.0E-6
v -6.0 4.0 1.0E-6
v -5.0 6.0 0.0
v -6.0 6.0 0.0
v -6.0 4.0 0.0
v -5.0 4.0 0.0
v -4.0 -5.0 0.0
v -5.0 -5.0 0.0
v -5.0 -7.0 0.0
v -4.0 -7.0 0.0
v -5.0 -5.000001 -2.0E-6
v -4.0 -5.000001 -2.0E-6
v -4.0 -4.000001 -2.0E-6
v -5.0 -4.000001 -2.0E-6
v -5.0 -4.0 -2.0E-6
v -4.0 -4.0 -2.0E-6
v -5.0 -3.0 -1.0E-6
v -4.0 -3.0 -1.0E-6
v -5.0 -3.0 -2.0E-6
v -4.0 -3.0 -2.0E-6
v -5.0 -2.0 -1.0E-6
v -4.0 -2.0 -1.0E-6
v -5.0 -2.0 -2.0E-6
v -4.0 -2.0 -2.0E-6
v -5.0 -1.0 -1.0E-6
v -4.0 -1.0 -1.0E-6
v -5.0 -1.0 -2.0E-6
v -4.0 -1.0 -2.0E-6
v -5.0 0.0 -1.0E-6
v -4.0 0.0 -1.0E-6
v -5.0 0.0 -2.0E-6
v -4.0 0.0 -2.0E-6
v -5.0 1.0 -1.0E-6
v -4.0 1.0 -1.0E-6
v -5.0 1.0 -2.0E-6
v -4.0 1.0 -2.0E-6
v -5.0 2.0 -1.0E-6
v -4.0 2.0 -1.0E-6
v -5.0 2.0 -2.0E-6
v -4.0 2.0 -2.0E-6
v -5.0 3.0 -1.0E-6
v -4.0 3.0 -1.0E-6
v -5.0 3.0 0.0
v -4.0 3.0 0.0
v -4.0 4.0 0.0
v -5.0 4.0 0.0
v -5.0 4.0 0.0
v -4.0 4.0 0.0
v -4.0 5.0 1.0E-6
v -5.0 5.0 1.0E-6
v -4.0 7.0 0.0
v -5.0 7.0 0.0
v -5.0 5.0 0.0
v -4.0 5.0 0.0
v 4.0 -7.0 0.0
v -4.0 -7.0 0.0
v -4.0 -8.0 0.0
v 4.0 -8.0 0.0
v -3.0 -6.0 0.0
v -4.0 -6.0 0.0
v -4.0 -7.0 0.0
v -3.0 -7.0 0.0
v -4.0 -6.000001 -2.0E-6
v -3.0 -6.000001 -2.0E-6
v -3.0 -5.000001 -2.0E-6
v -4.0 -5.000001 -2.0E-6
v -4.0 -5.0 -2.0E-6
v -3.0 -5.0 -2.0E-6
v -4.0 -4.0 -1.0E-6
v -3.0 -4.0 -1.0E-6
v -4.0 -4.0 -2.0E-6
v -3.0 -4.0 -2.0E-6
v -4.0 -3.0 -1.0E-6
v -3.0 -3.0 -1.0E-6
v -4.0 -3.0 -2.0E-6
v -3.0 -3.0 -2.0E-6
v -4.0 -2.0 -1.0E-6
v -3.0 -2.0 -1.0E-6
v -4.0 -2.0 -2.0E-6
v -3.0 -2.0 -2.0E-6
v -4.0 -1.0 -1.0E-6
v -3.0 -1.0 -1.0E-6
v -4.0 -1.0 -2.0E-6
v -3.0 -1.0 -2.0E-6
v -4.0 0.0 -1.0E-6
v -3.0 0.0 -1.0E-6
v -4.0 0.0 -2.0E-6
v -3.0 0.0 -2.0E-6
v -4.0 1.0 -1.0E-6
v -3.0 1.0 -1.0E-6
v -4.0 1.0 -2.0E-6
v -3.0 1.0 -2.0E-6
v -4.0 2.0 -1.0E-6
v -3.0 2.0 -1.0E-6
v -4.0 2.0 -2.0E-6
v -3.0 2.0 -2.0E-6
v -4.0 3.0 -1.0E-6
v -3.0 3.0 -1.0E-6
v -4.0 3.0 -2.0E-6
v -3.0 3.0 -2.0E-6
v -4.0 4.0 -1.0E-6
v -3.0 4.0 -1.0E-6
v -4.0 4.0 0.0
v -3.0 4.0 0.0
v -3.0 5.0 0.0
v -4.0 5.0 0.0
v -4.0 5.0 0.0
v -3.0 5.0 0.0
v -3.0 6.0 1.0E-6
v -4.0 6.0 1.0E-6
v -3.0 8.0 0.0
v -4.0 8.0 0.0
v -4.0 6.0 0.0
v -3.0 6.0 0.0
v -3.0 -7.000001 -2.0E-6
v -2.0 -7.000001 -2.0E-6
v -2.0 -6.000001 -2.0E-6
v -3.0 -6.000001 -2.0E-6
v -3.0 -6.0 -2.0E-6
v -2.0 -6.0 -2.0E-6
v -3.0 -5.0 -1.0E-6
v -2.0 -5.0 -1.0E-6
v -3.0 -5.0 -2.0E-6
v -2.0 -5.0 -2.0E-6
v -3.0 -4.0 -1.0E-6
v -2.0 -4.0 -1.0E-6
v -3.0 -4.0 -2.0E-6
v -2.0 -4.0 -2.0E-6
v -3.0 -3.0 -1.0E-6
v -2.0 -3.0 -1.0E-6
v -3.0 -3.0 -2.0E-6
v -2.0 -3.0 -2.0E-6
v -3.0 -2.0 -1.0E-6
v -2.0 -2.0 -1.0E-6
v -3.0 -2.0 -2.0E-6
v -2.0 -2.0 -2.0E-6
v -3.0 -1.0 -1.0E-6
v -2.0 -1.0 -1.0E-6
v -3.0 -1.0 -2.0E-6
v -2.0 -1.0 -2.0E-6
v -3.0 0.0 -1.0E-6
v -2.0 0.0 -1.0E-6
v -3.0 0.0 -2.0E-6
v -2.0 0.0 -2.0E-6
v -3.0 1.0 -1.0E-6
v -2.0 1.0 -1.0E-6
v -3.0 1.0 -2.0E-6
v -2.0 1.0 -2.0E-6
v -3.0 2.0 -1.0E-6
v -2.0 2.0 -1.0E-6
v -3.0 2.0 -2.0E-6
v -2.0 2.0 -2.0E-6
v -3.0 3.0 -1.0E-6
v -2.0 3.0 -1.0E-6
v -3.0 3.0 -2.0E-6
v -2.0 3.0 -2.0E-6
v -3.0 4.0 -1.0E-6
v -2.0 4.0 -1.0E-6
v -3.0 4.0 -2.0E-6
v -2.0 4.0 -2.0E-6
v -3.0 5.0 -1.0E-6
v -2.0 5.0 -1.0E-6
v -3.0 5.0 0.0
v -2.0 5.0 0.0
v -2.0 6.0 0.0
v -3.0 6.0 0.0
v -3.0 6.0 0.0
v -2.0 6.0 0.0
v -2.0 7.0 1.0E-6
v -3.0 7.0 1.0E-6
v 4.0 8.0 0.0
v -3.0 8.0 0.0
v -3.0 7.0 0.0
v 4.0 7.0 0.0
v -2.0 -7.0 0.0
v -2.0 -6.0 0.0
v 2.0 -6.0 0.0
v 2.0 -7.0 0.0
v -2.0 -6.0 -2.0E-6
v -1.0 -6.0 -2.0E-6
v -2.0 -5.0 -1.0E-6
v -1.0 -5.0 -1.0E-6
v -2.0 -5.0 -2.0E-6
v -1.0 -5.0 -2.0E-6
v -2.0 -4.0 -1.0E-6
v -1.0 -4.0 -1.0E-6
v -2.0 -4.0 -2.0E-6
v -1.0 -4.0 -2.0E-6
v -2.0 -3.0 -1.0E-6
v -1.0 -3.0 -1.0E-6
v -2.0 -3.0 -2.0E-6
v -1.0 -3.0 -2.0E-6
v -2.0 -2.0 -1.0E-6
v -1.0 -2.0 -1.0E-6
v -2.0 -2.0 -2.0E-6
v -1.0 -2.0 -2.0E-6
v -2.0 -1.0 -1.0E-6
v -1.0 -1.0 -1.0E-6
v -2.0 -1.0 -2.0E-6
v -1.0 -1.0 -2.0E-6
v -2.0 0.0 -1.0E-6
v -1.0 0.0 -1.0E-6
v -2.0 0.0 -2.0E-6
v -1.0 0.0 -2.0E-6
v -2.0 1.0 -1.0E-6
v -1.0 1.0 -1.0E-6
v -2.0 1.0 -2.0E-6
v -1.0 1.0 -2.0E-6
v -2.0 2.0 -1.0E-6
v -1.0 2.0 -1.0E-6
v -2.0 2.0 -2.0E-6
v -1.0 2.0 -2.0E-6
v -2.0 3.0 -1.0E-6
v -1.0 3.0 -1.0E-6
v -2.0 3.0 -2.0E-6
v -1.0 3.0 -2.0E-6
v -2.0 4.0 -1.0E-6
v -1.0 4.0 -1.0E-6
v -2.0 4.0 -2.0E-6
v -1.0 4.0 -2.0E-6
v -2.0 5.0 -1.0E-6
v -1.0 5.0 -1.0E-6
v -2.0 5.0 -2.0E-6
v -1.0 5.0 -2.0E-6
v -2.0 6.0 -1.0E-6
v -1.0 6.0 -1.0E-6
v -2.0 6.0 0.0
v -2.0 7.0 0.0
v 2.0 7.0 0.0
v 2.0 6.0 0.0
v -1.0 -6.0 -2.0E-6
v 0.0 -6.0 -2.0E-6
v -1.0 -5.0 -1.0E-6
v 0.0 -5.0 -1.0E-6
v -1.0 -5.0 -2.0E-6
v 0.0 -5.0 -2.0E-6
v -1.0 -4.0 -1.0E-6
v 0.0 -4.0 -1.0E-6
v -1.0 -4.0 -2.0E-6
v 0.0 -4.0 -2.0E-6
v -1.0 -3.0 -1.0E-6
v 0.0 -3.0 -1.0E-6
v -1.0 -3.0 -2.0E-6
v 0.0 -3.0 -2.0E-6
v -1.0 -2.0 -1.0E-6
v 0.0 -2.0 -1.0E-6
v -1.0 -2.0 -2.0E-6
v 0.0 -2.0 -2.0E-6
v -1.0 -1.0 -1.0E-6
v 0.0 -1.0 -1.0E-6
v -1.0 -1.0 -2.0E-6
v 0.0 -1.0 -2.0E-6
v -1.0 0.0 -1.0E-6
v 0.0 0.0 -1.0E-6
v -1.0 0.0 -2.0E-6
v 0.0 0.0 -2.0E-6
v -1.0 1.0 -1.0E-6
v 0.0 1.0 -1.0E-6
v -1.0 1.0 -2.0E-6
v 0.0 1.0 -2.0E-6
v -1.0 2.0 -1.0E-6
v 0.0 2.0 -1.0E-6
v -1.0 2.0 -2.0E-6
v 0.0 2.0 -2.0E-6
v -1.0 3.0 -1.0E-6
v 0.0 3.0 -1.0E-6
v -1.0 3.0 -2.0E-6
v 0.0 3.0 -2.0E-6
v -1.0 4.0 -1.0E-6
v 0.0 4.0 -1.0E-6
v -1.0 4.0 -2.0E-6
v 0.0 4.0 -2.0E-6
v -1.0 5.0 -1.0E-6
v 0.0 5.0 -1.0E-6
v -1.0 5.0 -2.0E-6
v 0.0 5.0 -2.0E-6
v -1.0 6.0 -1.0E-6
v 0.0 6.0 -1.0E-6
v 0.0 -6.0 -2.0E-6
v 1.0 -6.0 -2.0E-6
v 0.0 -5.0 -1.0E-6
v 1.0 -5.0 -1.0E-6
v 0.0 -5.0 -2.0E-6
v 1.0 -5.0 -2.0E-6
v 0.0 -4.0 -1.0E-6
v 1.0 -4.0 -1.0E-6
v 0.0 -4.0 -2.0E-6
v 1.0 -4.0 -2.0E-6
v 0.0 -3.0 -1.0E-6
v 1.0 -3.0 -1.0E-6
v 0.0 -3.0 -2.0E-6
v 1.0 -3.0 -2.0E-6
v 0.0 -2.0 -1.0E-6
v 1.0 -2.0 -1.0E-6
v 0.0 -2.0 -2.0E-6
v 1.0 -2.0 -2.0E-6
v 0.0 -1.0 -1.0E-6
v 1.0 -1.0 -1.0E-6
v 0.0 -1.0 -2.0E-6
v 1.0 -1.0 -2.0E-6
v 0.0 0.0 -1.0E-6
v 1.0 0.0 -1.0E-6
v 0.0 0.0 -2.0E-6
v 1.0 0.0 -2.0E-6
v 0.0 1.0 -1.0E-6
v 1.0 1.0 -1.0E-6
v 0.0 1.0 -2.0E-6
v 1.0 1.0 -2.0E-6
v 0.0 2.0 -1.0E-6
v 1.0 2.0 -1.0E-6
v 0.0 2.0 -2.0E-6
v 1.0 2.0 -2.0E-6
v 0.0 3.0 -1.0E-6
v 1.0 3.0 -1.0E-6
v 0.0 3.0 -2.0E-6
v 1.0 3.0 -2.0E-6
v 0.0 4.0 -1.0E-6
v 1.0 4.0 -1.0E-6
v 0.0 4.0 -2.0E-6
v 1.0 4.0 -2.0E-6
v 0.0 5.0 -1.0E-6
v 1.0 5.0 -1.0E-6
v 0.0 5.0 -2.0E-6
v 1.0 5.0 -2.0E-6
v 0.0 6.0 -1.0E-6
v 1.0 6.0 -1.0E-6
v 1.0 -6.0 -2.0E-6
v 2.0 -6.0 -2.0E-6
v 1.0 -5.0 -1.0E-6
v 2.0 -5.0 -1.0E-6
v 1.0 -5.0 -2.0E-6
v 2.0 -5.0 -2.0E-6
v 1.0 -4.0 -1.0E-6
v 2.0 -4.0 -1.0E-6
v 1.0 -4.0 -2.0E-6
v 2.0 -4.0 -2.0E-6
v 1.0 -3.0 -1.0E-6
v 2.0 -3.0 -1.0E-6
v 1.0 -3.0 -2.0E-6
v 2.0 -3.0 -2.0E-6
v 1.0 -2.0 -1.0E-6
v 2.0 -2.0 -1.0E-6
v 1.0 -2.0 -2.0E-6
v 2.0 -2.0 -2.0E-6
v 1.0 -1.0 -1.0E-6
v 2.0 -1.0 -1.0E-6
v 1.0 -1.0 -2.0E-6
v 2.0 -1.0 -2.0E-6
v 1.0 0.0 -1.0E-6
v 2.0 0.0 -1.0E-6
v 1.0 0.0 -2.0E-6
v 2.0 0.0 -2.0E-6
v 1.0 1.0 -1.0E-6
v 2.0 1.0 -1.0E-6
v 1.0 1.0 -2.0E-6
v 2.0 1.0 -2.0E-6
v 1.0 2.0 -1.0E-6
v 2.0 2.0 -1.0E-6
v 1.0 2.0 -2.0E-6
v 2.0 2.0 -2.0E-6
v 1.0 3.0 -1.0E-6
v 2.0 3.0 -1.0E-6
v 1.0 3.0 -2.0E-6
v 2.0 3.0 -2.0E-6
v 1.0 4.0 -1.0E-6
v 2.0 4.0 -1.0E-6
v 1.0 4.0 -2.0E-6
v 2.0 4.0 -2.0E-6
v 1.0 5.0 -1.0E-6
v 2.0 5.0 -1.0E-6
v 1.0 5.0 -2.0E-6
v 2.0 5.0 -2.0E-6
v 1.0 6.0 -1.0E-6
v 2.0 6.0 -1.0E-6
v 2.0 -7.0 0.0
v 3.0 -7.0 0.0
v 3.0 -6.0 0.0
v 2.0 -6.0 0.0
v 2.0 -6.0 -2.0E-6
v 3.0 -6.0 -2.0E-6
v 2.0 -5.0 -1.0E-6
v 3.0 -5.0 -1.0E-6
v 2.0 -5.0 -2.0E-6
v 3.0 -5.0 -2.0E-6
v 2.0 -4.0 -1.0E-6
v 3.0 -4.0 -1.0E-6
v 2.0 -4.0 -2.0E-6
v 3.0 -4.0 -2.0E-6
v 2.0 -3.0 -1.0E-6
v 3.0 -3.0 -1.0E-6
v 2.0 -3.0 -2.0E-6
v 3.0 -3.0 -2.0E-6
v 2.0 -2.0 -1.0E-6
v 3.0 -2.0 -1.0E-6
v 2.0 -2.0 -2.0E-6
v 3.0 -2.0 -2.0E-6
v 2.0 -1.0 -1.0E-6
v 3.0 -1.0 -1.0E-6
v 2.0 -1.0 -2.0E-6
v 3.0 -1.0 -2.0E-6
v 2.0 0.0 -1.0E-6
v 3.0 0.0 -1.0E-6
v 2.0 0.0 -2.0E-6
v 3.0 0.0 -2.0E-6
v 2.0 1.0 -1.0E-6
v 3.0 1.0 -1.0E-6
v 2.0 1.0 -2.0E-6
v 3.0 1.0 -2.0E-6
v 2.0 2.0 -1.0E-6
v 3.0 2.0 -1.0E-6
v 2.0 2.0 -2.0E-6
v 3.0 2.0 -2.0E-6
v 2.0 3.0 -1.0E-6
v 3.0 3.0 -1.0E-6
v 2.0 3.0 -2.0E-6
v 3.0 3.0 -2.0E-6
v 2.0 4.0 -1.0E-6
v 3.0 4.0 -1.0E-6
v 2.0 4.0 -2.0E-6
v 3.0 4.0 -2.0E-6
v 2.0 5.0 -1.0E-6
v 3.0 5.0 -1.0E-6
v 2.0 5.0 0.0
v 3.0 5.0 0.0
v 3.0 6.0 0.0
v 2.0 6.0 0.0
v 2.0 6.0 0.0
v 3.0 6.0 0.0
v 3.0 7.0 1.0E-6
v 2.0 7.0 1.0E-6
v 5.0 -6.0 0.0
v 3.0 -6.0 0.0
v 3.0 -7.0 0.0
v 5.0 -7.0 0.0
v 3.0 -6.0 0.0
v 4.0 -6.0 0.0
v 4.0 -5.0 0.0
v 3.0 -5.0 0.0
v 3.0 -5.0 -2.0E-6
v 4.0 -5.0 -2.0E-6
v 3.0 -4.0 -1.0E-6
v 4.0 -4.0 -1.0E-6
v 3.0 -4.0 -2.0E-6
v 4.0 -4.0 -2.0E-6
v 3.0 -3.0 -1.0E-6
v 4.0 -3.0 -1.0E-6
v 3.0 -3.0 -2.0E-6
v 4.0 -3.0 -2.0E-6
v 3.0 -2.0 -1.0E-6
v 4.0 -2.0 -1.0E-6
v 3.0 -2.0 -2.0E-6
v 4.0 -2.0 -2.0E-6
v 3.0 -1.0 -1.0E-6
v 4.0 -1.0 -1.0E-6
v 3.0 -1.0 -2.0E-6
v 4.0 -1.0 -2.0E-6
v 3.0 0.0 -1.0E-6
v 4.0 0.0 -1.0E-6
v 3.0 0.0 -2.0E-6
v 4.0 0.0 -2.0E-6
v 3.0 1.0 -1.0E-6
v 4.0 1.0 -1.0E-6
v 3.0 1.0 -2.0E-6
v 4.0 1.0 -2.0E-6
v 3.0 2.0 -1.0E-6
v 4.0 2.0 -1.0E-6
v 3.0 2.0 -2.0E-6
v 4.0 2.0 -2.0E-6
v 3.0 3.0 -1.0E-6
v 4.0 3.0 -1.0E-6
v 3.0 3.0 -2.0E-6
v 4.0 3.0 -2.0E-6
v 3.0 4.0 -1.0E-6
v 4.0 4.0 -1.0E-6
v 3.0 4.0 0.0
v 4.0 4.0 0.0
v 4.0 5.0 0.0
v 3.0 5.0 0.0
v 3.0 5.0 0.0
v 4.0 5.0 0.0
v 4.0 6.0 1.0E-6
v 3.0 6.0 1.0E-6
v 5.0 7.0 0.0
v 3.0 7.0 0.0
v 3.0 6.0 0.0
v 5.0 6.0 0.0
v 6.0 -5.0 0.0
v 4.0 -5.0 0.0
v 4.0 -6.0 0.0
v 6.0 -6.0 0.0
v 4.0 -5.0 0.0
v 5.0 -5.0 0.0
v 5.0 -4.0 0.0
v 4.0 -4.0 0.0
v 4.0 -4.0 -2.0E-6
v 5.0 -4.0 -2.0E-6
v 4.0 -3.0 -1.0E-6
v 5.0 -3.0 -1.0E-6
v 4.0 -3.0 -2.0E-6
v 5.0 -3.0 -2.0E-6
v 4.0 -2.0 -1.0E-6
v 5.0 -2.0 -1.0E-6
v 4.0 -2.0 -2.0E-6
v 5.0 -2.0 -2.0E-6
v 4.0 -1.0 -1.0E-6
v 5.0 -1.0 -1.0E-6
v 4.0 -1.0 -2.0E-6
v 5.0 -1.0 -2.0E-6
v 4.0 0.0 -1.0E-6
v 5.0 0.0 -1.0E-6
v 4.0 0.0 -2.0E-6
v 5.0 0.0 -2.0E-6
v 4.0 1.0 -1.0E-6
v 5.0 1.0 -1.0E-6
v 4.0 1.0 -2.0E-6
v 5.0 1.0 -2.0E-6
v 4.0 2.0 -1.0E-6
v 5.0 2.0 -1.0E-6
v 4.0 2.0 -2.0E-6
v 5.0 2.0 -2.0E-6
v 4.0 3.0 -1.0E-6
v 5.0 3.0 -1.0E-6
v 4.0 3.0 0.0
v 5.0 3.0 0.0
v 5.0 4.0 0.0
v 4.0 4.0 0.0
v 4.0 4.0 0.0
v 5.0 4.0 0.0
v 5.0 5.0 1.0E-6
v 4.0 5.0 1.0E-6
v 6.0 6.0 0.0
v 4.0 6.0 0.0
v 4.0 5.0 0.0
v 6.0 5.0 0.0
v 7.0 -4.0 0.0
v 5.0 -4.0 0.0
v 5.0 -5.0 0.0
v 7.0 -5.0 0.0
v 5.0 -4.0 0.0
v 6.0 -4.0 0.0
v 6.0 -3.0 0.0
v 5.0 -3.0 0.0
v 5.0 -3.0 -2.0E-6
v 6.0 -3.0 -2.0E-6
v 5.0 -2.0 -1.0E-6
v 6.0 -2.0 -1.0E-6
v 5.0 -2.0 -2.0E-6
v 6.0 -2.0 -2.0E-6
v 5.0 -1.0 -1.0E-6
v 6.0 -1.0 -1.0E-6
v 5.0 -1.0 -2.0E-6
v 6.0 -1.0 -2.0E-6
v 5.0 0.0 -1.0E-6
v 6.0 0.0 -1.0E-6
v 5.0 0.0 -2.0E-6
v 6.0 0.0 -2.0E-6
v 5.0 1.0 -1.0E-6
v 6.0 1.0 -1.0E-6
v 5.0 1.0 -2.0E-6
v 6.0 1.0 -2.0E-6
v 5.0 2.0 -1.0E-6
v 6.0 2.0 -1.0E-6
v 5.0 2.0 0.0
v 6.0 2.0 0.0
v 6.0 3.0 0.0
v 5.0 3.0 0.0
v 5.0 3.0 0.0
v 6.0 3.0 0.0
v 6.0 4.0 1.0E-6
v 5.0 4.0 1.0E-6
v 7.0 5.0 0.0
v 5.0 5.0 0.0
v 5.0 4.0 0.0
v 7.0 4.0 0.0
v 8.0 -3.0 0.0
v 6.0 -3.0 0.0
v 6.0 -4.0 0.0
v 8.0 -4.0 0.0
v 6.0 -3.0 0.0
v 7.0 -3.0 0.0
v 7.0 2.0 0.0
v 6.0 2.0 0.0
v 6.0 2.0 0.0
v 7.0 2.0 0.0
v 7.0 3.0 1.0E-6
v 6.0 3.0 1.0E-6
v 8.0 4.0 0.0
v 6.0 4.0 0.0
v 6.0 3.0 0.0
v 8.0 3.0 0.0
v 8.0 3.0 0.0
v 7.0 3.0 0.0
v 7.0 -3.0 0.0
v 8.0 -3.0 0.0
vt 5.5 8.0
vt 4.5 8.0
vt 4.5 6.5
vt 5.5 6.5
vt 0.271484 -0.75
vt 0.960938 -0.75
vt 0.960938 -0.984375
vt 0.271484 -0.984375
vt 0.056641 -0.939453
vt 0.078125 -0.964844
vt 0.078125 -0.951172
vt 0.056641 -0.925781
vt 0.109375 -0.832031
vt 0.109375 -0.791016
vt 0.033203 -0.791016
vt 0.033203 -0.832031
vt 0.023438 -0.943359
vt 0.023438 -0.964844
vt 0.033203 -0.960938
vt 0.033203 -0.943359
vt 0.144531 -0.796875
vt 0.144531 -0.839844
vt 0.222656 -0.839844
vt 0.222656 -0.796875
vt 0.2125 0.0875
vt 0.2125 0.081944
vt 0.2125 0.068273
vt 0.2125 0.0875
vt 0.2125 0.081944
vt 0.2125 0.0875
vt 0.2125 0.0875
vt 0.2125 0.068273
vt 0.042969 -0.964844
vt 0.042969 -0.943359
vt 0.033203 -0.943359
vt 0.033203 -0.960938
vt 0.101562 -0.925781
vt 0.080078 -0.951172
vt 0.080078 -0.964844
vt 0.101562 -0.939453
vt 0.960938 -0.984375
vt 0.960938 -0.75
vt 0.271484 -0.75
vt 0.271484 -0.984375
vt 0.2125 0.081944
vt 0.1625 0.0375
vt 0.1625 0.053342
vt 0.2 0.0875
vt 0.146484 -0.84375
vt 0.224609 -0.84375
vt 0.224609 -0.800781
vt 0.146484 -0.800781
vt 0.109375 -0.925781
vt 0.109375 -0.939453
vt 0.109375 -0.791016
vt 0.03125 -0.791016
vt 0.03125 -0.832031
vt 0.109375 -0.832031
vt 0.1625 0.0375
vt 0.2125 0.081944
vt 0.2 0.0875
vt 0.1625 0.053342
vt 0.048828 -0.939453
vt 0.048828 -0.925781
vt 0.2 0.0875
vt 0.2125 0.081944
vt 0.2125 0.0875
vt 0.2125 0.081944
vt 0.2 0.0875
vt 0.2125 0.0875
vt 1.125 -0.726562
vt 1.125 -0.039062
vt 0.0 -0.039062
vt 0.0 -0.726562
vt 5.5 9.5
vt 4.5 9.5
vt 4.5 8.5
vt 5.5 8.5
vt 6.5 6.5
vt 5.0 6.5
vt 5.0 6.0
vt 6.5 6.0
vt 6.5 10.0
vt 5.0 10.0
vt 5.0 9.5
vt 6.5 9.5
vt 7.0 6.0
vt 5.5 6.0
vt 5.5 5.5
vt 7.0 5.5
vt 6.0 7.0
vt 5.5 7.0
vt 5.5 6.5
vt 6.0 6.5
vt 5.5 9.0
vt 6.0 9.0
vt 6.0 9.5
vt 5.5 9.5
vt 5.5 10.0
vt 7.0 10.0
vt 7.0 10.5
vt 5.5 10.5
vt 7.5 5.5
vt 6.0 5.5
vt 6.0 5.0
vt 7.5 5.0
vt 8.0 11.0
vt 6.0 11.0
vt 6.0 10.5
vt 8.0 10.5
vt 7.5 5.0
vt 6.5 5.0
vt 6.5 4.5
vt 7.5 4.5
vt 6.5 11.0
vt 8.0 11.0
vt 8.0 11.5
vt 6.5 11.5
vt 0.271484 -0.75
vt 0.960938 -0.75
vt 0.960938 -0.984375
vt 0.271484 -0.984375
vt 0.056641 -0.939453
vt 0.078125 -0.964844
vt 0.078125 -0.951172
vt 0.056641 -0.925781
vt 0.109375 -0.832031
vt 0.109375 -0.791016
vt 0.033203 -0.791016
vt 0.033203 -0.832031
vt 0.023438 -0.943359
vt 0.023438 -0.964844
vt 0.033203 -0.960938
vt 0.033203 -0.943359
vt 0.144531 -0.796875
vt 0.144531 -0.839844
vt 0.222656 -0.839844
vt 0.222656 -0.796875
vt 0.2125 0.0875
vt 0.2125 0.081944
vt 0.2125 0.068273
vt 0.2125 0.0875
vt 0.2125 0.081944
vt 0.2125 0.0875
vt 0.2125 0.0875
vt 0.2125 0.068273
vt 0.042969 -0.964844
vt 0.042969 -0.943359
vt 0.033203 -0.943359
vt 0.033203 -0.960938
vt 0.101562 -0.925781
vt 0.080078 -0.951172
vt 0.080078 -0.964844
vt 0.101562 -0.939453
vt 0.960938 -0.984375
vt 0.960938 -0.75
vt 0.271484 -0.75
vt 0.271484 -0.984375
vt 0.2125 0.081944
vt 0.1625 0.0375
vt 0.1625 0.053342
vt 0.2 0.0875
vt 0.146484 -0.84375
vt 0.224609 -0.84375
vt 0.224609 -0.800781
vt 0.146484 -0.800781
vt 0.109375 -0.925781
vt 0.109375 -0.939453
vt 0.109375 -0.791016
vt 0.03125 -0.791016
vt 0.03125 -0.832031
vt 0.109375 -0.832031
vt 0.1625 0.0375
vt 0.2125 0.081944
vt 0.2 0.0875
vt 0.1625 0.053342
vt 0.048828 -0.939453
vt 0.048828 -0.925781
vt 0.2 0.0875
vt 0.2125 0.081944
vt 0.2125 0.0875
vt 0.2125 0.081944
vt 0.2 0.0875
vt 0.2125 0.0875
vt 1.125 -0.726562
vt 1.125 -0.039062
vt 0.0 -0.039062
vt 0.0 -0.726562
vt 8.0 5.5
vt 8.0 4.5
vt 9.5 5.5
vt 9.5 4.5
vt 0.271484 -0.75
vt 0.960938 -0.75
vt 0.960938 -0.984375
vt 0.271484 -0.984375
vt 0.056641 -0.939453
vt 0.078125 -0.964844
vt 0.078125 -0.951172
vt 0.056641 -0.925781
vt 0.109375 -0.832031
vt 0.109375 -0.791016
vt 0.033203 -0.791016
vt 0.033203 -0.832031
vt 0.023438 -0.943359
vt 0.023438 -0.964844
vt 0.033203 -0.960938
vt 0.033203 -0.943359
vt 0.144531 -0.796875
vt 0.144531 -0.839844
vt 0.222656 -0.839844
vt 0.222656 -0.796875
vt 0.2125 0.0875
vt 0.2125 0.081944
vt 0.2125 0.068273
vt 0.2125 0.0875
vt 0.2125 0.081944
vt 0.2125 0.0875
vt 0.2125 0.0875
vt 0.2125 0.068273
vt 0.042969 -0.964844
vt 0.042969 -0.943359
vt 0.033203 -0.943359
vt 0.033203 -0.960938
vt 0.101562 -0.925781
vt 0.080078 -0.951172
vt 0.080078 -0.964844
vt 0.101562 -0.939453
vt 0.960938 -0.984375
vt 0.960938 -0.75
vt 0.271484 -0.75
vt 0.271484 -0.984375
vt 0.2125 0.081944
vt 0.1625 0.0375
vt 0.1625 0.053342
vt 0.2 0.0875
vt 0.146484 -0.84375
vt 0.224609 -0.84375
vt 0.224609 -0.800781
vt 0.146484 -0.800781
vt 0.109375 -0.925781
vt 0.109375 -0.939453
vt 0.109375 -0.791016
vt 0.03125 -0.791016
vt 0.03125 -0.832031
vt 0.109375 -0.832031
vt 0.1625 0.0375
vt 0.2125 0.081944
vt 0.2 0.0875
vt 0.1625 0.053342
vt 0.048828 -0.939453
vt 0.048828 -0.925781
vt 0.2 0.0875
vt 0.2125 0.081944
vt 0.2125 0.0875
vt 0.2125 0.081944
vt 0.2 0.0875
vt 0.2125 0.0875
vt 1.125 -0.726562
vt 1.125 -0.039062
vt 0.0 -0.039062
vt 0.0 -0.726562
vt 10.0 11.0
vt 8.5 10.5
vt 8.5 11.0
vt 10.0 10.5
vt 9.5 11.5
vt 8.5 11.5
vt 8.5 11.0
vt 9.5 11.0
vt 9.0 6.0
vt 9.0 5.5
vt 10.5 6.0
vt 10.5 5.5
vt 10.5 10.5
vt 9.0 10.0
vt 9.0 10.5
vt 10.5 10.0
vt 10.0 5.5
vt 10.0 5.0
vt 9.5 5.5
vt 9.5 5.0
vt 11.0 6.5
vt 11.0 6.0
vt 9.5 6.5
vt 9.5 6.0
vt 11.0 10.0
vt 9.5 9.5
vt 9.5 10.0
vt 11.0 9.5
vt 10.0 7.0
vt 10.0 6.5
vt 11.5 7.0
vt 11.5 6.5
vt 11.5 9.5
vt 10.0 9.0
vt 10.0 9.5
vt 11.5 9.0
vt 11.5 7.5
vt 10.5 7.5
vt 10.5 7.0
vt 11.5 7.0
vt 0.271484 -0.75
vt 0.960938 -0.75
vt 0.960938 -0.984375
vt 0.271484 -0.984375
vt 0.056641 -0.939453
vt 0.078125 -0.964844
vt 0.078125 -0.951172
vt 0.056641 -0.925781
vt 0.109375 -0.832031
vt 0.109375 -0.791016
vt 0.033203 -0.791016
vt 0.033203 -0.832031
vt 0.023438 -0.943359
vt 0.023438 -0.964844
vt 0.033203 -0.960938
vt 0.033203 -0.943359
vt 0.144531 -0.796875
vt 0.144531 -0.839844
vt 0.222656 -0.839844
vt 0.222656 -0.796875
vt 0.2125 0.0875
vt 0.2125 0.081944
vt 0.2125 0.068273
vt 0.2125 0.0875
vt 0.2125 0.081944
vt 0.2125 0.0875
vt 0.2125 0.0875
vt 0.2125 0.068273
vt 0.042969 -0.964844
vt 0.042969 -0.943359
vt 0.033203 -0.943359
vt 0.033203 -0.960938
vt 0.101562 -0.925781
vt 0.080078 -0.951172
vt 0.080078 -0.964844
vt 0.101562 -0.939453
vt 0.960938 -0.984375
vt 0.960938 -0.75
vt 0.271484 -0.75
vt 0.271484 -0.984375
vt 0.2125 0.081944
vt 0.1625 0.0375
vt 0.1625 0.053342
vt 0.2 0.0875
vt 0.146484 -0.84375
vt 0.224609 -0.84375
vt 0.224609 -0.800781
vt 0.146484 -0.800781
vt 0.109375 -0.925781
vt 0.109375 -0.939453
vt 0.109375 -0.791016
vt 0.03125 -0.791016
vt 0.03125 -0.832031
vt 0.109375 -0.832031
vt 0.1625 0.0375
vt 0.2125 0.081944
vt 0.2 0.0875
vt 0.1625 0.053342
vt 0.048828 -0.939453
vt 0.048828 -0.925781
vt 0.2 0.0875
vt 0.2125 0.081944
vt 0.2125 0.0875
vt 0.2125 0.081944
vt 0.2 0.0875
vt 0.2125 0.0875
vt 1.125 -0.726562
vt 1.125 -0.039062
vt 0.0 -0.039062
vt 0.0 -0.726562
vt 11.5 9.0
vt 10.5 9.0
vt 10.5 8.0
vt 11.5 8.0
vt 4.5 10.0
vt 4.0 10.0
vt 4.0 6.0
vt 4.5 6.0
vt 5.0 6.5
vt 4.5 6.5
vt 4.5 5.5
vt 5.0 5.5
vt 0.5 2.5
vt 0.019531 2.5
vt 0.019531 0.0
vt 0.5 0.0
vt 0.242188 -0.257812
vt 0.007812 -0.257812
vt 0.007812 -0.493164
vt 0.242188 -0.493164
vt 5.0 10.5
vt 4.5 10.5
vt 4.5 9.5
vt 5.0 9.5
vt 5.5 6.0
vt 5.0 6.0
vt 5.0 5.0
vt 5.5 5.0
vt 0.243164 -0.506836
vt 0.007812 -0.506836
vt 0.007812 -0.743164
vt 0.243164 -0.743164
vt 5.5 7.0
vt 5.0 7.0
vt 5.0 6.5
vt 5.5 6.5
vt 5.5 7.5
vt 5.0 7.5
vt 5.0 7.0
vt 5.5 7.0
vt 5.5 8.0
vt 5.0 8.0
vt 5.0 7.5
vt 5.5 7.5
vt 5.0 8.0
vt 5.5 8.0
vt 5.5 8.5
vt 5.0 8.5
vt 5.5 9.0
vt 5.0 9.0
vt 5.0 8.5
vt 5.5 8.5
vt 0.511719 -0.488281
vt 0.990234 -0.488281
vt 0.990234 -0.011719
vt 0.511719 -0.011719
vt 0.242188 -0.257812
vt 0.007812 -0.257812
vt 0.007812 -0.493164
vt 0.242188 -0.493164
vt 5.5 11.0
vt 5.0 11.0
vt 5.0 10.0
vt 5.5 10.0
vt 6.0 5.5
vt 5.5 5.5
vt 5.5 4.5
vt 6.0 4.5
vt 0.243164 -0.506836
vt 0.007812 -0.506836
vt 0.007812 -0.743164
vt 0.243164 -0.743164
vt 6.0 6.5
vt 5.5 6.5
vt 5.5 6.0
vt 6.0 6.0
vt 6.0 7.0
vt 5.5 7.0
vt 5.5 6.5
vt 6.0 6.5
vt 6.0 7.5
vt 5.5 7.5
vt 5.5 7.0
vt 6.0 7.0
vt 6.0 8.0
vt 5.5 8.0
vt 5.5 7.5
vt 6.0 7.5
vt 5.5 8.0
vt 6.0 8.0
vt 6.0 8.5
vt 5.5 8.5
vt 6.0 9.0
vt 5.5 9.0
vt 5.5 8.5
vt 6.0 8.5
vt 5.5 9.0
vt 6.0 9.0
vt 6.0 9.5
vt 5.5 9.5
vt 0.511719 -0.488281
vt 0.990234 -0.488281
vt 0.990234 -0.011719
vt 0.511719 -0.011719
vt 0.242188 -0.257812
vt 0.007812 -0.257812
vt 0.007812 -0.493164
vt 0.242188 -0.493164
vt 6.0 11.5
vt 5.5 11.5
vt 5.5 10.5
vt 6.0 10.5
vt 10.0 4.5
vt 6.0 4.5
vt 6.0 4.0
vt 10.0 4.0
vt 6.5 5.0
vt 6.0 5.0
vt 6.0 4.5
vt 6.5 4.5
vt 0.243164 -0.506836
vt 0.007812 -0.506836
vt 0.007812 -0.743164
vt 0.243164 -0.743164
vt 6.5 6.0
vt 6.0 6.0
vt 6.0 5.5
vt 6.5 5.5
vt 6.5 6.5
vt 6.0 6.5
vt 6.0 6.0
vt 6.5 6.0
vt 6.5 7.0
vt 6.0 7.0
vt 6.0 6.5
vt 6.5 6.5
vt 6.5 7.5
vt 6.0 7.5
vt 6.0 7.0
vt 6.5 7.0
vt 6.5 8.0
vt 6.0 8.0
vt 6.0 7.5
vt 6.5 7.5
vt 6.0 8.0
vt 6.5 8.0
vt 6.5 8.5
vt 6.0 8.5
vt 6.5 9.0
vt 6.0 9.0
vt 6.0 8.5
vt 6.5 8.5
vt 6.0 9.0
vt 6.5 9.0
vt 6.5 9.5
vt 6.0 9.5
vt 6.5 10.0
vt 6.0 10.0
vt 6.0 9.5
vt 6.5 9.5
vt 0.511719 -0.488281
vt 0.990234 -0.488281
vt 0.990234 -0.011719
vt 0.511719 -0.011719
vt 0.242188 -0.257812
vt 0.007812 -0.257812
vt 0.007812 -0.493164
vt 0.242188 -0.493164
vt 6.5 12.0
vt 6.0 12.0
vt 6.0 11.0
vt 6.5 11.0
vt 0.243164 -0.506836
vt 0.007812 -0.506836
vt 0.007812 -0.743164
vt 0.243164 -0.743164
vt 7.0 5.5
vt 6.5 5.5
vt 6.5 5.0
vt 7.0 5.0
vt 7.0 6.0
vt 6.5 6.0
vt 6.5 5.5
vt 7.0 5.5
vt 7.0 6.5
vt 6.5 6.5
vt 6.5 6.0
vt 7.0 6.0
vt 7.0 7.0
vt 6.5 7.0
vt 6.5 6.5
vt 7.0 6.5
vt 7.0 7.5
vt 6.5 7.5
vt 6.5 7.0
vt 7.0 7.0
vt 7.0 8.0
vt 6.5 8.0
vt 6.5 7.5
vt 7.0 7.5
vt 6.5 8.0
vt 7.0 8.0
vt 7.0 8.5
vt 6.5 8.5
vt 7.0 9.0
vt 6.5 9.0
vt 6.5 8.5
vt 7.0 8.5
vt 6.5 9.0
vt 7.0 9.0
vt 7.0 9.5
vt 6.5 9.5
vt 7.0 10.0
vt 6.5 10.0
vt 6.5 9.5
vt 7.0 9.5
vt 6.5 10.0
vt 7.0 10.0
vt 7.0 10.5
vt 6.5 10.5
vt 0.511719 -0.488281
vt 0.990234 -0.488281
vt 0.990234 -0.011719
vt 0.511719 -0.011719
vt 0.242188 -0.257812
vt 0.007812 -0.257812
vt 0.007812 -0.493164
vt 0.242188 -0.493164
vt 10.0 12.0
vt 6.5 12.0
vt 6.5 11.5
vt 10.0 11.5
vt 2.0 -0.498047
vt 0.0 -0.498047
vt 0.0 -0.984375
vt 2.0 -0.984375
vt 7.5 5.5
vt 7.0 5.5
vt 7.0 5.0
vt 7.5 5.0
vt 7.5 6.0
vt 7.0 6.0
vt 7.0 5.5
vt 7.5 5.5
vt 7.5 6.5
vt 7.0 6.5
vt 7.0 6.0
vt 7.5 6.0
vt 7.5 7.0
vt 7.0 7.0
vt 7.0 6.5
vt 7.5 6.5
vt 7.5 7.5
vt 7.0 7.5
vt 7.0 7.0
vt 7.5 7.0
vt 7.5 8.0
vt 7.0 8.0
vt 7.0 7.5
vt 7.5 7.5
vt 7.0 8.0
vt 7.5 8.0
vt 7.5 8.5
vt 7.0 8.5
vt 7.5 9.0
vt 7.0 9.0
vt 7.0 8.5
vt 7.5 8.5
vt 7.0 9.0
vt 7.5 9.0
vt 7.5 9.5
vt 7.0 9.5
vt 7.5 10.0
vt 7.0 10.0
vt 7.0 9.5
vt 7.5 9.5
vt 7.0 10.0
vt 7.5 10.0
vt 7.5 10.5
vt 7.0 10.5
vt 7.5 11.0
vt 7.0 11.0
vt 7.0 10.5
vt 7.5 10.5
vt 2.0 -0.013672
vt 0.0 -0.013672
vt 0.0 -0.5
vt 2.0 -0.5
vt 8.0 5.5
vt 7.5 5.5
vt 7.5 5.0
vt 8.0 5.0
vt 8.0 6.0
vt 7.5 6.0
vt 7.5 5.5
vt 8.0 5.5
vt 8.0 6.5
vt 7.5 6.5
vt 7.5 6.0
vt 8.0 6.0
vt 8.0 7.0
vt 7.5 7.0
vt 7.5 6.5
vt 8.0 6.5
vt 8.0 7.5
vt 7.5 7.5
vt 7.5 7.0
vt 8.0 7.0
vt 8.0 8.0
vt 7.5 8.0
vt 7.5 7.5
vt 8.0 7.5
vt 7.5 8.0
vt 8.0 8.0
vt 8.0 8.5
vt 7.5 8.5
vt 8.0 9.0
vt 7.5 9.0
vt 7.5 8.5
vt 8.0 8.5
vt 7.5 9.0
vt 8.0 9.0
vt 8.0 9.5
vt 7.5 9.5
vt 8.0 10.0
vt 7.5 10.0
vt 7.5 9.5
vt 8.0 9.5
vt 7.5 10.0
vt 8.0 10.0
vt 8.0 10.5
vt 7.5 10.5
vt 8.0 11.0
vt 7.5 11.0
vt 7.5 10.5
vt 8.0 10.5
vt 8.0 5.5
vt 8.0 5.0
vt 8.5 5.5
vt 8.5 5.0
vt 8.0 6.0
vt 8.0 5.5
vt 8.5 6.0
vt 8.5 5.5
vt 8.0 6.5
vt 8.0 6.0
vt 8.5 6.5
vt 8.5 6.0
vt 8.0 7.0
vt 8.0 6.5
vt 8.5 7.0
vt 8.5 6.5
vt 8.0 7.5
vt 8.0 7.0
vt 8.5 7.5
vt 8.5 7.0
vt 8.0 8.0
vt 8.0 7.5
vt 8.5 8.0
vt 8.5 7.5
vt 8.5 8.5
vt 8.0 8.0
vt 8.0 8.5
vt 8.5 8.0
vt 8.0 9.0
vt 8.5 8.5
vt 8.5 9.0
vt 8.0 8.5
vt 8.5 9.5
vt 8.0 9.0
vt 8.0 9.5
vt 8.5 9.0
vt 8.0 10.0
vt 8.5 9.5
vt 8.5 10.0
vt 8.0 9.5
vt 8.5 10.5
vt 8.0 10.0
vt 8.0 10.5
vt 8.5 10.0
vt 8.0 11.0
vt 8.5 10.5
vt 8.5 11.0
vt 8.0 10.5
vt 9.0 5.5
vt 9.0 5.0
vt 8.5 5.5
vt 8.5 5.0
vt 9.0 6.0
vt 9.0 5.5
vt 8.5 6.0
vt 8.5 5.5
vt 9.0 6.5
vt 9.0 6.0
vt 8.5 6.5
vt 8.5 6.0
vt 9.0 7.0
vt 9.0 6.5
vt 8.5 7.0
vt 8.5 6.5
vt 9.0 7.5
vt 9.0 7.0
vt 8.5 7.5
vt 8.5 7.0
vt 9.0 8.0
vt 9.0 7.5
vt 8.5 8.0
vt 8.5 7.5
vt 8.5 8.5
vt 9.0 8.0
vt 9.0 8.5
vt 8.5 8.0
vt 9.0 9.0
vt 8.5 8.5
vt 8.5 9.0
vt 9.0 8.5
vt 8.5 9.5
vt 9.0 9.0
vt 9.0 9.5
vt 8.5 9.0
vt 9.0 10.0
vt 8.5 9.5
vt 8.5 10.0
vt 9.0 9.5
vt 8.5 10.5
vt 9.0 10.0
vt 9.0 10.5
vt 8.5 10.0
vt 9.0 11.0
vt 8.5 10.5
vt 8.5 11.0
vt 9.0 10.5
vt 0.743164 -0.508789
vt 0.506836 -0.508789
vt 0.506836 -0.741211
vt 0.743164 -0.741211
vt 9.0 5.5
vt 9.0 5.0
vt 9.5 5.5
vt 9.5 5.0
vt 9.0 6.0
vt 9.0 5.5
vt 9.5 6.0
vt 9.5 5.5
vt 9.0 6.5
vt 9.0 6.0
vt 9.5 6.5
vt 9.5 6.0
vt 9.0 7.0
vt 9.0 6.5
vt 9.5 7.0
vt 9.5 6.5
vt 9.0 7.5
vt 9.0 7.0
vt 9.5 7.5
vt 9.5 7.0
vt 9.0 8.0
vt 9.0 7.5
vt 9.5 8.0
vt 9.5 7.5
vt 9.5 8.5
vt 9.0 8.0
vt 9.0 8.5
vt 9.5 8.0
vt 9.0 9.0
vt 9.5 8.5
vt 9.5 9.0
vt 9.0 8.5
vt 9.5 9.5
vt 9.0 9.0
vt 9.0 9.5
vt 9.5 9.0
vt 9.0 10.0
vt 9.5 9.5
vt 9.5 10.0
vt 9.0 9.5
vt 9.5 10.5
vt 9.0 10.0
vt 9.0 10.5
vt 9.5 10.0
vt 0.013672 -0.484375
vt 0.486328 -0.484375
vt 0.486328 -0.013672
vt 0.013672 -0.013672
vt 0.992188 -0.005859
vt 0.755859 -0.005859
vt 0.755859 -0.244141
vt 0.992188 -0.244141
vt 10.5 5.0
vt 9.5 5.0
vt 9.5 4.5
vt 10.5 4.5
vt 0.743164 -0.508789
vt 0.506836 -0.508789
vt 0.506836 -0.741211
vt 0.743164 -0.741211
vt 10.0 6.0
vt 10.0 5.5
vt 9.5 6.0
vt 9.5 5.5
vt 10.0 6.5
vt 10.0 6.0
vt 9.5 6.5
vt 9.5 6.0
vt 10.0 7.0
vt 10.0 6.5
vt 9.5 7.0
vt 9.5 6.5
vt 10.0 7.5
vt 10.0 7.0
vt 9.5 7.5
vt 9.5 7.0
vt 10.0 8.0
vt 10.0 7.5
vt 9.5 8.0
vt 9.5 7.5
vt 9.5 8.5
vt 10.0 8.0
vt 10.0 8.5
vt 9.5 8.0
vt 10.0 9.0
vt 9.5 8.5
vt 9.5 9.0
vt 10.0 8.5
vt 9.5 9.5
vt 10.0 9.0
vt 10.0 9.5
vt 9.5 9.0
vt 10.0 10.0
vt 9.5 9.5
vt 9.5 10.0
vt 10.0 9.5
vt 0.013672 -0.484375
vt 0.486328 -0.484375
vt 0.486328 -0.013672
vt 0.013672 -0.013672
vt 0.992188 -0.005859
vt 0.755859 -0.005859
vt 0.755859 -0.244141
vt 0.992188 -0.244141
vt 10.5 11.5
vt 9.5 11.5
vt 9.5 11.0
vt 10.5 11.0
vt 11.0 5.5
vt 10.0 5.5
vt 10.0 5.0
vt 11.0 5.0
vt 0.743164 -0.508789
vt 0.506836 -0.508789
vt 0.506836 -0.741211
vt 0.743164 -0.741211
vt 10.0 6.5
vt 10.0 6.0
vt 10.5 6.5
vt 10.5 6.0
vt 10.0 7.0
vt 10.0 6.5
vt 10.5 7.0
vt 10.5 6.5
vt 10.0 7.5
vt 10.0 7.0
vt 10.5 7.5
vt 10.5 7.0
vt 10.0 8.0
vt 10.0 7.5
vt 10.5 8.0
vt 10.5 7.5
vt 10.5 8.5
vt 10.0 8.0
vt 10.0 8.5
vt 10.5 8.0
vt 10.0 9.0
vt 10.5 8.5
vt 10.5 9.0
vt 10.0 8.5
vt 10.5 9.5
vt 10.0 9.0
vt 10.0 9.5
vt 10.5 9.0
vt 0.013672 -0.484375
vt 0.486328 -0.484375
vt 0.486328 -0.013672
vt 0.013672 -0.013672
vt 0.992188 -0.005859
vt 0.755859 -0.005859
vt 0.755859 -0.244141
vt 0.992188 -0.244141
vt 11.0 11.0
vt 10.0 11.0
vt 10.0 10.5
vt 11.0 10.5
vt 11.5 6.0
vt 10.5 6.0
vt 10.5 5.5
vt 11.5 5.5
vt 0.743164 -0.508789
vt 0.506836 -0.508789
vt 0.506836 -0.741211
vt 0.743164 -0.741211
vt 11.0 7.0
vt 11.0 6.5
vt 10.5 7.0
vt 10.5 6.5
vt 11.0 7.5
vt 11.0 7.0
vt 10.5 7.5
vt 10.5 7.0
vt 11.0 8.0
vt 11.0 7.5
vt 10.5 8.0
vt 10.5 7.5
vt 10.5 8.5
vt 11.0 8.0
vt 11.0 8.5
vt 10.5 8.0
vt 11.0 9.0
vt 10.5 8.5
vt 10.5 9.0
vt 11.0 8.5
vt 0.013672 -0.484375
vt 0.486328 -0.484375
vt 0.486328 -0.013672
vt 0.013672 -0.013672
vt 0.992188 -0.005859
vt 0.755859 -0.005859
vt 0.755859 -0.244141
vt 0.992188 -0.244141
vt 11.5 10.5
vt 10.5 10.5
vt 10.5 10.0
vt 11.5 10.0
vt 12.0 6.5
vt 11.0 6.5
vt 11.0 6.0
vt 12.0 6.0
vt 0.978906 2.5
vt 0.53125 2.5
vt 0.53125 0.0
vt 0.978906 0.0
vt 0.992188 -0.005859
vt 0.755859 -0.005859
vt 0.755859 -0.244141
vt 0.992188 -0.244141
vt 12.0 10.0
vt 11.0 10.0
vt 11.0 9.5
vt 12.0 9.5
vt 11.5 9.5
vt 12.0 6.5
vt 12.0 9.5
vt 11.5 6.5
vn -0.0 -0.0 1.0
vn -0.0 -0.6953 0.7187
vn -1.0 0.0 0.0
vn 0.0 0.0 1.0
vn -0.0 -1.0 0.0
vn 0.0 1.0 0.0
vn 1.0 -0.0 0.0
vn -0.0 -0.0 1.0
vn -0.0 -0.0 1.0
vn -0.0 -0.0 1.0
vn -0.0 -0.0 1.0
vn -0.0 -0.0 1.0
vn -0.0 -0.0 1.0
vn -0.0 -0.0 1.0
vn -0.0 -0.0 1.0
vn -0.0 -0.0 1.0
vn -0.0 -0.0 1.0
vn -0.0 -0.0 1.0
vn 0.6953 -0.0 0.7187
vn -0.0 -1.0 0.0
vn -0.0 0.0 1.0
vn 1.0 -0.0 0.0
vn -1.0 0.0 0.0
vn 0.0 1.0 0.0
vn -0.0 -0.0 1.0
vn -0.6953 0.0 0.7187
vn 0.0 1.0 0.0
vn 0.0 -0.0 1.0
vn -1.0 0.0 0.0
vn 1.0 -0.0 0.0
vn -0.0 -1.0 0.0
vn -0.0 -0.0 1.0
vn -0.0 -0.0 1.0
vn -0.0 -0.0 1.0
vn -0.0 -0.0 1.0
vn -0.0 -0.0 1.0
vn -0.0 -0.0 1.0
vn -0.0 -0.0 1.0
vn -0.0 -0.0 1.0
vn -0.0 -0.0 1.0
vn -0.0 -0.0 1.0
vn 0.0 0.6953 0.7187
vn 1.0 -0.0 0.0
vn -0.0 -0.0 1.0
vn 0.0 1.0 0.0
vn -0.0 -1.0 0.0
vn -1.0 0.0 0.0
vn -0.0 -0.0 1.0
vn -0.0 -0.0 1.0
vn -0.0 -0.0 1.0
vn 0.0 -0.0 1.0
vn 0.0 -0.0 1.0
vn -0.0 -0.0 1.0
vn -0.0 -0.0 1.0
vn 0.0 -0.0 1.0
vn 0.0 -0.0 1.0
vn 0.0 -0.0 1.0
vn 0.0 -0.0 1.0
vn 0.0 -0.0 1.0
vn 0.0 -0.0 1.0
vn 0.0 -0.0 1.0
vn 0.0 -0.0 1.0
vn -0.0 -0.0 1.0
vn -0.0 -0.0 1.0
vn 0.0 -0.0 1.0
vn 0.0 -0.0 1.0
vn 0.0 -0.0 1.0
vn 0.0 -0.0 1.0
vn 0.0 -0.0 1.0
vn 0.0 -0.0 1.0
vn 0.0 -0.0 1.0
vn 0.0 -0.0 1.0
vn 0.0 -0.0 1.0
vn 0.0 -0.0 1.0
vn -0.0 -0.0 1.0
vn -0.0 -0.0 1.0
vn -0.0 -0.0 1.0
vn 0.0 -0.0 1.0
vn 0.0 -0.0 1.0
vn 0.0 -0.0 1.0
vn 0.0 -0.0 1.0
vn 0.0 -0.0 1.0
vn 0.0 -0.0 1.0
vn 0.0 -0.0 1.0
vn 0.0 -0.0 1.0
vn 0.0 -0.0 1.0
vn 0.0 -0.0 1.0
vn 0.0 -0.0 1.0
vn 0.0 -0.0 1.0
vn -0.0 -0.0 1.0
vn 0.0 -0.0 1.0
vn 0.0 -0.0 1.0
vn 0.0 -0.0 1.0
vn 0.0 -0.0 1.0
vn 0.0 -0.0 1.0
vn 0.0 -0.0 1.0
vn 0.0 -0.0 1.0
vn 0.0 -0.0 1.0
vn 0.0 -0.0 1.0
vn 0.0 -0.0 1.0
vn 0.0 -0.0 1.0
vn 0.0 -0.0 1.0
vn 0.0 -0.0 1.0
vn 0.0 -0.0 1.0
vn -0.0 -0.0 1.0
vn 0.0 -0.0 1.0
vn 0.0 -0.0 1.0
vn 0.0 -0.0 1.0
vn 0.0 -0.0 1.0
vn 0.0 -0.0 1.0
vn 0.0 -0.0 1.0
vn 0.0 -0.0 1.0
vn 0.0 -0.0 1.0
vn 0.0 -0.0 1.0
vn 0.0 -0.0 1.0
vn 0.0 -0.0 1.0
vn 0.0 -0.0 1.0
vn 0.0 -0.0 1.0
vn 0.0 -0.0 1.0
vn 0.0 -0.0 1.0
vn 0.0 -0.0 1.0
vn 0.0 -0.0 1.0
vn 0.0 -0.0 1.0
vn 0.0 -0.0 1.0
vn 0.0 -0.0 1.0
vn 0.0 -0.0 1.0
vn 0.0 -0.0 1.0
vn 0.0 -0.0 1.0
vn 0.0 -0.0 1.0
vn 0.0 -0.0 1.0
vn 0.0 -0.0 1.0
vn 0.0 -0.0 1.0
vn 0.0 -0.0 1.0
vn 0.0 -0.0 1.0
vn 0.0 -0.0 1.0
vn 0.0 -0.0 1.0
vn 0.0 -0.0 1.0
vn 0.0 -0.0 1.0
vn 0.0 -0.0 1.0
vn 0.0 -0.0 1.0
vn 0.0 -0.0 1.0
vn 0.0 -0.0 1.0
vn 0.0 -0.0 1.0
vn 0.0 -0.0 1.0
vn 0.0 -0.0 1.0
vn 0.0 -0.0 1.0
vn 0.0 -0.0 1.0
vn 0.0 -0.0 1.0
vn 0.0 -0.0 1.0
vn 0.0 -0.0 1.0
vn 0.0 -0.0 1.0
vn 0.0 -0.0 1.0
vn 0.0 -0.0 1.0
vn 0.0 -0.0 1.0
vn 0.0 -0.0 1.0
vn 0.0 -0.0 1.0
vn 0.0 -0.0 1.0
vn 0.0 -0.0 1.0
vn 0.0 -0.0 1.0
vn 0.0 -0.0 1.0
vn 0.0 -0.0 1.0
vn 0.0 -0.0 1.0
vn 0.0 -0.0 1.0
vn 0.0 -0.0 1.0
vn 0.0 -0.0 1.0
vn 0.0 -0.0 1.0
vn 0.0 -0.0 1.0
vn 0.0 -0.0 1.0
vn 0.0 -0.0 1.0
vn -0.0 -0.0 1.0
vn 0.0 -0.0 1.0
vn 0.0 -0.0 1.0
vn 0.0 -0.0 1.0
vn 0.0 -0.0 1.0
vn 0.0 -0.0 1.0
vn 0.0 -0.0 1.0
vn 0.0 -0.0 1.0
vn 0.0 -0.0 1.0
vn 0.0 -0.0 1.0
vn 0.0 -0.0 1.0
vn 0.0 -0.0 1.0
vn 0.0 -0.0 1.0
vn -0.0 -0.0 1.0
vn -0.0 -0.0 1.0
vn 0.0 -0.0 1.0
vn 0.0 -0.0 1.0
vn 0.0 -0.0 1.0
vn 0.0 -0.0 1.0
vn 0.0 -0.0 1.0
vn 0.0 -0.0 1.0
vn 0.0 -0.0 1.0
vn 0.0 -0.0 1.0
vn 0.0 -0.0 1.0
vn 0.0 -0.0 1.0
vn -0.0 -0.0 1.0
vn -0.0 -0.0 1.0
vn 0.0 -0.0 1.0
vn 0.0 -0.0 1.0
vn 0.0 -0.0 1.0
vn 0.0 -0.0 1.0
vn 0.0 -0.0 1.0
vn 0.0 -0.0 1.0
vn 0.0 -0.0 1.0
vn 0.0 -0.0 1.0
vn -0.0 -0.0 1.0
vn -0.0 -0.0 1.0
vn 0.0 -0.0 1.0
vn 0.0 -0.0 1.0
vn -0.0 -0.0 1.0
vn -0.0 -0.0 1.0
c 1.0 1.0 1.0
c 1.0 1.0 1.0
c 1.0 1.0 1.0
c 1.0 1.0 1.0
c 1.0 1.0 1.0
c 1.0 1.0 1.0
c 1.0 1.0 1.0
c 1.0 1.0 1.0
c 1.0 1.0 1.0
c 1.0 1.0 1.0
c 1.0 1.0 1.0
c 1.0 1.0 1.0
c 1.0 1.0 1.0
c 1.0 1.0 1.0
c 1.0 1.0 1.0
c 1.0 1.0 1.0
c 1.0 1.0 1.0
c 1.0 1.0 1.0
c 1.0 1.0 1.0
c 1.0 1.0 1.0
c 1.0 1.0 1.0
c 1.0 1.0 1.0
c 1.0 1.0 1.0
c 1.0 1.0 1.0
c 1.0 1.0 1.0
c 1.0 1.0 1.0
c 1.0 1.0 1.0
c 1.0 1.0 1.0
c 1.0 1.0 1.0
c 1.0 1.0 1.0
c 1.0 1.0 1.0
c 1.0 1.0 1.0
c 1.0 1.0 1.0
c 1.0 1.0 1.0
c 1.0 1.0 1.0
c 1.0 1.0 1.0
c 1.0 1.0 1.0
c 1.0 1.0 1.0
c 1.0 1.0 1.0
c 1.0 1.0 1.0
c 1.0 1.0 1.0
c 1.0 1.0 1.0
c 1.0 1.0 1.0
c 1.0 1.0 1.0
c 1.0 1.0 1.0
c 1.0 1.0 1.0
c 1.0 1.0 1.0
c 1.0 1.0 1.0
c 1.0 1.0 1.0
c 1.0 1.0 1.0
c 1.0 1.0 1.0
c 1.0 1.0 1.0
c 1.0 1.0 1.0
c 1.0 1.0 1.0
c 1.0 1.0 1.0
c 1.0 1.0 1.0
c 1.0 1.0 1.0
c 1.0 1.0 1.0
c 1.0 1.0 1.0
c 1.0 1.0 1.0
c 1.0 1.0 1.0
c 1.0 1.0 1.0
c 1.0 1.0 1.0
c 1.0 1.0 1.0
c 1.0 1.0 1.0
c 1.0 1.0 1.0
c 1.0 1.0 1.0
c 1.0 1.0 1.0
c 1.0 1.0 1.0
c 1.0 1.0 1.0
c 1.0 1.0 1.0
c 1.0 1.0 1.0
c 1.0 1.0 1.0
c 1.0 1.0 1.0
c 1.0 1.0 1.0
c 1.0 1.0 1.0
c 1.0 1.0 1.0
c 1.0 1.0 1.0
c 1.0 1.0 1.0
c 1.0 1.0 1.0
c 1.0 1.0 1.0
c 1.0 1.0 1.0
c 1.0 1.0 1.0
c 1.0 1.0 1.0
c 1.0 1.0 1.0
c 1.0 1.0 1.0
c 1.0 1.0 1.0
c 1.0 1.0 1.0
c 1.0 1.0 1.0
c 1.0 1.0 1.0
c 1.0 1.0 1.0
c 1.0 1.0 1.0
c 1.0 1.0 1.0
c 1.0 1.0 1.0
c 1.0 1.0 1.0
c 1.0 1.0 1.0
c 1.0 1.0 1.0
c 1.0 1.0 1.0
c 1.0 1.0 1.0
c 1.0 1.0 1.0
c 1.0 1.0 1.0
c 1.0 1.0 1.0
c 1.0 1.0 1.0
c 1.0 1.0 1.0
c 1.0 1.0 1.0
c 1.0 1.0 1.0
c 1.0 1.0 1.0
c 1.0 1.0 1.0
c 1.0 1.0 1.0
c 1.0 1.0 1.0
c 1.0 1.0 1.0
c 1.0 1.0 1.0
c 1.0 1.0 1.0
c 1.0 1.0 1.0
c 1.0 1.0 1.0
c 1.0 1.0 1.0
c 1.0 1.0 1.0
c 1.0 1.0 1.0
c 1.0 1.0 1.0
c 1.0 1.0 1.0
c 1.0 1.0 1.0
c 1.0 1.0 1.0
c 1.0 1.0 1.0
c 1.0 1.0 1.0
c 1.0 1.0 1.0
c 1.0 1.0 1.0
c 1.0 1.0 1.0
c 1.0 1.0 1.0
c 1.0 1.0 1.0
c 1.0 1.0 1.0
c 1.0 1.0 1.0
c 1.0 1.0 1.0
c 1.0 1.0 1.0
c 1.0 1.0 1.0
c 1.0 1.0 1.0
c 1.0 1.0 1.0
c 1.0 1.0 1.0
c 1.0 1.0 1.0
c 1.0 1.0 1.0
c 1.0 1.0 1.0
c 1.0 1.0 1.0
c 1.0 1.0 1.0
c 1.0 1.0 1.0
c 1.0 1.0 1.0
c 1.0 1.0 1.0
c 1.0 1.0 1.0
c 1.0 1.0 1.0
c 1.0 1.0 1.0
c 1.0 1.0 1.0
c 1.0 1.0 1.0
c 1.0 1.0 1.0
c 1.0 1.0 1.0
c 1.0 1.0 1.0
c 1.0 1.0 1.0
c 1.0 1.0 1.0
c 1.0 1.0 1.0
c 1.0 1.0 1.0
c 1.0 1.0 1.0
c 1.0 1.0 1.0
c 1.0 1.0 1.0
c 1.0 1.0 1.0
c 1.0 1.0 1.0
c 1.0 1.0 1.0
c 1.0 1.0 1.0
c 1.0 1.0 1.0
c 1.0 1.0 1.0
c 1.0 1.0 1.0
c 1.0 1.0 1.0
c 1.0 1.0 1.0
c 1.0 1.0 1.0
c 1.0 1.0 1.0
c 1.0 1.0 1.0
c 1.0 1.0 1.0
c 1.0 1.0 1.0
c 1.0 1.0 1.0
c 1.0 1.0 1.0
c 1.0 1.0 1.0
c 1.0 1.0 1.0
c 1.0 1.0 1.0
c 1.0 1.0 1.0
c 1.0 1.0 1.0
c 1.0 1.0 1.0
c 1.0 1.0 1.0
c 1.0 1.0 1.0
c 1.0 1.0 1.0
c 1.0 1.0 1.0
c 1.0 1.0 1.0
c 1.0 1.0 1.0
c 1.0 1.0 1.0
c 1.0 1.0 1.0
usemtl beach01
s off
f 377/377/49/29 378/378/49/29 379/379/49/29 380/380/49/29
f 381/381/50/30 382/382/50/30 383/383/50/30 384/384/50/30
f 393/393/53/33 394/394/53/33 395/395/53/33 396/396/53/33
f 397/397/54/34 398/398/54/34 399/399/54/34 400/400/54/34
f 433/433/63/43 434/434/63/43 435/435/63/43 436/436/63/43
f 437/437/64/44 438/438/64/44 439/439/64/44 440/440/64/44
f 481/481/75/55 482/482/75/55 483/483/75/55 484/484/75/55
f 485/485/76/56 486/486/76/56 487/487/76/56 488/488/76/56
f 489/489/77/57 490/490/77/57 491/491/77/57 492/492/77/57
f 541/541/90/70 542/542/90/70 543/543/90/70 544/544/90/70
f 601/601/105/85 602/602/105/85 603/603/105/85 604/604/105/85
f 861/861/170/150 862/862/170/150 863/863/170/150 864/864/170/150
f 913/913/183/163 914/914/183/163 915/915/183/163 916/916/183/163
f 917/917/184/164 918/918/184/164 919/919/184/164 920/920/184/164
f 961/961/195/175 962/962/195/175 963/963/195/175 964/964/195/175
f 965/965/196/176 966/966/196/176 967/967/196/176 968/968/196/176
f 1001/1001/205/185 1002/1002/205/185 1003/1003/205/185 1004/1004/205/185
f 1005/1005/206/186 1006/1006/206/186 1007/1007/206/186 1008/1008/206/186
f 1017/1017/209/189 1018/1018/209/189 1019/1019/209/189 1020/1020/209/189
f 1021/1023/210/190 1022/1021/210/190 1023/1024/210/190 1024/1022/210/190
usemtl road01
s off
f 1/1/1/1 2/2/1/1 3/3/1/1 4/4/1/1
f 75/75/8/3 76/76/8/3 77/77/8/3 78/78/8/3
f 79/79/9/4 80/80/9/4 81/81/9/4 82/82/9/4
f 83/83/10/5 84/84/10/5 85/85/10/5 86/86/10/5
f 87/87/11/6 88/88/11/6 89/89/11/6 90/90/11/6
f 91/91/12/7 92/92/12/7 93/93/12/7 94/94/12/7
f 95/97/13/8 96/98/13/8 97/95/13/8 98/96/13/8
f 99/101/14/9 100/102/14/9 101/99/14/9 102/100/14/9
f 103/103/15/10 104/104/15/10 105/105/15/10 106/106/15/10
f 107/107/16/11 108/108/16/11 109/109/16/11 110/110/16/11
f 111/111/17/12 112/112/17/12 113/113/17/12 114/114/17/12
f 115/117/18/13 116/118/18/13 117/115/18/13 118/116/18/13
f 189/191/25/15 190/189/25/15 191/190/25/15 192/192/25/15
f 263/263/32/17 264/265/32/17 265/264/32/17 266/266/32/17
f 267/267/33/18 268/268/33/18 269/269/33/18 270/270/33/18
f 271/273/34/19 272/271/34/19 273/272/34/19 274/274/34/19
f 275/275/35/20 276/277/35/20 277/276/35/20 278/278/35/20
f 279/279/36/21 280/281/36/21 281/282/36/21 282/280/36/21
f 283/283/37/22 284/285/37/22 285/286/37/22 286/284/37/22
f 287/287/38/23 288/289/38/23 289/288/38/23 290/290/38/23
f 291/293/39/24 292/291/39/24 293/292/39/24 294/294/39/24
f 295/295/40/25 296/297/40/25 297/296/40/25 298/298/40/25
f 299/299/41/26 300/300/41/26 301/301/41/26 302/302/41/26
f 373/373/48/28 374/374/48/28 375/375/48/28 376/376/48/28
usemtl aa_roadkk_01
s off
f 408/405/56/36 407/406/56/36 405/407/56/36 406/408/56/36
f 412/409/57/37 411/410/57/37 409/411/57/37 410/412/57/37
f 416/413/58/38 415/414/58/38 413/415/58/38 414/416/58/38
f 420/419/59/39 419/420/59/39 417/417/59/39 418/418/59/39
f 424/421/60/40 423/422/60/40 421/423/60/40 422/424/60/40
f 448/445/66/46 447/446/66/46 445/447/66/46 446/448/66/46
f 452/449/67/47 451/450/67/47 449/451/67/47 450/452/67/47
f 456/453/68/48 455/454/68/48 453/455/68/48 454/456/68/48
f 460/457/69/49 459/458/69/49 457/459/69/49 458/460/69/49
f 464/463/70/50 463/464/70/50 461/461/70/50 462/462/70/50
f 468/465/71/51 467/466/71/51 465/467/71/51 466/468/71/51
f 472/471/72/52 471/472/72/52 469/469/72/52 470/470/72/52
f 500/497/79/59 499/498/79/59 497/499/79/59 498/500/79/59
f 504/501/80/60 503/502/80/60 501/503/80/60 502/504/80/60
f 508/505/81/61 507/506/81/61 505/507/81/61 506/508/81/61
f 512/509/82/62 511/510/82/62 509/511/82/62 510/512/82/62
f 516/513/83/63 515/514/83/63 513/515/83/63 514/516/83/63
f 520/519/84/64 519/520/84/64 517/517/84/64 518/518/84/64
f 524/521/85/65 523/522/85/65 521/523/85/65 522/524/85/65
f 528/527/86/66 527/528/86/66 525/525/86/66 526/526/86/66
f 532/529/87/67 531/530/87/67 529/531/87/67 530/532/87/67
f 552/549/92/72 551/550/92/72 549/551/92/72 550/552/92/72
f 556/553/93/73 555/554/93/73 553/555/93/73 554/556/93/73
f 560/557/94/74 559/558/94/74 557/559/94/74 558/560/94/74
f 564/561/95/75 563/562/95/75 561/563/95/75 562/564/95/75
f 568/565/96/76 567/566/96/76 565/567/96/76 566/568/96/76
f 572/569/97/77 571/570/97/77 569/571/97/77 570/572/97/77
f 576/575/98/78 575/576/98/78 573/573/98/78 574/574/98/78
f 580/577/99/79 579/578/99/79 577/579/99/79 578/580/99/79
f 584/583/100/80 583/584/100/80 581/581/100/80 582/582/100/80
f 588/585/101/81 587/586/101/81 585/587/101/81 586/588/101/81
f 592/591/102/82 591/592/102/82 589/589/102/82 590/590/102/82
f 612/609/107/87 611/610/107/87 609/611/107/87 610/612/107/87
f 616/613/108/88 615/614/108/88 613/615/108/88 614/616/108/88
f 620/617/109/89 619/618/109/89 617/619/109/89 618/620/109/89
f 624/621/110/90 623/622/110/90 621/623/110/90 622/624/110/90
f 628/625/111/91 627/626/111/91 625/627/111/91 626/628/111/91
f 632/629/112/92 631/630/112/92 629/631/112/92 630/632/112/92
f 636/635/113/93 635/636/113/93 633/633/113/93 634/634/113/93
f 640/637/114/94 639/638/114/94 637/639/114/94 638/640/114/94
f 644/643/115/95 643/644/115/95 641/641/115/95 642/642/115/95
f 648/645/116/96 647/646/116/96 645/647/116/96 646/648/116/96
f 652/651/117/97 651/652/117/97 649/649/117/97 650/650/117/97
f 656/653/118/98 655/654/118/98 653/655/118/98 654/656/118/98
f 664/661/120/100 663/662/120/100 661/663/120/100 662/664/120/100
f 668/665/121/101 667/666/121/101 665/667/121/101 666/668/121/101
f 672/669/122/102 671/670/122/102 669/671/122/102 670/672/122/102
f 676/673/123/103 675/674/123/103 673/675/123/103 674/676/123/103
f 680/677/124/104 679/678/124/104 677/679/124/104 678/680/124/104
f 684/681/125/105 683/682/125/105 681/683/125/105 682/684/125/105
f 688/687/126/106 687/688/126/106 685/685/126/106 686/686/126/106
f 692/689/127/107 691/690/127/107 689/691/127/107 690/692/127/107
f 696/695/128/108 695/696/128/108 693/693/128/108 694/694/128/108
f 700/697/129/109 699/698/129/109 697/699/129/109 698/700/129/109
f 704/703/130/110 703/704/130/110 701/701/130/110 702/702/130/110
f 708/705/131/111 707/706/131/111 705/707/131/111 706/708/131/111
f 712/711/132/112 711/709/132/112 709/710/132/112 710/712/132/112
f 716/715/133/113 715/713/133/113 713/714/133/113 714/716/133/113
f 720/719/134/114 719/717/134/114 717/718/134/114 718/720/134/114
f 724/723/135/115 723/721/135/115 721/722/135/115 722/724/135/115
f 728/727/136/116 727/725/136/116 725/726/136/116 726/728/136/116
f 732/731/137/117 731/729/137/117 729/730/137/117 730/732/137/117
f 736/733/138/118 735/735/138/118 733/734/138/118 734/736/138/118
f 740/739/139/119 739/737/139/119 737/740/139/119 738/738/139/119
f 744/741/140/120 743/743/140/120 741/742/140/120 742/744/140/120
f 748/747/141/121 747/745/141/121 745/748/141/121 746/746/141/121
f 752/749/142/122 751/751/142/122 749/750/142/122 750/752/142/122
f 756/755/143/123 755/753/143/123 753/756/143/123 754/754/143/123
f 760/757/144/124 759/759/144/124 757/760/144/124 758/758/144/124
f 764/761/145/125 763/763/145/125 761/764/145/125 762/762/145/125
f 768/765/146/126 767/767/146/126 765/768/146/126 766/766/146/126
f 772/769/147/127 771/771/147/127 769/772/147/127 770/770/147/127
f 776/773/148/128 775/775/148/128 773/776/148/128 774/774/148/128
f 780/777/149/129 779/779/149/129 777/780/149/129 778/778/149/129
f 784/783/150/130 783/781/150/130 781/784/150/130 782/782/150/130
f 788/785/151/131 787/787/151/131 785/786/151/131 786/788/151/131
f 792/791/152/132 791/789/152/132 789/792/152/132 790/790/152/132
f 796/793/153/133 795/795/153/133 793/794/153/133 794/796/153/133
f 800/799/154/134 799/797/154/134 797/800/154/134 798/798/154/134
f 804/801/155/135 803/803/155/135 801/802/155/135 802/804/155/135
f 812/811/157/137 811/809/157/137 809/810/157/137 810/812/157/137
f 816/815/158/138 815/813/158/138 813/814/158/138 814/816/158/138
f 820/819/159/139 819/817/159/139 817/818/159/139 818/820/159/139
f 824/823/160/140 823/821/160/140 821/822/160/140 822/824/160/140
f 828/827/161/141 827/825/161/141 825/826/161/141 826/828/161/141
f 832/831/162/142 831/829/162/142 829/830/162/142 830/832/162/142
f 836/833/163/143 835/835/163/143 833/834/163/143 834/836/163/143
f 840/839/164/144 839/837/164/144 837/840/164/144 838/838/164/144
f 844/841/165/145 843/843/165/145 841/842/165/145 842/844/165/145
f 848/847/166/146 847/845/166/146 845/848/166/146 846/846/166/146
f 852/849/167/147 851/851/167/147 849/850/167/147 850/852/167/147
f 872/869/172/152 871/871/172/152 869/872/172/152 870/870/172/152
f 876/873/173/153 875/875/173/153 873/876/173/153 874/874/173/153
f 880/877/174/154 879/879/174/154 877/880/174/154 878/878/174/154
f 884/881/175/155 883/883/175/155 881/884/175/155 882/882/175/155
f 888/885/176/156 887/887/176/156 885/888/176/156 886/886/176/156
f 892/891/177/157 891/889/177/157 889/892/177/157 890/890/177/157
f 896/893/178/158 895/895/178/158 893/894/178/158 894/896/178/158
f 900/899/179/159 899/897/179/159 897/900/179/159 898/898/179/159
f 904/901/180/160 903/903/180/160 901/902/180/160 902/904/180/160
f 928/927/186/166 927/925/186/166 925/926/186/166 926/928/186/166
f 932/931/187/167 931/929/187/167 929/930/187/167 930/932/187/167
f 936/935/188/168 935/933/188/168 933/934/188/168 934/936/188/168
f 940/939/189/169 939/937/189/169 937/938/189/169 938/940/189/169
f 944/941/190/170 943/943/190/170 941/942/190/170 942/944/190/170
f 948/947/191/171 947/945/191/171 945/948/191/171 946/946/191/171
f 952/949/192/172 951/951/192/172 949/950/192/172 950/952/192/172
f 976/973/198/178 975/975/198/178 973/976/198/178 974/974/198/178
f 980/977/199/179 979/979/199/179 977/980/199/179 978/978/199/179
f 984/981/200/180 983/983/200/180 981/984/200/180 982/982/200/180
f 988/987/201/181 987/985/201/181 985/988/201/181 986/986/201/181
f 992/989/202/182 991/991/202/182 989/990/202/182 990/992/202/182
usemtl roadkk_x2
s off
f 607/605/106/86 606/606/106/86 605/607/106/86 608/608/106/86
f 659/657/119/99 658/658/119/99 657/659/119/99 660/660/119/99
usemtl roadkk_ro
s off
f 391/389/52/32 392/390/52/32 389/391/52/32 390/392/52/32
f 403/401/55/35 404/402/55/35 401/403/55/35 402/404/55/35
f 431/429/62/42 432/430/62/42 429/431/62/42 430/432/62/42
f 443/441/65/45 444/442/65/45 441/443/65/45 442/444/65/45
f 479/477/74/54 480/478/74/54 477/479/74/54 478/480/74/54
f 495/493/78/58 496/494/78/58 493/495/78/58 494/496/78/58
f 539/537/89/69 540/538/89/69 537/539/89/69 538/540/89/69
f 547/545/91/71 548/546/91/71 545/547/91/71 546/548/91/71
f 599/597/104/84 600/598/104/84 597/599/104/84 598/600/104/84
f 807/805/156/136 808/806/156/136 805/807/156/136 806/808/156/136
f 859/857/169/149 860/858/169/149 857/859/169/149 858/860/169/149
f 867/865/171/151 868/866/171/151 865/867/171/151 866/868/171/151
f 911/909/182/162 912/910/182/162 909/911/182/162 910/912/182/162
f 923/921/185/165 924/922/185/165 921/923/185/165 922/924/185/165
f 959/957/194/174 960/958/194/174 957/959/194/174 958/960/194/174
f 971/969/197/177 972/970/197/177 969/971/197/177 970/972/197/177
f 999/997/204/184 1000/998/204/184 997/999/204/184 998/1000/204/184
f 1015/1013/208/188 1016/1014/208/188 1013/1015/208/188 1014/1016/208/188
usemtl roadkk_z2
s off
f 387/385/51/31 388/386/51/31 385/387/51/31 386/388/51/31
f 1011/1009/207/187 1012/1010/207/187 1009/1011/207/187 1010/1012/207/187
usemtl roadkk_ri2
s off
f 425/425/61/41 426/426/61/41 427/427/61/41
f 427/427/61/41 428/428/61/41 425/425/61/41
f 473/473/73/53 474/474/73/53 475/475/73/53
f 475/475/73/53 476/476/73/53 473/473/73/53
f 533/533/88/68 534/534/88/68 535/535/88/68
f 535/535/88/68 536/536/88/68 533/533/88/68
f 593/593/103/83 594/594/103/83 595/595/103/83
f 595/595/103/83 596/596/103/83 593/593/103/83
f 853/853/168/148 854/854/168/148 855/855/168/148
f 855/855/168/148 856/856/168/148 853/853/168/148
f 905/905/181/161 906/906/181/161 907/907/181/161
f 907/907/181/161 908/908/181/161 905/905/181/161
f 953/953/193/173 954/954/193/173 955/955/193/173
f 955/955/193/173 956/956/193/173 953/953/193/173
f 993/993/203/183 994/994/203/183 995/995/203/183
f 995/995/203/183 996/996/203/183 993/993/203/183
usemtl slope_slope
s off
f 19/5/2/2 20/6/2/2 17/7/2/2 18/8/2/2
f 14/9/3/2 16/10/3/2 15/11/3/2 13/12/3/2
f 55/13/4/2 56/14/4/2 53/15/4/2 54/16/4/2
f 39/17/5/2 40/18/5/2 37/19/5/2 38/20/5/2
f 59/21/2/2 60/22/2/2 57/23/2/2 58/24/2/2
f 35/33/5/2 36/34/5/2 33/35/5/2 34/36/5/2
f 8/37/7/2 10/38/7/2 9/39/7/2 7/40/7/2
f 67/41/2/2 68/42/2/2 65/43/2/2 66/44/2/2
f 43/49/2/2 44/50/2/2 41/51/2/2 42/52/2/2
f 6/53/7/2 8/37/7/2 7/40/7/2 5/54/7/2
f 51/55/4/2 52/56/4/2 49/57/4/2 50/58/4/2
f 12/63/3/2 14/9/3/2 13/12/3/2 11/64/3/2
f 23/71/2/2 24/72/2/2 21/73/2/2 22/74/2/2
f 133/119/19/14 134/120/19/14 131/121/19/14 132/122/19/14
f 128/123/20/14 130/124/20/14 129/125/20/14 127/126/20/14
f 169/127/21/14 170/128/21/14 167/129/21/14 168/130/21/14
f 153/131/22/14 154/132/22/14 151/133/22/14 152/134/22/14
f 173/135/19/14 174/136/19/14 171/137/19/14 172/138/19/14
f 149/147/22/14 150/148/22/14 147/149/22/14 148/150/22/14
f 122/151/24/14 124/152/24/14 123/153/24/14 121/154/24/14
f 181/155/19/14 182/156/19/14 179/157/19/14 180/158/19/14
f 157/163/19/14 158/164/19/14 155/165/19/14 156/166/19/14
f 120/167/24/14 122/151/24/14 121/154/24/14 119/168/24/14
f 165/169/21/14 166/170/21/14 163/171/21/14 164/172/21/14
f 126/177/20/14 128/123/20/14 127/126/20/14 125/178/20/14
f 137/185/19/14 138/186/19/14 135/187/19/14 136/188/19/14
f 207/193/26/16 208/194/26/16 205/195/26/16 206/196/26/16
f 202/197/27/16 204/198/27/16 203/199/27/16 201/200/27/16
f 243/201/28/16 244/202/28/16 241/203/28/16 242/204/28/16
f 227/205/29/16 228/206/29/16 225/207/29/16 226/208/29/16
f 247/209/26/16 248/210/26/16 245/211/26/16 246/212/26/16
f 223/221/29/16 224/222/29/16 221/223/29/16 222/224/29/16
f 196/225/31/16 198/226/31/16 197/227/31/16 195/228/31/16
f 255/229/26/16 256/230/26/16 253/231/26/16 254/232/26/16
f 231/237/26/16 232/238/26/16 229/239/26/16 230/240/26/16
f 194/241/31/16 196/225/31/16 195/228/31/16 193/242/31/16
f 239/243/28/16 240/244/28/16 237/245/28/16 238/246/28/16
f 200/251/27/16 202/197/27/16 201/200/27/16 199/252/27/16
f 211/259/26/16 212/260/26/16 209/261/26/16 210/262/26/16
f 317/303/42/27 318/304/42/27 315/305/42/27 316/306/42/27
f 312/307/43/27 314/308/43/27 313/309/43/27 311/310/43/27
f 353/311/44/27 354/312/44/27 351/313/44/27 352/314/44/27
f 337/315/45/27 338/316/45/27 335/317/45/27 336/318/45/27
f 357/319/42/27 358/320/42/27 355/321/42/27 356/322/42/27
f 333/331/45/27 334/332/45/27 331/333/45/27 332/334/45/27
f 306/335/47/27 308/336/47/27 307/337/47/27 305/338/47/27
f 365/339/42/27 366/340/42/27 363/341/42/27 364/342/42/27
f 341/347/42/27 342/348/42/27 339/349/42/27 340/350/42/27
f 304/351/47/27 306/335/47/27 305/338/47/27 303/352/47/27
f 349/353/44/27 350/354/44/27 347/355/44/27 348/356/44/27
f 310/361/43/27 312/307/43/27 311/310/43/27 309/362/43/27
f 321/369/42/27 322/370/42/27 319/371/42/27 320/372/42/27
f 25/25/6/2 26/26/6/2 27/27/6/2
f 27/27/6/2 28/28/6/2 25/25/6/2
f 29/29/6/2 30/30/6/2 31/31/6/2
f 31/31/6/2 32/32/6/2 29/29/6/2
f 45/45/3/2 46/46/3/2 47/47/3/2
f 47/47/3/2 48/48/3/2 45/45/3/2
f 61/59/7/2 62/60/7/2 63/61/7/2
f 63/61/7/2 64/62/7/2 61/59/7/2
f 69/65/7/2 70/66/7/2 71/67/7/2
f 72/68/3/2 73/69/3/2 74/70/3/2
f 139/139/23/14 140/140/23/14 141/141/23/14
f 141/141/23/14 142/142/23/14 139/139/23/14
f 143/143/23/14 144/144/23/14 145/145/23/14
f 145/145/23/14 146/146/23/14 143/143/23/14
f 159/159/20/14 160/160/20/14 161/161/20/14
f 161/161/20/14 162/162/20/14 159/159/20/14
f 175/173/24/14 176/174/24/14 177/175/24/14
f 177/175/24/14 178/176/24/14 175/173/24/14
f 183/179/24/14 184/180/24/14 185/181/24/14
f 186/182/20/14 187/183/20/14 188/184/20/14
f 213/213/30/16 214/214/30/16 215/215/30/16
f 215/215/30/16 216/216/30/16 213/213/30/16
f 217/217/30/16 218/218/30/16 219/219/30/16
f 219/219/30/16 220/220/30/16 217/217/30/16
f 233/233/27/16 234/234/27/16 235/235/27/16
f 235/235/27/16 236/236/27/16 233/233/27/16
f 249/247/31/16 250/248/31/16 251/249/31/16
f 251/249/31/16 252/250/31/16 249/247/31/16
f 257/253/31/16 258/254/31/16 259/255/31/16
f 260/256/27/16 261/257/27/16 262/258/27/16
f 323/323/46/27 324/324/46/27 325/325/46/27
f 325/325/46/27 326/326/46/27 323/323/46/27
f 327/327/46/27 328/328/46/27 329/329/46/27
f 329/329/46/27 330/330/46/27 327/327/46/27
f 343/343/43/27 344/344/43/27 345/345/43/27
f 345/345/43/27 346/346/43/27 343/343/43/27
f 359/357/47/27 360/358/47/27 361/359/47/27
f 361/359/47/27 362/360/47/27 359/357/47/27
f 367/363/47/27 368/364/47/27 369/365/47/27
f 370/366/43/27 371/367/43/27 372/368/43/27
