mtllib lighthouseExt_02_00.mtl
o map
v -12.0 -15.0 0.0
v -13.0 -15.0 0.0
v -13.0 -16.0 0.0
v -12.0 -16.0 0.0
v 3.789063 -15.0 0.09863299
v 3.330079 -15.0 0.997071
v 3.330079 -16.0 0.997071
v 3.789063 -16.0 0.09863299
v 3.000001 -15.0 1.0
v 3.000001 -16.0 1.0
v 3.789063 -15.0 0.09863299
v 3.789063 -16.0 0.09863299
v 4.000001 -16.0 0.0
v 4.000001 -15.0 0.0
vt 2.0 0.5
vt 1.5 0.5
vt 1.5 0.0
vt 2.0 0.0
vt 0.5 -0.894531
vt 0.5 -0.597656
vt 0.0 -0.597656
vt 0.0 -0.894531
vt 0.5 -0.515625
vt 0.0 -0.515625
vt 0.5 -0.894531
vt 0.0 -0.894531
vt 0.0 -0.988281
vt 0.5 -0.988281
vn -0.0 -0.0 1.0
vn 0.7071 0.0 0.7071
vn 0.5258 0.0 0.8506
vn 0.0 -0.0 1.0
vn 0.426 0.0 0.9047
c 1.0 1.0 1.0
c 1.0 1.0 1.0
usemtl grass01
s off
f 1/1/1/1 2/2/1/1 3/3/1/1 4/4/1/1
usemtl wallkn_d
s off
f 5/5/2/2 6/6/3/2 7/7/3/2 8/8/2/2
f 6/6/3/2 9/9/4/2 10/10/4/2 7/7/3/2
f 11/11/2/2 12/12/2/2 13/13/5/2 14/14/5/2
