mtllib lighthouseExt_01_01.mtl
o map
v -14.0 -15.0 4.0
v -16.0 -15.0 4.0
v -16.0 -16.0 4.0
v -14.0 -16.0 4.0
v -8.0 -7.0 2.0
v -16.0 -7.0 2.0
v -16.0 -15.0 2.0
v -8.0 -15.0 2.0
v -8.0 1.0 2.0
v -16.0 1.0 2.0
v -16.0 -7.0 2.0
v -8.0 -7.0 2.0
v -8.0 9.0 2.0
v -16.0 9.0 2.0
v -16.0 1.0 2.0
v -8.0 1.0 2.0
v -8.0 16.0 2.0
v -16.0 16.0 2.0
v -16.0 9.0 2.0
v -8.0 9.0 2.0
v -6.0 -15.0 2.0
v -14.0 -15.0 2.0
v -14.0 -16.0 2.0
v -6.0 -16.0 2.0
v 0.0 -7.0 2.0
v -8.0 -7.0 2.0
v -8.0 -15.0 2.0
v 0.0 -15.0 2.0
v 0.0 1.0 2.0
v -8.0 1.0 2.0
v -8.0 -7.0 2.0
v 0.0 -7.0 2.0
v 0.0 9.0 2.0
v -8.0 9.0 2.0
v -8.0 1.0 2.0
v 0.0 1.0 2.0
v 0.0 16.0 2.0
v -8.0 16.0 2.0
v -8.0 9.0 2.0
v 0.0 9.0 2.0
v 2.0 -15.0 2.0
v -6.0 -15.0 2.0
v -6.0 -16.0 2.0
v 2.0 -16.0 2.0
v 8.0 -7.0 2.0
v 0.0 -7.0 2.0
v 0.0 -15.0 2.0
v 8.0 -15.0 2.0
v 8.0 1.0 2.0
v 0.0 1.0 2.0
v 0.0 -7.0 2.0
v 8.0 -7.0 2.0
v 8.0 9.0 2.0
v 0.0 9.0 2.0
v 0.0 1.0 2.0
v 8.0 1.0 2.0
v 8.0 16.0 2.0
v 0.0 16.0 2.0
v 0.0 9.0 2.0
v 8.0 9.0 2.0
v 10.0 -15.0 2.0
v 2.0 -15.0 2.0
v 2.0 -16.0 2.0
v 10.0 -16.0 2.0
v 14.0 -7.0 2.0
v 8.0 -7.0 2.0
v 8.0 -15.0 2.0
v 14.0 -15.0 2.0
v 16.0 1.0 2.0
v 8.0 1.0 2.0
v 8.0 -7.0 2.0
v 16.0 -7.0 2.0
v 16.0 9.0 2.0
v 8.0 9.0 2.0
v 8.0 1.0 2.0
v 16.0 1.0 2.0
v 16.0 16.0 2.0
v 8.0 16.0 2.0
v 8.0 9.0 2.0
v 16.0 9.0 2.0
v 14.0 -15.0 2.0
v 10.0 -15.0 2.0
v 10.0 -16.0 2.0
v 14.0 -16.0 2.0
v 14.7890625 -15.0 2.098633
v 14.330079 -15.0 2.997071
v 14.330079 -16.0 2.997071
v 14.7890625 -16.0 2.098633
v 14.000001 -15.0 3.0
v 14.000001 -16.0 3.0
v 14.7890625 -15.0 2.098633
v 14.7890625 -16.0 2.098633
v 15.000001 -16.0 2.0
v 15.000001 -15.0 2.0
v 14.330079 -15.0 2.997071
v 14.7890625 -15.0 2.098633
v 14.330079 -14.330078 2.997071
v 14.894532 -14.894531 2.098633
v 15.000001 -14.789062 2.098633
v 15.000001 -14.789062 2.098633
v 14.894532 -14.894531 2.098633
v 15.000001 -15.0 2.0
v 14.7890625 -15.0 2.098633
v 15.000001 -14.0 3.0
v 14.000001 -14.0 3.0
v 14.330079 -14.330078 2.997071
v 15.000001 -14.330078 2.997071
v 14.000001 -14.0 3.0
v 14.000001 -15.0 3.0
v 14.330079 -15.0 2.997071
v 14.330079 -14.330078 2.997071
v 15.000001 -14.330078 2.997071
v 14.330079 -14.330078 2.997071
v 15.000001 -14.789062 2.098633
v 16.0 -7.0 2.0
v 14.0 -7.0 2.0
v 14.0 -14.0 2.0
v 16.0 -14.0 2.0
v 16.0 -15.0 2.0
v 15.0 -15.0 2.0
v 15.0 -16.0 2.0
v 16.0 -16.0 2.0
v 16.0 -14.789063 2.098633
v 16.0 -14.330079 2.997071
v 15.0 -14.330079 2.997071
v 15.0 -14.789063 2.098633
v 16.0 -14.000001 3.0
v 15.0 -14.000001 3.0
v 16.0 -14.789063 2.098633
v 15.0 -14.789063 2.098633
v 15.0 -15.000001 2.0
v 16.0 -15.000001 2.0
vt 1.0 0.5
vt 0.0 0.5
vt 0.0 0.0
vt 1.0 0.0
vt 4.0 4.5
vt 0.0 4.5
vt 0.0 0.5
vt 4.0 0.5
vt 0.0 4.5
vt 4.0 4.5
vt 4.0 8.5
vt 0.0 8.5
vt 4.0 12.5
vt 0.0 12.5
vt 0.0 8.5
vt 4.0 8.5
vt 4.0 16.0
vt 0.0 16.0
vt 0.0 12.5
vt 4.0 12.5
vt 5.0 0.5
vt 1.0 0.5
vt 1.0 0.0
vt 5.0 0.0
vt 8.0 4.5
vt 4.0 4.5
vt 4.0 0.5
vt 8.0 0.5
vt 4.0 4.5
vt 8.0 4.5
vt 8.0 8.5
vt 4.0 8.5
vt 8.0 12.5
vt 4.0 12.5
vt 4.0 8.5
vt 8.0 8.5
vt 8.0 16.0
vt 4.0 16.0
vt 4.0 12.5
vt 8.0 12.5
vt 9.0 0.5
vt 5.0 0.5
vt 5.0 0.0
vt 9.0 0.0
vt 12.0 4.5
vt 8.0 4.5
vt 8.0 0.5
vt 12.0 0.5
vt 8.0 4.5
vt 12.0 4.5
vt 12.0 8.5
vt 8.0 8.5
vt 12.0 12.5
vt 8.0 12.5
vt 8.0 8.5
vt 12.0 8.5
vt 12.0 16.0
vt 8.0 16.0
vt 8.0 12.5
vt 12.0 12.5
vt 13.0 0.5
vt 9.0 0.5
vt 9.0 0.0
vt 13.0 0.0
vt 15.0 4.5
vt 12.0 4.5
vt 12.0 0.5
vt 15.0 0.5
vt 12.0 4.5
vt 16.0 4.5
vt 16.0 8.5
vt 12.0 8.5
vt 16.0 12.5
vt 12.0 12.5
vt 12.0 8.5
vt 16.0 8.5
vt 16.0 16.0
vt 12.0 16.0
vt 12.0 12.5
vt 16.0 12.5
vt 15.0 0.5
vt 13.0 0.5
vt 13.0 0.0
vt 15.0 0.0
vt 0.5 -0.394531
vt 0.5 -0.097656
vt 0.0 -0.097656
vt 0.0 -0.394531
vt 0.5 -0.015625
vt 0.0 -0.015625
vt 0.5 -0.894531
vt 0.0 -0.894531
vt 0.0 -0.988281
vt 0.5 -0.988281
vt 0.4375 -0.09375
vt 0.4375 -0.390625
vt 0.285156 -0.09375
vt 0.285156 -0.390625
vt 0.4375 -0.390625
vt 0.4375 0.105469
vt 0.285156 0.105469
vt 0.285156 0.013672
vt 0.4375 0.105469
vt 0.753906 -0.099609
vt 1.0 -0.099609
vt 1.0 -0.013672
vt 0.5 -0.013672
vt 0.4375 -0.09375
vt 0.285156 -0.09375
vt 0.4375 -0.390625
vt 1.0 -0.099609
vt 1.279297 -0.099609
vt 1.5 -0.013672
vt 1.0 -0.013672
vt 16.0 4.5
vt 15.0 4.5
vt 15.0 1.0
vt 16.0 1.0
vt 16.0 0.5
vt 16.0 0.0
vt 15.5 0.5
vt 15.5 0.0
vt 0.5 -0.394531
vt 0.5 -0.097656
vt 0.0 -0.097656
vt 0.0 -0.394531
vt 0.5 -0.015625
vt 0.0 -0.015625
vt 0.5 -0.894531
vt 0.0 -0.894531
vt 0.0 -0.988281
vt 0.5 -0.988281
vn -0.0 -0.0 1.0
vn -0.0 -0.0 1.0
vn -0.0 -0.0 1.0
vn -0.0 -0.0 1.0
vn -0.0 -0.0 1.0
vn -0.0 -0.0 1.0
vn -0.0 -0.0 1.0
vn -0.0 -0.0 1.0
vn -0.0 -0.0 1.0
vn -0.0 -0.0 1.0
vn -0.0 -0.0 1.0
vn -0.0 -0.0 1.0
vn -0.0 -0.0 1.0
vn -0.0 -0.0 1.0
vn -0.0 -0.0 1.0
vn -0.0 -0.0 1.0
vn -0.0 -0.0 1.0
vn -0.0 -0.0 1.0
vn -0.0 -0.0 1.0
vn -0.0 -0.0 1.0
vn -0.0 -0.0 1.0
vn 0.7071 0.0 0.7071
vn 0.5258 0.0 0.8506
vn 0.0 -0.0 1.0
vn 0.426 0.0 0.9047
vn 0.5259 2.0E-4 0.8505
vn 0.6426 -0.3262 0.6934
vn 0.3865 -0.3865 0.8374
vn 0.4629 -0.4629 0.7559
vn 0.3262 -0.6426 0.6933
vn 0.3262 -0.6426 0.6934
vn -0.0 -0.526 0.8505
vn -0.0 -0.0 1.0
vn -0.0 -0.5259 0.8505
vn 0.526 0.0 0.8505
vn -0.0 -0.0 1.0
vn -0.0 -0.0 1.0
vn 0.0 -0.7071 0.7071
vn 0.0 -0.5258 0.8506
vn -0.0 -0.0 1.0
vn 0.0 -0.426 0.9047
c 1.0 1.0 1.0
c 1.0 1.0 1.0
c 1.0 1.0 1.0
c 1.0 1.0 1.0
c 1.0 1.0 1.0
c 1.0 1.0 1.0
c 1.0 1.0 1.0
c 1.0 1.0 1.0
c 1.0 1.0 1.0
c 1.0 1.0 1.0
c 1.0 1.0 1.0
c 1.0 1.0 1.0
c 1.0 1.0 1.0
c 1.0 1.0 1.0
c 1.0 1.0 1.0
c 1.0 1.0 1.0
c 1.0 1.0 1.0
c 1.0 1.0 1.0
c 1.0 1.0 1.0
c 1.0 1.0 1.0
c 1.0 1.0 1.0
c 1.0 1.0 1.0
c 1.0 1.0 1.0
c 1.0 1.0 1.0
c 1.0 1.0 1.0
c 1.0 1.0 1.0
usemtl grass01
s off
f 1/1/1/1 2/2/1/1 3/3/1/1 4/4/1/1
f 5/5/2/2 6/6/2/2 7/7/2/2 8/8/2/2
f 9/11/3/3 10/12/3/3 11/9/3/3 12/10/3/3
f 13/13/4/4 14/14/4/4 15/15/4/4 16/16/4/4
f 17/17/5/5 18/18/5/5 19/19/5/5 20/20/5/5
f 21/21/6/6 22/22/6/6 23/23/6/6 24/24/6/6
f 25/25/7/7 26/26/7/7 27/27/7/7 28/28/7/7
f 29/31/8/8 30/32/8/8 31/29/8/8 32/30/8/8
f 33/33/9/9 34/34/9/9 35/35/9/9 36/36/9/9
f 37/37/10/10 38/38/10/10 39/39/10/10 40/40/10/10
f 41/41/11/11 42/42/11/11 43/43/11/11 44/44/11/11
f 45/45/12/12 46/46/12/12 47/47/12/12 48/48/12/12
f 49/51/13/13 50/52/13/13 51/49/13/13 52/50/13/13
f 53/53/14/14 54/54/14/14 55/55/14/14 56/56/14/14
f 57/57/15/15 58/58/15/15 59/59/15/15 60/60/15/15
f 61/61/16/16 62/62/16/16 63/63/16/16 64/64/16/16
f 65/65/17/17 66/66/17/17 67/67/17/17 68/68/17/17
f 69/71/18/18 70/72/18/18 71/69/18/18 72/70/18/18
f 73/73/19/19 74/74/19/19 75/75/19/19 76/76/19/19
f 77/77/20/20 78/78/20/20 79/79/20/20 80/80/20/20
f 81/81/21/21 82/82/21/21 83/83/21/21 84/84/21/21
f 115/115/36/24 116/116/36/24 117/117/36/24 118/118/36/24
usemtl road05
s off
f 119/119/37/25 120/121/37/25 121/122/37/25 122/120/37/25
usemtl wall01_d
s off
f 91/91/22/22 92/92/22/22 93/93/25/22 94/94/25/22
f 129/129/38/26 130/130/38/26 131/131/41/26 132/132/41/26
usemtl wall01_g
s off
f 85/85/22/22 86/86/23/22 87/87/23/22 88/88/22/22
f 86/86/23/22 89/89/24/22 90/90/24/22 87/87/23/22
f 106/104/28/23 107/105/32/23 104/106/33/23 105/107/33/23
f 110/111/35/23 111/112/28/23 108/113/33/23 109/114/33/23
f 123/123/38/26 124/124/39/26 125/125/39/26 126/126/38/26
f 124/124/39/26 127/127/40/26 128/128/40/26 125/125/39/26
f 95/95/26/23 96/96/27/23 97/97/28/23
f 96/96/27/23 98/98/29/23 97/97/28/23
f 97/97/28/23 98/98/29/23 99/99/30/23
f 100/100/31/23 101/101/29/23 102/102/28/23
f 101/101/29/23 103/103/27/23 102/102/28/23
f 112/108/34/23 113/109/28/23 114/110/30/23
