mtllib lighthouseExt_00_02.mtl
o map
v 15.0 1.6162109 -0.599612
v 15.0 1.9375 -0.390628
v 15.0625 2.0 -0.390628
v 15.383789 2.0 -0.599612
v 15.0 2.0 -0.090822995
v 16.0 11.0 0.0
v 15.0 11.0 0.0
v 15.0 7.0 0.0
v 16.0 7.0 0.0
vt -0.081425 0.513672
vt 0.081425 0.513672
vt 0.0 0.75
vt 0.25 0.0
vt -0.25 0.0
vt 15.5 13.5
vt 15.5 11.5
vt 16.0 13.5
vt 16.0 11.5
vn 0.2274 -0.9385 -0.2598
vn 0.9386 -0.2269 -0.2599
vn -0.4859 -0.6759 0.5542
vn 0.0241 -0.7836 0.6208
vn 0.7836 -0.0241 0.6208
vn -0.0 -0.0 1.0
c 1.0 1.0 1.0
c 1.0 1.0 1.0
usemtl sea_line02
s off
f 2/1/1/1 3/2/2/1 5/3/3/1
f 4/4/4/1 2/1/1/1 1/5/5/1
f 4/4/4/1 3/2/2/1 2/1/1/1
usemtl road05
s off
f 6/8/6/2 7/6/6/2 8/7/6/2 9/9/6/2
