mtllib lighthouseExt_03_02.mtl
o map
v -16.0 -13.383789 -0.599612
v -16.0 -13.0625 -0.390628
v -15.9375 -13.0 -0.390628
v -15.616211 -13.0 -0.599612
v -16.0 -13.0 -0.090822995
v -16.0 -7.383789 -0.599612
v -16.0 -7.0625 -0.390628
v -15.9375 -7.0 -0.390628
v -15.616211 -7.0 -0.599612
v -16.0 -7.0 -0.090822995
v -16.0 -6.383789 -0.599612
v -16.0 -6.0625 -0.390628
v -15.9375 -6.0 -0.390628
v -15.616211 -6.0 -0.599612
v -16.0 -6.0 -0.090822995
v -16.0 -5.383789 -0.599612
v -16.0 -5.0625 -0.390628
v -15.9375 -5.0 -0.390628
v -15.616211 -5.0 -0.599612
v -16.0 -5.0 -0.090822995
v -16.0 -3.383789 -0.599612
v -16.0 -3.0625 -0.390628
v -15.9375 -3.0 -0.390628
v -15.616211 -3.0 -0.599612
v -16.0 -3.0 -0.090822995
v -16.0 -2.383789 -0.599612
v -16.0 -2.0625 -0.390628
v -15.9375 -2.0 -0.390628
v -15.616211 -2.0 -0.599612
v -16.0 -2.0 -0.090822995
v -16.0 -1.3837891 -0.599612
v -16.0 -1.0625 -0.390628
v -15.9375 -1.0 -0.390628
v -15.616211 -1.0 -0.599612
v -16.0 -1.0 -0.090822995
v -15.0 -6.383789 -0.599612
v -15.0 -6.0625 -0.390628
v -14.9375 -6.0 -0.390628
v -14.616211 -6.0 -0.599612
v -15.0 -6.0 -0.090822995
v -14.0 -6.383789 -0.599612
v -14.0 -6.0625 -0.390628
v -13.9375 -6.0 -0.390628
v -13.616211 -6.0 -0.599612
v -14.0 -6.0 -0.090822995
vt -0.081425 0.513672
vt 0.081425 0.513672
vt 0.0 0.75
vt 0.25 0.0
vt -0.25 0.0
vt -0.081425 0.513672
vt 0.081425 0.513672
vt 0.0 0.75
vt 0.25 0.0
vt -0.25 0.0
vt -0.081425 0.513672
vt 0.081425 0.513672
vt 0.0 0.75
vt 0.25 0.0
vt -0.25 0.0
vt -0.081425 0.513672
vt 0.081425 0.513672
vt 0.0 0.75
vt 0.25 0.0
vt -0.25 0.0
vt -0.081425 0.513672
vt 0.081425 0.513672
vt 0.0 0.75
vt 0.25 0.0
vt -0.25 0.0
vt -0.081425 0.513672
vt 0.081425 0.513672
vt 0.0 0.75
vt 0.25 0.0
vt -0.25 0.0
vt -0.081425 0.513672
vt 0.081425 0.513672
vt 0.0 0.75
vt 0.25 0.0
vt -0.25 0.0
vt -0.081425 0.513672
vt 0.081425 0.513672
vt 0.0 0.75
vt 0.25 0.0
vt -0.25 0.0
vt -0.081425 0.513672
vt 0.081425 0.513672
vt 0.0 0.75
vt 0.25 0.0
vt -0.25 0.0
vn 0.2274 -0.9385 -0.2598
vn 0.9386 -0.2269 -0.2599
vn -0.4859 -0.6759 0.5542
vn 0.0241 -0.7836 0.6208
vn 0.7836 -0.0241 0.6208
vn 0.2274 -0.9385 -0.2598
vn 0.9386 -0.2269 -0.2599
vn -0.4859 -0.6759 0.5542
vn 0.0241 -0.7836 0.6208
vn 0.7836 -0.0241 0.6208
vn 0.2274 -0.9385 -0.2598
vn 0.9386 -0.2269 -0.2599
vn -0.4859 -0.6759 0.5542
vn 0.0241 -0.7836 0.6208
vn 0.7836 -0.0241 0.6208
vn 0.2274 -0.9385 -0.2598
vn 0.9386 -0.2269 -0.2599
vn -0.4859 -0.6759 0.5542
vn 0.0241 -0.7836 0.6208
vn 0.7836 -0.0241 0.6208
vn 0.2274 -0.9385 -0.2598
vn 0.9386 -0.2269 -0.2599
vn -0.4859 -0.6759 0.5542
vn 0.0241 -0.7836 0.6208
vn 0.7836 -0.0241 0.6208
vn 0.2274 -0.9385 -0.2598
vn 0.9386 -0.2269 -0.2599
vn -0.4859 -0.6759 0.5542
vn 0.0241 -0.7836 0.6208
vn 0.7836 -0.0241 0.6208
vn 0.2274 -0.9385 -0.2598
vn 0.9386 -0.2269 -0.2599
vn -0.4859 -0.6759 0.5542
vn 0.0241 -0.7836 0.6208
vn 0.7836 -0.0241 0.6208
vn 0.2274 -0.9385 -0.2598
vn 0.9386 -0.2269 -0.2599
vn -0.4859 -0.6759 0.5542
vn 0.0241 -0.7836 0.6208
vn 0.7836 -0.0241 0.6208
vn 0.2274 -0.9385 -0.2598
vn 0.9386 -0.2269 -0.2599
vn -0.4859 -0.6759 0.5542
vn 0.0241 -0.7836 0.6208
vn 0.7836 -0.0241 0.6208
c 1.0 1.0 1.0
c 1.0 1.0 1.0
c 1.0 1.0 1.0
c 1.0 1.0 1.0
c 1.0 1.0 1.0
c 1.0 1.0 1.0
c 1.0 1.0 1.0
c 1.0 1.0 1.0
c 1.0 1.0 1.0
usemtl sea_line02
s off
f 2/1/1/1 3/2/2/1 5/3/3/1
f 4/4/4/1 2/1/1/1 1/5/5/1
f 4/4/4/1 3/2/2/1 2/1/1/1
f 7/6/6/2 8/7/7/2 10/8/8/2
f 9/9/9/2 7/6/6/2 6/10/10/2
f 9/9/9/2 8/7/7/2 7/6/6/2
f 12/11/11/3 13/12/12/3 15/13/13/3
f 14/14/14/3 12/11/11/3 11/15/15/3
f 14/14/14/3 13/12/12/3 12/11/11/3
f 17/16/16/4 18/17/17/4 20/18/18/4
f 19/19/19/4 17/16/16/4 16/20/20/4
f 19/19/19/4 18/17/17/4 17/16/16/4
f 22/21/21/5 23/22/22/5 25/23/23/5
f 24/24/24/5 22/21/21/5 21/25/25/5
f 24/24/24/5 23/22/22/5 22/21/21/5
f 27/26/26/6 28/27/27/6 30/28/28/6
f 29/29/29/6 27/26/26/6 26/30/30/6
f 29/29/29/6 28/27/27/6 27/26/26/6
f 32/31/31/7 33/32/32/7 35/33/33/7
f 34/34/34/7 32/31/31/7 31/35/35/7
f 34/34/34/7 33/32/32/7 32/31/31/7
f 37/36/36/8 38/37/37/8 40/38/38/8
f 39/39/39/8 37/36/36/8 36/40/40/8
f 39/39/39/8 38/37/37/8 37/36/36/8
f 42/41/41/9 43/42/42/9 45/43/43/9
f 44/44/44/9 42/41/41/9 41/45/45/9
f 44/44/44/9 43/42/42/9 42/41/41/9
