mtllib water_00_00.mtl
o map
v -16.0 -16.0 -0.5
v -8.0 -16.0 -0.5
v -8.0 -8.0 -0.5
v -16.0 -8.0 -0.5
v -16.0 -16.0 -0.5625
v -8.0 -16.0 -0.5625
v -8.0 -8.0 -0.5625
v -16.0 -8.0 -0.5625
v -16.0 -8.0 -0.5
v -8.0 -8.0 -0.5
v -8.0 0.0 -0.5
v -16.0 0.0 -0.5
v -16.0 -8.0 -0.5625
v -8.0 -8.0 -0.5625
v -8.0 0.0 -0.5625
v -16.0 0.0 -0.5625
v -16.0 0.0 -0.5
v -8.0 0.0 -0.5
v -8.0 8.0 -0.5
v -16.0 8.0 -0.5
v -16.0 0.0 -0.5625
v -8.0 0.0 -0.5625
v -8.0 8.0 -0.5625
v -16.0 8.0 -0.5625
v -16.0 8.0 -0.5
v -8.0 8.0 -0.5
v -8.0 16.0 -0.5
v -16.0 16.0 -0.5
v -16.0 8.0 -0.5625
v -8.0 8.0 -0.5625
v -8.0 16.0 -0.5625
v -16.0 16.0 -0.5625
v -8.0 -16.0 -0.5
v 0.0 -16.0 -0.5
v 0.0 -8.0 -0.5
v -8.0 -8.0 -0.5
v -8.0 -16.0 -0.5625
v 0.0 -16.0 -0.5625
v 0.0 -8.0 -0.5625
v -8.0 -8.0 -0.5625
v -8.0 -8.0 -0.5
v 0.0 -8.0 -0.5
v 0.0 0.0 -0.5
v -8.0 0.0 -0.5
v -8.0 -8.0 -0.5625
v 0.0 -8.0 -0.5625
v 0.0 0.0 -0.5625
v -8.0 0.0 -0.5625
v -8.0 0.0 -0.5
v 0.0 0.0 -0.5
v 0.0 8.0 -0.5
v -8.0 8.0 -0.5
v -8.0 0.0 -0.5625
v 0.0 0.0 -0.5625
v 0.0 8.0 -0.5625
v -8.0 8.0 -0.5625
v -8.0 8.0 -0.5
v 0.0 8.0 -0.5
v 0.0 16.0 -0.5
v -8.0 16.0 -0.5
v -8.0 8.0 -0.5625
v 0.0 8.0 -0.5625
v 0.0 16.0 -0.5625
v -8.0 16.0 -0.5625
v 0.0 -16.0 -0.5
v 8.0 -16.0 -0.5
v 8.0 -8.0 -0.5
v 0.0 -8.0 -0.5
v 0.0 -16.0 -0.5625
v 8.0 -16.0 -0.5625
v 8.0 -8.0 -0.5625
v 0.0 -8.0 -0.5625
v 0.0 -8.0 -0.5
v 8.0 -8.0 -0.5
v 8.0 0.0 -0.5
v 0.0 0.0 -0.5
v 0.0 -8.0 -0.5625
v 8.0 -8.0 -0.5625
v 8.0 0.0 -0.5625
v 0.0 0.0 -0.5625
v 0.0 0.0 -0.5
v 8.0 0.0 -0.5
v 8.0 8.0 -0.5
v 0.0 8.0 -0.5
v 0.0 0.0 -0.5625
v 8.0 0.0 -0.5625
v 8.0 8.0 -0.5625
v 0.0 8.0 -0.5625
v 0.0 8.0 -0.5
v 8.0 8.0 -0.5
v 8.0 16.0 -0.5
v 0.0 16.0 -0.5
v 0.0 8.0 -0.5625
v 8.0 8.0 -0.5625
v 8.0 16.0 -0.5625
v 0.0 16.0 -0.5625
v 8.0 -16.0 -0.5
v 16.0 -16.0 -0.5
v 16.0 -8.0 -0.5
v 8.0 -8.0 -0.5
v 8.0 -16.0 -0.5625
v 16.0 -16.0 -0.5625
v 16.0 -8.0 -0.5625
v 8.0 -8.0 -0.5625
v 8.0 -8.0 -0.5
v 16.0 -8.0 -0.5
v 16.0 0.0 -0.5
v 8.0 0.0 -0.5
v 8.0 -8.0 -0.5625
v 16.0 -8.0 -0.5625
v 16.0 0.0 -0.5625
v 8.0 0.0 -0.5625
v 8.0 0.0 -0.5
v 16.0 0.0 -0.5
v 16.0 8.0 -0.5
v 8.0 8.0 -0.5
v 8.0 0.0 -0.5625
v 16.0 0.0 -0.5625
v 16.0 8.0 -0.5625
v 8.0 8.0 -0.5625
v 8.0 8.0 -0.5
v 16.0 8.0 -0.5
v 16.0 16.0 -0.5
v 8.0 16.0 -0.5
v 8.0 8.0 -0.5625
v 16.0 8.0 -0.5625
v 16.0 16.0 -0.5625
v 8.0 16.0 -0.5625
vt 0.0 0.0
vt 4.0 0.0
vt 4.0 4.0
vt 0.0 4.0
vt 0.0 4.0
vt 4.0 4.0
vt 4.0 8.0
vt 0.0 8.0
vt 0.0 8.0
vt 4.0 8.0
vt 4.0 12.0
vt 0.0 12.0
vt 0.0 12.0
vt 4.0 12.0
vt 4.0 16.0
vt 0.0 16.0
vt 4.0 0.0
vt 8.0 0.0
vt 8.0 4.0
vt 4.0 4.0
vt 4.0 4.0
vt 8.0 4.0
vt 8.0 8.0
vt 4.0 8.0
vt 4.0 8.0
vt 8.0 8.0
vt 8.0 12.0
vt 4.0 12.0
vt 4.0 12.0
vt 8.0 12.0
vt 8.0 16.0
vt 4.0 16.0
vt 8.0 0.0
vt 12.0 0.0
vt 12.0 4.0
vt 8.0 4.0
vt 8.0 4.0
vt 12.0 4.0
vt 12.0 8.0
vt 8.0 8.0
vt 8.0 8.0
vt 12.0 8.0
vt 12.0 12.0
vt 8.0 12.0
vt 8.0 12.0
vt 12.0 12.0
vt 12.0 16.0
vt 8.0 16.0
vt 12.0 0.0
vt 16.0 0.0
vt 16.0 4.0
vt 12.0 4.0
vt 12.0 4.0
vt 16.0 4.0
vt 16.0 8.0
vt 12.0 8.0
vt 12.0 8.0
vt 16.0 8.0
vt 16.0 12.0
vt 12.0 12.0
vt 12.0 12.0
vt 16.0 12.0
vt 16.0 16.0
vt 12.0 16.0
vn 0.0 -0.0 1.0
vn 0.0 -0.0 1.0
vn 0.0 -0.0 1.0
vn 0.0 -0.0 1.0
vn 0.0 -0.0 1.0
vn 0.0 -0.0 1.0
vn 0.0 -0.0 1.0
vn 0.0 -0.0 1.0
vn 0.0 -0.0 1.0
vn 0.0 -0.0 1.0
vn 0.0 -0.0 1.0
vn 0.0 -0.0 1.0
vn 0.0 -0.0 1.0
vn 0.0 -0.0 1.0
vn 0.0 -0.0 1.0
vn 0.0 -0.0 1.0
c 1.0 1.0 1.0
c 1.0 1.0 1.0
c 1.0 1.0 1.0
c 1.0 1.0 1.0
c 1.0 1.0 1.0
c 1.0 1.0 1.0
c 1.0 1.0 1.0
c 1.0 1.0 1.0
c 1.0 1.0 1.0
c 1.0 1.0 1.0
c 1.0 1.0 1.0
c 1.0 1.0 1.0
c 1.0 1.0 1.0
c 1.0 1.0 1.0
c 1.0 1.0 1.0
c 1.0 1.0 1.0
usemtl sea_un
s off
f 5/1/1/1 6/2/1/1 7/3/1/1 8/4/1/1
f 13/5/2/2 14/6/2/2 15/7/2/2 16/8/2/2
f 21/9/3/3 22/10/3/3 23/11/3/3 24/12/3/3
f 29/13/4/4 30/14/4/4 31/15/4/4 32/16/4/4
f 37/17/5/5 38/18/5/5 39/19/5/5 40/20/5/5
f 45/21/6/6 46/22/6/6 47/23/6/6 48/24/6/6
f 53/25/7/7 54/26/7/7 55/27/7/7 56/28/7/7
f 61/29/8/8 62/30/8/8 63/31/8/8 64/32/8/8
f 69/33/9/9 70/34/9/9 71/35/9/9 72/36/9/9
f 77/37/10/10 78/38/10/10 79/39/10/10 80/40/10/10
f 85/41/11/11 86/42/11/11 87/43/11/11 88/44/11/11
f 93/45/12/12 94/46/12/12 95/47/12/12 96/48/12/12
f 101/49/13/13 102/50/13/13 103/51/13/13 104/52/13/13
f 109/53/14/14 110/54/14/14 111/55/14/14 112/56/14/14
f 117/57/15/15 118/58/15/15 119/59/15/15 120/60/15/15
f 125/61/16/16 126/62/16/16 127/63/16/16 128/64/16/16
usemtl sea_on
s off
f 1/1/1/1 2/2/1/1 3/3/1/1 4/4/1/1
f 9/5/2/2 10/6/2/2 11/7/2/2 12/8/2/2
f 17/9/3/3 18/10/3/3 19/11/3/3 20/12/3/3
f 25/13/4/4 26/14/4/4 27/15/4/4 28/16/4/4
f 33/17/5/5 34/18/5/5 35/19/5/5 36/20/5/5
f 41/21/6/6 42/22/6/6 43/23/6/6 44/24/6/6
f 49/25/7/7 50/26/7/7 51/27/7/7 52/28/7/7
f 57/29/8/8 58/30/8/8 59/31/8/8 60/32/8/8
f 65/33/9/9 66/34/9/9 67/35/9/9 68/36/9/9
f 73/37/10/10 74/38/10/10 75/39/10/10 76/40/10/10
f 81/41/11/11 82/42/11/11 83/43/11/11 84/44/11/11
f 89/45/12/12 90/46/12/12 91/47/12/12 92/48/12/12
f 97/49/13/13 98/50/13/13 99/51/13/13 100/52/13/13
f 105/53/14/14 106/54/14/14 107/55/14/14 108/56/14/14
f 113/57/15/15 114/58/15/15 115/59/15/15 116/60/15/15
f 121/61/16/16 122/62/16/16 123/63/16/16 124/64/16/16
