mtllib emptyMapTrees_00_00.mtl
o map
v -15.0 -16.0 0.0
v -15.0 -8.0 0.0
v -16.0 -8.0 0.0
v -16.0 -16.0 0.0
v -15.0 -8.0 0.0
v -15.0 0.0 0.0
v -16.0 0.0 0.0
v -16.0 -8.0 0.0
v -15.0 0.0 0.0
v -15.0 8.0 0.0
v -16.0 8.0 0.0
v -16.0 0.0 0.0
v -15.0 8.0 0.0
v -15.0 16.0 0.0
v -16.0 16.0 0.0
v -16.0 8.0 0.0
v -12.0 -16.0 0.0
v -12.0 -15.0 0.0
v -15.0 -15.0 0.0
v -15.0 -16.0 0.0
v -15.0 -15.0 0.0
v -13.0 -15.0 0.0
v -13.0 -13.0 0.0
v -15.0 -13.0 0.0
v -16.0 -14.625 0.0
v -12.0 -14.625 0.0
v -12.0 -12.077148 3.083984
v -16.0 -12.077148 3.083984
v -15.0 -13.0 0.0
v -13.0 -13.0 0.0
v -13.0 -11.0 0.0
v -15.0 -11.0 0.0
v -16.0 -12.625 0.0
v -12.0 -12.625 0.0
v -12.0 -10.077148 3.083984
v -16.0 -10.077148 3.083984
v -15.0 -11.0 0.0
v -13.0 -11.0 0.0
v -13.0 -9.0 0.0
v -15.0 -9.0 0.0
v -16.0 -10.625 0.0
v -12.0 -10.625 0.0
v -12.0 -8.077148 3.083984
v -16.0 -8.077148 3.083984
v -15.0 -9.0 0.0
v -13.0 -9.0 0.0
v -13.0 -7.0 0.0
v -15.0 -7.0 0.0
v -16.0 -8.625 0.0
v -12.0 -8.625 0.0
v -12.0 -6.077149 3.083984
v -16.0 -6.077149 3.083984
v -15.0 -7.0 0.0
v -13.0 -7.0 0.0
v -13.0 -5.0 0.0
v -15.0 -5.0 0.0
v -16.0 -6.625 0.0
v -12.0 -6.625 0.0
v -12.0 -4.077149 3.083984
v -16.0 -4.077149 3.083984
v -12.0 -5.0 0.0
v -12.0 -1.0 0.0
v -15.0 -1.0 0.0
v -15.0 -5.0 0.0
v -15.0 -1.0 0.0
v -13.0 -1.0 0.0
v -13.0 1.0 0.0
v -15.0 1.0 0.0
v -16.0 -0.625 0.0
v -12.0 -0.625 0.0
v -12.0 1.9228511 3.083984
v -16.0 1.9228511 3.083984
v -15.0 1.0 0.0
v -13.0 1.0 0.0
v -13.0 3.0 0.0
v -15.0 3.0 0.0
v -16.0 1.375 0.0
v -12.0 1.375 0.0
v -12.0 3.922851 3.083984
v -16.0 3.922851 3.083984
v -15.0 3.0 0.0
v -13.0 3.0 0.0
v -13.0 5.0 0.0
v -15.0 5.0 0.0
v -16.0 3.375 0.0
v -12.0 3.375 0.0
v -12.0 5.922851 3.083984
v -16.0 5.922851 3.083984
v -15.0 5.0 0.0
v -13.0 5.0 0.0
v -13.0 7.0 0.0
v -15.0 7.0 0.0
v -16.0 5.375 0.0
v -12.0 5.375 0.0
v -12.0 7.922851 3.083984
v -16.0 7.922851 3.083984
v -15.0 7.0 0.0
v -13.0 7.0 0.0
v -13.0 9.0 0.0
v -15.0 9.0 0.0
v -16.0 7.375 0.0
v -12.0 7.375 0.0
v -12.0 9.922852 3.083984
v -16.0 9.922852 3.083984
v -15.0 9.0 0.0
v -13.0 9.0 0.0
v -13.0 11.0 0.0
v -15.0 11.0 0.0
v -16.0 9.375 0.0
v -12.0 9.375 0.0
v -12.0 11.922852 3.083984
v -16.0 11.922852 3.083984
v -15.0 11.0 0.0
v -13.0 11.0 0.0
v -13.0 13.0 0.0
v -15.0 13.0 0.0
v -16.0 11.375 0.0
v -12.0 11.375 0.0
v -12.0 13.922852 3.083984
v -16.0 13.922852 3.083984
v -15.0 13.0 0.0
v -13.0 13.0 0.0
v -13.0 15.0 0.0
v -15.0 15.0 0.0
v -16.0 13.375 0.0
v -12.0 13.375 0.0
v -12.0 15.922852 3.083984
v -16.0 15.922852 3.083984
v -12.0 15.0 0.0
v -12.0 16.0 0.0
v -15.0 16.0 0.0
v -15.0 15.0 0.0
v -12.0 -15.0 0.0
v -12.0 -7.0 0.0
v -13.0 -7.0 0.0
v -13.0 -15.0 0.0
v -12.0 -7.0 0.0
v -12.0 -5.0 0.0
v -13.0 -5.0 0.0
v -13.0 -7.0 0.0
v -12.0 -1.0 0.0
v -12.0 7.0 0.0
v -13.0 7.0 0.0
v -13.0 -1.0 0.0
v -12.0 7.0 0.0
v -12.0 15.0 0.0
v -13.0 15.0 0.0
v -13.0 7.0 0.0
v -12.0 -16.0 0.0
v -10.0 -16.0 0.0
v -10.0 -14.0 0.0
v -12.0 -14.0 0.0
v -13.0 -15.625 0.0
v -9.0 -15.625 0.0
v -9.0 -13.077148 3.083984
v -13.0 -13.077148 3.083984
v -12.0 -14.0 0.0
v -10.0 -14.0 0.0
v -10.0 -12.0 0.0
v -12.0 -12.0 0.0
v -13.0 -13.625 0.0
v -9.0 -13.625 0.0
v -9.0 -11.077148 3.083984
v -13.0 -11.077148 3.083984
v -12.0 -12.0 0.0
v -10.0 -12.0 0.0
v -10.0 -10.0 0.0
v -12.0 -10.0 0.0
v -13.0 -11.625 0.0
v -9.0 -11.625 0.0
v -9.0 -9.077148 3.083984
v -13.0 -9.077148 3.083984
v -12.0 -10.0 0.0
v -10.0 -10.0 0.0
v -10.0 -8.0 0.0
v -12.0 -8.0 0.0
v -13.0 -9.625 0.0
v -9.0 -9.625 0.0
v -9.0 -7.077149 3.083984
v -13.0 -7.077149 3.083984
v -12.0 -8.0 0.0
v -10.0 -8.0 0.0
v -10.0 -6.0 0.0
v -12.0 -6.0 0.0
v -13.0 -7.625 0.0
v -9.0 -7.625 0.0
v -9.0 -5.077149 3.083984
v -13.0 -5.077149 3.083984
v -12.0 -6.0 0.0
v -10.0 -6.0 0.0
v -10.0 -4.0 0.0
v -12.0 -4.0 0.0
v -13.0 -5.625 0.0
v -9.0 -5.625 0.0
v -9.0 -3.077149 3.083984
v -13.0 -3.077149 3.083984
v -12.0 -4.0 0.0
v -10.0 -4.0 0.0
v -10.0 -2.0 0.0
v -12.0 -2.0 0.0
v -13.0 -3.625 0.0
v -9.0 -3.625 0.0
v -9.0 -1.0771489 3.083984
v -13.0 -1.0771489 3.083984
v -12.0 -2.0 0.0
v -10.0 -2.0 0.0
v -10.0 0.0 0.0
v -12.0 0.0 0.0
v -13.0 -1.625 0.0
v -9.0 -1.625 0.0
v -9.0 0.9228511 3.083984
v -13.0 0.9228511 3.083984
v -12.0 0.0 0.0
v -10.0 0.0 0.0
v -10.0 2.0 0.0
v -12.0 2.0 0.0
v -13.0 0.375 0.0
v -9.0 0.375 0.0
v -9.0 2.922851 3.083984
v -13.0 2.922851 3.083984
v -12.0 2.0 0.0
v -10.0 2.0 0.0
v -10.0 4.0 0.0
v -12.0 4.0 0.0
v -13.0 2.375 0.0
v -9.0 2.375 0.0
v -9.0 4.922851 3.083984
v -13.0 4.922851 3.083984
v -12.0 4.0 0.0
v -10.0 4.0 0.0
v -10.0 6.0 0.0
v -12.0 6.0 0.0
v -13.0 4.375 0.0
v -9.0 4.375 0.0
v -9.0 6.922851 3.083984
v -13.0 6.922851 3.083984
v -12.0 6.0 0.0
v -10.0 6.0 0.0
v -10.0 8.0 0.0
v -12.0 8.0 0.0
v -13.0 6.375 0.0
v -9.0 6.375 0.0
v -9.0 8.922852 3.083984
v -13.0 8.922852 3.083984
v -12.0 8.0 0.0
v -10.0 8.0 0.0
v -10.0 10.0 0.0
v -12.0 10.0 0.0
v -13.0 8.375 0.0
v -9.0 8.375 0.0
v -9.0 10.922852 3.083984
v -13.0 10.922852 3.083984
v -12.0 10.0 0.0
v -10.0 10.0 0.0
v -10.0 12.0 0.0
v -12.0 12.0 0.0
v -13.0 10.375 0.0
v -9.0 10.375 0.0
v -9.0 12.922852 3.083984
v -13.0 12.922852 3.083984
v -12.0 12.0 0.0
v -10.0 12.0 0.0
v -10.0 14.0 0.0
v -12.0 14.0 0.0
v -13.0 12.375 0.0
v -9.0 12.375 0.0
v -9.0 14.922852 3.083984
v -13.0 14.922852 3.083984
v -12.0 14.0 0.0
v -10.0 14.0 0.0
v -10.0 16.0 0.0
v -12.0 16.0 0.0
v -13.0 14.375 0.0
v -9.0 14.375 0.0
v -9.0 16.922852 3.083984
v -13.0 16.922852 3.083984
v -10.0 -16.0 0.0
v -8.0 -16.0 0.0
v -8.0 -14.0 0.0
v -10.0 -14.0 0.0
v -11.0 -15.625 0.0
v -7.0 -15.625 0.0
v -7.0 -13.077148 3.083984
v -11.0 -13.077148 3.083984
v -10.0 -14.0 0.0
v -8.0 -14.0 0.0
v -8.0 -12.0 0.0
v -10.0 -12.0 0.0
v -11.0 -13.625 0.0
v -7.0 -13.625 0.0
v -7.0 -11.077148 3.083984
v -11.0 -11.077148 3.083984
v -10.0 -12.0 0.0
v -8.0 -12.0 0.0
v -8.0 -10.0 0.0
v -10.0 -10.0 0.0
v -11.0 -11.625 0.0
v -7.0 -11.625 0.0
v -7.0 -9.077148 3.083984
v -11.0 -9.077148 3.083984
v -10.0 -10.0 0.0
v -8.0 -10.0 0.0
v -8.0 -8.0 0.0
v -10.0 -8.0 0.0
v -11.0 -9.625 0.0
v -7.0 -9.625 0.0
v -7.0 -7.077149 3.083984
v -11.0 -7.077149 3.083984
v -10.0 -8.0 0.0
v -8.0 -8.0 0.0
v -8.0 -6.0 0.0
v -10.0 -6.0 0.0
v -11.0 -7.625 0.0
v -7.0 -7.625 0.0
v -7.0 -5.077149 3.083984
v -11.0 -5.077149 3.083984
v -10.0 -6.0 0.0
v -8.0 -6.0 0.0
v -8.0 -4.0 0.0
v -10.0 -4.0 0.0
v -11.0 -5.625 0.0
v -7.0 -5.625 0.0
v -7.0 -3.077149 3.083984
v -11.0 -3.077149 3.083984
v -10.0 -4.0 0.0
v -8.0 -4.0 0.0
v -8.0 -2.0 0.0
v -10.0 -2.0 0.0
v -11.0 -3.625 0.0
v -7.0 -3.625 0.0
v -7.0 -1.0771489 3.083984
v -11.0 -1.0771489 3.083984
v -10.0 -2.0 0.0
v -8.0 -2.0 0.0
v -8.0 0.0 0.0
v -10.0 0.0 0.0
v -11.0 -1.625 0.0
v -7.0 -1.625 0.0
v -7.0 0.9228511 3.083984
v -11.0 0.9228511 3.083984
v -10.0 0.0 0.0
v -8.0 0.0 0.0
v -8.0 2.0 0.0
v -10.0 2.0 0.0
v -11.0 0.375 0.0
v -7.0 0.375 0.0
v -7.0 2.922851 3.083984
v -11.0 2.922851 3.083984
v -10.0 2.0 0.0
v -8.0 2.0 0.0
v -8.0 4.0 0.0
v -10.0 4.0 0.0
v -11.0 2.375 0.0
v -7.0 2.375 0.0
v -7.0 4.922851 3.083984
v -11.0 4.922851 3.083984
v -10.0 4.0 0.0
v -8.0 4.0 0.0
v -8.0 6.0 0.0
v -10.0 6.0 0.0
v -11.0 4.375 0.0
v -7.0 4.375 0.0
v -7.0 6.922851 3.083984
v -11.0 6.922851 3.083984
v -10.0 6.0 0.0
v -8.0 6.0 0.0
v -8.0 8.0 0.0
v -10.0 8.0 0.0
v -11.0 6.375 0.0
v -7.0 6.375 0.0
v -7.0 8.922852 3.083984
v -11.0 8.922852 3.083984
v -10.0 8.0 0.0
v -8.0 8.0 0.0
v -8.0 10.0 0.0
v -10.0 10.0 0.0
v -11.0 8.375 0.0
v -7.0 8.375 0.0
v -7.0 10.922852 3.083984
v -11.0 10.922852 3.083984
v -10.0 10.0 0.0
v -8.0 10.0 0.0
v -8.0 12.0 0.0
v -10.0 12.0 0.0
v -11.0 10.375 0.0
v -7.0 10.375 0.0
v -7.0 12.922852 3.083984
v -11.0 12.922852 3.083984
v -10.0 12.0 0.0
v -8.0 12.0 0.0
v -8.0 14.0 0.0
v -10.0 14.0 0.0
v -11.0 12.375 0.0
v -7.0 12.375 0.0
v -7.0 14.922852 3.083984
v -11.0 14.922852 3.083984
v -10.0 14.0 0.0
v -8.0 14.0 0.0
v -8.0 16.0 0.0
v -10.0 16.0 0.0
v -11.0 14.375 0.0
v -7.0 14.375 0.0
v -7.0 16.922852 3.083984
v -11.0 16.922852 3.083984
v -8.0 -16.0 0.0
v -6.0 -16.0 0.0
v -6.0 -14.0 0.0
v -8.0 -14.0 0.0
v -9.0 -15.625 0.0
v -5.0 -15.625 0.0
v -5.0 -13.077148 3.083984
v -9.0 -13.077148 3.083984
v -8.0 -14.0 0.0
v -6.0 -14.0 0.0
v -6.0 -12.0 0.0
v -8.0 -12.0 0.0
v -9.0 -13.625 0.0
v -5.0 -13.625 0.0
v -5.0 -11.077148 3.083984
v -9.0 -11.077148 3.083984
v -8.0 -12.0 0.0
v -6.0 -12.0 0.0
v -6.0 -10.0 0.0
v -8.0 -10.0 0.0
v -9.0 -11.625 0.0
v -5.0 -11.625 0.0
v -5.0 -9.077148 3.083984
v -9.0 -9.077148 3.083984
v -8.0 -10.0 0.0
v -6.0 -10.0 0.0
v -6.0 -8.0 0.0
v -8.0 -8.0 0.0
v -9.0 -9.625 0.0
v -5.0 -9.625 0.0
v -5.0 -7.077149 3.083984
v -9.0 -7.077149 3.083984
v -8.0 -8.0 0.0
v -6.0 -8.0 0.0
v -6.0 -6.0 0.0
v -8.0 -6.0 0.0
v -9.0 -7.625 0.0
v -5.0 -7.625 0.0
v -5.0 -5.077149 3.083984
v -9.0 -5.077149 3.083984
v -8.0 -6.0 0.0
v -6.0 -6.0 0.0
v -6.0 -4.0 0.0
v -8.0 -4.0 0.0
v -9.0 -5.625 0.0
v -5.0 -5.625 0.0
v -5.0 -3.077149 3.083984
v -9.0 -3.077149 3.083984
v -8.0 -4.0 0.0
v -6.0 -4.0 0.0
v -6.0 -2.0 0.0
v -8.0 -2.0 0.0
v -9.0 -3.625 0.0
v -5.0 -3.625 0.0
v -5.0 -1.0771489 3.083984
v -9.0 -1.0771489 3.083984
v -8.0 -2.0 0.0
v -6.0 -2.0 0.0
v -6.0 0.0 0.0
v -8.0 0.0 0.0
v -9.0 -1.625 0.0
v -5.0 -1.625 0.0
v -5.0 0.9228511 3.083984
v -9.0 0.9228511 3.083984
v -8.0 0.0 0.0
v -6.0 0.0 0.0
v -6.0 2.0 0.0
v -8.0 2.0 0.0
v -9.0 0.375 0.0
v -5.0 0.375 0.0
v -5.0 2.922851 3.083984
v -9.0 2.922851 3.083984
v -8.0 2.0 0.0
v -6.0 2.0 0.0
v -6.0 4.0 0.0
v -8.0 4.0 0.0
v -9.0 2.375 0.0
v -5.0 2.375 0.0
v -5.0 4.922851 3.083984
v -9.0 4.922851 3.083984
v -8.0 4.0 0.0
v -6.0 4.0 0.0
v -6.0 6.0 0.0
v -8.0 6.0 0.0
v -9.0 4.375 0.0
v -5.0 4.375 0.0
v -5.0 6.922851 3.083984
v -9.0 6.922851 3.083984
v -8.0 6.0 0.0
v -6.0 6.0 0.0
v -6.0 8.0 0.0
v -8.0 8.0 0.0
v -9.0 6.375 0.0
v -5.0 6.375 0.0
v -5.0 8.922852 3.083984
v -9.0 8.922852 3.083984
v -8.0 8.0 0.0
v -6.0 8.0 0.0
v -6.0 10.0 0.0
v -8.0 10.0 0.0
v -9.0 8.375 0.0
v -5.0 8.375 0.0
v -5.0 10.922852 3.083984
v -9.0 10.922852 3.083984
v -8.0 10.0 0.0
v -6.0 10.0 0.0
v -6.0 12.0 0.0
v -8.0 12.0 0.0
v -9.0 10.375 0.0
v -5.0 10.375 0.0
v -5.0 12.922852 3.083984
v -9.0 12.922852 3.083984
v -8.0 12.0 0.0
v -6.0 12.0 0.0
v -6.0 14.0 0.0
v -8.0 14.0 0.0
v -9.0 12.375 0.0
v -5.0 12.375 0.0
v -5.0 14.922852 3.083984
v -9.0 14.922852 3.083984
v -8.0 14.0 0.0
v -6.0 14.0 0.0
v -6.0 16.0 0.0
v -8.0 16.0 0.0
v -9.0 14.375 0.0
v -5.0 14.375 0.0
v -5.0 16.922852 3.083984
v -9.0 16.922852 3.083984
v -6.0 -16.0 0.0
v -4.0 -16.0 0.0
v -4.0 -14.0 0.0
v -6.0 -14.0 0.0
v -7.0 -15.625 0.0
v -3.0 -15.625 0.0
v -3.0 -13.077148 3.083984
v -7.0 -13.077148 3.083984
v -6.0 -14.0 0.0
v -4.0 -14.0 0.0
v -4.0 -12.0 0.0
v -6.0 -12.0 0.0
v -7.0 -13.625 0.0
v -3.0 -13.625 0.0
v -3.0 -11.077148 3.083984
v -7.0 -11.077148 3.083984
v -6.0 -12.0 0.0
v -4.0 -12.0 0.0
v -4.0 -10.0 0.0
v -6.0 -10.0 0.0
v -7.0 -11.625 0.0
v -3.0 -11.625 0.0
v -3.0 -9.077148 3.083984
v -7.0 -9.077148 3.083984
v -6.0 -10.0 0.0
v -4.0 -10.0 0.0
v -4.0 -8.0 0.0
v -6.0 -8.0 0.0
v -7.0 -9.625 0.0
v -3.0 -9.625 0.0
v -3.0 -7.077149 3.083984
v -7.0 -7.077149 3.083984
v -6.0 -8.0 0.0
v -4.0 -8.0 0.0
v -4.0 -6.0 0.0
v -6.0 -6.0 0.0
v -7.0 -7.625 0.0
v -3.0 -7.625 0.0
v -3.0 -5.077149 3.083984
v -7.0 -5.077149 3.083984
v -6.0 -6.0 0.0
v -4.0 -6.0 0.0
v -4.0 -4.0 0.0
v -6.0 -4.0 0.0
v -7.0 -5.625 0.0
v -3.0 -5.625 0.0
v -3.0 -3.077149 3.083984
v -7.0 -3.077149 3.083984
v -6.0 -4.0 0.0
v -4.0 -4.0 0.0
v -4.0 -2.0 0.0
v -6.0 -2.0 0.0
v -7.0 -3.625 0.0
v -3.0 -3.625 0.0
v -3.0 -1.0771489 3.083984
v -7.0 -1.0771489 3.083984
v -6.0 -2.0 0.0
v -4.0 -2.0 0.0
v -4.0 0.0 0.0
v -6.0 0.0 0.0
v -7.0 -1.625 0.0
v -3.0 -1.625 0.0
v -3.0 0.9228511 3.083984
v -7.0 0.9228511 3.083984
v -6.0 0.0 0.0
v -4.0 0.0 0.0
v -4.0 2.0 0.0
v -6.0 2.0 0.0
v -7.0 0.375 0.0
v -3.0 0.375 0.0
v -3.0 2.922851 3.083984
v -7.0 2.922851 3.083984
v -6.0 2.0 0.0
v -4.0 2.0 0.0
v -4.0 4.0 0.0
v -6.0 4.0 0.0
v -7.0 2.375 0.0
v -3.0 2.375 0.0
v -3.0 4.922851 3.083984
v -7.0 4.922851 3.083984
v -6.0 4.0 0.0
v -4.0 4.0 0.0
v -4.0 6.0 0.0
v -6.0 6.0 0.0
v -7.0 4.375 0.0
v -3.0 4.375 0.0
v -3.0 6.922851 3.083984
v -7.0 6.922851 3.083984
v -6.0 6.0 0.0
v -4.0 6.0 0.0
v -4.0 8.0 0.0
v -6.0 8.0 0.0
v -7.0 6.375 0.0
v -3.0 6.375 0.0
v -3.0 8.922852 3.083984
v -7.0 8.922852 3.083984
v -6.0 8.0 0.0
v -4.0 8.0 0.0
v -4.0 10.0 0.0
v -6.0 10.0 0.0
v -7.0 8.375 0.0
v -3.0 8.375 0.0
v -3.0 10.922852 3.083984
v -7.0 10.922852 3.083984
v -6.0 10.0 0.0
v -4.0 10.0 0.0
v -4.0 12.0 0.0
v -6.0 12.0 0.0
v -7.0 10.375 0.0
v -3.0 10.375 0.0
v -3.0 12.922852 3.083984
v -7.0 12.922852 3.083984
v -6.0 12.0 0.0
v -4.0 12.0 0.0
v -4.0 14.0 0.0
v -6.0 14.0 0.0
v -7.0 12.375 0.0
v -3.0 12.375 0.0
v -3.0 14.922852 3.083984
v -7.0 14.922852 3.083984
v -6.0 14.0 0.0
v -4.0 14.0 0.0
v -4.0 16.0 0.0
v -6.0 16.0 0.0
v -7.0 14.375 0.0
v -3.0 14.375 0.0
v -3.0 16.922852 3.083984
v -7.0 16.922852 3.083984
v -4.0 -16.0 0.0
v -2.0 -16.0 0.0
v -2.0 -14.0 0.0
v -4.0 -14.0 0.0
v -5.0 -15.625 0.0
v -1.0 -15.625 0.0
v -1.0 -13.077148 3.083984
v -5.0 -13.077148 3.083984
v -4.0 -14.0 0.0
v -2.0 -14.0 0.0
v -2.0 -12.0 0.0
v -4.0 -12.0 0.0
v -5.0 -13.625 0.0
v -1.0 -13.625 0.0
v -1.0 -11.077148 3.083984
v -5.0 -11.077148 3.083984
v -4.0 -12.0 0.0
v -2.0 -12.0 0.0
v -2.0 -10.0 0.0
v -4.0 -10.0 0.0
v -5.0 -11.625 0.0
v -1.0 -11.625 0.0
v -1.0 -9.077148 3.083984
v -5.0 -9.077148 3.083984
v -4.0 -10.0 0.0
v -2.0 -10.0 0.0
v -2.0 -8.0 0.0
v -4.0 -8.0 0.0
v -5.0 -9.625 0.0
v -1.0 -9.625 0.0
v -1.0 -7.077149 3.083984
v -5.0 -7.077149 3.083984
v -4.0 -8.0 0.0
v -2.0 -8.0 0.0
v -2.0 -6.0 0.0
v -4.0 -6.0 0.0
v -5.0 -7.625 0.0
v -1.0 -7.625 0.0
v -1.0 -5.077149 3.083984
v -5.0 -5.077149 3.083984
v -4.0 -6.0 0.0
v -2.0 -6.0 0.0
v -2.0 -4.0 0.0
v -4.0 -4.0 0.0
v -5.0 -5.625 0.0
v -1.0 -5.625 0.0
v -1.0 -3.077149 3.083984
v -5.0 -3.077149 3.083984
v -4.0 -4.0 0.0
v -2.0 -4.0 0.0
v -2.0 -2.0 0.0
v -4.0 -2.0 0.0
v -5.0 -3.625 0.0
v -1.0 -3.625 0.0
v -1.0 -1.0771489 3.083984
v -5.0 -1.0771489 3.083984
v -4.0 -2.0 0.0
v -2.0 -2.0 0.0
v -2.0 0.0 0.0
v -4.0 0.0 0.0
v -5.0 -1.625 0.0
v -1.0 -1.625 0.0
v -1.0 0.9228511 3.083984
v -5.0 0.9228511 3.083984
v -4.0 0.0 0.0
v -2.0 0.0 0.0
v -2.0 2.0 0.0
v -4.0 2.0 0.0
v -5.0 0.375 0.0
v -1.0 0.375 0.0
v -1.0 2.922851 3.083984
v -5.0 2.922851 3.083984
v -4.0 2.0 0.0
v -2.0 2.0 0.0
v -2.0 4.0 0.0
v -4.0 4.0 0.0
v -5.0 2.375 0.0
v -1.0 2.375 0.0
v -1.0 4.922851 3.083984
v -5.0 4.922851 3.083984
v -4.0 4.0 0.0
v -2.0 4.0 0.0
v -2.0 6.0 0.0
v -4.0 6.0 0.0
v -5.0 4.375 0.0
v -1.0 4.375 0.0
v -1.0 6.922851 3.083984
v -5.0 6.922851 3.083984
v -4.0 6.0 0.0
v -2.0 6.0 0.0
v -2.0 8.0 0.0
v -4.0 8.0 0.0
v -5.0 6.375 0.0
v -1.0 6.375 0.0
v -1.0 8.922852 3.083984
v -5.0 8.922852 3.083984
v -4.0 8.0 0.0
v -2.0 8.0 0.0
v -2.0 10.0 0.0
v -4.0 10.0 0.0
v -5.0 8.375 0.0
v -1.0 8.375 0.0
v -1.0 10.922852 3.083984
v -5.0 10.922852 3.083984
v -4.0 10.0 0.0
v -2.0 10.0 0.0
v -2.0 12.0 0.0
v -4.0 12.0 0.0
v -5.0 10.375 0.0
v -1.0 10.375 0.0
v -1.0 12.922852 3.083984
v -5.0 12.922852 3.083984
v -4.0 12.0 0.0
v -2.0 12.0 0.0
v -2.0 14.0 0.0
v -4.0 14.0 0.0
v -5.0 12.375 0.0
v -1.0 12.375 0.0
v -1.0 14.922852 3.083984
v -5.0 14.922852 3.083984
v -4.0 14.0 0.0
v -2.0 14.0 0.0
v -2.0 16.0 0.0
v -4.0 16.0 0.0
v -5.0 14.375 0.0
v -1.0 14.375 0.0
v -1.0 16.922852 3.083984
v -5.0 16.922852 3.083984
v -2.0 -16.0 0.0
v 0.0 -16.0 0.0
v 0.0 -14.0 0.0
v -2.0 -14.0 0.0
v -3.0 -15.625 0.0
v 1.0 -15.625 0.0
v 1.0 -13.077148 3.083984
v -3.0 -13.077148 3.083984
v -2.0 -14.0 0.0
v 0.0 -14.0 0.0
v 0.0 -12.0 0.0
v -2.0 -12.0 0.0
v -3.0 -13.625 0.0
v 1.0 -13.625 0.0
v 1.0 -11.077148 3.083984
v -3.0 -11.077148 3.083984
v -2.0 -12.0 0.0
v 0.0 -12.0 0.0
v 0.0 -10.0 0.0
v -2.0 -10.0 0.0
v -3.0 -11.625 0.0
v 1.0 -11.625 0.0
v 1.0 -9.077148 3.083984
v -3.0 -9.077148 3.083984
v -2.0 -10.0 0.0
v 0.0 -10.0 0.0
v 0.0 -8.0 0.0
v -2.0 -8.0 0.0
v -3.0 -9.625 0.0
v 1.0 -9.625 0.0
v 1.0 -7.077149 3.083984
v -3.0 -7.077149 3.083984
v -2.0 -8.0 0.0
v 0.0 -8.0 0.0
v 0.0 -6.0 0.0
v -2.0 -6.0 0.0
v -3.0 -7.625 0.0
v 1.0 -7.625 0.0
v 1.0 -5.077149 3.083984
v -3.0 -5.077149 3.083984
v -2.0 -6.0 0.0
v 0.0 -6.0 0.0
v 0.0 -4.0 0.0
v -2.0 -4.0 0.0
v -3.0 -5.625 0.0
v 1.0 -5.625 0.0
v 1.0 -3.077149 3.083984
v -3.0 -3.077149 3.083984
v -2.0 -4.0 0.0
v 0.0 -4.0 0.0
v 0.0 -2.0 0.0
v -2.0 -2.0 0.0
v -3.0 -3.625 0.0
v 1.0 -3.625 0.0
v 1.0 -1.0771489 3.083984
v -3.0 -1.0771489 3.083984
v -2.0 -2.0 0.0
v 0.0 -2.0 0.0
v 0.0 0.0 0.0
v -2.0 0.0 0.0
v -3.0 -1.625 0.0
v 1.0 -1.625 0.0
v 1.0 0.9228511 3.083984
v -3.0 0.9228511 3.083984
v -2.0 0.0 0.0
v 0.0 0.0 0.0
v 0.0 2.0 0.0
v -2.0 2.0 0.0
v -3.0 0.375 0.0
v 1.0 0.375 0.0
v 1.0 2.922851 3.083984
v -3.0 2.922851 3.083984
v -2.0 2.0 0.0
v 0.0 2.0 0.0
v 0.0 4.0 0.0
v -2.0 4.0 0.0
v -3.0 2.375 0.0
v 1.0 2.375 0.0
v 1.0 4.922851 3.083984
v -3.0 4.922851 3.083984
v -2.0 4.0 0.0
v 0.0 4.0 0.0
v 0.0 6.0 0.0
v -2.0 6.0 0.0
v -3.0 4.375 0.0
v 1.0 4.375 0.0
v 1.0 6.922851 3.083984
v -3.0 6.922851 3.083984
v -2.0 6.0 0.0
v 0.0 6.0 0.0
v 0.0 8.0 0.0
v -2.0 8.0 0.0
v -3.0 6.375 0.0
v 1.0 6.375 0.0
v 1.0 8.922852 3.083984
v -3.0 8.922852 3.083984
v -2.0 8.0 0.0
v 0.0 8.0 0.0
v 0.0 10.0 0.0
v -2.0 10.0 0.0
v -3.0 8.375 0.0
v 1.0 8.375 0.0
v 1.0 10.922852 3.083984
v -3.0 10.922852 3.083984
v -2.0 10.0 0.0
v 0.0 10.0 0.0
v 0.0 12.0 0.0
v -2.0 12.0 0.0
v -3.0 10.375 0.0
v 1.0 10.375 0.0
v 1.0 12.922852 3.083984
v -3.0 12.922852 3.083984
v -2.0 12.0 0.0
v 0.0 12.0 0.0
v 0.0 14.0 0.0
v -2.0 14.0 0.0
v -3.0 12.375 0.0
v 1.0 12.375 0.0
v 1.0 14.922852 3.083984
v -3.0 14.922852 3.083984
v -2.0 14.0 0.0
v 0.0 14.0 0.0
v 0.0 16.0 0.0
v -2.0 16.0 0.0
v -3.0 14.375 0.0
v 1.0 14.375 0.0
v 1.0 16.922852 3.083984
v -3.0 16.922852 3.083984
v 0.0 -16.0 0.0
v 2.0 -16.0 0.0
v 2.0 -14.0 0.0
v 0.0 -14.0 0.0
v -1.0 -15.625 0.0
v 3.0 -15.625 0.0
v 3.0 -13.077148 3.083984
v -1.0 -13.077148 3.083984
v 0.0 -14.0 0.0
v 2.0 -14.0 0.0
v 2.0 -12.0 0.0
v 0.0 -12.0 0.0
v -1.0 -13.625 0.0
v 3.0 -13.625 0.0
v 3.0 -11.077148 3.083984
v -1.0 -11.077148 3.083984
v 0.0 -12.0 0.0
v 2.0 -12.0 0.0
v 2.0 -10.0 0.0
v 0.0 -10.0 0.0
v -1.0 -11.625 0.0
v 3.0 -11.625 0.0
v 3.0 -9.077148 3.083984
v -1.0 -9.077148 3.083984
v 0.0 -10.0 0.0
v 2.0 -10.0 0.0
v 2.0 -8.0 0.0
v 0.0 -8.0 0.0
v -1.0 -9.625 0.0
v 3.0 -9.625 0.0
v 3.0 -7.077149 3.083984
v -1.0 -7.077149 3.083984
v 0.0 -8.0 0.0
v 2.0 -8.0 0.0
v 2.0 -6.0 0.0
v 0.0 -6.0 0.0
v -1.0 -7.625 0.0
v 3.0 -7.625 0.0
v 3.0 -5.077149 3.083984
v -1.0 -5.077149 3.083984
v 0.0 -6.0 0.0
v 2.0 -6.0 0.0
v 2.0 -4.0 0.0
v 0.0 -4.0 0.0
v -1.0 -5.625 0.0
v 3.0 -5.625 0.0
v 3.0 -3.077149 3.083984
v -1.0 -3.077149 3.083984
v 0.0 -4.0 0.0
v 2.0 -4.0 0.0
v 2.0 -2.0 0.0
v 0.0 -2.0 0.0
v -1.0 -3.625 0.0
v 3.0 -3.625 0.0
v 3.0 -1.0771489 3.083984
v -1.0 -1.0771489 3.083984
v 0.0 -2.0 0.0
v 2.0 -2.0 0.0
v 2.0 0.0 0.0
v 0.0 0.0 0.0
v -1.0 -1.625 0.0
v 3.0 -1.625 0.0
v 3.0 0.9228511 3.083984
v -1.0 0.9228511 3.083984
v 0.0 0.0 0.0
v 2.0 0.0 0.0
v 2.0 2.0 0.0
v 0.0 2.0 0.0
v -1.0 0.375 0.0
v 3.0 0.375 0.0
v 3.0 2.922851 3.083984
v -1.0 2.922851 3.083984
v 0.0 2.0 0.0
v 2.0 2.0 0.0
v 2.0 4.0 0.0
v 0.0 4.0 0.0
v -1.0 2.375 0.0
v 3.0 2.375 0.0
v 3.0 4.922851 3.083984
v -1.0 4.922851 3.083984
v 0.0 4.0 0.0
v 2.0 4.0 0.0
v 2.0 6.0 0.0
v 0.0 6.0 0.0
v -1.0 4.375 0.0
v 3.0 4.375 0.0
v 3.0 6.922851 3.083984
v -1.0 6.922851 3.083984
v 0.0 6.0 0.0
v 2.0 6.0 0.0
v 2.0 8.0 0.0
v 0.0 8.0 0.0
v -1.0 6.375 0.0
v 3.0 6.375 0.0
v 3.0 8.922852 3.083984
v -1.0 8.922852 3.083984
v 0.0 8.0 0.0
v 2.0 8.0 0.0
v 2.0 10.0 0.0
v 0.0 10.0 0.0
v -1.0 8.375 0.0
v 3.0 8.375 0.0
v 3.0 10.922852 3.083984
v -1.0 10.922852 3.083984
v 0.0 10.0 0.0
v 2.0 10.0 0.0
v 2.0 12.0 0.0
v 0.0 12.0 0.0
v -1.0 10.375 0.0
v 3.0 10.375 0.0
v 3.0 12.922852 3.083984
v -1.0 12.922852 3.083984
v 0.0 12.0 0.0
v 2.0 12.0 0.0
v 2.0 14.0 0.0
v 0.0 14.0 0.0
v -1.0 12.375 0.0
v 3.0 12.375 0.0
v 3.0 14.922852 3.083984
v -1.0 14.922852 3.083984
v 0.0 14.0 0.0
v 2.0 14.0 0.0
v 2.0 16.0 0.0
v 0.0 16.0 0.0
v -1.0 14.375 0.0
v 3.0 14.375 0.0
v 3.0 16.922852 3.083984
v -1.0 16.922852 3.083984
v 2.0 -16.0 0.0
v 4.0 -16.0 0.0
v 4.0 -14.0 0.0
v 2.0 -14.0 0.0
v 1.0 -15.625 0.0
v 5.0 -15.625 0.0
v 5.0 -13.077148 3.083984
v 1.0 -13.077148 3.083984
v 2.0 -14.0 0.0
v 4.0 -14.0 0.0
v 4.0 -12.0 0.0
v 2.0 -12.0 0.0
v 1.0 -13.625 0.0
v 5.0 -13.625 0.0
v 5.0 -11.077148 3.083984
v 1.0 -11.077148 3.083984
v 2.0 -12.0 0.0
v 4.0 -12.0 0.0
v 4.0 -10.0 0.0
v 2.0 -10.0 0.0
v 1.0 -11.625 0.0
v 5.0 -11.625 0.0
v 5.0 -9.077148 3.083984
v 1.0 -9.077148 3.083984
v 2.0 -10.0 0.0
v 4.0 -10.0 0.0
v 4.0 -8.0 0.0
v 2.0 -8.0 0.0
v 1.0 -9.625 0.0
v 5.0 -9.625 0.0
v 5.0 -7.077149 3.083984
v 1.0 -7.077149 3.083984
v 2.0 -8.0 0.0
v 4.0 -8.0 0.0
v 4.0 -6.0 0.0
v 2.0 -6.0 0.0
v 1.0 -7.625 0.0
v 5.0 -7.625 0.0
v 5.0 -5.077149 3.083984
v 1.0 -5.077149 3.083984
v 2.0 -6.0 0.0
v 4.0 -6.0 0.0
v 4.0 -4.0 0.0
v 2.0 -4.0 0.0
v 1.0 -5.625 0.0
v 5.0 -5.625 0.0
v 5.0 -3.077149 3.083984
v 1.0 -3.077149 3.083984
v 2.0 -4.0 0.0
v 4.0 -4.0 0.0
v 4.0 -2.0 0.0
v 2.0 -2.0 0.0
v 1.0 -3.625 0.0
v 5.0 -3.625 0.0
v 5.0 -1.0771489 3.083984
v 1.0 -1.0771489 3.083984
v 2.0 -2.0 0.0
v 4.0 -2.0 0.0
v 4.0 0.0 0.0
v 2.0 0.0 0.0
v 1.0 -1.625 0.0
v 5.0 -1.625 0.0
v 5.0 0.9228511 3.083984
v 1.0 0.9228511 3.083984
v 2.0 0.0 0.0
v 4.0 0.0 0.0
v 4.0 2.0 0.0
v 2.0 2.0 0.0
v 1.0 0.375 0.0
v 5.0 0.375 0.0
v 5.0 2.922851 3.083984
v 1.0 2.922851 3.083984
v 2.0 2.0 0.0
v 4.0 2.0 0.0
v 4.0 4.0 0.0
v 2.0 4.0 0.0
v 1.0 2.375 0.0
v 5.0 2.375 0.0
v 5.0 4.922851 3.083984
v 1.0 4.922851 3.083984
v 2.0 4.0 0.0
v 4.0 4.0 0.0
v 4.0 6.0 0.0
v 2.0 6.0 0.0
v 1.0 4.375 0.0
v 5.0 4.375 0.0
v 5.0 6.922851 3.083984
v 1.0 6.922851 3.083984
v 2.0 6.0 0.0
v 4.0 6.0 0.0
v 4.0 8.0 0.0
v 2.0 8.0 0.0
v 1.0 6.375 0.0
v 5.0 6.375 0.0
v 5.0 8.922852 3.083984
v 1.0 8.922852 3.083984
v 2.0 8.0 0.0
v 4.0 8.0 0.0
v 4.0 10.0 0.0
v 2.0 10.0 0.0
v 1.0 8.375 0.0
v 5.0 8.375 0.0
v 5.0 10.922852 3.083984
v 1.0 10.922852 3.083984
v 2.0 10.0 0.0
v 4.0 10.0 0.0
v 4.0 12.0 0.0
v 2.0 12.0 0.0
v 1.0 10.375 0.0
v 5.0 10.375 0.0
v 5.0 12.922852 3.083984
v 1.0 12.922852 3.083984
v 2.0 12.0 0.0
v 4.0 12.0 0.0
v 4.0 14.0 0.0
v 2.0 14.0 0.0
v 1.0 12.375 0.0
v 5.0 12.375 0.0
v 5.0 14.922852 3.083984
v 1.0 14.922852 3.083984
v 2.0 14.0 0.0
v 4.0 14.0 0.0
v 4.0 16.0 0.0
v 2.0 16.0 0.0
v 1.0 14.375 0.0
v 5.0 14.375 0.0
v 5.0 16.922852 3.083984
v 1.0 16.922852 3.083984
v 7.0 -14.000002 1.0E-6
v 4.0 -14.000002 1.0E-6
v 4.0 -16.000002 1.0E-6
v 7.0 -16.000002 1.0E-6
v 4.0 -14.0 0.0
v 6.0 -14.0 0.0
v 6.0 -12.0 0.0
v 4.0 -12.0 0.0
v 3.0 -13.625 0.0
v 7.0 -13.625 0.0
v 7.0 -11.077148 3.083984
v 3.0 -11.077148 3.083984
v 4.0 -12.0 0.0
v 6.0 -12.0 0.0
v 6.0 -10.0 0.0
v 4.0 -10.0 0.0
v 3.0 -11.625 0.0
v 7.0 -11.625 0.0
v 7.0 -9.077148 3.083984
v 3.0 -9.077148 3.083984
v 4.0 -10.0 0.0
v 6.0 -10.0 0.0
v 6.0 -8.0 0.0
v 4.0 -8.0 0.0
v 3.0 -9.625 0.0
v 7.0 -9.625 0.0
v 7.0 -7.077149 3.083984
v 3.0 -7.077149 3.083984
v 4.0 -8.0 0.0
v 6.0 -8.0 0.0
v 6.0 -6.0 0.0
v 4.0 -6.0 0.0
v 3.0 -7.625 0.0
v 7.0 -7.625 0.0
v 7.0 -5.077149 3.083984
v 3.0 -5.077149 3.083984
v 4.0 -6.0 0.0
v 6.0 -6.0 0.0
v 6.0 -4.0 0.0
v 4.0 -4.0 0.0
v 3.0 -5.625 0.0
v 7.0 -5.625 0.0
v 7.0 -3.077149 3.083984
v 3.0 -3.077149 3.083984
v 4.0 -4.0 0.0
v 6.0 -4.0 0.0
v 6.0 -2.0 0.0
v 4.0 -2.0 0.0
v 3.0 -3.625 0.0
v 7.0 -3.625 0.0
v 7.0 -1.0771489 3.083984
v 3.0 -1.0771489 3.083984
v 4.0 -2.0 0.0
v 6.0 -2.0 0.0
v 6.0 0.0 0.0
v 4.0 0.0 0.0
v 3.0 -1.625 0.0
v 7.0 -1.625 0.0
v 7.0 0.9228511 3.083984
v 3.0 0.9228511 3.083984
v 4.0 0.0 0.0
v 6.0 0.0 0.0
v 6.0 2.0 0.0
v 4.0 2.0 0.0
v 3.0 0.375 0.0
v 7.0 0.375 0.0
v 7.0 2.922851 3.083984
v 3.0 2.922851 3.083984
v 4.0 2.0 0.0
v 6.0 2.0 0.0
v 6.0 4.0 0.0
v 4.0 4.0 0.0
v 3.0 2.375 0.0
v 7.0 2.375 0.0
v 7.0 4.922851 3.083984
v 3.0 4.922851 3.083984
v 4.0 4.0 0.0
v 6.0 4.0 0.0
v 6.0 6.0 0.0
v 4.0 6.0 0.0
v 3.0 4.375 0.0
v 7.0 4.375 0.0
v 7.0 6.922851 3.083984
v 3.0 6.922851 3.083984
v 4.0 6.0 0.0
v 6.0 6.0 0.0
v 6.0 8.0 0.0
v 4.0 8.0 0.0
v 3.0 6.375 0.0
v 7.0 6.375 0.0
v 7.0 8.922852 3.083984
v 3.0 8.922852 3.083984
v 4.0 8.0 0.0
v 6.0 8.0 0.0
v 6.0 10.0 0.0
v 4.0 10.0 0.0
v 3.0 8.375 0.0
v 7.0 8.375 0.0
v 7.0 10.922852 3.083984
v 3.0 10.922852 3.083984
v 4.0 10.0 0.0
v 6.0 10.0 0.0
v 6.0 12.0 0.0
v 4.0 12.0 0.0
v 3.0 10.375 0.0
v 7.0 10.375 0.0
v 7.0 12.922852 3.083984
v 3.0 12.922852 3.083984
v 4.0 12.0 0.0
v 6.0 12.0 0.0
v 6.0 14.0 0.0
v 4.0 14.0 0.0
v 3.0 12.375 0.0
v 7.0 12.375 0.0
v 7.0 14.922852 3.083984
v 3.0 14.922852 3.083984
v 4.0 14.0 0.0
v 6.0 14.0 0.0
v 6.0 16.0 0.0
v 4.0 16.0 0.0
v 3.0 14.375 0.0
v 7.0 14.375 0.0
v 7.0 16.922852 3.083984
v 3.0 16.922852 3.083984
v 6.0 -14.0 0.0
v 8.0 -14.0 0.0
v 8.0 -12.0 0.0
v 6.0 -12.0 0.0
v 5.0 -13.625 0.0
v 9.0 -13.625 0.0
v 9.0 -11.077148 3.083984
v 5.0 -11.077148 3.083984
v 6.0 -12.0 0.0
v 8.0 -12.0 0.0
v 8.0 -10.0 0.0
v 6.0 -10.0 0.0
v 5.0 -11.625 0.0
v 9.0 -11.625 0.0
v 9.0 -9.077148 3.083984
v 5.0 -9.077148 3.083984
v 6.0 -10.0 0.0
v 8.0 -10.0 0.0
v 8.0 -8.0 0.0
v 6.0 -8.0 0.0
v 5.0 -9.625 0.0
v 9.0 -9.625 0.0
v 9.0 -7.077149 3.083984
v 5.0 -7.077149 3.083984
v 6.0 -8.0 0.0
v 8.0 -8.0 0.0
v 8.0 -6.0 0.0
v 6.0 -6.0 0.0
v 5.0 -7.625 0.0
v 9.0 -7.625 0.0
v 9.0 -5.077149 3.083984
v 5.0 -5.077149 3.083984
v 6.0 -6.0 0.0
v 8.0 -6.0 0.0
v 8.0 -4.0 0.0
v 6.0 -4.0 0.0
v 5.0 -5.625 0.0
v 9.0 -5.625 0.0
v 9.0 -3.077149 3.083984
v 5.0 -3.077149 3.083984
v 6.0 -4.0 0.0
v 8.0 -4.0 0.0
v 8.0 -2.0 0.0
v 6.0 -2.0 0.0
v 5.0 -3.625 0.0
v 9.0 -3.625 0.0
v 9.0 -1.0771489 3.083984
v 5.0 -1.0771489 3.083984
v 6.0 -2.0 0.0
v 8.0 -2.0 0.0
v 8.0 0.0 0.0
v 6.0 0.0 0.0
v 5.0 -1.625 0.0
v 9.0 -1.625 0.0
v 9.0 0.9228511 3.083984
v 5.0 0.9228511 3.083984
v 6.0 0.0 0.0
v 8.0 0.0 0.0
v 8.0 2.0 0.0
v 6.0 2.0 0.0
v 5.0 0.375 0.0
v 9.0 0.375 0.0
v 9.0 2.922851 3.083984
v 5.0 2.922851 3.083984
v 6.0 2.0 0.0
v 8.0 2.0 0.0
v 8.0 4.0 0.0
v 6.0 4.0 0.0
v 5.0 2.375 0.0
v 9.0 2.375 0.0
v 9.0 4.922851 3.083984
v 5.0 4.922851 3.083984
v 6.0 4.0 0.0
v 8.0 4.0 0.0
v 8.0 6.0 0.0
v 6.0 6.0 0.0
v 5.0 4.375 0.0
v 9.0 4.375 0.0
v 9.0 6.922851 3.083984
v 5.0 6.922851 3.083984
v 6.0 6.0 0.0
v 8.0 6.0 0.0
v 8.0 8.0 0.0
v 6.0 8.0 0.0
v 5.0 6.375 0.0
v 9.0 6.375 0.0
v 9.0 8.922852 3.083984
v 5.0 8.922852 3.083984
v 6.0 8.0 0.0
v 8.0 8.0 0.0
v 8.0 10.0 0.0
v 6.0 10.0 0.0
v 5.0 8.375 0.0
v 9.0 8.375 0.0
v 9.0 10.922852 3.083984
v 5.0 10.922852 3.083984
v 6.0 10.0 0.0
v 8.0 10.0 0.0
v 8.0 12.0 0.0
v 6.0 12.0 0.0
v 5.0 10.375 0.0
v 9.0 10.375 0.0
v 9.0 12.922852 3.083984
v 5.0 12.922852 3.083984
v 6.0 12.0 0.0
v 8.0 12.0 0.0
v 8.0 14.0 0.0
v 6.0 14.0 0.0
v 5.0 12.375 0.0
v 9.0 12.375 0.0
v 9.0 14.922852 3.083984
v 5.0 14.922852 3.083984
v 6.0 14.0 0.0
v 8.0 14.0 0.0
v 8.0 16.0 0.0
v 6.0 16.0 0.0
v 5.0 14.375 0.0
v 9.0 14.375 0.0
v 9.0 16.922852 3.083984
v 5.0 16.922852 3.083984
v 15.0 -14.000002 2.000001
v 7.0 -14.000002 2.000001
v 7.0 -16.000002 2.000001
v 15.0 -16.000002 2.000001
v 16.0 -11.000003 2.000001
v 8.0 -11.000003 2.000001
v 8.0 -14.000003 2.000001
v 16.0 -14.000003 2.000001
v 16.0 -10.2109375 1.098633
v 8.0 -10.2109375 1.098633
v 16.0 -10.669921 1.997071
v 8.0 -10.669921 1.997071
v 16.0 -10.999999 2.0
v 8.0 -10.999999 2.0
v 16.0 -9.999999 1.0
v 8.0 -9.999999 1.0
v 8.0 -10.2109375 1.098633
v 16.0 -10.2109375 1.098633
v 8.0 -10.0 0.0
v 10.0 -10.0 0.0
v 10.0 -8.0 0.0
v 8.0 -8.0 0.0
v 7.0 -9.625 0.0
v 11.0 -9.625 0.0
v 11.0 -7.077149 3.083984
v 7.0 -7.077149 3.083984
v 8.0 -8.0 0.0
v 10.0 -8.0 0.0
v 10.0 -6.0 0.0
v 8.0 -6.0 0.0
v 7.0 -7.625 0.0
v 11.0 -7.625 0.0
v 11.0 -5.077149 3.083984
v 7.0 -5.077149 3.083984
v 8.0 -6.0 0.0
v 10.0 -6.0 0.0
v 10.0 -4.0 0.0
v 8.0 -4.0 0.0
v 7.0 -5.625 0.0
v 11.0 -5.625 0.0
v 11.0 -3.077149 3.083984
v 7.0 -3.077149 3.083984
v 8.0 -4.0 0.0
v 10.0 -4.0 0.0
v 10.0 -2.0 0.0
v 8.0 -2.0 0.0
v 7.0 -3.625 0.0
v 11.0 -3.625 0.0
v 11.0 -1.0771489 3.083984
v 7.0 -1.0771489 3.083984
v 8.0 -2.0 0.0
v 10.0 -2.0 0.0
v 10.0 0.0 0.0
v 8.0 0.0 0.0
v 7.0 -1.625 0.0
v 11.0 -1.625 0.0
v 11.0 0.9228511 3.083984
v 7.0 0.9228511 3.083984
v 8.0 0.0 0.0
v 10.0 0.0 0.0
v 10.0 2.0 0.0
v 8.0 2.0 0.0
v 7.0 0.375 0.0
v 11.0 0.375 0.0
v 11.0 2.922851 3.083984
v 7.0 2.922851 3.083984
v 8.0 2.0 0.0
v 10.0 2.0 0.0
v 10.0 4.0 0.0
v 8.0 4.0 0.0
v 7.0 2.375 0.0
v 11.0 2.375 0.0
v 11.0 4.922851 3.083984
v 7.0 4.922851 3.083984
v 8.0 4.0 0.0
v 10.0 4.0 0.0
v 10.0 6.0 0.0
v 8.0 6.0 0.0
v 7.0 4.375 0.0
v 11.0 4.375 0.0
v 11.0 6.922851 3.083984
v 7.0 6.922851 3.083984
v 8.0 6.0 0.0
v 10.0 6.0 0.0
v 10.0 8.0 0.0
v 8.0 8.0 0.0
v 7.0 6.375 0.0
v 11.0 6.375 0.0
v 11.0 8.922852 3.083984
v 7.0 8.922852 3.083984
v 8.0 8.0 0.0
v 10.0 8.0 0.0
v 10.0 10.0 0.0
v 8.0 10.0 0.0
v 7.0 8.375 0.0
v 11.0 8.375 0.0
v 11.0 10.922852 3.083984
v 7.0 10.922852 3.083984
v 8.0 10.0 0.0
v 10.0 10.0 0.0
v 10.0 12.0 0.0
v 8.0 12.0 0.0
v 7.0 10.375 0.0
v 11.0 10.375 0.0
v 11.0 12.922852 3.083984
v 7.0 12.922852 3.083984
v 8.0 12.0 0.0
v 10.0 12.0 0.0
v 10.0 14.0 0.0
v 8.0 14.0 0.0
v 7.0 12.375 0.0
v 11.0 12.375 0.0
v 11.0 14.922852 3.083984
v 7.0 14.922852 3.083984
v 8.0 14.0 0.0
v 10.0 14.0 0.0
v 10.0 16.0 0.0
v 8.0 16.0 0.0
v 7.0 14.375 0.0
v 11.0 14.375 0.0
v 11.0 16.922852 3.083984
v 7.0 16.922852 3.083984
v 10.0 -10.0 0.0
v 12.0 -10.0 0.0
v 12.0 -8.0 0.0
v 10.0 -8.0 0.0
v 9.0 -9.625 0.0
v 13.0 -9.625 0.0
v 13.0 -7.077149 3.083984
v 9.0 -7.077149 3.083984
v 10.0 -8.0 0.0
v 12.0 -8.0 0.0
v 12.0 -6.0 0.0
v 10.0 -6.0 0.0
v 9.0 -7.625 0.0
v 13.0 -7.625 0.0
v 13.0 -5.077149 3.083984
v 9.0 -5.077149 3.083984
v 10.0 -6.0 0.0
v 12.0 -6.0 0.0
v 12.0 -4.0 0.0
v 10.0 -4.0 0.0
v 9.0 -5.625 0.0
v 13.0 -5.625 0.0
v 13.0 -3.077149 3.083984
v 9.0 -3.077149 3.083984
v 10.0 -4.0 0.0
v 12.0 -4.0 0.0
v 12.0 -2.0 0.0
v 10.0 -2.0 0.0
v 9.0 -3.625 0.0
v 13.0 -3.625 0.0
v 13.0 -1.0771489 3.083984
v 9.0 -1.0771489 3.083984
v 10.0 -2.0 0.0
v 12.0 -2.0 0.0
v 12.0 0.0 0.0
v 10.0 0.0 0.0
v 9.0 -1.625 0.0
v 13.0 -1.625 0.0
v 13.0 0.9228511 3.083984
v 9.0 0.9228511 3.083984
v 10.0 0.0 0.0
v 12.0 0.0 0.0
v 12.0 2.0 0.0
v 10.0 2.0 0.0
v 9.0 0.375 0.0
v 13.0 0.375 0.0
v 13.0 2.922851 3.083984
v 9.0 2.922851 3.083984
v 10.0 2.0 0.0
v 12.0 2.0 0.0
v 12.0 4.0 0.0
v 10.0 4.0 0.0
v 9.0 2.375 0.0
v 13.0 2.375 0.0
v 13.0 4.922851 3.083984
v 9.0 4.922851 3.083984
v 10.0 4.0 0.0
v 12.0 4.0 0.0
v 12.0 6.0 0.0
v 10.0 6.0 0.0
v 9.0 4.375 0.0
v 13.0 4.375 0.0
v 13.0 6.922851 3.083984
v 9.0 6.922851 3.083984
v 10.0 6.0 0.0
v 12.0 6.0 0.0
v 12.0 8.0 0.0
v 10.0 8.0 0.0
v 9.0 6.375 0.0
v 13.0 6.375 0.0
v 13.0 8.922852 3.083984
v 9.0 8.922852 3.083984
v 10.0 8.0 0.0
v 12.0 8.0 0.0
v 12.0 10.0 0.0
v 10.0 10.0 0.0
v 9.0 8.375 0.0
v 13.0 8.375 0.0
v 13.0 10.922852 3.083984
v 9.0 10.922852 3.083984
v 10.0 10.0 0.0
v 12.0 10.0 0.0
v 12.0 12.0 0.0
v 10.0 12.0 0.0
v 9.0 10.375 0.0
v 13.0 10.375 0.0
v 13.0 12.922852 3.083984
v 9.0 12.922852 3.083984
v 10.0 12.0 0.0
v 12.0 12.0 0.0
v 12.0 14.0 0.0
v 10.0 14.0 0.0
v 9.0 12.375 0.0
v 13.0 12.375 0.0
v 13.0 14.922852 3.083984
v 9.0 14.922852 3.083984
v 10.0 14.0 0.0
v 12.0 14.0 0.0
v 12.0 16.0 0.0
v 10.0 16.0 0.0
v 9.0 14.375 0.0
v 13.0 14.375 0.0
v 13.0 16.922852 3.083984
v 9.0 16.922852 3.083984
v 12.0 -10.0 1.0
v 14.0 -10.0 1.0
v 14.0 -8.0 1.0
v 12.0 -8.0 1.0
v 11.0 -9.625 1.0
v 15.0 -9.625 1.0
v 15.0 -7.077149 4.083984
v 11.0 -7.077149 4.083984
v 12.0 -7.210937 0.09863299
v 12.0 -7.669921 0.997071
v 14.0 -7.669921 0.997071
v 14.0 -7.210937 0.09863299
v 12.0 -7.999999 1.0
v 14.0 -7.999999 1.0
v 12.0 -7.210937 0.09863299
v 14.0 -7.210937 0.09863299
v 14.0 -6.999999 0.0
v 12.0 -6.999999 0.0
v 12.0 -7.0 0.0
v 14.0 -7.0 0.0
v 14.0 -5.0 0.0
v 12.0 -5.0 0.0
v 11.0 -6.625 0.0
v 15.0 -6.625 0.0
v 15.0 -4.077149 3.083984
v 11.0 -4.077149 3.083984
v 12.0 -5.0 0.0
v 14.0 -5.0 0.0
v 14.0 -3.0 0.0
v 12.0 -3.0 0.0
v 11.0 -4.625 0.0
v 15.0 -4.625 0.0
v 15.0 -2.077149 3.083984
v 11.0 -2.077149 3.083984
v 16.0 -3.0 0.0
v 16.0 -1.0 0.0
v 12.0 -1.0 0.0
v 12.0 -3.0 0.0
v 12.0 -1.0 0.0
v 14.0 -1.0 0.0
v 14.0 1.0 0.0
v 12.0 1.0 0.0
v 11.0 -0.625 0.0
v 15.0 -0.625 0.0
v 15.0 1.9228511 3.083984
v 11.0 1.9228511 3.083984
v 16.0 1.0 0.0
v 16.0 3.0 0.0
v 12.0 3.0 0.0
v 12.0 1.0 0.0
v 12.0 3.0 0.0
v 14.0 3.0 0.0
v 14.0 5.0 0.0
v 12.0 5.0 0.0
v 11.0 3.375 0.0
v 15.0 3.375 0.0
v 15.0 5.922851 3.083984
v 11.0 5.922851 3.083984
v 16.0 7.0 0.0
v 16.0 15.0 0.0
v 12.0 15.0 0.0
v 12.0 7.0 0.0
v 16.0 15.0 0.0
v 16.0 16.0 0.0
v 12.0 16.0 0.0
v 12.0 15.0 0.0
v 16.0 5.0 0.0
v 16.0 7.0 0.0
v 13.0 7.0 0.0
v 13.0 5.0 0.0
v 16.0 -9.125 1.125
v 14.0 -9.125 1.125
v 14.0 -10.125 1.125
v 16.0 -10.125 1.125
v 14.0 -9.0 1.0
v 16.0 -9.0 1.0
v 16.0 -7.0 1.0
v 14.0 -7.0 1.0
v 13.0 -8.625 1.0
v 17.0 -8.625 1.0
v 17.0 -6.077149 4.083984
v 13.0 -6.077149 4.083984
v 14.0 -7.0 0.0
v 16.0 -7.0 0.0
v 16.0 -5.0 0.0
v 14.0 -5.0 0.0
v 13.0 -6.625 0.0
v 17.0 -6.625 0.0
v 17.0 -4.077149 3.083984
v 13.0 -4.077149 3.083984
v 16.0 -5.0 0.0
v 16.0 -4.0 0.0
v 14.0 -4.0 0.0
v 14.0 -5.0 0.0
v 14.0 -4.0 0.0
v 15.0 -4.0 0.0
v 15.0 -3.0 0.0
v 14.0 -3.0 0.0
v 16.0 -1.0 0.0
v 16.0 1.0 0.0
v 14.0 1.0 0.0
v 14.0 -1.0 0.0
v 16.0 3.0 0.0
v 16.0 5.0 0.0
v 14.0 5.0 0.0
v 14.0 3.0 0.0
v 16.0 -14.000002 2.000001
v 15.0 -14.000002 2.000001
v 15.0 -16.000002 2.000001
v 16.0 -16.000002 2.000001
v 16.0 -4.0 0.0
v 16.0 -3.0 0.0
v 15.0 -3.0 0.0
v 15.0 -4.0 0.0
vt 1.0 -8.0
vt 2.0 -8.0
vt 2.0 0.0
vt 1.0 0.0
vt 1.0 -8.0
vt 2.0 -8.0
vt 2.0 0.0
vt 1.0 0.0
vt 1.0 -8.0
vt 2.0 -8.0
vt 2.0 0.0
vt 1.0 0.0
vt 1.0 -8.0
vt 2.0 -8.0
vt 2.0 0.0
vt 1.0 0.0
vt 3.0 -1.0
vt 6.0 -1.0
vt 6.0 0.0
vt 3.0 0.0
vt 1.0 0.0
vt 0.0 0.0
vt 0.0 -1.0
vt 1.0 -1.0
vt 1.0 0.0
vt 0.0 0.0
vt 0.0 -1.0
vt 1.0 -1.0
vt 1.0 0.0
vt 0.0 0.0
vt 0.0 -1.0
vt 1.0 -1.0
vt 1.0 0.0
vt 0.0 0.0
vt 0.0 -1.0
vt 1.0 -1.0
vt 1.0 0.0
vt 0.0 0.0
vt 0.0 -1.0
vt 1.0 -1.0
vt 1.0 0.0
vt 0.0 0.0
vt 0.0 -1.0
vt 1.0 -1.0
vt 1.0 0.0
vt 0.0 0.0
vt 0.0 -1.0
vt 1.0 -1.0
vt 1.0 0.0
vt 0.0 0.0
vt 0.0 -1.0
vt 1.0 -1.0
vt 1.0 0.0
vt 0.0 0.0
vt 0.0 -1.0
vt 1.0 -1.0
vt 1.0 0.0
vt 0.0 0.0
vt 0.0 -1.0
vt 1.0 -1.0
vt 3.0 -4.0
vt 6.0 -4.0
vt 6.0 0.0
vt 3.0 0.0
vt 1.0 0.0
vt 0.0 0.0
vt 0.0 -1.0
vt 1.0 -1.0
vt 1.0 0.0
vt 0.0 0.0
vt 0.0 -1.0
vt 1.0 -1.0
vt 1.0 0.0
vt 0.0 0.0
vt 0.0 -1.0
vt 1.0 -1.0
vt 1.0 0.0
vt 0.0 0.0
vt 0.0 -1.0
vt 1.0 -1.0
vt 1.0 0.0
vt 0.0 0.0
vt 0.0 -1.0
vt 1.0 -1.0
vt 1.0 0.0
vt 0.0 0.0
vt 0.0 -1.0
vt 1.0 -1.0
vt 1.0 0.0
vt 0.0 0.0
vt 0.0 -1.0
vt 1.0 -1.0
vt 1.0 0.0
vt 0.0 0.0
vt 0.0 -1.0
vt 1.0 -1.0
vt 1.0 0.0
vt 0.0 0.0
vt 0.0 -1.0
vt 1.0 -1.0
vt 1.0 0.0
vt 0.0 0.0
vt 0.0 -1.0
vt 1.0 -1.0
vt 1.0 0.0
vt 0.0 0.0
vt 0.0 -1.0
vt 1.0 -1.0
vt 1.0 0.0
vt 0.0 0.0
vt 0.0 -1.0
vt 1.0 -1.0
vt 1.0 0.0
vt 0.0 0.0
vt 0.0 -1.0
vt 1.0 -1.0
vt 1.0 0.0
vt 0.0 0.0
vt 0.0 -1.0
vt 1.0 -1.0
vt 1.0 0.0
vt 0.0 0.0
vt 0.0 -1.0
vt 1.0 -1.0
vt 1.0 0.0
vt 0.0 0.0
vt 0.0 -1.0
vt 1.0 -1.0
vt 3.0 -1.0
vt 6.0 -1.0
vt 6.0 0.0
vt 3.0 0.0
vt 1.0 -8.0
vt 2.0 -8.0
vt 2.0 0.0
vt 1.0 0.0
vt 1.0 -2.0
vt 2.0 -2.0
vt 2.0 0.0
vt 1.0 0.0
vt 1.0 -8.0
vt 2.0 -8.0
vt 2.0 0.0
vt 1.0 0.0
vt 1.0 -8.0
vt 2.0 -8.0
vt 2.0 0.0
vt 1.0 0.0
vt 1.0 0.0
vt 0.0 0.0
vt 0.0 -1.0
vt 1.0 -1.0
vt 1.0 0.0
vt 0.0 0.0
vt 0.0 -1.0
vt 1.0 -1.0
vt 1.0 0.0
vt 0.0 0.0
vt 0.0 -1.0
vt 1.0 -1.0
vt 1.0 0.0
vt 0.0 0.0
vt 0.0 -1.0
vt 1.0 -1.0
vt 1.0 0.0
vt 0.0 0.0
vt 0.0 -1.0
vt 1.0 -1.0
vt 1.0 0.0
vt 0.0 0.0
vt 0.0 -1.0
vt 1.0 -1.0
vt 1.0 0.0
vt 0.0 0.0
vt 0.0 -1.0
vt 1.0 -1.0
vt 1.0 0.0
vt 0.0 0.0
vt 0.0 -1.0
vt 1.0 -1.0
vt 1.0 0.0
vt 0.0 0.0
vt 0.0 -1.0
vt 1.0 -1.0
vt 1.0 0.0
vt 0.0 0.0
vt 0.0 -1.0
vt 1.0 -1.0
vt 1.0 0.0
vt 0.0 0.0
vt 0.0 -1.0
vt 1.0 -1.0
vt 1.0 0.0
vt 0.0 0.0
vt 0.0 -1.0
vt 1.0 -1.0
vt 1.0 0.0
vt 0.0 0.0
vt 0.0 -1.0
vt 1.0 -1.0
vt 1.0 0.0
vt 0.0 0.0
vt 0.0 -1.0
vt 1.0 -1.0
vt 1.0 0.0
vt 0.0 0.0
vt 0.0 -1.0
vt 1.0 -1.0
vt 1.0 0.0
vt 0.0 0.0
vt 0.0 -1.0
vt 1.0 -1.0
vt 1.0 0.0
vt 0.0 0.0
vt 0.0 -1.0
vt 1.0 -1.0
vt 1.0 0.0
vt 0.0 0.0
vt 0.0 -1.0
vt 1.0 -1.0
vt 1.0 0.0
vt 0.0 0.0
vt 0.0 -1.0
vt 1.0 -1.0
vt 1.0 0.0
vt 0.0 0.0
vt 0.0 -1.0
vt 1.0 -1.0
vt 1.0 0.0
vt 0.0 0.0
vt 0.0 -1.0
vt 1.0 -1.0
vt 1.0 0.0
vt 0.0 0.0
vt 0.0 -1.0
vt 1.0 -1.0
vt 1.0 0.0
vt 0.0 0.0
vt 0.0 -1.0
vt 1.0 -1.0
vt 1.0 0.0
vt 0.0 0.0
vt 0.0 -1.0
vt 1.0 -1.0
vt 1.0 0.0
vt 0.0 0.0
vt 0.0 -1.0
vt 1.0 -1.0
vt 1.0 0.0
vt 0.0 0.0
vt 0.0 -1.0
vt 1.0 -1.0
vt 1.0 0.0
vt 0.0 0.0
vt 0.0 -1.0
vt 1.0 -1.0
vt 1.0 0.0
vt 0.0 0.0
vt 0.0 -1.0
vt 1.0 -1.0
vt 1.0 0.0
vt 0.0 0.0
vt 0.0 -1.0
vt 1.0 -1.0
vt 1.0 0.0
vt 0.0 0.0
vt 0.0 -1.0
vt 1.0 -1.0
vt 1.0 0.0
vt 0.0 0.0
vt 0.0 -1.0
vt 1.0 -1.0
vt 1.0 0.0
vt 0.0 0.0
vt 0.0 -1.0
vt 1.0 -1.0
vt 1.0 0.0
vt 0.0 0.0
vt 0.0 -1.0
vt 1.0 -1.0
vt 1.0 0.0
vt 0.0 0.0
vt 0.0 -1.0
vt 1.0 -1.0
vt 1.0 0.0
vt 0.0 0.0
vt 0.0 -1.0
vt 1.0 -1.0
vt 1.0 0.0
vt 0.0 0.0
vt 0.0 -1.0
vt 1.0 -1.0
vt 1.0 0.0
vt 0.0 0.0
vt 0.0 -1.0
vt 1.0 -1.0
vt 1.0 0.0
vt 0.0 0.0
vt 0.0 -1.0
vt 1.0 -1.0
vt 1.0 0.0
vt 0.0 0.0
vt 0.0 -1.0
vt 1.0 -1.0
vt 1.0 0.0
vt 0.0 0.0
vt 0.0 -1.0
vt 1.0 -1.0
vt 1.0 0.0
vt 0.0 0.0
vt 0.0 -1.0
vt 1.0 -1.0
vt 1.0 0.0
vt 0.0 0.0
vt 0.0 -1.0
vt 1.0 -1.0
vt 1.0 0.0
vt 0.0 0.0
vt 0.0 -1.0
vt 1.0 -1.0
vt 1.0 0.0
vt 0.0 0.0
vt 0.0 -1.0
vt 1.0 -1.0
vt 1.0 0.0
vt 0.0 0.0
vt 0.0 -1.0
vt 1.0 -1.0
vt 1.0 0.0
vt 0.0 0.0
vt 0.0 -1.0
vt 1.0 -1.0
vt 1.0 0.0
vt 0.0 0.0
vt 0.0 -1.0
vt 1.0 -1.0
vt 1.0 0.0
vt 0.0 0.0
vt 0.0 -1.0
vt 1.0 -1.0
vt 1.0 0.0
vt 0.0 0.0
vt 0.0 -1.0
vt 1.0 -1.0
vt 1.0 0.0
vt 0.0 0.0
vt 0.0 -1.0
vt 1.0 -1.0
vt 1.0 0.0
vt 0.0 0.0
vt 0.0 -1.0
vt 1.0 -1.0
vt 1.0 0.0
vt 0.0 0.0
vt 0.0 -1.0
vt 1.0 -1.0
vt 1.0 0.0
vt 0.0 0.0
vt 0.0 -1.0
vt 1.0 -1.0
vt 1.0 0.0
vt 0.0 0.0
vt 0.0 -1.0
vt 1.0 -1.0
vt 1.0 0.0
vt 0.0 0.0
vt 0.0 -1.0
vt 1.0 -1.0
vt 1.0 0.0
vt 0.0 0.0
vt 0.0 -1.0
vt 1.0 -1.0
vt 1.0 0.0
vt 0.0 0.0
vt 0.0 -1.0
vt 1.0 -1.0
vt 1.0 0.0
vt 0.0 0.0
vt 0.0 -1.0
vt 1.0 -1.0
vt 1.0 0.0
vt 0.0 0.0
vt 0.0 -1.0
vt 1.0 -1.0
vt 1.0 0.0
vt 0.0 0.0
vt 0.0 -1.0
vt 1.0 -1.0
vt 1.0 0.0
vt 0.0 0.0
vt 0.0 -1.0
vt 1.0 -1.0
vt 1.0 0.0
vt 0.0 0.0
vt 0.0 -1.0
vt 1.0 -1.0
vt 1.0 0.0
vt 0.0 0.0
vt 0.0 -1.0
vt 1.0 -1.0
vt 1.0 0.0
vt 0.0 0.0
vt 0.0 -1.0
vt 1.0 -1.0
vt 1.0 0.0
vt 0.0 0.0
vt 0.0 -1.0
vt 1.0 -1.0
vt 1.0 0.0
vt 0.0 0.0
vt 0.0 -1.0
vt 1.0 -1.0
vt 1.0 0.0
vt 0.0 0.0
vt 0.0 -1.0
vt 1.0 -1.0
vt 1.0 0.0
vt 0.0 0.0
vt 0.0 -1.0
vt 1.0 -1.0
vt 1.0 0.0
vt 0.0 0.0
vt 0.0 -1.0
vt 1.0 -1.0
vt 1.0 0.0
vt 0.0 0.0
vt 0.0 -1.0
vt 1.0 -1.0
vt 1.0 0.0
vt 0.0 0.0
vt 0.0 -1.0
vt 1.0 -1.0
vt 1.0 0.0
vt 0.0 0.0
vt 0.0 -1.0
vt 1.0 -1.0
vt 1.0 0.0
vt 0.0 0.0
vt 0.0 -1.0
vt 1.0 -1.0
vt 1.0 0.0
vt 0.0 0.0
vt 0.0 -1.0
vt 1.0 -1.0
vt 1.0 0.0
vt 0.0 0.0
vt 0.0 -1.0
vt 1.0 -1.0
vt 1.0 0.0
vt 0.0 0.0
vt 0.0 -1.0
vt 1.0 -1.0
vt 1.0 0.0
vt 0.0 0.0
vt 0.0 -1.0
vt 1.0 -1.0
vt 1.0 0.0
vt 0.0 0.0
vt 0.0 -1.0
vt 1.0 -1.0
vt 1.0 0.0
vt 0.0 0.0
vt 0.0 -1.0
vt 1.0 -1.0
vt 1.0 0.0
vt 0.0 0.0
vt 0.0 -1.0
vt 1.0 -1.0
vt 1.0 0.0
vt 0.0 0.0
vt 0.0 -1.0
vt 1.0 -1.0
vt 1.0 0.0
vt 0.0 0.0
vt 0.0 -1.0
vt 1.0 -1.0
vt 1.0 0.0
vt 0.0 0.0
vt 0.0 -1.0
vt 1.0 -1.0
vt 1.0 0.0
vt 0.0 0.0
vt 0.0 -1.0
vt 1.0 -1.0
vt 1.0 0.0
vt 0.0 0.0
vt 0.0 -1.0
vt 1.0 -1.0
vt 1.0 0.0
vt 0.0 0.0
vt 0.0 -1.0
vt 1.0 -1.0
vt 1.0 0.0
vt 0.0 0.0
vt 0.0 -1.0
vt 1.0 -1.0
vt 1.0 0.0
vt 0.0 0.0
vt 0.0 -1.0
vt 1.0 -1.0
vt 1.0 0.0
vt 0.0 0.0
vt 0.0 -1.0
vt 1.0 -1.0
vt 1.0 0.0
vt 0.0 0.0
vt 0.0 -1.0
vt 1.0 -1.0
vt 1.0 0.0
vt 0.0 0.0
vt 0.0 -1.0
vt 1.0 -1.0
vt 1.0 0.0
vt 0.0 0.0
vt 0.0 -1.0
vt 1.0 -1.0
vt 1.0 0.0
vt 0.0 0.0
vt 0.0 -1.0
vt 1.0 -1.0
vt 1.0 0.0
vt 0.0 0.0
vt 0.0 -1.0
vt 1.0 -1.0
vt 1.0 0.0
vt 0.0 0.0
vt 0.0 -1.0
vt 1.0 -1.0
vt 1.0 0.0
vt 0.0 0.0
vt 0.0 -1.0
vt 1.0 -1.0
vt 1.0 0.0
vt 0.0 0.0
vt 0.0 -1.0
vt 1.0 -1.0
vt 1.0 0.0
vt 0.0 0.0
vt 0.0 -1.0
vt 1.0 -1.0
vt 1.0 0.0
vt 0.0 0.0
vt 0.0 -1.0
vt 1.0 -1.0
vt 1.0 0.0
vt 0.0 0.0
vt 0.0 -1.0
vt 1.0 -1.0
vt 1.0 0.0
vt 0.0 0.0
vt 0.0 -1.0
vt 1.0 -1.0
vt 1.0 0.0
vt 0.0 0.0
vt 0.0 -1.0
vt 1.0 -1.0
vt 1.0 0.0
vt 0.0 0.0
vt 0.0 -1.0
vt 1.0 -1.0
vt 1.0 0.0
vt 0.0 0.0
vt 0.0 -1.0
vt 1.0 -1.0
vt 1.0 0.0
vt 0.0 0.0
vt 0.0 -1.0
vt 1.0 -1.0
vt 1.0 0.0
vt 0.0 0.0
vt 0.0 -1.0
vt 1.0 -1.0
vt 1.0 0.0
vt 0.0 0.0
vt 0.0 -1.0
vt 1.0 -1.0
vt 1.0 0.0
vt 0.0 0.0
vt 0.0 -1.0
vt 1.0 -1.0
vt 1.0 0.0
vt 0.0 0.0
vt 0.0 -1.0
vt 1.0 -1.0
vt 1.0 0.0
vt 0.0 0.0
vt 0.0 -1.0
vt 1.0 -1.0
vt 1.0 0.0
vt 0.0 0.0
vt 0.0 -1.0
vt 1.0 -1.0
vt 1.0 0.0
vt 0.0 0.0
vt 0.0 -1.0
vt 1.0 -1.0
vt 1.0 0.0
vt 0.0 0.0
vt 0.0 -1.0
vt 1.0 -1.0
vt 1.0 0.0
vt 0.0 0.0
vt 0.0 -1.0
vt 1.0 -1.0
vt 1.0 0.0
vt 0.0 0.0
vt 0.0 -1.0
vt 1.0 -1.0
vt 1.0 0.0
vt 0.0 0.0
vt 0.0 -1.0
vt 1.0 -1.0
vt 1.0 0.0
vt 0.0 0.0
vt 0.0 -1.0
vt 1.0 -1.0
vt 1.0 0.0
vt 0.0 0.0
vt 0.0 -1.0
vt 1.0 -1.0
vt 1.0 0.0
vt 0.0 0.0
vt 0.0 -1.0
vt 1.0 -1.0
vt 1.0 0.0
vt 0.0 0.0
vt 0.0 -1.0
vt 1.0 -1.0
vt 1.0 0.0
vt 0.0 0.0
vt 0.0 -1.0
vt 1.0 -1.0
vt 1.0 0.0
vt 0.0 0.0
vt 0.0 -1.0
vt 1.0 -1.0
vt 1.0 0.0
vt 0.0 0.0
vt 0.0 -1.0
vt 1.0 -1.0
vt 1.0 0.0
vt 0.0 0.0
vt 0.0 -1.0
vt 1.0 -1.0
vt 1.0 0.0
vt 0.0 0.0
vt 0.0 -1.0
vt 1.0 -1.0
vt 1.0 0.0
vt 0.0 0.0
vt 0.0 -1.0
vt 1.0 -1.0
vt 1.0 0.0
vt 0.0 0.0
vt 0.0 -1.0
vt 1.0 -1.0
vt 1.0 0.0
vt 0.0 0.0
vt 0.0 -1.0
vt 1.0 -1.0
vt 1.0 0.0
vt 0.0 0.0
vt 0.0 -1.0
vt 1.0 -1.0
vt 1.0 0.0
vt 0.0 0.0
vt 0.0 -1.0
vt 1.0 -1.0
vt 1.0 0.0
vt 0.0 0.0
vt 0.0 -1.0
vt 1.0 -1.0
vt 1.0 0.0
vt 0.0 0.0
vt 0.0 -1.0
vt 1.0 -1.0
vt 1.0 0.0
vt 0.0 0.0
vt 0.0 -1.0
vt 1.0 -1.0
vt 1.0 0.0
vt 0.0 0.0
vt 0.0 -1.0
vt 1.0 -1.0
vt 1.0 0.0
vt 0.0 0.0
vt 0.0 -1.0
vt 1.0 -1.0
vt 1.0 0.0
vt 0.0 0.0
vt 0.0 -1.0
vt 1.0 -1.0
vt 1.0 0.0
vt 0.0 0.0
vt 0.0 -1.0
vt 1.0 -1.0
vt 1.0 0.0
vt 0.0 0.0
vt 0.0 -1.0
vt 1.0 -1.0
vt 1.0 0.0
vt 0.0 0.0
vt 0.0 -1.0
vt 1.0 -1.0
vt 1.0 0.0
vt 0.0 0.0
vt 0.0 -1.0
vt 1.0 -1.0
vt 1.0 0.0
vt 0.0 0.0
vt 0.0 -1.0
vt 1.0 -1.0
vt 1.0 0.0
vt 0.0 0.0
vt 0.0 -1.0
vt 1.0 -1.0
vt 1.0 0.0
vt 0.0 0.0
vt 0.0 -1.0
vt 1.0 -1.0
vt 1.0 0.0
vt 0.0 0.0
vt 0.0 -1.0
vt 1.0 -1.0
vt 1.0 0.0
vt 0.0 0.0
vt 0.0 -1.0
vt 1.0 -1.0
vt 1.0 0.0
vt 0.0 0.0
vt 0.0 -1.0
vt 1.0 -1.0
vt 1.0 0.0
vt 0.0 0.0
vt 0.0 -1.0
vt 1.0 -1.0
vt 1.0 0.0
vt 0.0 0.0
vt 0.0 -1.0
vt 1.0 -1.0
vt 1.0 0.0
vt 0.0 0.0
vt 0.0 -1.0
vt 1.0 -1.0
vt 1.0 0.0
vt 0.0 0.0
vt 0.0 -1.0
vt 1.0 -1.0
vt 1.0 0.0
vt 0.0 0.0
vt 0.0 -1.0
vt 1.0 -1.0
vt 1.0 0.0
vt 0.0 0.0
vt 0.0 -1.0
vt 1.0 -1.0
vt 1.0 0.0
vt 0.0 0.0
vt 0.0 -1.0
vt 1.0 -1.0
vt 1.0 0.0
vt 0.0 0.0
vt 0.0 -1.0
vt 1.0 -1.0
vt 1.0 0.0
vt 0.0 0.0
vt 0.0 -1.0
vt 1.0 -1.0
vt 1.0 0.0
vt 0.0 0.0
vt 0.0 -1.0
vt 1.0 -1.0
vt 1.0 0.0
vt 0.0 0.0
vt 0.0 -1.0
vt 1.0 -1.0
vt 1.0 0.0
vt 0.0 0.0
vt 0.0 -1.0
vt 1.0 -1.0
vt 1.0 0.0
vt 0.0 0.0
vt 0.0 -1.0
vt 1.0 -1.0
vt 1.0 0.0
vt 0.0 0.0
vt 0.0 -1.0
vt 1.0 -1.0
vt 1.0 0.0
vt 0.0 0.0
vt 0.0 -1.0
vt 1.0 -1.0
vt 1.0 0.0
vt 0.0 0.0
vt 0.0 -1.0
vt 1.0 -1.0
vt 1.0 0.0
vt 0.0 0.0
vt 0.0 -1.0
vt 1.0 -1.0
vt 1.0 0.0
vt 0.0 0.0
vt 0.0 -1.0
vt 1.0 -1.0
vt 1.0 0.0
vt 0.0 0.0
vt 0.0 -1.0
vt 1.0 -1.0
vt 1.0 0.0
vt 0.0 0.0
vt 0.0 -1.0
vt 1.0 -1.0
vt 1.0 0.0
vt 0.0 0.0
vt 0.0 -1.0
vt 1.0 -1.0
vt 1.0 0.0
vt 0.0 0.0
vt 0.0 -1.0
vt 1.0 -1.0
vt 1.0 0.0
vt 0.0 0.0
vt 0.0 -1.0
vt 1.0 -1.0
vt 1.0 0.0
vt 0.0 0.0
vt 0.0 -1.0
vt 1.0 -1.0
vt 1.0 0.0
vt 0.0 0.0
vt 0.0 -1.0
vt 1.0 -1.0
vt 1.0 0.0
vt 0.0 0.0
vt 0.0 -1.0
vt 1.0 -1.0
vt 1.0 0.0
vt 0.0 0.0
vt 0.0 -1.0
vt 1.0 -1.0
vt 1.0 0.0
vt 0.0 0.0
vt 0.0 -1.0
vt 1.0 -1.0
vt 1.0 0.0
vt 0.0 0.0
vt 0.0 -1.0
vt 1.0 -1.0
vt 1.0 0.0
vt 0.0 0.0
vt 0.0 -1.0
vt 1.0 -1.0
vt 1.0 0.0
vt 0.0 0.0
vt 0.0 -1.0
vt 1.0 -1.0
vt 1.0 0.0
vt 0.0 0.0
vt 0.0 -1.0
vt 1.0 -1.0
vt 1.0 0.0
vt 0.0 0.0
vt 0.0 -1.0
vt 1.0 -1.0
vt 1.0 0.0
vt 0.0 0.0
vt 0.0 -1.0
vt 1.0 -1.0
vt 1.0 0.0
vt 0.0 0.0
vt 0.0 -1.0
vt 1.0 -1.0
vt 1.0 0.0
vt 0.0 0.0
vt 0.0 -1.0
vt 1.0 -1.0
vt 1.0 0.0
vt 0.0 0.0
vt 0.0 -1.0
vt 1.0 -1.0
vt 1.0 0.0
vt 0.0 0.0
vt 0.0 -1.0
vt 1.0 -1.0
vt 1.0 0.0
vt 0.0 0.0
vt 0.0 -1.0
vt 1.0 -1.0
vt 1.0 0.0
vt 0.0 0.0
vt 0.0 -1.0
vt 1.0 -1.0
vt 1.0 0.0
vt 0.0 0.0
vt 0.0 -1.0
vt 1.0 -1.0
vt 1.0 0.0
vt 0.0 0.0
vt 0.0 -1.0
vt 1.0 -1.0
vt 1.0 0.0
vt 0.0 0.0
vt 0.0 -1.0
vt 1.0 -1.0
vt 1.0 0.0
vt 0.0 0.0
vt 0.0 -1.0
vt 1.0 -1.0
vt 1.0 0.0
vt 0.0 0.0
vt 0.0 -1.0
vt 1.0 -1.0
vt 1.0 0.0
vt 0.0 0.0
vt 0.0 -1.0
vt 1.0 -1.0
vt 1.0 0.0
vt 0.0 0.0
vt 0.0 -1.0
vt 1.0 -1.0
vt 1.0 0.0
vt 0.0 0.0
vt 0.0 -1.0
vt 1.0 -1.0
vt 1.0 0.0
vt 0.0 0.0
vt 0.0 -1.0
vt 1.0 -1.0
vt 1.0 0.0
vt 0.0 0.0
vt 0.0 -1.0
vt 1.0 -1.0
vt 1.0 0.0
vt 0.0 0.0
vt 0.0 -1.0
vt 1.0 -1.0
vt 1.0 0.0
vt 0.0 0.0
vt 0.0 -1.0
vt 1.0 -1.0
vt 1.0 0.0
vt 0.0 0.0
vt 0.0 -1.0
vt 1.0 -1.0
vt 1.0 0.0
vt 0.0 0.0
vt 0.0 -1.0
vt 1.0 -1.0
vt 1.0 0.0
vt 0.0 0.0
vt 0.0 -1.0
vt 1.0 -1.0
vt 1.0 0.0
vt 0.0 0.0
vt 0.0 -1.0
vt 1.0 -1.0
vt 1.0 0.0
vt 0.0 0.0
vt 0.0 -1.0
vt 1.0 -1.0
vt 1.0 0.0
vt 0.0 0.0
vt 0.0 -1.0
vt 1.0 -1.0
vt 1.0 0.0
vt 0.0 0.0
vt 0.0 -1.0
vt 1.0 -1.0
vt 1.0 0.0
vt 0.0 0.0
vt 0.0 -1.0
vt 1.0 -1.0
vt 1.0 0.0
vt 0.0 0.0
vt 0.0 -1.0
vt 1.0 -1.0
vt 1.0 0.0
vt 0.0 0.0
vt 0.0 -1.0
vt 1.0 -1.0
vt 1.0 0.0
vt 0.0 0.0
vt 0.0 -1.0
vt 1.0 -1.0
vt 1.0 0.0
vt 0.0 0.0
vt 0.0 -1.0
vt 1.0 -1.0
vt 1.0 0.0
vt 0.0 0.0
vt 0.0 -1.0
vt 1.0 -1.0
vt 1.0 0.0
vt 0.0 0.0
vt 0.0 -1.0
vt 1.0 -1.0
vt 1.0 0.0
vt 0.0 0.0
vt 0.0 -1.0
vt 1.0 -1.0
vt 1.0 0.0
vt 0.0 0.0
vt 0.0 -1.0
vt 1.0 -1.0
vt 1.0 0.0
vt 0.0 0.0
vt 0.0 -1.0
vt 1.0 -1.0
vt 1.0 0.0
vt 0.0 0.0
vt 0.0 -1.0
vt 1.0 -1.0
vt 1.0 0.0
vt 0.0 0.0
vt 0.0 -1.0
vt 1.0 -1.0
vt 1.0 0.0
vt 0.0 0.0
vt 0.0 -1.0
vt 1.0 -1.0
vt 1.0 0.0
vt 0.0 0.0
vt 0.0 -1.0
vt 1.0 -1.0
vt 1.0 0.0
vt 0.0 0.0
vt 0.0 -1.0
vt 1.0 -1.0
vt 1.0 0.0
vt 0.0 0.0
vt 0.0 -1.0
vt 1.0 -1.0
vt 1.0 0.0
vt 0.0 0.0
vt 0.0 -1.0
vt 1.0 -1.0
vt 1.0 0.0
vt 0.0 0.0
vt 0.0 -1.0
vt 1.0 -1.0
vt 1.0 0.0
vt 0.0 0.0
vt 0.0 -1.0
vt 1.0 -1.0
vt 1.0 0.0
vt 0.0 0.0
vt 0.0 -1.0
vt 1.0 -1.0
vt 1.0 0.0
vt 0.0 0.0
vt 0.0 -1.0
vt 1.0 -1.0
vt 1.0 0.0
vt 0.0 0.0
vt 0.0 -1.0
vt 1.0 -1.0
vt 1.0 0.0
vt 0.0 0.0
vt 0.0 -1.0
vt 1.0 -1.0
vt 1.0 0.0
vt 0.0 0.0
vt 0.0 -1.0
vt 1.0 -1.0
vt 1.0 0.0
vt 0.0 0.0
vt 0.0 -1.0
vt 1.0 -1.0
vt 1.0 0.0
vt 0.0 0.0
vt 0.0 -1.0
vt 1.0 -1.0
vt 1.0 0.0
vt 0.0 0.0
vt 0.0 -1.0
vt 1.0 -1.0
vt 1.0 0.0
vt 0.0 0.0
vt 0.0 -1.0
vt 1.0 -1.0
vt 1.0 0.0
vt 0.0 0.0
vt 0.0 -1.0
vt 1.0 -1.0
vt 1.0 0.0
vt 0.0 0.0
vt 0.0 -1.0
vt 1.0 -1.0
vt 1.0 0.0
vt 0.0 0.0
vt 0.0 -1.0
vt 1.0 -1.0
vt 1.0 0.0
vt 0.0 0.0
vt 0.0 -1.0
vt 1.0 -1.0
vt 1.0 0.0
vt 0.0 0.0
vt 0.0 -1.0
vt 1.0 -1.0
vt 1.0 0.0
vt 0.0 0.0
vt 0.0 -1.0
vt 1.0 -1.0
vt 1.0 0.0
vt 0.0 0.0
vt 0.0 -1.0
vt 1.0 -1.0
vt 1.0 0.0
vt 0.0 0.0
vt 0.0 -1.0
vt 1.0 -1.0
vt 1.0 0.0
vt 0.0 0.0
vt 0.0 -1.0
vt 1.0 -1.0
vt 1.0 0.0
vt 0.0 0.0
vt 0.0 -1.0
vt 1.0 -1.0
vt 1.0 0.0
vt 0.0 0.0
vt 0.0 -1.0
vt 1.0 -1.0
vt 1.0 0.0
vt 0.0 0.0
vt 0.0 -1.0
vt 1.0 -1.0
vt 1.0 0.0
vt 0.0 0.0
vt 0.0 -1.0
vt 1.0 -1.0
vt 1.0 0.0
vt 0.0 0.0
vt 0.0 -1.0
vt 1.0 -1.0
vt 1.0 0.0
vt 0.0 0.0
vt 0.0 -1.0
vt 1.0 -1.0
vt 1.0 0.0
vt 0.0 0.0
vt 0.0 -1.0
vt 1.0 -1.0
vt 1.0 0.0
vt 0.0 0.0
vt 0.0 -1.0
vt 1.0 -1.0
vt 1.0 0.0
vt 0.0 0.0
vt 0.0 -1.0
vt 1.0 -1.0
vt 1.0 0.0
vt 0.0 0.0
vt 0.0 -1.0
vt 1.0 -1.0
vt 1.0 0.0
vt 0.0 0.0
vt 0.0 -1.0
vt 1.0 -1.0
vt 1.0 0.0
vt 0.0 0.0
vt 0.0 -1.0
vt 1.0 -1.0
vt 1.0 0.0
vt 0.0 0.0
vt 0.0 -1.0
vt 1.0 -1.0
vt 1.0 0.0
vt 0.0 0.0
vt 0.0 -1.0
vt 1.0 -1.0
vt 10.0 0.999999
vt 11.5 -1.0E-6
vt 11.5 0.999999
vt 10.0 -1.0E-6
vt 1.0 0.0
vt 0.0 0.0
vt 0.0 -1.0
vt 1.0 -1.0
vt 1.0 0.0
vt 0.0 0.0
vt 0.0 -1.0
vt 1.0 -1.0
vt 1.0 0.0
vt 0.0 0.0
vt 0.0 -1.0
vt 1.0 -1.0
vt 1.0 0.0
vt 0.0 0.0
vt 0.0 -1.0
vt 1.0 -1.0
vt 1.0 0.0
vt 0.0 0.0
vt 0.0 -1.0
vt 1.0 -1.0
vt 1.0 0.0
vt 0.0 0.0
vt 0.0 -1.0
vt 1.0 -1.0
vt 1.0 0.0
vt 0.0 0.0
vt 0.0 -1.0
vt 1.0 -1.0
vt 1.0 0.0
vt 0.0 0.0
vt 0.0 -1.0
vt 1.0 -1.0
vt 1.0 0.0
vt 0.0 0.0
vt 0.0 -1.0
vt 1.0 -1.0
vt 1.0 0.0
vt 0.0 0.0
vt 0.0 -1.0
vt 1.0 -1.0
vt 1.0 0.0
vt 0.0 0.0
vt 0.0 -1.0
vt 1.0 -1.0
vt 1.0 0.0
vt 0.0 0.0
vt 0.0 -1.0
vt 1.0 -1.0
vt 1.0 0.0
vt 0.0 0.0
vt 0.0 -1.0
vt 1.0 -1.0
vt 1.0 0.0
vt 0.0 0.0
vt 0.0 -1.0
vt 1.0 -1.0
vt 1.0 0.0
vt 0.0 0.0
vt 0.0 -1.0
vt 1.0 -1.0
vt 1.0 0.0
vt 0.0 0.0
vt 0.0 -1.0
vt 1.0 -1.0
vt 1.0 0.0
vt 0.0 0.0
vt 0.0 -1.0
vt 1.0 -1.0
vt 1.0 0.0
vt 0.0 0.0
vt 0.0 -1.0
vt 1.0 -1.0
vt 1.0 0.0
vt 0.0 0.0
vt 0.0 -1.0
vt 1.0 -1.0
vt 1.0 0.0
vt 0.0 0.0
vt 0.0 -1.0
vt 1.0 -1.0
vt 1.0 0.0
vt 0.0 0.0
vt 0.0 -1.0
vt 1.0 -1.0
vt 1.0 0.0
vt 0.0 0.0
vt 0.0 -1.0
vt 1.0 -1.0
vt 1.0 0.0
vt 0.0 0.0
vt 0.0 -1.0
vt 1.0 -1.0
vt 1.0 0.0
vt 0.0 0.0
vt 0.0 -1.0
vt 1.0 -1.0
vt 1.0 0.0
vt 0.0 0.0
vt 0.0 -1.0
vt 1.0 -1.0
vt 1.0 0.0
vt 0.0 0.0
vt 0.0 -1.0
vt 1.0 -1.0
vt 1.0 0.0
vt 0.0 0.0
vt 0.0 -1.0
vt 1.0 -1.0
vt 1.0 0.0
vt 0.0 0.0
vt 0.0 -1.0
vt 1.0 -1.0
vt 1.0 0.0
vt 0.0 0.0
vt 0.0 -1.0
vt 1.0 -1.0
vt 1.0 0.0
vt 0.0 0.0
vt 0.0 -1.0
vt 1.0 -1.0
vt 1.0 0.0
vt 0.0 0.0
vt 0.0 -1.0
vt 1.0 -1.0
vt 1.0 0.0
vt 0.0 0.0
vt 0.0 -1.0
vt 1.0 -1.0
vt 1.0 0.0
vt 0.0 0.0
vt 0.0 -1.0
vt 1.0 -1.0
vt 1.0 0.0
vt 0.0 0.0
vt 0.0 -1.0
vt 1.0 -1.0
vt 1.0 0.0
vt 0.0 0.0
vt 0.0 -1.0
vt 1.0 -1.0
vt 1.0 0.0
vt 0.0 0.0
vt 0.0 -1.0
vt 1.0 -1.0
vt 1.0 0.0
vt 0.0 0.0
vt 0.0 -1.0
vt 1.0 -1.0
vt 1.0 0.0
vt 0.0 0.0
vt 0.0 -1.0
vt 1.0 -1.0
vt 1.0 0.0
vt 0.0 0.0
vt 0.0 -1.0
vt 1.0 -1.0
vt 1.0 0.0
vt 0.0 0.0
vt 0.0 -1.0
vt 1.0 -1.0
vt 1.0 0.0
vt 0.0 0.0
vt 0.0 -1.0
vt 1.0 -1.0
vt 1.0 0.0
vt 0.0 0.0
vt 0.0 -1.0
vt 1.0 -1.0
vt 1.0 0.0
vt 0.0 0.0
vt 0.0 -1.0
vt 1.0 -1.0
vt 1.0 0.0
vt 0.0 0.0
vt 0.0 -1.0
vt 1.0 -1.0
vt 1.0 0.0
vt 0.0 0.0
vt 0.0 -1.0
vt 1.0 -1.0
vt 1.0 0.0
vt 0.0 0.0
vt 0.0 -1.0
vt 1.0 -1.0
vt 1.0 0.0
vt 0.0 0.0
vt 0.0 -1.0
vt 1.0 -1.0
vt 1.0 0.0
vt 0.0 0.0
vt 0.0 -1.0
vt 1.0 -1.0
vt 1.0 0.0
vt 0.0 0.0
vt 0.0 -1.0
vt 1.0 -1.0
vt 1.0 0.0
vt 0.0 0.0
vt 0.0 -1.0
vt 1.0 -1.0
vt 1.0 0.0
vt 0.0 0.0
vt 0.0 -1.0
vt 1.0 -1.0
vt 1.0 0.0
vt 0.0 0.0
vt 0.0 -1.0
vt 1.0 -1.0
vt 1.0 0.0
vt 0.0 0.0
vt 0.0 -1.0
vt 1.0 -1.0
vt 1.0 0.0
vt 0.0 0.0
vt 0.0 -1.0
vt 1.0 -1.0
vt 1.0 0.0
vt 0.0 0.0
vt 0.0 -1.0
vt 1.0 -1.0
vt 1.0 0.0
vt 0.0 0.0
vt 0.0 -1.0
vt 1.0 -1.0
vt 1.0 0.0
vt 0.0 0.0
vt 0.0 -1.0
vt 1.0 -1.0
vt 1.0 0.0
vt 0.0 0.0
vt 0.0 -1.0
vt 1.0 -1.0
vt 1.0 0.0
vt 0.0 0.0
vt 0.0 -1.0
vt 1.0 -1.0
vt 1.0 0.0
vt 0.0 0.0
vt 0.0 -1.0
vt 1.0 -1.0
vt 11.5 -1.0E-6
vt 15.5 -1.0E-6
vt 15.5 0.999999
vt 11.5 0.999999
vt 12.0 0.9999985
vt 16.0 0.9999985
vt 16.0 2.4999986
vt 12.0 2.4999986
vt 4.0 -0.394531
vt 4.0 -0.097656
vt 0.0 -0.097656
vt 0.0 -0.394531
vt 4.0 -0.015625
vt 0.0 -0.015625
vt 4.0 -0.394531
vt 0.0 -0.394531
vt 0.0 -0.488281
vt 4.0 -0.488281
vt 1.0 0.0
vt 0.0 0.0
vt 0.0 -1.0
vt 1.0 -1.0
vt 1.0 0.0
vt 0.0 0.0
vt 0.0 -1.0
vt 1.0 -1.0
vt 1.0 0.0
vt 0.0 0.0
vt 0.0 -1.0
vt 1.0 -1.0
vt 1.0 0.0
vt 0.0 0.0
vt 0.0 -1.0
vt 1.0 -1.0
vt 1.0 0.0
vt 0.0 0.0
vt 0.0 -1.0
vt 1.0 -1.0
vt 1.0 0.0
vt 0.0 0.0
vt 0.0 -1.0
vt 1.0 -1.0
vt 1.0 0.0
vt 0.0 0.0
vt 0.0 -1.0
vt 1.0 -1.0
vt 1.0 0.0
vt 0.0 0.0
vt 0.0 -1.0
vt 1.0 -1.0
vt 1.0 0.0
vt 0.0 0.0
vt 0.0 -1.0
vt 1.0 -1.0
vt 1.0 0.0
vt 0.0 0.0
vt 0.0 -1.0
vt 1.0 -1.0
vt 1.0 0.0
vt 0.0 0.0
vt 0.0 -1.0
vt 1.0 -1.0
vt 1.0 0.0
vt 0.0 0.0
vt 0.0 -1.0
vt 1.0 -1.0
vt 1.0 0.0
vt 0.0 0.0
vt 0.0 -1.0
vt 1.0 -1.0
vt 1.0 0.0
vt 0.0 0.0
vt 0.0 -1.0
vt 1.0 -1.0
vt 1.0 0.0
vt 0.0 0.0
vt 0.0 -1.0
vt 1.0 -1.0
vt 1.0 0.0
vt 0.0 0.0
vt 0.0 -1.0
vt 1.0 -1.0
vt 1.0 0.0
vt 0.0 0.0
vt 0.0 -1.0
vt 1.0 -1.0
vt 1.0 0.0
vt 0.0 0.0
vt 0.0 -1.0
vt 1.0 -1.0
vt 1.0 0.0
vt 0.0 0.0
vt 0.0 -1.0
vt 1.0 -1.0
vt 1.0 0.0
vt 0.0 0.0
vt 0.0 -1.0
vt 1.0 -1.0
vt 1.0 0.0
vt 0.0 0.0
vt 0.0 -1.0
vt 1.0 -1.0
vt 1.0 0.0
vt 0.0 0.0
vt 0.0 -1.0
vt 1.0 -1.0
vt 1.0 0.0
vt 0.0 0.0
vt 0.0 -1.0
vt 1.0 -1.0
vt 1.0 0.0
vt 0.0 0.0
vt 0.0 -1.0
vt 1.0 -1.0
vt 1.0 0.0
vt 0.0 0.0
vt 0.0 -1.0
vt 1.0 -1.0
vt 1.0 0.0
vt 0.0 0.0
vt 0.0 -1.0
vt 1.0 -1.0
vt 1.0 0.0
vt 0.0 0.0
vt 0.0 -1.0
vt 1.0 -1.0
vt 1.0 0.0
vt 0.0 0.0
vt 0.0 -1.0
vt 1.0 -1.0
vt 1.0 0.0
vt 0.0 0.0
vt 0.0 -1.0
vt 1.0 -1.0
vt 1.0 0.0
vt 0.0 0.0
vt 0.0 -1.0
vt 1.0 -1.0
vt 1.0 0.0
vt 0.0 0.0
vt 0.0 -1.0
vt 1.0 -1.0
vt 1.0 0.0
vt 0.0 0.0
vt 0.0 -1.0
vt 1.0 -1.0
vt 1.0 0.0
vt 0.0 0.0
vt 0.0 -1.0
vt 1.0 -1.0
vt 1.0 0.0
vt 0.0 0.0
vt 0.0 -1.0
vt 1.0 -1.0
vt 1.0 0.0
vt 0.0 0.0
vt 0.0 -1.0
vt 1.0 -1.0
vt 1.0 0.0
vt 0.0 0.0
vt 0.0 -1.0
vt 1.0 -1.0
vt 1.0 0.0
vt 0.0 0.0
vt 0.0 -1.0
vt 1.0 -1.0
vt 1.0 0.0
vt 0.0 0.0
vt 0.0 -1.0
vt 1.0 -1.0
vt 1.0 0.0
vt 0.0 0.0
vt 0.0 -1.0
vt 1.0 -1.0
vt 1.0 0.0
vt 0.0 0.0
vt 0.0 -1.0
vt 1.0 -1.0
vt 1.0 0.0
vt 0.0 0.0
vt 0.0 -1.0
vt 1.0 -1.0
vt 1.0 0.0
vt 0.0 0.0
vt 0.0 -1.0
vt 1.0 -1.0
vt 1.0 0.0
vt 0.0 0.0
vt 0.0 -1.0
vt 1.0 -1.0
vt 1.0 0.0
vt 0.0 0.0
vt 0.0 -1.0
vt 1.0 -1.0
vt 1.0 0.0
vt 0.0 0.0
vt 0.0 -1.0
vt 1.0 -1.0
vt 1.0 0.0
vt 0.0 0.0
vt 0.0 -1.0
vt 1.0 -1.0
vt 1.0 0.0
vt 0.0 0.0
vt 0.0 -1.0
vt 1.0 -1.0
vt 1.0 0.0
vt 0.0 0.0
vt 0.0 -1.0
vt 1.0 -1.0
vt 1.0 0.0
vt 0.0 0.0
vt 0.0 -1.0
vt 1.0 -1.0
vt 1.0 0.0
vt 0.0 0.0
vt 0.0 -1.0
vt 1.0 -1.0
vt 1.0 0.0
vt 0.0 0.0
vt 0.0 -1.0
vt 1.0 -1.0
vt 1.0 0.0
vt 0.0 0.0
vt 0.0 -1.0
vt 1.0 -1.0
vt 1.0 0.0
vt 0.0 0.0
vt 0.0 -1.0
vt 1.0 -1.0
vt 1.0 0.0
vt 0.0 0.0
vt 0.0 -1.0
vt 1.0 -1.0
vt 1.0 -0.394531
vt 1.0 -0.097656
vt 0.0 -0.097656
vt 0.0 -0.394531
vt 1.0 -0.015625
vt 0.0 -0.015625
vt 1.0 -0.394531
vt 0.0 -0.394531
vt 0.0 -0.488281
vt 1.0 -0.488281
vt 1.0 0.0
vt 0.0 0.0
vt 0.0 -1.0
vt 1.0 -1.0
vt 1.0 0.0
vt 0.0 0.0
vt 0.0 -1.0
vt 1.0 -1.0
vt 1.0 0.0
vt 0.0 0.0
vt 0.0 -1.0
vt 1.0 -1.0
vt 1.0 0.0
vt 0.0 0.0
vt 0.0 -1.0
vt 1.0 -1.0
vt 4.0 -2.0
vt 8.0 -2.0
vt 8.0 0.0
vt 4.0 0.0
vt 1.0 0.0
vt 0.0 0.0
vt 0.0 -1.0
vt 1.0 -1.0
vt 1.0 0.0
vt 0.0 0.0
vt 0.0 -1.0
vt 1.0 -1.0
vt 4.0 -2.0
vt 8.0 -2.0
vt 8.0 0.0
vt 4.0 0.0
vt 1.0 0.0
vt 0.0 0.0
vt 0.0 -1.0
vt 1.0 -1.0
vt 1.0 0.0
vt 0.0 0.0
vt 0.0 -1.0
vt 1.0 -1.0
vt 4.0 -8.0
vt 8.0 -8.0
vt 8.0 0.0
vt 4.0 0.0
vt 4.0 -1.0
vt 8.0 -1.0
vt 8.0 0.0
vt 4.0 0.0
vt 3.0 -2.0
vt 6.0 -2.0
vt 6.0 0.0
vt 3.0 0.0
vt 2.0 1.0
vt 0.0 1.0
vt 0.0 0.0
vt 2.0 0.0
vt 1.0 0.0
vt 0.0 0.0
vt 0.0 -1.0
vt 1.0 -1.0
vt 1.0 0.0
vt 0.0 0.0
vt 0.0 -1.0
vt 1.0 -1.0
vt 1.0 0.0
vt 0.0 0.0
vt 0.0 -1.0
vt 1.0 -1.0
vt 1.0 0.0
vt 0.0 0.0
vt 0.0 -1.0
vt 1.0 -1.0
vt 2.0 -1.0
vt 4.0 -1.0
vt 4.0 0.0
vt 2.0 0.0
vt 0.011719 0.5
vt 0.011719 0.0
vt 0.488281 0.5
vt 0.488281 0.0
vt 2.0 -2.0
vt 4.0 -2.0
vt 4.0 0.0
vt 2.0 0.0
vt 2.0 -2.0
vt 4.0 -2.0
vt 4.0 0.0
vt 2.0 0.0
vt 16.0 0.999999
vt 15.5 -1.0E-6
vt 15.5 0.999999
vt 16.0 -1.0E-6
vt 1.0 -1.0
vt 2.0 -1.0
vt 2.0 0.0
vt 1.0 0.0
vn 0.0 -0.0 1.0
vn 0.0 -0.0 1.0
vn 0.0 -0.0 1.0
vn 0.0 -0.0 1.0
vn 0.0 -0.0 1.0
vn 0.0 -0.0 1.0
vn 0.0 -0.7714 0.6364
vn 0.0 -0.7712 0.6365
vn 0.0 -0.0 1.0
vn 0.0 -0.7714 0.6364
vn 0.0 -0.7712 0.6365
vn 0.0 -0.0 1.0
vn 0.0 -0.7714 0.6364
vn 0.0 -0.7712 0.6365
vn 0.0 -0.0 1.0
vn 0.0 -0.7714 0.6364
vn 0.0 -0.7712 0.6365
vn 0.0 -0.0 1.0
vn 0.0 -0.7714 0.6364
vn 0.0 -0.7712 0.6365
vn 0.0 -0.0 1.0
vn 0.0 -0.0 1.0
vn 0.0 -0.7714 0.6364
vn 0.0 -0.7712 0.6365
vn 0.0 -0.0 1.0
vn 0.0 -0.7714 0.6364
vn 0.0 -0.7712 0.6365
vn 0.0 -0.0 1.0
vn 0.0 -0.7714 0.6364
vn 0.0 -0.7712 0.6365
vn 0.0 -0.0 1.0
vn 0.0 -0.7714 0.6364
vn 0.0 -0.7712 0.6365
vn 0.0 -0.0 1.0
vn 0.0 -0.7714 0.6364
vn 0.0 -0.7712 0.6365
vn 0.0 -0.0 1.0
vn 0.0 -0.7714 0.6364
vn 0.0 -0.7712 0.6365
vn 0.0 -0.0 1.0
vn 0.0 -0.7714 0.6364
vn 0.0 -0.7712 0.6365
vn 0.0 -0.0 1.0
vn 0.0 -0.7714 0.6364
vn 0.0 -0.7712 0.6365
vn 0.0 -0.0 1.0
vn 0.0 -0.0 1.0
vn 0.0 -0.0 1.0
vn 0.0 -0.0 1.0
vn 0.0 -0.0 1.0
vn 0.0 -0.0 1.0
vn 0.0 -0.7714 0.6364
vn 0.0 -0.7712 0.6365
vn 0.0 -0.0 1.0
vn 0.0 -0.7714 0.6364
vn 0.0 -0.7712 0.6365
vn 0.0 -0.0 1.0
vn 0.0 -0.7714 0.6364
vn 0.0 -0.7712 0.6365
vn 0.0 -0.0 1.0
vn 0.0 -0.7714 0.6364
vn 0.0 -0.7712 0.6365
vn 0.0 -0.0 1.0
vn 0.0 -0.7714 0.6364
vn 0.0 -0.7712 0.6365
vn 0.0 -0.0 1.0
vn 0.0 -0.7714 0.6364
vn 0.0 -0.7712 0.6365
vn 0.0 -0.0 1.0
vn 0.0 -0.7714 0.6364
vn 0.0 -0.7712 0.6365
vn 0.0 -0.0 1.0
vn 0.0 -0.7714 0.6364
vn 0.0 -0.7712 0.6365
vn 0.0 -0.0 1.0
vn 0.0 -0.7714 0.6364
vn 0.0 -0.7712 0.6365
vn 0.0 -0.0 1.0
vn 0.0 -0.7714 0.6364
vn 0.0 -0.7712 0.6365
vn 0.0 -0.0 1.0
vn 0.0 -0.7714 0.6364
vn 0.0 -0.7712 0.6365
vn 0.0 -0.0 1.0
vn 0.0 -0.7714 0.6364
vn 0.0 -0.7712 0.6365
vn 0.0 -0.0 1.0
vn 0.0 -0.7714 0.6364
vn 0.0 -0.7712 0.6365
vn 0.0 -0.0 1.0
vn 0.0 -0.7714 0.6364
vn 0.0 -0.7712 0.6365
vn 0.0 -0.0 1.0
vn 0.0 -0.7714 0.6364
vn 0.0 -0.7712 0.6365
vn 0.0 -0.0 1.0
vn 0.0 -0.7714 0.6364
vn 0.0 -0.7712 0.6365
vn 0.0 -0.0 1.0
vn 0.0 -0.7714 0.6364
vn 0.0 -0.7712 0.6365
vn 0.0 -0.0 1.0
vn 0.0 -0.7714 0.6364
vn 0.0 -0.7712 0.6365
vn 0.0 -0.0 1.0
vn 0.0 -0.7714 0.6364
vn 0.0 -0.7712 0.6365
vn 0.0 -0.0 1.0
vn 0.0 -0.7714 0.6364
vn 0.0 -0.7712 0.6365
vn 0.0 -0.0 1.0
vn 0.0 -0.7714 0.6364
vn 0.0 -0.7712 0.6365
vn 0.0 -0.0 1.0
vn 0.0 -0.7714 0.6364
vn 0.0 -0.7712 0.6365
vn 0.0 -0.0 1.0
vn 0.0 -0.7714 0.6364
vn 0.0 -0.7712 0.6365
vn 0.0 -0.0 1.0
vn 0.0 -0.7714 0.6364
vn 0.0 -0.7712 0.6365
vn 0.0 -0.0 1.0
vn 0.0 -0.7714 0.6364
vn 0.0 -0.7712 0.6365
vn 0.0 -0.0 1.0
vn 0.0 -0.7714 0.6364
vn 0.0 -0.7712 0.6365
vn 0.0 -0.0 1.0
vn 0.0 -0.7714 0.6364
vn 0.0 -0.7712 0.6365
vn 0.0 -0.0 1.0
vn 0.0 -0.7714 0.6364
vn 0.0 -0.7712 0.6365
vn 0.0 -0.0 1.0
vn 0.0 -0.7714 0.6364
vn 0.0 -0.7712 0.6365
vn 0.0 -0.0 1.0
vn 0.0 -0.7714 0.6364
vn 0.0 -0.7712 0.6365
vn 0.0 -0.0 1.0
vn 0.0 -0.7714 0.6364
vn 0.0 -0.7712 0.6365
vn 0.0 -0.0 1.0
vn 0.0 -0.7714 0.6364
vn 0.0 -0.7712 0.6365
vn 0.0 -0.0 1.0
vn 0.0 -0.7714 0.6364
vn 0.0 -0.7712 0.6365
vn 0.0 -0.0 1.0
vn 0.0 -0.7714 0.6364
vn 0.0 -0.7712 0.6365
vn 0.0 -0.0 1.0
vn 0.0 -0.7714 0.6364
vn 0.0 -0.7712 0.6365
vn 0.0 -0.0 1.0
vn 0.0 -0.7714 0.6364
vn 0.0 -0.7712 0.6365
vn 0.0 -0.0 1.0
vn 0.0 -0.7714 0.6364
vn 0.0 -0.7712 0.6365
vn 0.0 -0.0 1.0
vn 0.0 -0.7714 0.6364
vn 0.0 -0.7712 0.6365
vn 0.0 -0.0 1.0
vn 0.0 -0.7714 0.6364
vn 0.0 -0.7712 0.6365
vn 0.0 -0.0 1.0
vn 0.0 -0.7714 0.6364
vn 0.0 -0.7712 0.6365
vn 0.0 -0.0 1.0
vn 0.0 -0.7714 0.6364
vn 0.0 -0.7712 0.6365
vn 0.0 -0.0 1.0
vn 0.0 -0.7714 0.6364
vn 0.0 -0.7712 0.6365
vn 0.0 -0.0 1.0
vn 0.0 -0.7714 0.6364
vn 0.0 -0.7712 0.6365
vn 0.0 -0.0 1.0
vn 0.0 -0.7714 0.6364
vn 0.0 -0.7712 0.6365
vn 0.0 -0.0 1.0
vn 0.0 -0.7714 0.6364
vn 0.0 -0.7712 0.6365
vn 0.0 -0.0 1.0
vn 0.0 -0.7714 0.6364
vn 0.0 -0.7712 0.6365
vn 0.0 -0.0 1.0
vn 0.0 -0.7714 0.6364
vn 0.0 -0.7712 0.6365
vn 0.0 -0.0 1.0
vn 0.0 -0.7714 0.6364
vn 0.0 -0.7712 0.6365
vn 0.0 -0.0 1.0
vn 0.0 -0.7714 0.6364
vn 0.0 -0.7712 0.6365
vn 0.0 -0.0 1.0
vn 0.0 -0.7714 0.6364
vn 0.0 -0.7712 0.6365
vn 0.0 -0.0 1.0
vn 0.0 -0.7714 0.6364
vn 0.0 -0.7712 0.6365
vn 0.0 -0.0 1.0
vn 0.0 -0.7714 0.6364
vn 0.0 -0.7712 0.6365
vn 0.0 -0.0 1.0
vn 0.0 -0.7714 0.6364
vn 0.0 -0.7712 0.6365
vn 0.0 -0.0 1.0
vn 0.0 -0.7714 0.6364
vn 0.0 -0.7712 0.6365
vn 0.0 -0.0 1.0
vn 0.0 -0.7714 0.6364
vn 0.0 -0.7712 0.6365
vn 0.0 -0.0 1.0
vn 0.0 -0.7714 0.6364
vn 0.0 -0.7712 0.6365
vn 0.0 -0.0 1.0
vn 0.0 -0.7714 0.6364
vn 0.0 -0.7712 0.6365
vn 0.0 -0.0 1.0
vn 0.0 -0.7714 0.6364
vn 0.0 -0.7712 0.6365
vn 0.0 -0.0 1.0
vn 0.0 -0.7714 0.6364
vn 0.0 -0.7712 0.6365
vn 0.0 -0.0 1.0
vn 0.0 -0.7714 0.6364
vn 0.0 -0.7712 0.6365
vn 0.0 -0.0 1.0
vn 0.0 -0.7714 0.6364
vn 0.0 -0.7712 0.6365
vn 0.0 -0.0 1.0
vn 0.0 -0.7714 0.6364
vn 0.0 -0.7712 0.6365
vn 0.0 -0.0 1.0
vn 0.0 -0.7714 0.6364
vn 0.0 -0.7712 0.6365
vn 0.0 -0.0 1.0
vn 0.0 -0.7714 0.6364
vn 0.0 -0.7712 0.6365
vn 0.0 -0.0 1.0
vn 0.0 -0.7714 0.6364
vn 0.0 -0.7712 0.6365
vn 0.0 -0.0 1.0
vn 0.0 -0.7714 0.6364
vn 0.0 -0.7712 0.6365
vn 0.0 -0.0 1.0
vn 0.0 -0.7714 0.6364
vn 0.0 -0.7712 0.6365
vn 0.0 -0.0 1.0
vn 0.0 -0.7714 0.6364
vn 0.0 -0.7712 0.6365
vn 0.0 -0.0 1.0
vn 0.0 -0.7714 0.6364
vn 0.0 -0.7712 0.6365
vn 0.0 -0.0 1.0
vn 0.0 -0.7714 0.6364
vn 0.0 -0.7712 0.6365
vn 0.0 -0.0 1.0
vn 0.0 -0.7714 0.6364
vn 0.0 -0.7712 0.6365
vn 0.0 -0.0 1.0
vn 0.0 -0.7714 0.6364
vn 0.0 -0.7712 0.6365
vn 0.0 -0.0 1.0
vn 0.0 -0.7714 0.6364
vn 0.0 -0.7712 0.6365
vn 0.0 -0.0 1.0
vn 0.0 -0.7714 0.6364
vn 0.0 -0.7712 0.6365
vn 0.0 -0.0 1.0
vn 0.0 -0.7714 0.6364
vn 0.0 -0.7712 0.6365
vn 0.0 -0.0 1.0
vn 0.0 -0.7714 0.6364
vn 0.0 -0.7712 0.6365
vn 0.0 -0.0 1.0
vn 0.0 -0.7714 0.6364
vn 0.0 -0.7712 0.6365
vn 0.0 -0.0 1.0
vn 0.0 -0.7714 0.6364
vn 0.0 -0.7712 0.6365
vn 0.0 -0.0 1.0
vn 0.0 -0.7714 0.6364
vn 0.0 -0.7712 0.6365
vn 0.0 -0.0 1.0
vn 0.0 -0.7714 0.6364
vn 0.0 -0.7712 0.6365
vn 0.0 -0.0 1.0
vn 0.0 -0.7714 0.6364
vn 0.0 -0.7712 0.6365
vn 0.0 -0.0 1.0
vn 0.0 -0.7714 0.6364
vn 0.0 -0.7712 0.6365
vn 0.0 -0.0 1.0
vn 0.0 -0.7714 0.6364
vn 0.0 -0.7712 0.6365
vn 0.0 -0.0 1.0
vn 0.0 -0.7714 0.6364
vn 0.0 -0.7712 0.6365
vn 0.0 -0.0 1.0
vn 0.0 -0.7714 0.6364
vn 0.0 -0.7712 0.6365
vn 0.0 -0.0 1.0
vn 0.0 -0.7714 0.6364
vn 0.0 -0.7712 0.6365
vn 0.0 -0.0 1.0
vn 0.0 -0.7714 0.6364
vn 0.0 -0.7712 0.6365
vn 0.0 -0.0 1.0
vn 0.0 -0.7714 0.6364
vn 0.0 -0.7712 0.6365
vn 0.0 -0.0 1.0
vn 0.0 -0.7714 0.6364
vn 0.0 -0.7712 0.6365
vn 0.0 -0.0 1.0
vn 0.0 -0.7714 0.6364
vn 0.0 -0.7712 0.6365
vn 0.0 -0.0 1.0
vn 0.0 -0.7714 0.6364
vn 0.0 -0.7712 0.6365
vn 0.0 -0.0 1.0
vn 0.0 -0.7714 0.6364
vn 0.0 -0.7712 0.6365
vn 0.0 -0.0 1.0
vn 0.0 -0.7714 0.6364
vn 0.0 -0.7712 0.6365
vn 0.0 -0.0 1.0
vn 0.0 -0.7714 0.6364
vn 0.0 -0.7712 0.6365
vn 0.0 -0.0 1.0
vn 0.0 -0.7714 0.6364
vn 0.0 -0.7712 0.6365
vn 0.0 -0.0 1.0
vn 0.0 -0.7714 0.6364
vn 0.0 -0.7712 0.6365
vn 0.0 -0.0 1.0
vn 0.0 -0.7714 0.6364
vn 0.0 -0.7712 0.6365
vn 0.0 -0.0 1.0
vn 0.0 -0.7714 0.6364
vn 0.0 -0.7712 0.6365
vn 0.0 -0.0 1.0
vn 0.0 -0.7714 0.6364
vn 0.0 -0.7712 0.6365
vn 0.0 -0.0 1.0
vn 0.0 -0.7714 0.6364
vn 0.0 -0.7712 0.6365
vn 0.0 -0.0 1.0
vn 0.0 -0.7714 0.6364
vn 0.0 -0.7712 0.6365
vn 0.0 -0.0 1.0
vn 0.0 -0.7714 0.6364
vn 0.0 -0.7712 0.6365
vn 0.0 -0.0 1.0
vn 0.0 -0.7714 0.6364
vn 0.0 -0.7712 0.6365
vn 0.0 -0.0 1.0
vn 0.0 -0.7714 0.6364
vn 0.0 -0.7712 0.6365
vn 0.0 -0.0 1.0
vn 0.0 -0.7714 0.6364
vn 0.0 -0.7712 0.6365
vn 0.0 -0.0 1.0
vn 0.0 -0.7714 0.6364
vn 0.0 -0.7712 0.6365
vn 0.0 -0.0 1.0
vn 0.0 -0.7714 0.6364
vn 0.0 -0.7712 0.6365
vn 0.0 -0.0 1.0
vn 0.0 -0.7714 0.6364
vn 0.0 -0.7712 0.6365
vn 0.0 -0.0 1.0
vn 0.0 -0.7714 0.6364
vn 0.0 -0.7712 0.6365
vn 0.0 -0.0 1.0
vn 0.0 -0.7714 0.6364
vn 0.0 -0.7712 0.6365
vn 0.0 -0.0 1.0
vn 0.0 -0.7714 0.6364
vn 0.0 -0.7712 0.6365
vn 0.0 -0.0 1.0
vn 0.0 -0.7714 0.6364
vn 0.0 -0.7712 0.6365
vn 0.0 -0.0 1.0
vn 0.0 -0.7714 0.6364
vn 0.0 -0.7712 0.6365
vn 0.0 -0.0 1.0
vn 0.0 -0.7714 0.6364
vn 0.0 -0.7712 0.6365
vn 0.0 -0.0 1.0
vn 0.0 -0.7714 0.6364
vn 0.0 -0.7712 0.6365
vn 0.0 -0.0 1.0
vn 0.0 -0.7714 0.6364
vn 0.0 -0.7712 0.6365
vn 0.0 -0.0 1.0
vn 0.0 -0.7714 0.6364
vn 0.0 -0.7712 0.6365
vn 0.0 -0.0 1.0
vn 0.0 -0.7714 0.6364
vn 0.0 -0.7712 0.6365
vn 0.0 -0.0 1.0
vn 0.0 -0.7714 0.6364
vn 0.0 -0.7712 0.6365
vn 0.0 -0.0 1.0
vn 0.0 -0.7714 0.6364
vn 0.0 -0.7712 0.6365
vn 0.0 -0.0 1.0
vn 0.0 -0.7714 0.6364
vn 0.0 -0.7712 0.6365
vn 0.0 -0.0 1.0
vn 0.0 -0.7714 0.6364
vn 0.0 -0.7712 0.6365
vn 0.0 -0.0 1.0
vn 0.0 -0.7714 0.6364
vn 0.0 -0.7712 0.6365
vn 0.0 -0.0 1.0
vn 0.0 -0.7714 0.6364
vn 0.0 -0.7712 0.6365
vn 0.0 -0.0 1.0
vn 0.0 -0.7714 0.6364
vn 0.0 -0.7712 0.6365
vn 0.0 -0.0 1.0
vn 0.0 -0.7714 0.6364
vn 0.0 -0.7712 0.6365
vn 0.0 -0.0 1.0
vn 0.0 -0.7714 0.6364
vn 0.0 -0.7712 0.6365
vn 0.0 -0.0 1.0
vn 0.0 -0.7714 0.6364
vn 0.0 -0.7712 0.6365
vn 0.0 0.0 1.0
vn 0.0 -0.0 1.0
vn 0.0 -0.7714 0.6364
vn 0.0 -0.7712 0.6365
vn 0.0 -0.0 1.0
vn 0.0 -0.7714 0.6364
vn 0.0 -0.7712 0.6365
vn 0.0 -0.0 1.0
vn 0.0 -0.7714 0.6364
vn 0.0 -0.7712 0.6365
vn 0.0 -0.0 1.0
vn 0.0 -0.7714 0.6364
vn 0.0 -0.7712 0.6365
vn 0.0 -0.0 1.0
vn 0.0 -0.7714 0.6364
vn 0.0 -0.7712 0.6365
vn 0.0 -0.0 1.0
vn 0.0 -0.7714 0.6364
vn 0.0 -0.7712 0.6365
vn 0.0 -0.0 1.0
vn 0.0 -0.7714 0.6364
vn 0.0 -0.7712 0.6365
vn 0.0 -0.0 1.0
vn 0.0 -0.7714 0.6364
vn 0.0 -0.7712 0.6365
vn 0.0 -0.0 1.0
vn 0.0 -0.7714 0.6364
vn 0.0 -0.7712 0.6365
vn 0.0 -0.0 1.0
vn 0.0 -0.7714 0.6364
vn 0.0 -0.7712 0.6365
vn 0.0 -0.0 1.0
vn 0.0 -0.7714 0.6364
vn 0.0 -0.7712 0.6365
vn 0.0 -0.0 1.0
vn 0.0 -0.7714 0.6364
vn 0.0 -0.7712 0.6365
vn 0.0 -0.0 1.0
vn 0.0 -0.7714 0.6364
vn 0.0 -0.7712 0.6365
vn 0.0 -0.0 1.0
vn 0.0 -0.7714 0.6364
vn 0.0 -0.7712 0.6365
vn 0.0 -0.0 1.0
vn 0.0 -0.7714 0.6364
vn 0.0 -0.7712 0.6365
vn 0.0 -0.0 1.0
vn 0.0 -0.7714 0.6364
vn 0.0 -0.7712 0.6365
vn 0.0 -0.0 1.0
vn 0.0 -0.7714 0.6364
vn 0.0 -0.7712 0.6365
vn 0.0 -0.0 1.0
vn 0.0 -0.7714 0.6364
vn 0.0 -0.7712 0.6365
vn 0.0 -0.0 1.0
vn 0.0 -0.7714 0.6364
vn 0.0 -0.7712 0.6365
vn 0.0 -0.0 1.0
vn 0.0 -0.7714 0.6364
vn 0.0 -0.7712 0.6365
vn 0.0 -0.0 1.0
vn 0.0 -0.7714 0.6364
vn 0.0 -0.7712 0.6365
vn 0.0 -0.0 1.0
vn 0.0 -0.7714 0.6364
vn 0.0 -0.7712 0.6365
vn 0.0 -0.0 1.0
vn 0.0 -0.7714 0.6364
vn 0.0 -0.7712 0.6365
vn 0.0 -0.0 1.0
vn 0.0 -0.7714 0.6364
vn 0.0 -0.7712 0.6365
vn 0.0 -0.0 1.0
vn 0.0 -0.7714 0.6364
vn 0.0 -0.7712 0.6365
vn 0.0 -0.0 1.0
vn 0.0 -0.7714 0.6364
vn 0.0 -0.7712 0.6365
vn 0.0 -0.0 1.0
vn 0.0 -0.7714 0.6364
vn 0.0 -0.7712 0.6365
vn 0.0 -0.0 1.0
vn 0.0 -0.7714 0.6364
vn 0.0 -0.7712 0.6365
vn 0.0 -0.0 1.0
vn 0.0 -0.7714 0.6364
vn 0.0 -0.7712 0.6365
vn 0.0 -0.0 1.0
vn 0.0 -0.7714 0.6364
vn 0.0 -0.7712 0.6365
vn 0.0 0.0 1.0
vn 0.0 0.0 1.0
vn -0.0 0.7071 0.7071
vn -0.0 0.5258 0.8506
vn 0.0 0.0 1.0
vn -0.0 0.426 0.9047
vn 0.0 -0.0 1.0
vn 0.0 -0.7714 0.6364
vn 0.0 -0.7712 0.6365
vn 0.0 -0.0 1.0
vn 0.0 -0.7714 0.6364
vn 0.0 -0.7712 0.6365
vn 0.0 -0.0 1.0
vn 0.0 -0.7714 0.6364
vn 0.0 -0.7712 0.6365
vn 0.0 -0.0 1.0
vn 0.0 -0.7714 0.6364
vn 0.0 -0.7712 0.6365
vn 0.0 -0.0 1.0
vn 0.0 -0.7714 0.6364
vn 0.0 -0.7712 0.6365
vn 0.0 -0.0 1.0
vn 0.0 -0.7714 0.6364
vn 0.0 -0.7712 0.6365
vn 0.0 -0.0 1.0
vn 0.0 -0.7714 0.6364
vn 0.0 -0.7712 0.6365
vn 0.0 -0.0 1.0
vn 0.0 -0.7714 0.6364
vn 0.0 -0.7712 0.6365
vn 0.0 -0.0 1.0
vn 0.0 -0.7714 0.6364
vn 0.0 -0.7712 0.6365
vn 0.0 -0.0 1.0
vn 0.0 -0.7714 0.6364
vn 0.0 -0.7712 0.6365
vn 0.0 -0.0 1.0
vn 0.0 -0.7714 0.6364
vn 0.0 -0.7712 0.6365
vn 0.0 -0.0 1.0
vn 0.0 -0.7714 0.6364
vn 0.0 -0.7712 0.6365
vn 0.0 -0.0 1.0
vn 0.0 -0.7714 0.6364
vn 0.0 -0.7712 0.6365
vn 0.0 -0.0 1.0
vn 0.0 -0.7714 0.6364
vn 0.0 -0.7712 0.6365
vn 0.0 -0.0 1.0
vn 0.0 -0.7714 0.6364
vn 0.0 -0.7712 0.6365
vn 0.0 -0.0 1.0
vn 0.0 -0.7714 0.6364
vn 0.0 -0.7712 0.6365
vn 0.0 -0.0 1.0
vn 0.0 -0.7714 0.6364
vn 0.0 -0.7712 0.6365
vn 0.0 -0.0 1.0
vn 0.0 -0.7714 0.6364
vn 0.0 -0.7712 0.6365
vn 0.0 -0.0 1.0
vn 0.0 -0.7714 0.6364
vn 0.0 -0.7712 0.6365
vn 0.0 -0.0 1.0
vn 0.0 -0.7714 0.6364
vn 0.0 -0.7712 0.6365
vn 0.0 -0.0 1.0
vn 0.0 -0.7714 0.6364
vn 0.0 -0.7712 0.6365
vn 0.0 -0.0 1.0
vn 0.0 -0.7714 0.6364
vn 0.0 -0.7712 0.6365
vn 0.0 -0.0 1.0
vn 0.0 -0.7714 0.6364
vn 0.0 -0.7712 0.6365
vn 0.0 -0.0 1.0
vn 0.0 -0.7714 0.6364
vn 0.0 -0.7712 0.6365
vn 0.0 -0.0 1.0
vn 0.0 -0.7714 0.6364
vn 0.0 -0.7712 0.6365
vn 0.0 -0.0 1.0
vn 0.0 -0.7714 0.6364
vn 0.0 -0.7712 0.6365
vn 0.0 -0.0 1.0
vn 0.0 -0.7714 0.6364
vn 0.0 -0.7712 0.6365
vn -0.0 0.7071 0.7071
vn -0.0 0.5258 0.8506
vn 0.0 0.0 1.0
vn -0.0 0.426 0.9047
vn 0.0 -0.0 1.0
vn 0.0 -0.7714 0.6364
vn 0.0 -0.7712 0.6365
vn 0.0 -0.0 1.0
vn 0.0 -0.7714 0.6364
vn 0.0 -0.7712 0.6365
vn 0.0 -0.0 1.0
vn 0.0 -0.0 1.0
vn 0.0 -0.7714 0.6364
vn 0.0 -0.7712 0.6365
vn 0.0 -0.0 1.0
vn 0.0 -0.0 1.0
vn 0.0 -0.7714 0.6364
vn 0.0 -0.7712 0.6365
vn 0.0 -0.0 1.0
vn 0.0 -0.0 1.0
vn 0.0 -0.0 1.0
vn 0.0 0.0 1.0
vn 0.0 -0.0 1.0
vn 0.0 -0.7714 0.6364
vn 0.0 -0.7712 0.6365
vn 0.0 -0.0 1.0
vn 0.0 -0.7714 0.6364
vn 0.0 -0.7712 0.6365
vn 0.0 -0.0 1.0
vn 0.0 0.0 1.0
vn 0.0 -0.0 1.0
vn 0.0 -0.0 1.0
vn 0.0 0.0 1.0
vn 0.0 -0.0 1.0
c 1.0 1.0 1.0
c 1.0 1.0 1.0
c 1.0 1.0 1.0
c 1.0 1.0 1.0
c 1.0 1.0 1.0
c 1.0 1.0 1.0
c 1.0 1.0 1.0
c 1.0 1.0 1.0
c 1.0 1.0 1.0
c 1.0 1.0 1.0
c 1.0 1.0 1.0
c 1.0 1.0 1.0
c 1.0 1.0 1.0
c 1.0 1.0 1.0
c 1.0 1.0 1.0
c 1.0 1.0 1.0
c 1.0 1.0 1.0
c 1.0 1.0 1.0
c 1.0 1.0 1.0
c 1.0 1.0 1.0
c 1.0 1.0 1.0
c 1.0 1.0 1.0
c 1.0 1.0 1.0
c 1.0 1.0 1.0
c 1.0 1.0 1.0
c 1.0 1.0 1.0
c 1.0 1.0 1.0
c 1.0 1.0 1.0
c 1.0 1.0 1.0
c 1.0 1.0 1.0
c 1.0 1.0 1.0
c 1.0 1.0 1.0
c 1.0 1.0 1.0
c 1.0 1.0 1.0
c 1.0 1.0 1.0
c 1.0 1.0 1.0
c 1.0 1.0 1.0
c 1.0 1.0 1.0
c 1.0 1.0 1.0
c 1.0 1.0 1.0
c 1.0 1.0 1.0
c 1.0 1.0 1.0
c 1.0 1.0 1.0
c 1.0 1.0 1.0
c 1.0 1.0 1.0
c 1.0 1.0 1.0
c 1.0 1.0 1.0
c 1.0 1.0 1.0
c 1.0 1.0 1.0
c 1.0 1.0 1.0
c 1.0 1.0 1.0
c 1.0 1.0 1.0
c 1.0 1.0 1.0
c 1.0 1.0 1.0
c 1.0 1.0 1.0
c 1.0 1.0 1.0
c 1.0 1.0 1.0
c 1.0 1.0 1.0
c 1.0 1.0 1.0
c 1.0 1.0 1.0
c 1.0 1.0 1.0
c 1.0 1.0 1.0
c 1.0 1.0 1.0
c 1.0 1.0 1.0
c 1.0 1.0 1.0
c 1.0 1.0 1.0
c 1.0 1.0 1.0
c 1.0 1.0 1.0
c 1.0 1.0 1.0
c 1.0 1.0 1.0
c 1.0 1.0 1.0
c 1.0 1.0 1.0
c 1.0 1.0 1.0
c 1.0 1.0 1.0
c 1.0 1.0 1.0
c 1.0 1.0 1.0
c 1.0 1.0 1.0
c 1.0 1.0 1.0
c 1.0 1.0 1.0
c 1.0 1.0 1.0
c 1.0 1.0 1.0
c 1.0 1.0 1.0
c 1.0 1.0 1.0
c 1.0 1.0 1.0
c 1.0 1.0 1.0
c 1.0 1.0 1.0
c 1.0 1.0 1.0
c 1.0 1.0 1.0
c 1.0 1.0 1.0
c 1.0 1.0 1.0
c 1.0 1.0 1.0
c 1.0 1.0 1.0
c 1.0 1.0 1.0
c 1.0 1.0 1.0
c 1.0 1.0 1.0
c 1.0 1.0 1.0
c 1.0 1.0 1.0
c 1.0 1.0 1.0
c 1.0 1.0 1.0
c 1.0 1.0 1.0
c 1.0 1.0 1.0
c 1.0 1.0 1.0
c 1.0 1.0 1.0
c 1.0 1.0 1.0
c 1.0 1.0 1.0
c 1.0 1.0 1.0
c 1.0 1.0 1.0
c 1.0 1.0 1.0
c 1.0 1.0 1.0
c 1.0 1.0 1.0
c 1.0 1.0 1.0
c 1.0 1.0 1.0
c 1.0 1.0 1.0
c 1.0 1.0 1.0
c 1.0 1.0 1.0
c 1.0 1.0 1.0
c 1.0 1.0 1.0
c 1.0 1.0 1.0
c 1.0 1.0 1.0
c 1.0 1.0 1.0
c 1.0 1.0 1.0
c 1.0 1.0 1.0
c 1.0 1.0 1.0
c 1.0 1.0 1.0
c 1.0 1.0 1.0
c 1.0 1.0 1.0
c 1.0 1.0 1.0
c 1.0 1.0 1.0
c 1.0 1.0 1.0
c 1.0 1.0 1.0
c 1.0 1.0 1.0
c 1.0 1.0 1.0
c 1.0 1.0 1.0
c 1.0 1.0 1.0
c 1.0 1.0 1.0
c 1.0 1.0 1.0
c 1.0 1.0 1.0
c 1.0 1.0 1.0
c 1.0 1.0 1.0
c 1.0 1.0 1.0
c 1.0 1.0 1.0
c 1.0 1.0 1.0
c 1.0 1.0 1.0
c 1.0 1.0 1.0
c 1.0 1.0 1.0
c 1.0 1.0 1.0
c 1.0 1.0 1.0
c 1.0 1.0 1.0
c 1.0 1.0 1.0
c 1.0 1.0 1.0
c 1.0 1.0 1.0
c 1.0 1.0 1.0
c 1.0 1.0 1.0
c 1.0 1.0 1.0
c 1.0 1.0 1.0
c 1.0 1.0 1.0
c 1.0 1.0 1.0
c 1.0 1.0 1.0
c 1.0 1.0 1.0
c 1.0 1.0 1.0
c 1.0 1.0 1.0
c 1.0 1.0 1.0
c 1.0 1.0 1.0
c 1.0 1.0 1.0
c 1.0 1.0 1.0
c 1.0 1.0 1.0
c 1.0 1.0 1.0
c 1.0 1.0 1.0
c 1.0 1.0 1.0
c 1.0 1.0 1.0
c 1.0 1.0 1.0
c 1.0 1.0 1.0
c 1.0 1.0 1.0
c 1.0 1.0 1.0
c 1.0 1.0 1.0
c 1.0 1.0 1.0
c 1.0 1.0 1.0
c 1.0 1.0 1.0
c 1.0 1.0 1.0
c 1.0 1.0 1.0
c 1.0 1.0 1.0
c 1.0 1.0 1.0
c 1.0 1.0 1.0
c 1.0 1.0 1.0
c 1.0 1.0 1.0
c 1.0 1.0 1.0
c 1.0 1.0 1.0
c 1.0 1.0 1.0
c 1.0 1.0 1.0
c 1.0 1.0 1.0
c 1.0 1.0 1.0
c 1.0 1.0 1.0
c 1.0 1.0 1.0
c 1.0 1.0 1.0
c 1.0 1.0 1.0
c 1.0 1.0 1.0
c 1.0 1.0 1.0
c 1.0 1.0 1.0
c 1.0 1.0 1.0
c 1.0 1.0 1.0
c 1.0 1.0 1.0
c 1.0 1.0 1.0
c 1.0 1.0 1.0
c 1.0 1.0 1.0
c 1.0 1.0 1.0
c 1.0 1.0 1.0
c 1.0 1.0 1.0
c 1.0 1.0 1.0
c 1.0 1.0 1.0
c 1.0 1.0 1.0
c 1.0 1.0 1.0
c 1.0 1.0 1.0
c 1.0 1.0 1.0
c 1.0 1.0 1.0
c 1.0 1.0 1.0
c 1.0 1.0 1.0
c 1.0 1.0 1.0
c 1.0 1.0 1.0
c 1.0 1.0 1.0
c 1.0 1.0 1.0
c 1.0 1.0 1.0
c 1.0 1.0 1.0
c 1.0 1.0 1.0
c 1.0 1.0 1.0
c 1.0 1.0 1.0
c 1.0 1.0 1.0
c 1.0 1.0 1.0
c 1.0 1.0 1.0
c 1.0 1.0 1.0
c 1.0 1.0 1.0
c 1.0 1.0 1.0
c 1.0 1.0 1.0
usemtl grass02_r
s off
f 1737/1739/642/228 1738/1737/642/228 1739/1738/642/228 1740/1740/642/228
usemtl grass02
s off
f 4/1/1/1 1/2/1/1 2/3/1/1 3/4/1/1
f 8/5/2/2 5/6/2/2 6/7/2/2 7/8/2/2
f 12/9/3/3 9/10/3/3 10/11/3/3 11/12/3/3
f 16/13/4/4 13/14/4/4 14/15/4/4 15/16/4/4
f 20/17/5/5 17/18/5/5 18/19/5/5 19/20/5/5
f 64/61/21/11 61/62/21/11 62/63/21/11 63/64/21/11
f 132/129/46/20 129/130/46/20 130/131/46/20 131/132/46/20
f 136/133/47/21 133/134/47/21 134/135/47/21 135/136/47/21
f 140/137/48/22 137/138/48/22 138/139/48/22 139/140/48/22
f 144/141/49/23 141/142/49/23 142/143/49/23 143/144/49/23
f 148/145/50/24 145/146/50/24 146/147/50/24 147/148/50/24
f 1680/1677/623/217 1677/1678/623/217 1678/1679/623/217 1679/1680/623/217
f 1692/1689/627/219 1689/1690/627/219 1690/1691/627/219 1691/1692/627/219
f 1704/1701/631/221 1701/1702/631/221 1702/1703/631/221 1703/1704/631/221
f 1708/1705/632/222 1705/1706/632/222 1706/1707/632/222 1707/1708/632/222
f 1712/1709/633/223 1709/1710/633/223 1710/1711/633/223 1711/1712/633/223
f 1736/1733/641/227 1733/1734/641/227 1734/1735/641/227 1735/1736/641/227
f 1744/1741/643/229 1741/1742/643/229 1742/1743/643/229 1743/1744/643/229
f 1748/1745/644/230 1745/1746/644/230 1746/1747/644/230 1747/1748/644/230
f 1756/1753/646/232 1753/1754/646/232 1754/1755/646/232 1755/1756/646/232
usemtl tree01_un
s off
f 23/21/6/6 24/22/6/6 21/23/6/6 22/24/6/6
f 31/29/9/7 32/30/9/7 29/31/9/7 30/32/9/7
f 39/37/12/8 40/38/12/8 37/39/12/8 38/40/12/8
f 47/45/15/9 48/46/15/9 45/47/15/9 46/48/15/9
f 55/53/18/10 56/54/18/10 53/55/18/10 54/56/18/10
f 67/65/22/12 68/66/22/12 65/67/22/12 66/68/22/12
f 75/73/25/13 76/74/25/13 73/75/25/13 74/76/25/13
f 83/81/28/14 84/82/28/14 81/83/28/14 82/84/28/14
f 91/89/31/15 92/90/31/15 89/91/31/15 90/92/31/15
f 99/97/34/16 100/98/34/16 97/99/34/16 98/100/34/16
f 107/105/37/17 108/106/37/17 105/107/37/17 106/108/37/17
f 115/113/40/18 116/114/40/18 113/115/40/18 114/116/40/18
f 123/121/43/19 124/122/43/19 121/123/43/19 122/124/43/19
f 151/149/51/25 152/150/51/25 149/151/51/25 150/152/51/25
f 159/157/54/26 160/158/54/26 157/159/54/26 158/160/54/26
f 167/165/57/27 168/166/57/27 165/167/57/27 166/168/57/27
f 175/173/60/28 176/174/60/28 173/175/60/28 174/176/60/28
f 183/181/63/29 184/182/63/29 181/183/63/29 182/184/63/29
f 191/189/66/30 192/190/66/30 189/191/66/30 190/192/66/30
f 199/197/69/31 200/198/69/31 197/199/69/31 198/200/69/31
f 207/205/72/32 208/206/72/32 205/207/72/32 206/208/72/32
f 215/213/75/33 216/214/75/33 213/215/75/33 214/216/75/33
f 223/221/78/34 224/222/78/34 221/223/78/34 222/224/78/34
f 231/229/81/35 232/230/81/35 229/231/81/35 230/232/81/35
f 239/237/84/36 240/238/84/36 237/239/84/36 238/240/84/36
f 247/245/87/37 248/246/87/37 245/247/87/37 246/248/87/37
f 255/253/90/38 256/254/90/38 253/255/90/38 254/256/90/38
f 263/261/93/39 264/262/93/39 261/263/93/39 262/264/93/39
f 271/269/96/40 272/270/96/40 269/271/96/40 270/272/96/40
f 279/277/99/41 280/278/99/41 277/279/99/41 278/280/99/41
f 287/285/102/42 288/286/102/42 285/287/102/42 286/288/102/42
f 295/293/105/43 296/294/105/43 293/295/105/43 294/296/105/43
f 303/301/108/44 304/302/108/44 301/303/108/44 302/304/108/44
f 311/309/111/45 312/310/111/45 309/311/111/45 310/312/111/45
f 319/317/114/46 320/318/114/46 317/319/114/46 318/320/114/46
f 327/325/117/47 328/326/117/47 325/327/117/47 326/328/117/47
f 335/333/120/48 336/334/120/48 333/335/120/48 334/336/120/48
f 343/341/123/49 344/342/123/49 341/343/123/49 342/344/123/49
f 351/349/126/50 352/350/126/50 349/351/126/50 350/352/126/50
f 359/357/129/51 360/358/129/51 357/359/129/51 358/360/129/51
f 367/365/132/52 368/366/132/52 365/367/132/52 366/368/132/52
f 375/373/135/53 376/374/135/53 373/375/135/53 374/376/135/53
f 383/381/138/54 384/382/138/54 381/383/138/54 382/384/138/54
f 391/389/141/55 392/390/141/55 389/391/141/55 390/392/141/55
f 399/397/144/56 400/398/144/56 397/399/144/56 398/400/144/56
f 407/405/147/57 408/406/147/57 405/407/147/57 406/408/147/57
f 415/413/150/58 416/414/150/58 413/415/150/58 414/416/150/58
f 423/421/153/59 424/422/153/59 421/423/153/59 422/424/153/59
f 431/429/156/60 432/430/156/60 429/431/156/60 430/432/156/60
f 439/437/159/61 440/438/159/61 437/439/159/61 438/440/159/61
f 447/445/162/62 448/446/162/62 445/447/162/62 446/448/162/62
f 455/453/165/63 456/454/165/63 453/455/165/63 454/456/165/63
f 463/461/168/64 464/462/168/64 461/463/168/64 462/464/168/64
f 471/469/171/65 472/470/171/65 469/471/171/65 470/472/171/65
f 479/477/174/66 480/478/174/66 477/479/174/66 478/480/174/66
f 487/485/177/67 488/486/177/67 485/487/177/67 486/488/177/67
f 495/493/180/68 496/494/180/68 493/495/180/68 494/496/180/68
f 503/501/183/69 504/502/183/69 501/503/183/69 502/504/183/69
f 511/509/186/70 512/510/186/70 509/511/186/70 510/512/186/70
f 519/517/189/71 520/518/189/71 517/519/189/71 518/520/189/71
f 527/525/192/72 528/526/192/72 525/527/192/72 526/528/192/72
f 535/533/195/73 536/534/195/73 533/535/195/73 534/536/195/73
f 543/541/198/74 544/542/198/74 541/543/198/74 542/544/198/74
f 551/549/201/75 552/550/201/75 549/551/201/75 550/552/201/75
f 559/557/204/76 560/558/204/76 557/559/204/76 558/560/204/76
f 567/565/207/77 568/566/207/77 565/567/207/77 566/568/207/77
f 575/573/210/78 576/574/210/78 573/575/210/78 574/576/210/78
f 583/581/213/79 584/582/213/79 581/583/213/79 582/584/213/79
f 591/589/216/80 592/590/216/80 589/591/216/80 590/592/216/80
f 599/597/219/81 600/598/219/81 597/599/219/81 598/600/219/81
f 607/605/222/82 608/606/222/82 605/607/222/82 606/608/222/82
f 615/613/225/83 616/614/225/83 613/615/225/83 614/616/225/83
f 623/621/228/84 624/622/228/84 621/623/228/84 622/624/228/84
f 631/629/231/85 632/630/231/85 629/631/231/85 630/632/231/85
f 639/637/234/86 640/638/234/86 637/639/234/86 638/640/234/86
f 647/645/237/87 648/646/237/87 645/647/237/87 646/648/237/87
f 655/653/240/88 656/654/240/88 653/655/240/88 654/656/240/88
f 663/661/243/89 664/662/243/89 661/663/243/89 662/664/243/89
f 671/669/246/90 672/670/246/90 669/671/246/90 670/672/246/90
f 679/677/249/91 680/678/249/91 677/679/249/91 678/680/249/91
f 687/685/252/92 688/686/252/92 685/687/252/92 686/688/252/92
f 695/693/255/93 696/694/255/93 693/695/255/93 694/696/255/93
f 703/701/258/94 704/702/258/94 701/703/258/94 702/704/258/94
f 711/709/261/95 712/710/261/95 709/711/261/95 710/712/261/95
f 719/717/264/96 720/718/264/96 717/719/264/96 718/720/264/96
f 727/725/267/97 728/726/267/97 725/727/267/97 726/728/267/97
f 735/733/270/98 736/734/270/98 733/735/270/98 734/736/270/98
f 743/741/273/99 744/742/273/99 741/743/273/99 742/744/273/99
f 751/749/276/100 752/750/276/100 749/751/276/100 750/752/276/100
f 759/757/279/101 760/758/279/101 757/759/279/101 758/760/279/101
f 767/765/282/102 768/766/282/102 765/767/282/102 766/768/282/102
f 775/773/285/103 776/774/285/103 773/775/285/103 774/776/285/103
f 783/781/288/104 784/782/288/104 781/783/288/104 782/784/288/104
f 791/789/291/105 792/790/291/105 789/791/291/105 790/792/291/105
f 799/797/294/106 800/798/294/106 797/799/294/106 798/800/294/106
f 807/805/297/107 808/806/297/107 805/807/297/107 806/808/297/107
f 815/813/300/108 816/814/300/108 813/815/300/108 814/816/300/108
f 823/821/303/109 824/822/303/109 821/823/303/109 822/824/303/109
f 831/829/306/110 832/830/306/110 829/831/306/110 830/832/306/110
f 839/837/309/111 840/838/309/111 837/839/309/111 838/840/309/111
f 847/845/312/112 848/846/312/112 845/847/312/112 846/848/312/112
f 855/853/315/113 856/854/315/113 853/855/315/113 854/856/315/113
f 863/861/318/114 864/862/318/114 861/863/318/114 862/864/318/114
f 871/869/321/115 872/870/321/115 869/871/321/115 870/872/321/115
f 879/877/324/116 880/878/324/116 877/879/324/116 878/880/324/116
f 887/885/327/117 888/886/327/117 885/887/327/117 886/888/327/117
f 895/893/330/118 896/894/330/118 893/895/330/118 894/896/330/118
f 903/901/333/119 904/902/333/119 901/903/333/119 902/904/333/119
f 911/909/336/120 912/910/336/120 909/911/336/120 910/912/336/120
f 919/917/339/121 920/918/339/121 917/919/339/121 918/920/339/121
f 927/925/342/122 928/926/342/122 925/927/342/122 926/928/342/122
f 935/933/345/123 936/934/345/123 933/935/345/123 934/936/345/123
f 943/941/348/124 944/942/348/124 941/943/348/124 942/944/348/124
f 951/949/351/125 952/950/351/125 949/951/351/125 950/952/351/125
f 959/957/354/126 960/958/354/126 957/959/354/126 958/960/354/126
f 967/965/357/127 968/966/357/127 965/967/357/127 966/968/357/127
f 975/973/360/128 976/974/360/128 973/975/360/128 974/976/360/128
f 983/981/363/129 984/982/363/129 981/983/363/129 982/984/363/129
f 991/989/366/130 992/990/366/130 989/991/366/130 990/992/366/130
f 999/997/369/131 1000/998/369/131 997/999/369/131 998/1000/369/131
f 1007/1005/372/132 1008/1006/372/132 1005/1007/372/132 1006/1008/372/132
f 1015/1013/375/133 1016/1014/375/133 1013/1015/375/133 1014/1016/375/133
f 1023/1021/378/134 1024/1022/378/134 1021/1023/378/134 1022/1024/378/134
f 1031/1029/381/135 1032/1030/381/135 1029/1031/381/135 1030/1032/381/135
f 1039/1037/384/136 1040/1038/384/136 1037/1039/384/136 1038/1040/384/136
f 1047/1045/387/137 1048/1046/387/137 1045/1047/387/137 1046/1048/387/137
f 1055/1053/390/138 1056/1054/390/138 1053/1055/390/138 1054/1056/390/138
f 1063/1061/393/139 1064/1062/393/139 1061/1063/393/139 1062/1064/393/139
f 1071/1069/396/140 1072/1070/396/140 1069/1071/396/140 1070/1072/396/140
f 1079/1077/399/141 1080/1078/399/141 1077/1079/399/141 1078/1080/399/141
f 1087/1085/402/142 1088/1086/402/142 1085/1087/402/142 1086/1088/402/142
f 1095/1093/405/143 1096/1094/405/143 1093/1095/405/143 1094/1096/405/143
f 1103/1101/408/144 1104/1102/408/144 1101/1103/408/144 1102/1104/408/144
f 1111/1109/411/145 1112/1110/411/145 1109/1111/411/145 1110/1112/411/145
f 1119/1117/414/146 1120/1118/414/146 1117/1119/414/146 1118/1120/414/146
f 1127/1125/417/147 1128/1126/417/147 1125/1127/417/147 1126/1128/417/147
f 1135/1133/420/148 1136/1134/420/148 1133/1135/420/148 1134/1136/420/148
f 1143/1141/423/149 1144/1142/423/149 1141/1143/423/149 1142/1144/423/149
f 1151/1149/426/150 1152/1150/426/150 1149/1151/426/150 1150/1152/426/150
f 1159/1157/429/151 1160/1158/429/151 1157/1159/429/151 1158/1160/429/151
f 1167/1165/432/152 1168/1166/432/152 1165/1167/432/152 1166/1168/432/152
f 1179/1177/436/154 1180/1178/436/154 1177/1179/436/154 1178/1180/436/154
f 1187/1185/439/155 1188/1186/439/155 1185/1187/439/155 1186/1188/439/155
f 1195/1193/442/156 1196/1194/442/156 1193/1195/442/156 1194/1196/442/156
f 1203/1201/445/157 1204/1202/445/157 1201/1203/445/157 1202/1204/445/157
f 1211/1209/448/158 1212/1210/448/158 1209/1211/448/158 1210/1212/448/158
f 1219/1217/451/159 1220/1218/451/159 1217/1219/451/159 1218/1220/451/159
f 1227/1225/454/160 1228/1226/454/160 1225/1227/454/160 1226/1228/454/160
f 1235/1233/457/161 1236/1234/457/161 1233/1235/457/161 1234/1236/457/161
f 1243/1241/460/162 1244/1242/460/162 1241/1243/460/162 1242/1244/460/162
f 1251/1249/463/163 1252/1250/463/163 1249/1251/463/163 1250/1252/463/163
f 1259/1257/466/164 1260/1258/466/164 1257/1259/466/164 1258/1260/466/164
f 1267/1265/469/165 1268/1266/469/165 1265/1267/469/165 1266/1268/469/165
f 1275/1273/472/166 1276/1274/472/166 1273/1275/472/166 1274/1276/472/166
f 1283/1281/475/167 1284/1282/475/167 1281/1283/475/167 1282/1284/475/167
f 1291/1289/478/168 1292/1290/478/168 1289/1291/478/168 1290/1292/478/168
f 1299/1297/481/169 1300/1298/481/169 1297/1299/481/169 1298/1300/481/169
f 1307/1305/484/170 1308/1306/484/170 1305/1307/484/170 1306/1308/484/170
f 1315/1313/487/171 1316/1314/487/171 1313/1315/487/171 1314/1316/487/171
f 1323/1321/490/172 1324/1322/490/172 1321/1323/490/172 1322/1324/490/172
f 1331/1329/493/173 1332/1330/493/173 1329/1331/493/173 1330/1332/493/173
f 1339/1337/496/174 1340/1338/496/174 1337/1339/496/174 1338/1340/496/174
f 1347/1345/499/175 1348/1346/499/175 1345/1347/499/175 1346/1348/499/175
f 1355/1353/502/176 1356/1354/502/176 1353/1355/502/176 1354/1356/502/176
f 1363/1361/505/177 1364/1362/505/177 1361/1363/505/177 1362/1364/505/177
f 1371/1369/508/178 1372/1370/508/178 1369/1371/508/178 1370/1372/508/178
f 1379/1377/511/179 1380/1378/511/179 1377/1379/511/179 1378/1380/511/179
f 1387/1385/514/180 1388/1386/514/180 1385/1387/514/180 1386/1388/514/180
f 1395/1393/517/181 1396/1394/517/181 1393/1395/517/181 1394/1396/517/181
f 1403/1401/520/182 1404/1402/520/182 1401/1403/520/182 1402/1404/520/182
f 1411/1409/523/183 1412/1410/523/183 1409/1411/523/183 1410/1412/523/183
f 1437/1435/532/187 1438/1436/532/187 1435/1437/532/187 1436/1438/532/187
f 1445/1443/535/188 1446/1444/535/188 1443/1445/535/188 1444/1446/535/188
f 1453/1451/538/189 1454/1452/538/189 1451/1453/538/189 1452/1454/538/189
f 1461/1459/541/190 1462/1460/541/190 1459/1461/541/190 1460/1462/541/190
f 1469/1467/544/191 1470/1468/544/191 1467/1469/544/191 1468/1470/544/191
f 1477/1475/547/192 1478/1476/547/192 1475/1477/547/192 1476/1478/547/192
f 1485/1483/550/193 1486/1484/550/193 1483/1485/550/193 1484/1486/550/193
f 1493/1491/553/194 1494/1492/553/194 1491/1493/553/194 1492/1494/553/194
f 1501/1499/556/195 1502/1500/556/195 1499/1501/556/195 1500/1502/556/195
f 1509/1507/559/196 1510/1508/559/196 1507/1509/559/196 1508/1510/559/196
f 1517/1515/562/197 1518/1516/562/197 1515/1517/562/197 1516/1518/562/197
f 1525/1523/565/198 1526/1524/565/198 1523/1525/565/198 1524/1526/565/198
f 1533/1531/568/199 1534/1532/568/199 1531/1533/568/199 1532/1534/568/199
f 1541/1539/571/200 1542/1540/571/200 1539/1541/571/200 1540/1542/571/200
f 1549/1547/574/201 1550/1548/574/201 1547/1549/574/201 1548/1550/574/201
f 1557/1555/577/202 1558/1556/577/202 1555/1557/577/202 1556/1558/577/202
f 1565/1563/580/203 1566/1564/580/203 1563/1565/580/203 1564/1566/580/203
f 1573/1571/583/204 1574/1572/583/204 1571/1573/583/204 1572/1574/583/204
f 1581/1579/586/205 1582/1580/586/205 1579/1581/586/205 1580/1582/586/205
f 1589/1587/589/206 1590/1588/589/206 1587/1589/589/206 1588/1590/589/206
f 1597/1595/592/207 1598/1596/592/207 1595/1597/592/207 1596/1598/592/207
f 1605/1603/595/208 1606/1604/595/208 1603/1605/595/208 1604/1606/595/208
f 1613/1611/598/209 1614/1612/598/209 1611/1613/598/209 1612/1614/598/209
f 1621/1619/601/210 1622/1620/601/210 1619/1621/601/210 1620/1622/601/210
f 1629/1627/604/211 1630/1628/604/211 1627/1629/604/211 1628/1630/604/211
f 1637/1635/607/212 1638/1636/607/212 1635/1637/607/212 1636/1638/607/212
f 1645/1643/610/213 1646/1644/610/213 1643/1645/610/213 1644/1646/610/213
f 1663/1661/617/215 1664/1662/617/215 1661/1663/617/215 1662/1664/617/215
f 1671/1669/620/216 1672/1670/620/216 1669/1671/620/216 1670/1672/620/216
f 1683/1681/624/218 1684/1682/624/218 1681/1683/624/218 1682/1684/624/218
f 1695/1693/628/220 1696/1694/628/220 1693/1695/628/220 1694/1696/628/220
f 1719/1717/635/225 1720/1718/635/225 1717/1719/635/225 1718/1720/635/225
f 1727/1725/638/226 1728/1726/638/226 1725/1727/638/226 1726/1728/638/226
usemtl tree01
s off
f 27/25/7/6 28/26/8/6 25/27/7/6 26/28/8/6
f 35/33/10/7 36/34/11/7 33/35/10/7 34/36/11/7
f 43/41/13/8 44/42/14/8 41/43/13/8 42/44/14/8
f 51/49/16/9 52/50/17/9 49/51/16/9 50/52/17/9
f 59/57/19/10 60/58/20/10 57/59/19/10 58/60/20/10
f 71/69/23/12 72/70/24/12 69/71/23/12 70/72/24/12
f 79/77/26/13 80/78/27/13 77/79/26/13 78/80/27/13
f 87/85/29/14 88/86/30/14 85/87/29/14 86/88/30/14
f 95/93/32/15 96/94/33/15 93/95/32/15 94/96/33/15
f 103/101/35/16 104/102/36/16 101/103/35/16 102/104/36/16
f 111/109/38/17 112/110/39/17 109/111/38/17 110/112/39/17
f 119/117/41/18 120/118/42/18 117/119/41/18 118/120/42/18
f 127/125/44/19 128/126/45/19 125/127/44/19 126/128/45/19
f 155/153/52/25 156/154/53/25 153/155/52/25 154/156/53/25
f 163/161/55/26 164/162/56/26 161/163/55/26 162/164/56/26
f 171/169/58/27 172/170/59/27 169/171/58/27 170/172/59/27
f 179/177/61/28 180/178/62/28 177/179/61/28 178/180/62/28
f 187/185/64/29 188/186/65/29 185/187/64/29 186/188/65/29
f 195/193/67/30 196/194/68/30 193/195/67/30 194/196/68/30
f 203/201/70/31 204/202/71/31 201/203/70/31 202/204/71/31
f 211/209/73/32 212/210/74/32 209/211/73/32 210/212/74/32
f 219/217/76/33 220/218/77/33 217/219/76/33 218/220/77/33
f 227/225/79/34 228/226/80/34 225/227/79/34 226/228/80/34
f 235/233/82/35 236/234/83/35 233/235/82/35 234/236/83/35
f 243/241/85/36 244/242/86/36 241/243/85/36 242/244/86/36
f 251/249/88/37 252/250/89/37 249/251/88/37 250/252/89/37
f 259/257/91/38 260/258/92/38 257/259/91/38 258/260/92/38
f 267/265/94/39 268/266/95/39 265/267/94/39 266/268/95/39
f 275/273/97/40 276/274/98/40 273/275/97/40 274/276/98/40
f 283/281/100/41 284/282/101/41 281/283/100/41 282/284/101/41
f 291/289/103/42 292/290/104/42 289/291/103/42 290/292/104/42
f 299/297/106/43 300/298/107/43 297/299/106/43 298/300/107/43
f 307/305/109/44 308/306/110/44 305/307/109/44 306/308/110/44
f 315/313/112/45 316/314/113/45 313/315/112/45 314/316/113/45
f 323/321/115/46 324/322/116/46 321/323/115/46 322/324/116/46
f 331/329/118/47 332/330/119/47 329/331/118/47 330/332/119/47
f 339/337/121/48 340/338/122/48 337/339/121/48 338/340/122/48
f 347/345/124/49 348/346/125/49 345/347/124/49 346/348/125/49
f 355/353/127/50 356/354/128/50 353/355/127/50 354/356/128/50
f 363/361/130/51 364/362/131/51 361/363/130/51 362/364/131/51
f 371/369/133/52 372/370/134/52 369/371/133/52 370/372/134/52
f 379/377/136/53 380/378/137/53 377/379/136/53 378/380/137/53
f 387/385/139/54 388/386/140/54 385/387/139/54 386/388/140/54
f 395/393/142/55 396/394/143/55 393/395/142/55 394/396/143/55
f 403/401/145/56 404/402/146/56 401/403/145/56 402/404/146/56
f 411/409/148/57 412/410/149/57 409/411/148/57 410/412/149/57
f 419/417/151/58 420/418/152/58 417/419/151/58 418/420/152/58
f 427/425/154/59 428/426/155/59 425/427/154/59 426/428/155/59
f 435/433/157/60 436/434/158/60 433/435/157/60 434/436/158/60
f 443/441/160/61 444/442/161/61 441/443/160/61 442/444/161/61
f 451/449/163/62 452/450/164/62 449/451/163/62 450/452/164/62
f 459/457/166/63 460/458/167/63 457/459/166/63 458/460/167/63
f 467/465/169/64 468/466/170/64 465/467/169/64 466/468/170/64
f 475/473/172/65 476/474/173/65 473/475/172/65 474/476/173/65
f 483/481/175/66 484/482/176/66 481/483/175/66 482/484/176/66
f 491/489/178/67 492/490/179/67 489/491/178/67 490/492/179/67
f 499/497/181/68 500/498/182/68 497/499/181/68 498/500/182/68
f 507/505/184/69 508/506/185/69 505/507/184/69 506/508/185/69
f 515/513/187/70 516/514/188/70 513/515/187/70 514/516/188/70
f 523/521/190/71 524/522/191/71 521/523/190/71 522/524/191/71
f 531/529/193/72 532/530/194/72 529/531/193/72 530/532/194/72
f 539/537/196/73 540/538/197/73 537/539/196/73 538/540/197/73
f 547/545/199/74 548/546/200/74 545/547/199/74 546/548/200/74
f 555/553/202/75 556/554/203/75 553/555/202/75 554/556/203/75
f 563/561/205/76 564/562/206/76 561/563/205/76 562/564/206/76
f 571/569/208/77 572/570/209/77 569/571/208/77 570/572/209/77
f 579/577/211/78 580/578/212/78 577/579/211/78 578/580/212/78
f 587/585/214/79 588/586/215/79 585/587/214/79 586/588/215/79
f 595/593/217/80 596/594/218/80 593/595/217/80 594/596/218/80
f 603/601/220/81 604/602/221/81 601/603/220/81 602/604/221/81
f 611/609/223/82 612/610/224/82 609/611/223/82 610/612/224/82
f 619/617/226/83 620/618/227/83 617/619/226/83 618/620/227/83
f 627/625/229/84 628/626/230/84 625/627/229/84 626/628/230/84
f 635/633/232/85 636/634/233/85 633/635/232/85 634/636/233/85
f 643/641/235/86 644/642/236/86 641/643/235/86 642/644/236/86
f 651/649/238/87 652/650/239/87 649/651/238/87 650/652/239/87
f 659/657/241/88 660/658/242/88 657/659/241/88 658/660/242/88
f 667/665/244/89 668/666/245/89 665/667/244/89 666/668/245/89
f 675/673/247/90 676/674/248/90 673/675/247/90 674/676/248/90
f 683/681/250/91 684/682/251/91 681/683/250/91 682/684/251/91
f 691/689/253/92 692/690/254/92 689/691/253/92 690/692/254/92
f 699/697/256/93 700/698/257/93 697/699/256/93 698/700/257/93
f 707/705/259/94 708/706/260/94 705/707/259/94 706/708/260/94
f 715/713/262/95 716/714/263/95 713/715/262/95 714/716/263/95
f 723/721/265/96 724/722/266/96 721/723/265/96 722/724/266/96
f 731/729/268/97 732/730/269/97 729/731/268/97 730/732/269/97
f 739/737/271/98 740/738/272/98 737/739/271/98 738/740/272/98
f 747/745/274/99 748/746/275/99 745/747/274/99 746/748/275/99
f 755/753/277/100 756/754/278/100 753/755/277/100 754/756/278/100
f 763/761/280/101 764/762/281/101 761/763/280/101 762/764/281/101
f 771/769/283/102 772/770/284/102 769/771/283/102 770/772/284/102
f 779/777/286/103 780/778/287/103 777/779/286/103 778/780/287/103
f 787/785/289/104 788/786/290/104 785/787/289/104 786/788/290/104
f 795/793/292/105 796/794/293/105 793/795/292/105 794/796/293/105
f 803/801/295/106 804/802/296/106 801/803/295/106 802/804/296/106
f 811/809/298/107 812/810/299/107 809/811/298/107 810/812/299/107
f 819/817/301/108 820/818/302/108 817/819/301/108 818/820/302/108
f 827/825/304/109 828/826/305/109 825/827/304/109 826/828/305/109
f 835/833/307/110 836/834/308/110 833/835/307/110 834/836/308/110
f 843/841/310/111 844/842/311/111 841/843/310/111 842/844/311/111
f 851/849/313/112 852/850/314/112 849/851/313/112 850/852/314/112
f 859/857/316/113 860/858/317/113 857/859/316/113 858/860/317/113
f 867/865/319/114 868/866/320/114 865/867/319/114 866/868/320/114
f 875/873/322/115 876/874/323/115 873/875/322/115 874/876/323/115
f 883/881/325/116 884/882/326/116 881/883/325/116 882/884/326/116
f 891/889/328/117 892/890/329/117 889/891/328/117 890/892/329/117
f 899/897/331/118 900/898/332/118 897/899/331/118 898/900/332/118
f 907/905/334/119 908/906/335/119 905/907/334/119 906/908/335/119
f 915/913/337/120 916/914/338/120 913/915/337/120 914/916/338/120
f 923/921/340/121 924/922/341/121 921/923/340/121 922/924/341/121
f 931/929/343/122 932/930/344/122 929/931/343/122 930/932/344/122
f 939/937/346/123 940/938/347/123 937/939/346/123 938/940/347/123
f 947/945/349/124 948/946/350/124 945/947/349/124 946/948/350/124
f 955/953/352/125 956/954/353/125 953/955/352/125 954/956/353/125
f 963/961/355/126 964/962/356/126 961/963/355/126 962/964/356/126
f 971/969/358/127 972/970/359/127 969/971/358/127 970/972/359/127
f 979/977/361/128 980/978/362/128 977/979/361/128 978/980/362/128
f 987/985/364/129 988/986/365/129 985/987/364/129 986/988/365/129
f 995/993/367/130 996/994/368/130 993/995/367/130 994/996/368/130
f 1003/1001/370/131 1004/1002/371/131 1001/1003/370/131 1002/1004/371/131
f 1011/1009/373/132 1012/1010/374/132 1009/1011/373/132 1010/1012/374/132
f 1019/1017/376/133 1020/1018/377/133 1017/1019/376/133 1018/1020/377/133
f 1027/1025/379/134 1028/1026/380/134 1025/1027/379/134 1026/1028/380/134
f 1035/1033/382/135 1036/1034/383/135 1033/1035/382/135 1034/1036/383/135
f 1043/1041/385/136 1044/1042/386/136 1041/1043/385/136 1042/1044/386/136
f 1051/1049/388/137 1052/1050/389/137 1049/1051/388/137 1050/1052/389/137
f 1059/1057/391/138 1060/1058/392/138 1057/1059/391/138 1058/1060/392/138
f 1067/1065/394/139 1068/1066/395/139 1065/1067/394/139 1066/1068/395/139
f 1075/1073/397/140 1076/1074/398/140 1073/1075/397/140 1074/1076/398/140
f 1083/1081/400/141 1084/1082/401/141 1081/1083/400/141 1082/1084/401/141
f 1091/1089/403/142 1092/1090/404/142 1089/1091/403/142 1090/1092/404/142
f 1099/1097/406/143 1100/1098/407/143 1097/1099/406/143 1098/1100/407/143
f 1107/1105/409/144 1108/1106/410/144 1105/1107/409/144 1106/1108/410/144
f 1115/1113/412/145 1116/1114/413/145 1113/1115/412/145 1114/1116/413/145
f 1123/1121/415/146 1124/1122/416/146 1121/1123/415/146 1122/1124/416/146
f 1131/1129/418/147 1132/1130/419/147 1129/1131/418/147 1130/1132/419/147
f 1139/1137/421/148 1140/1138/422/148 1137/1139/421/148 1138/1140/422/148
f 1147/1145/424/149 1148/1146/425/149 1145/1147/424/149 1146/1148/425/149
f 1155/1153/427/150 1156/1154/428/150 1153/1155/427/150 1154/1156/428/150
f 1163/1161/430/151 1164/1162/431/151 1161/1163/430/151 1162/1164/431/151
f 1171/1169/433/152 1172/1170/434/152 1169/1171/433/152 1170/1172/434/152
f 1183/1181/437/154 1184/1182/438/154 1181/1183/437/154 1182/1184/438/154
f 1191/1189/440/155 1192/1190/441/155 1189/1191/440/155 1190/1192/441/155
f 1199/1197/443/156 1200/1198/444/156 1197/1199/443/156 1198/1200/444/156
f 1207/1205/446/157 1208/1206/447/157 1205/1207/446/157 1206/1208/447/157
f 1215/1213/449/158 1216/1214/450/158 1213/1215/449/158 1214/1216/450/158
f 1223/1221/452/159 1224/1222/453/159 1221/1223/452/159 1222/1224/453/159
f 1231/1229/455/160 1232/1230/456/160 1229/1231/455/160 1230/1232/456/160
f 1239/1237/458/161 1240/1238/459/161 1237/1239/458/161 1238/1240/459/161
f 1247/1245/461/162 1248/1246/462/162 1245/1247/461/162 1246/1248/462/162
f 1255/1253/464/163 1256/1254/465/163 1253/1255/464/163 1254/1256/465/163
f 1263/1261/467/164 1264/1262/468/164 1261/1263/467/164 1262/1264/468/164
f 1271/1269/470/165 1272/1270/471/165 1269/1271/470/165 1270/1272/471/165
f 1279/1277/473/166 1280/1278/474/166 1277/1279/473/166 1278/1280/474/166
f 1287/1285/476/167 1288/1286/477/167 1285/1287/476/167 1286/1288/477/167
f 1295/1293/479/168 1296/1294/480/168 1293/1295/479/168 1294/1296/480/168
f 1303/1301/482/169 1304/1302/483/169 1301/1303/482/169 1302/1304/483/169
f 1311/1309/485/170 1312/1310/486/170 1309/1311/485/170 1310/1312/486/170
f 1319/1317/488/171 1320/1318/489/171 1317/1319/488/171 1318/1320/489/171
f 1327/1325/491/172 1328/1326/492/172 1325/1327/491/172 1326/1328/492/172
f 1335/1333/494/173 1336/1334/495/173 1333/1335/494/173 1334/1336/495/173
f 1343/1341/497/174 1344/1342/498/174 1341/1343/497/174 1342/1344/498/174
f 1351/1349/500/175 1352/1350/501/175 1349/1351/500/175 1350/1352/501/175
f 1359/1357/503/176 1360/1358/504/176 1357/1359/503/176 1358/1360/504/176
f 1367/1365/506/177 1368/1366/507/177 1365/1367/506/177 1366/1368/507/177
f 1375/1373/509/178 1376/1374/510/178 1373/1375/509/178 1374/1376/510/178
f 1383/1381/512/179 1384/1382/513/179 1381/1383/512/179 1382/1384/513/179
f 1391/1389/515/180 1392/1390/516/180 1389/1391/515/180 1390/1392/516/180
f 1399/1397/518/181 1400/1398/519/181 1397/1399/518/181 1398/1400/519/181
f 1407/1405/521/182 1408/1406/522/182 1405/1407/521/182 1406/1408/522/182
f 1415/1413/524/183 1416/1414/525/183 1413/1415/524/183 1414/1416/525/183
f 1441/1439/533/187 1442/1440/534/187 1439/1441/533/187 1440/1442/534/187
f 1449/1447/536/188 1450/1448/537/188 1447/1449/536/188 1448/1450/537/188
f 1457/1455/539/189 1458/1456/540/189 1455/1457/539/189 1456/1458/540/189
f 1465/1463/542/190 1466/1464/543/190 1463/1465/542/190 1464/1466/543/190
f 1473/1471/545/191 1474/1472/546/191 1471/1473/545/191 1472/1474/546/191
f 1481/1479/548/192 1482/1480/549/192 1479/1481/548/192 1480/1482/549/192
f 1489/1487/551/193 1490/1488/552/193 1487/1489/551/193 1488/1490/552/193
f 1497/1495/554/194 1498/1496/555/194 1495/1497/554/194 1496/1498/555/194
f 1505/1503/557/195 1506/1504/558/195 1503/1505/557/195 1504/1506/558/195
f 1513/1511/560/196 1514/1512/561/196 1511/1513/560/196 1512/1514/561/196
f 1521/1519/563/197 1522/1520/564/197 1519/1521/563/197 1520/1522/564/197
f 1529/1527/566/198 1530/1528/567/198 1527/1529/566/198 1528/1530/567/198
f 1537/1535/569/199 1538/1536/570/199 1535/1537/569/199 1536/1538/570/199
f 1545/1543/572/200 1546/1544/573/200 1543/1545/572/200 1544/1546/573/200
f 1553/1551/575/201 1554/1552/576/201 1551/1553/575/201 1552/1554/576/201
f 1561/1559/578/202 1562/1560/579/202 1559/1561/578/202 1560/1562/579/202
f 1569/1567/581/203 1570/1568/582/203 1567/1569/581/203 1568/1570/582/203
f 1577/1575/584/204 1578/1576/585/204 1575/1577/584/204 1576/1578/585/204
f 1585/1583/587/205 1586/1584/588/205 1583/1585/587/205 1584/1586/588/205
f 1593/1591/590/206 1594/1592/591/206 1591/1593/590/206 1592/1594/591/206
f 1601/1599/593/207 1602/1600/594/207 1599/1601/593/207 1600/1602/594/207
f 1609/1607/596/208 1610/1608/597/208 1607/1609/596/208 1608/1610/597/208
f 1617/1615/599/209 1618/1616/600/209 1615/1617/599/209 1616/1618/600/209
f 1625/1623/602/210 1626/1624/603/210 1623/1625/602/210 1624/1626/603/210
f 1633/1631/605/211 1634/1632/606/211 1631/1633/605/211 1632/1634/606/211
f 1641/1639/608/212 1642/1640/609/212 1639/1641/608/212 1640/1642/609/212
f 1649/1647/611/213 1650/1648/612/213 1647/1649/611/213 1648/1650/612/213
f 1667/1665/618/215 1668/1666/619/215 1665/1667/618/215 1666/1668/619/215
f 1675/1673/621/216 1676/1674/622/216 1673/1675/621/216 1674/1676/622/216
f 1687/1685/625/218 1688/1686/626/218 1685/1687/625/218 1686/1688/626/218
f 1699/1697/629/220 1700/1698/630/220 1697/1699/629/220 1698/1700/630/220
f 1723/1721/636/225 1724/1722/637/225 1721/1723/636/225 1722/1724/637/225
f 1731/1729/639/226 1732/1730/640/226 1729/1731/639/226 1730/1732/640/226
usemtl wall01_d
s off
f 1426/1425/528/186 1428/1426/529/186 1427/1427/529/186 1425/1428/528/186
f 1428/1426/529/186 1430/1429/530/186 1429/1430/530/186 1427/1427/529/186
usemtl wall01_g
s off
f 1433/1431/528/186 1434/1432/528/186 1431/1433/531/186 1432/1434/531/186
usemtl wallkn_g
s off
f 1651/1651/613/214 1652/1652/614/214 1653/1653/614/214 1654/1654/613/214
f 1652/1652/614/214 1655/1655/615/214 1656/1656/615/214 1653/1653/614/214
f 1657/1657/613/214 1658/1658/613/214 1659/1659/616/214 1660/1660/616/214
usemtl cliff01
s off
f 1173/1175/435/153 1174/1173/435/153 1175/1176/435/153 1176/1174/435/153
f 1417/1419/526/184 1418/1420/526/184 1419/1417/526/184 1420/1418/526/184
f 1421/1423/527/185 1422/1424/527/185 1423/1421/527/185 1424/1422/527/185
f 1749/1749/645/231 1750/1751/645/231 1751/1750/645/231 1752/1752/645/231
usemtl egrass
s off
f 1713/1713/634/224 1714/1714/634/224 1715/1715/634/224 1716/1716/634/224
