mtllib emptyMapTrees_00_01.mtl
o map
v -14.0 15.0 0.0
v -14.0 16.0 0.0
v -16.0 16.0 0.0
v -16.0 15.0 0.0
v 10.0 15.999999 1.0E-6
v 9.0 15.999999 1.0E-6
v 9.0 14.999999 1.0E-6
v 10.0 14.999999 1.0E-6
v 16.0 15.999999 1.0E-6
v 14.0 15.999999 1.0E-6
v 14.0 14.999999 1.0E-6
v 16.0 14.999999 1.0E-6
vt 2.0 -1.0
vt 4.0 -1.0
vt 4.0 0.0
vt 2.0 0.0
vt 13.0 15.999999
vt 12.5 15.499999
vt 12.5 15.999999
vt 13.0 15.499999
vt 16.0 15.999999
vt 15.0 15.999999
vt 15.0 15.499999
vt 16.0 15.499999
vn 0.0 -0.0 1.0
vn 0.0 0.0 1.0
vn 0.0 0.0 1.0
c 1.0 1.0 1.0
c 1.0 1.0 1.0
c 1.0 1.0 1.0
usemtl grass02
s off
f 4/1/1/1 1/2/1/1 2/3/1/1 3/4/1/1
usemtl cliff01
s off
f 5/5/2/2 6/7/2/2 7/6/2/2 8/8/2/2
f 9/9/3/3 10/10/3/3 11/11/3/3 12/12/3/3
